<svg xmlns="http://www.w3.org/2000/svg" viewBox="0 0 100 125" x="0px" y="0px"><title>Arrows</title><g data-name="Layer 2"><path d="M77.45709,31.66919A1.50986,1.50986,0,0,0,76.39648,31.23H62.33984a1.49994,1.49994,0,0,0-1.06073,2.56055L77.488,49.99976,61.27911,66.20923a1.49994,1.49994,0,0,0,1.06073,2.56055H76.39648a1.49057,1.49057,0,0,0,1.06061-.43921l17.27051-17.27a1.5,1.5,0,0,0,0-2.12134ZM75.77484,65.77h-9.814L80.67,51.06055a1.50019,1.50019,0,0,0,0-2.12134L65.96094,34.22949h9.81415L91.54565,50Z"/><path d="M32.95111,32.15576a1.50024,1.50024,0,0,0,.32507,1.63477L49.48511,49.99976,33.27618,66.20923a1.49994,1.49994,0,0,0,1.06073,2.56055H48.39355a1.4907,1.4907,0,0,0,1.06067-.43921l17.26953-17.27a1.50019,1.50019,0,0,0,0-2.12134l-17.26953-17.27A1.509,1.509,0,0,0,48.39355,31.23H34.33691A1.50014,1.50014,0,0,0,32.95111,32.15576Zm14.82105,2.07373L63.54175,50,47.77185,65.77H37.95813l14.709-14.70947a1.50019,1.50019,0,0,0,0-2.12134L37.958,34.22949Z"/><path d="M21.45129,68.33057l17.26954-17.27a1.50019,1.50019,0,0,0,0-2.12134l-17.26954-17.27A1.509,1.509,0,0,0,20.39062,31.23H6.333a1.49987,1.49987,0,0,0-1.06067,2.56055L21.48212,49.99976,5.27234,66.20923A1.49987,1.49987,0,0,0,6.333,68.76978H20.39062A1.4907,1.4907,0,0,0,21.45129,68.33057ZM9.95435,65.76978,24.66412,51.06055a1.5,1.5,0,0,0,0-2.12134L9.95428,34.22974H19.769L35.53876,50,19.76917,65.76978Z"/></g><text x="0" y="115" fill="#000000" font-size="5px" font-weight="bold" font-family="'Helvetica Neue', Helvetica, Arial-Unicode, Arial, Sans-serif">Created by Anthony Ledoux</text><text x="0" y="120" fill="#000000" font-size="5px" font-weight="bold" font-family="'Helvetica Neue', Helvetica, Arial-Unicode, Arial, Sans-serif">from the Noun Project</text></svg>