<svg width="44" height="44" viewBox="0 0 44 44" fill="none" xmlns="http://www.w3.org/2000/svg">
<g clip-path="url(#clip0)">
<path d="M30.3138 8.3985L40.7116 18.7963V40.3528C40.7116 42.3136 39.122 43.9032 37.1611 43.9032H14.8438C12.883 43.9032 11.2934 42.3136 11.2934 40.3528V11.949C11.2934 9.9881 12.883 8.3985 14.8438 8.3985H30.3138Z" fill="#F7EEDE"/>
<path d="M21.4371 32.9983C21.2616 32.9983 21.0861 32.9384 20.942 32.8152L17.3916 29.7719C17.2232 29.6273 17.1263 29.4163 17.1263 29.1942C17.1263 28.972 17.2232 28.761 17.3916 28.6165L20.942 25.5732C21.2621 25.2998 21.7414 25.3368 22.0148 25.6554C22.2882 25.9744 22.2516 26.4547 21.9326 26.7281L19.0562 29.1942L21.9331 31.6597C22.2522 31.9331 22.2887 32.4134 22.0153 32.7325C21.8646 32.908 21.6516 32.9983 21.4371 32.9983ZM30.5679 32.9983C30.7434 32.9983 30.9189 32.9384 31.0629 32.8152L34.6134 29.7719C34.7818 29.6273 34.8786 29.4163 34.8786 29.1942C34.8786 28.972 34.7818 28.761 34.6134 28.6165L31.0629 25.5732C30.7429 25.2998 30.2635 25.3368 29.9902 25.6554C29.7168 25.9744 29.7533 26.4547 30.0723 26.7281L32.9487 29.1942L30.0718 31.6597C29.7528 31.9331 29.7163 32.4134 29.9896 32.7325C30.1403 32.908 30.3533 32.9983 30.5679 32.9983ZM23.473 36.0344C23.3721 36.0344 23.2691 36.0141 23.1702 35.9715C22.7847 35.8036 22.6082 35.3558 22.7756 34.9703L28.3478 22.8013C28.5152 22.4153 28.9636 22.2408 29.349 22.4067C29.7345 22.5746 29.911 23.0224 29.7436 23.4079L24.1714 35.5764C24.0467 35.8635 23.7667 36.0344 23.473 36.0344Z" fill="#D987D9"/>
<path d="M38.4291 21.3324V22.3468M38.4291 27.4189V40.0992C38.4291 40.9396 37.7479 41.6208 36.9075 41.6208H15.0974C14.257 41.6208 13.5758 40.9396 13.5758 40.0992V12.2026C13.5758 11.3622 14.257 10.681 15.0974 10.681H21.6912L38.4291 27.4189ZM38.4291 23.8684V25.8973V23.8684Z" stroke="#1C2E4A" stroke-miterlimit="10" stroke-linecap="round" stroke-linejoin="round"/>
<path d="M30.3138 8.3985V15.2458C30.3138 17.2067 31.9033 18.7963 33.8642 18.7963H40.7116" fill="#DEAB9E"/>
<path d="M30.3138 8.3985V15.2458C30.3138 17.2067 31.9033 18.7963 33.8642 18.7963H40.7116" stroke="#1C2E4A" stroke-miterlimit="10"/>
<path d="M30.3138 8.3985L40.7116 18.7963V40.3528C40.7116 42.3136 39.122 43.9032 37.1611 43.9032H14.8438C12.883 43.9032 11.2934 42.3136 11.2934 40.3528V11.949C11.2934 9.9881 12.883 8.3985 14.8438 8.3985H30.3138Z" stroke="#1C2E4A" stroke-width="2" stroke-miterlimit="10" stroke-linejoin="round"/>
<path d="M21.4371 32.9983C21.2616 32.9983 21.0861 32.9384 20.942 32.8152L17.3916 29.7719C17.2232 29.6273 17.1263 29.4163 17.1263 29.1942C17.1263 28.972 17.2232 28.761 17.3916 28.6165L20.942 25.5732C21.2621 25.2998 21.7414 25.3368 22.0148 25.6554C22.2882 25.9744 22.2516 26.4547 21.9326 26.7281L19.0562 29.1942L21.9331 31.6597C22.2522 31.9331 22.2887 32.4134 22.0153 32.7325C21.8646 32.908 21.6516 32.9983 21.4371 32.9983ZM30.5679 32.9983C30.7434 32.9983 30.9189 32.9384 31.0629 32.8152L34.6134 29.7719C34.7818 29.6273 34.8786 29.4163 34.8786 29.1942C34.8786 28.972 34.7818 28.761 34.6134 28.6165L31.0629 25.5732C30.7429 25.2998 30.2635 25.3368 29.9902 25.6554C29.7168 25.9744 29.7533 26.4547 30.0723 26.7281L32.9487 29.1942L30.0718 31.6597C29.7528 31.9331 29.7163 32.4134 29.9896 32.7325C30.1403 32.908 30.3533 32.9983 30.5679 32.9983ZM23.473 36.0344C23.3721 36.0344 23.2691 36.0141 23.1702 35.9715C22.7847 35.8036 22.6082 35.3558 22.7756 34.9703L28.3478 22.8013C28.5152 22.4153 28.9636 22.2408 29.349 22.4067C29.7345 22.5746 29.911 23.0224 29.7436 23.4079L24.1714 35.5764C24.0467 35.8635 23.7667 36.0344 23.473 36.0344Z" stroke="#111633" stroke-miterlimit="10" stroke-linejoin="round"/>
</g>
<defs>
<clipPath id="clip0">
<rect width="43.1129" height="43.1129" fill="white" transform="translate(0.641937 0.790344)"/>
</clipPath>
</defs>
</svg>
