<?xml version="1.0" encoding="iso-8859-1" ?>
<svg version="1.1" xmlns="http://www.w3.org/2000/svg" xmlns:xlink="http://www.w3.org/1999/xlink" 
    viewBox="0 0 1200 800" width="1200" height="800">
    
    
    <!-- ITEM 0 -->
    <g>
        <defs>
            <clipPath id="clip-path-id-viewbox-item-0">
                <rect x="0.0" y="0.0" width="2069.297" height="2220.363"/>
            </clipPath>
        </defs>
        <g transform="translate(339.0 120.0) rotate(0.0 260.5 280.0) scale(0.2517763279026645 0.2522110123434772)">
            <g clip-path="url(#clip-path-id-viewbox-item-0)" transform="translate(-0.0 -0.0)">
                
<g>
	<path style="fill:#7b5b92;" d="M2064.895,1702.408c2.44,64.65-19.08,131.11-65.99,176.85c-68.26,66.53-169.88,85.58-265.19,86.24   c-199.91,1.4-400.42-63.6-597.18-28.26c-120.61,21.67-231.13,79.76-339.41,137.15c-108.27,57.39-218.68,115.62-339.24,137.62   c-120.55,22-255.1,2.36-345.35-80.54c-86.54-79.49-118.96-204.88-111.5-322.16c7.45-117.28,49.79-229.19,92.84-338.54   c43.05-109.34,87.73-219.95,100.27-336.79c19.38-180.6-36.15-378.99,56.3-535.33c71.14-120.29,210.39-179.33,340.36-230.69   c225.04-88.93,450.08-177.86,675.12-266.79c104.52-41.31,210.44-82.98,321.98-96.74c111.55-13.77,231.19,3.22,321.48,70.14   c136.6,101.24,175.61,292.42,154.57,461.14c-13.2,105.82-45.35,207.68-76.94,309.79c-18.77,60.71-37.34,121.5-51.6,183.26   c-38.78,167.96-33.35,333.7,50.45,486.97c33.31,60.91,73.54,105.56,78.59,178.53   C2064.645,1696.968,2064.785,1699.688,2064.895,1702.408z"></path>
	<g>
		
			<ellipse transform="matrix(0.848 -0.53 0.53 0.848 -518.4936 421.3046)" style="fill:#d987d9;" cx="475.236" cy="1114.57" rx="14.826" ry="14.826"></ellipse>
		
			<ellipse transform="matrix(0.848 -0.53 0.53 0.848 -352.5736 699.1193)" style="fill:#deab9e;" cx="1042.525" cy="964.22" rx="14.826" ry="14.826"></ellipse>
		
			<ellipse transform="matrix(0.848 -0.53 0.53 0.848 -965.3496 666.7964)" style="fill:#deab9e;" cx="679.787" cy="2016.343" rx="14.826" ry="14.826"></ellipse>
		
			<ellipse transform="matrix(0.848 -0.53 0.53 0.848 -974.9033 416.1074)" style="fill:#deab9e;" cx="237.97" cy="1907.654" rx="14.826" ry="14.826"></ellipse>
		
			<ellipse transform="matrix(0.848 -0.53 0.53 0.848 46.6769 904.5294)" style="fill:#deab9e;" cx="1600.252" cy="370.89" rx="14.826" ry="14.826"></ellipse>
		
			<ellipse transform="matrix(0.848 -0.53 0.53 0.848 -453.7709 501.4569)" style="fill:#deab9e;" cx="647.331" cy="1041.811" rx="14.826" ry="14.826"></ellipse>
		
			<ellipse transform="matrix(0.848 -0.53 0.53 0.848 -553.5428 857.8896)" style="fill:#deab9e;" cx="1218.833" cy="1393.965" rx="14.826" ry="14.826"></ellipse>
		
			<ellipse transform="matrix(0.848 -0.53 0.53 0.848 -729.1393 850.4037)" style="fill:#deab9e;" cx="1117.984" cy="1696.349" rx="14.826" ry="14.826"></ellipse>
		
			<ellipse transform="matrix(0.848 -0.53 0.53 0.848 -419.1561 365.4353)" style="fill:#deab9e;" cx="427.505" cy="913.455" rx="14.826" ry="14.826"></ellipse>
		
			<ellipse transform="matrix(0.848 -0.53 0.53 0.848 -289.6906 287.4667)" style="fill:#d987d9;" cx="356.311" cy="648.766" rx="14.826" ry="14.826"></ellipse>
		
			<ellipse transform="matrix(0.848 -0.53 0.53 0.848 -127.3647 532.1221)" style="fill:#deab9e;" cx="863.994" cy="488.103" rx="14.826" ry="14.826"></ellipse>
		
			<ellipse transform="matrix(0.848 -0.53 0.53 0.848 16.5877 584.7372)" style="fill:#deab9e;" cx="1027.697" cy="263.45" rx="14.826" ry="14.826"></ellipse>
		
			<ellipse transform="matrix(0.848 -0.53 0.53 0.848 -346.0736 508.2199)" style="fill:#deab9e;" cx="712.97" cy="857.438" rx="9.87" ry="9.87"></ellipse>
		
			<ellipse transform="matrix(0.848 -0.53 0.53 0.848 -444.0685 458.9764)" style="fill:#d987d9;" cx="578.124" cy="1003.656" rx="9.87" ry="9.87"></ellipse>
		
			<ellipse transform="matrix(0.848 -0.53 0.53 0.848 -239.3022 464.2258)" style="fill:#d987d9;" cx="689.658" cy="649.301" rx="9.87" ry="9.87"></ellipse>
		
			<ellipse transform="matrix(0.848 -0.53 0.53 0.848 48.4318 618.5635)" style="fill:#d987d9;" cx="1102.59" cy="224.848" rx="9.87" ry="9.87"></ellipse>
		
			<ellipse transform="matrix(0.848 -0.53 0.53 0.848 -343.8095 386.9809)" style="fill:#d987d9;" cx="502.74" cy="792.872" rx="9.87" ry="9.87"></ellipse>
		
			<ellipse transform="matrix(0.848 -0.53 0.53 0.848 -505.9156 596.889)" style="fill:#d987d9;" cx="787.63" cy="1180.434" rx="9.87" ry="9.87"></ellipse>
		
			<ellipse transform="matrix(0.848 -0.53 0.53 0.848 -382.1163 354.8121)" style="fill:#deab9e;" cx="427.505" cy="843.57" rx="9.87" ry="9.87"></ellipse>
		
			<ellipse transform="matrix(0.848 -0.53 0.53 0.848 -244.4146 1046.5826)" style="fill:#deab9e;" cx="1702.356" cy="949.392" rx="9.87" ry="9.87"></ellipse>
		
			<ellipse transform="matrix(0.848 -0.53 0.53 0.848 -230.2285 740.4054)" style="fill:#deab9e;" cx="1175.674" cy="771.572" rx="9.87" ry="9.87"></ellipse>
		
			<ellipse transform="matrix(0.848 -0.53 0.53 0.848 -685.8105 313.9347)" style="fill:#deab9e;" cx="204.394" cy="1352.577" rx="9.87" ry="9.87"></ellipse>
		
			<ellipse transform="matrix(0.848 -0.53 0.53 0.848 23.2085 1033.1997)" style="fill:#deab9e;" cx="1812.836" cy="476.139" rx="9.87" ry="9.87"></ellipse>
		
			<ellipse transform="matrix(0.848 -0.53 0.53 0.848 74.389 859.7496)" style="fill:#deab9e;" cx="1536.041" cy="300.188" rx="9.87" ry="9.87"></ellipse>
		
			<ellipse transform="matrix(0.848 -0.53 0.53 0.848 159.9692 967.9747)" style="fill:#deab9e;" cx="1767.506" cy="205.105" rx="9.87" ry="9.87"></ellipse>
		
			<ellipse transform="matrix(0.848 -0.53 0.53 0.848 -482.0388 306.8418)" style="fill:#deab9e;" cx="293.914" cy="993.785" rx="9.87" ry="9.87"></ellipse>
		
			<ellipse transform="matrix(0.848 -0.53 0.53 0.848 -191.9031 444.9691)" style="fill:#deab9e;" cx="679.787" cy="557.039" rx="9.87" ry="9.87"></ellipse>
		
			<ellipse transform="matrix(0.3923 -0.9198 0.9198 0.3923 -972.2908 1778.9227)" style="fill:#d987d9;" cx="860.227" cy="1625.337" rx="14.826" ry="14.826"></ellipse>
		
			<ellipse transform="matrix(0.3923 -0.9198 0.9198 0.3923 905.2372 1664.2839)" style="fill:#d987d9;" cx="1712.227" cy="147.016" rx="14.826" ry="14.826"></ellipse>
		
			<ellipse transform="matrix(0.3923 -0.9198 0.9198 0.3923 98.2543 2232.3496)" style="fill:#d987d9;" cx="1738.675" cy="1041.811" rx="14.826" ry="14.826"></ellipse>
		
			<ellipse transform="matrix(0.3923 -0.9198 0.9198 0.3923 -723.8088 2618.2122)" style="fill:#deab9e;" cx="1619.682" cy="1856.919" rx="14.826" ry="14.826"></ellipse>
		
			<ellipse transform="matrix(0.3923 -0.9198 0.9198 0.3923 -839.2259 1676.401)" style="fill:#deab9e;" cx="849.167" cy="1473.366" rx="14.826" ry="14.826"></ellipse>
		
			<ellipse transform="matrix(0.3923 -0.9198 0.9198 0.3923 -1025.4982 991.9036)" style="fill:#deab9e;" cx="237.97" cy="1272.097" rx="14.826" ry="14.826"></ellipse>
		
			<ellipse transform="matrix(0.3923 -0.9198 0.9198 0.3923 -142.7579 1948.2944)" style="fill:#deab9e;" cx="1403.182" cy="1082.193" rx="14.826" ry="14.826"></ellipse>
		
			<ellipse transform="matrix(0.3923 -0.9198 0.9198 0.3923 37.154 1472.2081)" style="fill:#deab9e;" cx="1132.814" cy="707.984" rx="14.826" ry="14.826"></ellipse>
		
			<ellipse transform="matrix(0.3923 -0.9198 0.9198 0.3923 -304.5691 2285.1816)" style="fill:#d987d9;" cx="1577.249" cy="1373.103" rx="14.826" ry="14.826"></ellipse>
		
			<ellipse transform="matrix(0.3923 -0.9198 0.9198 0.3923 450.8847 1312.5377)" style="fill:#d987d9;" cx="1218.833" cy="315.018" rx="14.826" ry="14.826"></ellipse>
		
			<ellipse transform="matrix(0.3923 -0.9198 0.9198 0.3923 -1052.5759 1279.8119)" style="fill:#d987d9;" cx="442.334" cy="1436.545" rx="14.826" ry="14.826"></ellipse>
		
			<ellipse transform="matrix(0.3923 -0.9198 0.9198 0.3923 456.8604 2238.1528)" style="fill:#d987d9;" cx="1922.37" cy="773.303" rx="14.826" ry="14.826"></ellipse>
		
			<ellipse transform="matrix(0.3923 -0.9198 0.9198 0.3923 -281.7791 2719.575)" style="fill:#deab9e;" cx="1917.413" cy="1573.051" rx="14.826" ry="14.826"></ellipse>
		
			<ellipse transform="matrix(0.3923 -0.9198 0.9198 0.3923 408.5589 1897.2921)" style="fill:#deab9e;" cx="1640.24" cy="639.429" rx="14.826" ry="14.826"></ellipse>
		
			<ellipse transform="matrix(0.3923 -0.9198 0.9198 0.3923 -663.4748 2565.7261)" style="fill:#deab9e;" cx="1610.125" cy="1785.012" rx="9.87" ry="9.87"></ellipse>
		
			<ellipse transform="matrix(0.3923 -0.9198 0.9198 0.3923 -758.4326 2368.0757)" style="fill:#d987d9;" cx="1413.055" cy="1758.056" rx="9.87" ry="9.87"></ellipse>
		
			<ellipse transform="matrix(0.3923 -0.9198 0.9198 0.3923 -1098.5474 2122.7878)" style="fill:#d987d9;" cx="1057.353" cy="1892.827" rx="9.87" ry="9.87"></ellipse>
		
			<ellipse transform="matrix(0.3923 -0.9198 0.9198 0.3923 -755.1351 1674.5421)" style="fill:#d987d9;" cx="889.805" cy="1408.793" rx="9.87" ry="9.87"></ellipse>
		
			<ellipse transform="matrix(0.3923 -0.9198 0.9198 0.3923 -440.7311 2626.5164)" style="fill:#d987d9;" cx="1767.506" cy="1646.824" rx="9.87" ry="9.87"></ellipse>
		
			<ellipse transform="matrix(0.3923 -0.9198 0.9198 0.3923 -1326.8507 1848.9904)" style="fill:#d987d9;" cx="735.978" cy="1928.719" rx="9.87" ry="9.87"></ellipse>
		
			<ellipse transform="matrix(0.3923 -0.9198 0.9198 0.3923 -509.0193 2122.3364)" style="fill:#d987d9;" cx="1351.775" cy="1446.418" rx="9.87" ry="9.87"></ellipse>
		
			<ellipse transform="matrix(0.3923 -0.9198 0.9198 0.3923 -1513.6782 1375.286)" style="fill:#d987d9;" cx="284.042" cy="1833.266" rx="9.87" ry="9.87"></ellipse>
		
			<ellipse transform="matrix(0.3923 -0.9198 0.9198 0.3923 126.257 1469.9731)" style="fill:#d987d9;" cx="1175.674" cy="639.429" rx="9.87" ry="9.87"></ellipse>
		
			<ellipse transform="matrix(0.3923 -0.9198 0.9198 0.3923 -1180.71 1142.2705)" style="fill:#d987d9;" cx="274.169" cy="1464.752" rx="9.87" ry="9.87"></ellipse>
		
			<ellipse transform="matrix(0.3923 -0.9198 0.9198 0.3923 86.4584 1647.7135)" style="fill:#d987d9;" cx="1290.297" cy="758.421" rx="9.87" ry="9.87"></ellipse>
		
			<ellipse transform="matrix(0.3923 -0.9198 0.9198 0.3923 -415.8554 2359.0669)" style="fill:#deab9e;" cx="1577.526" cy="1494.272" rx="9.87" ry="9.87"></ellipse>
		
			<ellipse transform="matrix(0.3923 -0.9198 0.9198 0.3923 -1020.2338 2169.5154)" style="fill:#deab9e;" cx="1131.875" cy="1856.919" rx="9.87" ry="9.87"></ellipse>
		
			<ellipse transform="matrix(0.3923 -0.9198 0.9198 0.3923 -1503.941 1162.8966)" style="fill:#deab9e;" cx="128.165" cy="1719.702" rx="9.87" ry="9.87"></ellipse>
		
			<ellipse transform="matrix(0.3923 -0.9198 0.9198 0.3923 -368.5478 2796.4915)" style="fill:#deab9e;" cx="1932.243" cy="1677.18" rx="9.87" ry="9.87"></ellipse>
		
			<ellipse transform="matrix(0.3923 -0.9198 0.9198 0.3923 -1738.9255 1576.2996)" style="fill:#deab9e;" cx="323.555" cy="2104.251" rx="9.87" ry="9.87"></ellipse>
	</g>
</g>

            </g>
        </g>
    </g>
    
</svg>