<?xml version="1.0" encoding="UTF-8"?>
<svg xmlns="http://www.w3.org/2000/svg" xmlns:xlink="http://www.w3.org/1999/xlink" viewBox="0 0 200 200" width="200px" height="200px">
<g id="surface42111246">
<path style=" stroke:none;fill-rule:nonzero;fill:rgb(100%,100%,100%);fill-opacity:1;" d="M 100 30 C 61.363281 30 30 61.363281 30 100 C 30 138.636719 61.363281 170 100 170 C 138.636719 170 170 138.636719 170 100 C 170 61.363281 138.636719 30 100 30 Z M 100 34 C 136.472656 34 166 63.527344 166 100 C 166 136.472656 136.472656 166 100 166 C 63.527344 166 34 136.472656 34 100 C 34 63.527344 63.527344 34 100 34 Z M 100 42 C 67.980469 42 42 67.980469 42 100 C 42 132.019531 67.980469 158 100 158 C 112.515625 158 124.113281 154.03125 133.59375 147.285156 C 133.890625 147.082031 134.058594 146.730469 134.027344 146.371094 C 133.992188 146.011719 133.769531 145.695312 133.4375 145.546875 C 133.109375 145.398438 132.722656 145.441406 132.433594 145.65625 C 128.050781 148.777344 123.191406 151.257812 118 153.019531 L 118 135.308594 C 118 130.726562 115.75 126.664062 112.394531 124 L 113.898438 124 C 128.25 124 139.910156 112.433594 139.910156 98.078125 C 139.910156 91.359375 137.269531 85.296875 133.082031 80.683594 C 133.835938 76.140625 133.742188 70.074219 131.945312 64.683594 C 131.808594 64.273438 131.425781 64 130.996094 64 C 121.816406 64 114.757812 70.59375 113.265625 72 L 88.332031 72 C 86.941406 70.671875 80.179688 64 71 64 C 70.570312 64 70.1875 64.273438 70.050781 64.683594 C 68.457031 69.46875 67.90625 74.9375 68.320312 79.199219 C 63.289062 83.9375 60.09375 90.621094 60.09375 98.078125 C 60.09375 112.433594 71.753906 123.996094 86.105469 123.996094 L 88.09375 123.996094 C 85.378906 125.964844 83.246094 128.585938 82.425781 131.9375 C 80.574219 131.917969 78.488281 131.855469 76.558594 131.355469 C 74.441406 130.808594 72.609375 129.839844 71.46875 128.128906 C 68.96875 124.378906 67.109375 122.421875 65.421875 121.375 C 63.734375 120.328125 62.230469 120.300781 61 120.300781 C 60.21875 120.300781 59.496094 120.5 58.949219 120.953125 C 58.402344 121.40625 58.09375 122.097656 58.054688 122.785156 C 57.980469 124.164062 58.738281 125.570312 60.09375 126.929688 C 62.554688 129.390625 62.363281 129.128906 64.824219 134.050781 C 66.976562 138.363281 72.46875 141.667969 82 141.910156 L 82 153.027344 C 59.902344 145.53125 44 124.640625 44 100 C 44 69.058594 69.058594 44 100 44 C 130.941406 44 156 69.058594 156 100 C 156 105.769531 155.128906 111.339844 153.507812 116.574219 C 153.390625 116.917969 153.46875 117.300781 153.710938 117.570312 C 153.957031 117.84375 154.332031 117.957031 154.6875 117.871094 C 155.042969 117.789062 155.320312 117.515625 155.417969 117.164062 C 157.097656 111.738281 158 105.972656 158 100 C 158 67.980469 132.019531 42 100 42 Z M 71.773438 66.136719 C 79.8125 66.535156 86.066406 72.570312 87.304688 73.730469 C 87.488281 73.902344 87.734375 74 87.988281 74 L 113.59375 74 C 113.847656 74 114.09375 73.902344 114.277344 73.726562 C 115.425781 72.648438 122.132812 66.550781 130.199219 66.140625 C 131.664062 71.085938 131.8125 76.738281 131.089844 80.753906 C 131.035156 81.066406 131.128906 81.386719 131.347656 81.617188 C 135.410156 85.917969 137.910156 91.699219 137.910156 98.078125 C 137.910156 111.355469 127.179688 122 113.898438 122 L 109 122 C 108.527344 122 108.121094 122.324219 108.019531 122.785156 C 107.917969 123.246094 108.152344 123.714844 108.582031 123.910156 C 112.875 125.878906 116 130.285156 116 135.308594 L 116 153.644531 C 110.925781 155.15625 105.566406 156 100 156 C 94.4375 156 89.070312 155.179688 84 153.671875 L 84 141 C 84 140.449219 83.550781 140 83 140 C 73.222656 140 68.425781 136.789062 66.613281 133.15625 C 64.152344 128.234375 63.96875 127.976562 61.507812 125.515625 C 60.40625 124.414062 60.03125 123.363281 60.054688 122.894531 C 60.066406 122.660156 60.117188 122.582031 60.222656 122.496094 C 60.328125 122.410156 60.550781 122.300781 61 122.300781 C 62.230469 122.300781 63.082031 122.277344 64.367188 123.074219 C 65.652344 123.871094 67.382812 125.605469 69.804688 129.238281 C 71.300781 131.480469 73.648438 132.667969 76.054688 133.289062 C 78.460938 133.910156 80.96875 133.996094 83 133.996094 C 83.488281 133.996094 83.90625 133.644531 83.988281 133.160156 C 84.65625 129.054688 87.683594 125.613281 91.417969 123.90625 C 91.847656 123.710938 92.082031 123.242188 91.980469 122.78125 C 91.878906 122.320312 91.472656 121.996094 91 121.996094 L 86.105469 121.996094 C 72.824219 121.996094 62.09375 111.355469 62.09375 98.078125 C 62.09375 91.027344 65.144531 84.722656 69.980469 80.332031 C 70.21875 80.113281 70.339844 79.792969 70.300781 79.472656 C 69.867188 75.765625 70.417969 70.613281 71.773438 66.136719 Z M 72.34375 83.949219 C 72.085938 83.960938 71.839844 84.074219 71.664062 84.265625 C 69.878906 86.117188 68.492188 88.246094 67.550781 90.5625 C 67.402344 90.894531 67.449219 91.285156 67.667969 91.574219 C 67.890625 91.863281 68.25 92.011719 68.613281 91.957031 C 68.972656 91.90625 69.277344 91.660156 69.402344 91.316406 C 70.246094 89.238281 71.492188 87.324219 73.105469 85.652344 C 73.398438 85.359375 73.476562 84.917969 73.308594 84.539062 C 73.140625 84.164062 72.757812 83.929688 72.34375 83.949219 Z M 67.269531 94.042969 C 66.796875 94.070312 66.40625 94.429688 66.339844 94.898438 C 66.175781 95.941406 66.09375 97.003906 66.09375 98.078125 C 66.09375 99.136719 66.175781 100.179688 66.335938 101.195312 C 66.375 101.5625 66.613281 101.878906 66.957031 102.019531 C 67.296875 102.160156 67.691406 102.097656 67.972656 101.859375 C 68.257812 101.621094 68.386719 101.246094 68.308594 100.882812 C 68.164062 99.972656 68.09375 99.03125 68.09375 98.078125 C 68.09375 97.105469 68.167969 96.148438 68.316406 95.210938 C 68.367188 94.910156 68.28125 94.601562 68.074219 94.375 C 67.871094 94.144531 67.574219 94.023438 67.269531 94.042969 Z M 68.390625 103.960938 C 68.054688 103.957031 67.738281 104.121094 67.550781 104.398438 C 67.363281 104.675781 67.324219 105.03125 67.453125 105.339844 C 69.972656 111.792969 75.746094 116.621094 82.746094 117.8125 C 83.109375 117.894531 83.488281 117.773438 83.730469 117.492188 C 83.972656 117.207031 84.039062 116.816406 83.902344 116.46875 C 83.765625 116.125 83.449219 115.882812 83.078125 115.84375 C 76.78125 114.773438 71.582031 110.417969 69.316406 104.613281 C 69.171875 104.226562 68.804688 103.964844 68.390625 103.960938 Z M 153.019531 119.871094 C 152.621094 119.886719 152.265625 120.140625 152.125 120.515625 C 150.148438 125.535156 147.464844 130.199219 144.199219 134.390625 C 143.859375 134.828125 143.9375 135.457031 144.371094 135.796875 C 144.808594 136.132812 145.4375 136.058594 145.777344 135.621094 C 149.160156 131.28125 151.9375 126.449219 153.984375 121.25 C 154.113281 120.933594 154.074219 120.574219 153.878906 120.296875 C 153.683594 120.019531 153.359375 119.859375 153.019531 119.871094 Z M 141.527344 137.976562 C 141.269531 137.992188 141.027344 138.113281 140.851562 138.304688 C 139.507812 139.734375 138.089844 141.09375 136.605469 142.378906 C 136.324219 142.609375 136.191406 142.976562 136.253906 143.332031 C 136.320312 143.691406 136.574219 143.984375 136.921875 144.101562 C 137.265625 144.21875 137.644531 144.136719 137.914062 143.890625 C 139.453125 142.558594 140.917969 141.152344 142.308594 139.671875 C 142.582031 139.386719 142.664062 138.96875 142.519531 138.605469 C 142.371094 138.238281 142.023438 137.992188 141.628906 137.976562 C 141.59375 137.976562 141.5625 137.976562 141.527344 137.976562 Z M 141.527344 137.976562 "/>
</g>
</svg>
