<?xml version="1.0" encoding="UTF-8"?>
<svg xmlns="http://www.w3.org/2000/svg" xmlns:xlink="http://www.w3.org/1999/xlink" viewBox="0 0 100 100" width="100px" height="100px">
<g id="surface6552167">
<path style=" stroke:none;fill-rule:nonzero;fill:#e3ce63;fill-opacity:1;" d="M 28 11 C 23.582031 11 20 14.582031 20 19 L 20 82 C 20 86.417969 23.582031 90 28 90 L 72 90 C 76.417969 90 80 86.417969 80 82 L 80 30 L 61 11 Z M 28 11 "/>
<path style=" stroke:none;fill-rule:nonzero;fill:#F7EEDE;fill-opacity:1;" d="M 80.5 30.5 L 69 30.5 C 64.304688 30.5 60.5 26.695312 60.5 22 L 60.5 10.5 Z M 80.5 30.5 "/>
<path style=" stroke:#111633;fill-rule:nonzero;fill:#111633;fill-opacity:1;" d="M 80.5 31 L 69 31 C 64.035156 31 60 26.960938 60 22 L 60 10.5 C 60 10.296875 60.121094 10.113281 60.308594 10.039062 C 60.496094 9.960938 60.710938 10.003906 60.855469 10.144531 L 80.855469 30.144531 C 80.996094 30.289062 81.039062 30.503906 80.960938 30.691406 C 80.882812 30.878906 80.703125 31 80.5 31 Z M 61 11.707031 L 61 22 C 61 26.410156 64.589844 30 69 30 L 79.292969 30 Z M 61 11.707031 "/>
<path style=" stroke:none;fill-rule:nonzero;fill:#111633;fill-opacity:1;" d="M 67.5 85 L 32.5 85 C 28.363281 85 25 81.636719 25 77.5 L 25 23.5 C 25 21.054688 26.199219 18.753906 28.214844 17.351562 C 28.4375 17.195312 28.75 17.246094 28.910156 17.472656 C 29.066406 17.699219 29.011719 18.011719 28.785156 18.171875 C 27.042969 19.386719 26 21.378906 26 23.5 L 26 77.5 C 26 81.085938 28.914062 84 32.5 84 L 67.5 84 C 71.085938 84 74 81.085938 74 77.5 L 74 60.5 C 74 60.222656 74.222656 60 74.5 60 C 74.777344 60 75 60.222656 75 60.5 L 75 77.5 C 75 81.636719 71.636719 85 67.5 85 Z M 67.5 85 "/>
<path style=" stroke:none;fill-rule:nonzero;fill:rgb(12.156863%,12.941177%,16.862746%);fill-opacity:1;" d="M 74.5 59 C 74.222656 59 74 58.777344 74 58.5 L 74 51.5 C 74 51.222656 74.222656 51 74.5 51 C 74.777344 51 75 51.222656 75 51.5 L 75 58.5 C 75 58.777344 74.777344 59 74.5 59 Z M 74.5 59 "/>
<path style=" stroke:none;fill-rule:nonzero;fill:rgb(12.156863%,12.941177%,16.862746%);fill-opacity:1;" d="M 74.5 50 C 74.222656 50 74 49.777344 74 49.5 L 74 46.5 C 74 46.222656 74.222656 46 74.5 46 C 74.777344 46 75 46.222656 75 46.5 L 75 49.5 C 75 49.777344 74.777344 50 74.5 50 Z M 74.5 50 "/>
<path style=" stroke:none;fill-rule:nonzero;fill:rgb(12.156863%,12.941177%,16.862746%);fill-opacity:1;" d="M 79 30.5 L 79 82 C 79 85.859375 75.859375 89 72 89 L 28 89 C 24.140625 89 21 85.859375 21 82 L 21 19 C 21 15.140625 24.140625 12 28 12 L 60.5 12 L 60.5 10 L 28 10 C 23.035156 10 19 14.039062 19 19 L 19 82 C 19 86.960938 23.035156 91 28 91 L 72 91 C 76.964844 91 81 86.960938 81 82 L 81 30.5 Z M 79 30.5 "/>
<path style=" stroke:#111633;fill-rule:nonzero;fill:#F7EEDE;fill-opacity:1;" d="M 31 58.300781 C 31 57.765625 31.226562 57.339844 31.679688 57.03125 L 39.820312 51.695312 C 39.925781 51.613281 40.078125 51.570312 40.285156 51.570312 C 40.636719 51.570312 40.972656 51.726562 41.292969 52.035156 C 41.613281 52.347656 41.773438 52.707031 41.773438 53.121094 C 41.773438 53.515625 41.617188 53.8125 41.304688 54.019531 L 34.777344 58.300781 L 41.304688 62.578125 C 41.613281 62.746094 41.773438 63.046875 41.773438 63.480469 C 41.773438 63.894531 41.613281 64.25 41.292969 64.550781 C 40.972656 64.851562 40.636719 65 40.285156 65 C 40.078125 65 39.925781 64.960938 39.820312 64.875 L 31.679688 59.539062 C 31.226562 59.230469 31 58.816406 31 58.300781 Z M 31 58.300781 "/>
<path style=" stroke:#111633;fill-rule:nonzero;fill:#F7EEDE;fill-opacity:1;" d="M 43.660156 66.851562 C 43.660156 66.683594 43.691406 66.53125 43.753906 66.386719 L 55.144531 43.558594 C 55.308594 43.1875 55.617188 43 56.070312 43 C 56.402344 43 56.699219 43.113281 56.96875 43.34375 C 57.238281 43.570312 57.371094 43.847656 57.371094 44.179688 C 57.371094 44.367188 57.328125 44.53125 57.246094 44.679688 L 45.886719 67.410156 C 45.703125 67.804688 45.363281 68 44.867188 68 C 44.515625 68 44.226562 67.878906 44 67.644531 C 43.773438 67.40625 43.660156 67.140625 43.660156 66.851562 Z M 43.660156 66.851562 "/>
<path style=" stroke:#111633;fill-rule:nonzero;fill:#F7EEDE;fill-opacity:1;" d="M 59.738281 64.550781 C 59.417969 64.25 59.257812 63.894531 59.257812 63.480469 C 59.257812 63.066406 59.402344 62.765625 59.691406 62.578125 L 66.222656 58.300781 L 59.691406 54.019531 C 59.402344 53.792969 59.257812 53.492188 59.257812 53.121094 C 59.257812 52.707031 59.417969 52.347656 59.738281 52.035156 C 60.058594 51.726562 60.394531 51.570312 60.746094 51.570312 C 60.929688 51.570312 61.074219 51.613281 61.179688 51.695312 L 69.320312 57.03125 C 69.773438 57.339844 70 57.765625 70 58.300781 C 70 58.839844 69.773438 59.253906 69.320312 59.539062 L 61.179688 64.875 C 61.074219 64.960938 60.929688 65 60.746094 65 C 60.394531 65 60.058594 64.851562 59.738281 64.550781 Z M 59.738281 64.550781 "/>
</g>
</svg>
