<?xml version="1.0" encoding="UTF-8"?>
<svg xmlns="http://www.w3.org/2000/svg" xmlns:xlink="http://www.w3.org/1999/xlink" viewBox="0 0 100 100" width="100px" height="100px">
<g id="surface42182073">
<path style="fill-rule:nonzero;fill:rgb(100%,100%,100%);fill-opacity:1;stroke-width:10;stroke-linecap:butt;stroke-linejoin:round;stroke:rgb(100%,100%,100%);stroke-opacity:1;stroke-miterlimit:10;" d="M 171.653369 80.151409 C 171.653369 122.254151 133.088314 156.51835 85.650514 156.51835 C 79.309782 156.51835 73.218686 155.890696 67.091928 154.613991 C 56.314824 159.314263 31.843452 169.085694 14.818339 169.085694 C 9.704386 169.085694 5.539046 168.172743 2.407909 166.382502 L 1.166866 165.669259 L 0.803112 164.285568 C -0.323812 160.070301 3.456376 157.081812 8.670183 152.959267 C 14.354731 148.458703 22.000697 142.396136 24.982054 133.594716 C 8.855627 119.180073 -0.00285288 100.150746 -0.00285288 79.80192 C -0.00285288 37.706311 38.576468 3.442111 86.000003 3.442111 C 133.230962 3.442111 171.653369 37.856092 171.653369 80.151409 Z M 91.50624 70.522627 C 91.50624 69.488424 90.821526 69.146068 90.122548 69.146068 L 82.226947 69.146068 C 81.192744 69.146068 80.843255 69.837914 80.843255 70.522627 L 80.843255 116.626662 C 80.843255 117.6466 81.527968 117.996089 82.226947 117.996089 L 82.226947 118.331313 L 90.122548 118.331313 C 91.15675 118.331313 91.50624 117.6466 91.50624 116.961887 Z M 91.50624 45.402204 C 91.50624 44.368002 90.821526 44.032777 90.122548 44.032777 L 81.877457 44.032777 C 80.843255 44.032777 80.500898 44.717491 80.500898 45.402204 L 80.500898 54.353405 C 80.500898 55.387608 81.192744 55.722832 81.877457 55.722832 L 90.122548 55.722832 C 91.15675 55.722832 91.50624 55.038119 91.50624 54.353405 Z M 91.50624 45.402204 " transform="matrix(0.547674,0,0,0.547674,2.9,2.9)"/>
<path style=" stroke:none;fill-rule:nonzero;fill:rgb(100%,100%,100%);fill-opacity:1;" d="M 50 4.785156 C 24.027344 4.785156 2.898438 23.550781 2.898438 46.605469 C 2.898438 57.75 7.75 68.171875 16.582031 76.066406 C 14.949219 80.886719 10.761719 84.207031 7.648438 86.671875 C 4.792969 88.929688 2.722656 90.566406 3.339844 92.875 L 3.539062 93.632812 L 4.21875 94.023438 C 5.933594 95.003906 8.214844 95.503906 11.015625 95.503906 C 20.339844 95.503906 33.742188 90.152344 39.644531 87.578125 C 43 88.277344 46.335938 88.621094 49.808594 88.621094 C 75.789062 88.621094 96.910156 69.855469 96.910156 46.796875 C 96.910156 23.632812 75.867188 4.785156 50 4.785156 Z M 53.015625 66.957031 C 53.015625 67.332031 52.824219 67.707031 52.257812 67.707031 L 47.933594 67.707031 L 47.933594 67.523438 C 47.550781 67.523438 47.175781 67.332031 47.175781 66.773438 L 47.175781 41.523438 C 47.175781 41.148438 47.367188 40.769531 47.933594 40.769531 L 52.257812 40.769531 C 52.640625 40.769531 53.015625 40.957031 53.015625 41.523438 Z M 53.015625 32.667969 C 53.015625 33.042969 52.824219 33.417969 52.257812 33.417969 L 47.742188 33.417969 C 47.367188 33.417969 46.988281 33.234375 46.988281 32.667969 L 46.988281 27.765625 C 46.988281 27.390625 47.175781 27.015625 47.742188 27.015625 L 52.257812 27.015625 C 52.640625 27.015625 53.015625 27.199219 53.015625 27.765625 Z M 53.015625 32.667969 "/>
</g>
</svg>
