<?xml version="1.0" encoding="UTF-8"?>
<svg xmlns="http://www.w3.org/2000/svg" xmlns:xlink="http://www.w3.org/1999/xlink" viewBox="0 0 50 50" width="50px" height="50px">
<g id="surface58544115">
<path style="fill-rule:nonzero;fill:rgb(100%,100%,100%);fill-opacity:1;stroke-width:10;stroke-linecap:butt;stroke-linejoin:round;stroke:rgb(100%,100%,100%);stroke-opacity:1;stroke-miterlimit:10;" d="M 123.838295 113.514882 C 123.909392 123.070437 121.150795 130.549935 113.514882 130.72057 C 106.262898 130.876985 103.205689 122.060847 103.205689 113.514882 C 103.205689 104.968916 107.343585 99.764551 113.514882 99.764551 C 119.686178 99.764551 123.781416 104.968916 123.838295 113.514882 Z M 165.117726 91.986442 C 165.117726 153.798943 113.841932 154.780094 100.902117 154.780094 C 97.987104 154.780094 92.157077 154.780094 86.000001 154.794313 C 79.842924 154.780094 74.027117 154.780094 71.097884 154.780094 C 58.158069 154.780094 6.882275 153.798943 6.882275 91.986442 C 6.882275 77.781085 11.75959 67.372355 19.736773 58.712633 C 18.727183 53.693122 18.400132 37.724537 25.19709 20.646826 C 25.19709 20.646826 40.767527 22.353175 64.329366 38.506614 C 69.277778 37.155754 77.638889 36.473215 86.000001 36.473215 C 94.361112 36.473215 102.736443 37.155754 107.656416 38.520834 C 131.232475 22.353175 146.817131 20.646826 146.817131 20.646826 C 153.599869 37.724537 153.201721 54.09127 152.263229 58.712633 C 160.240411 67.372355 165.117726 77.781085 165.117726 91.986442 Z M 143.944776 111.780093 C 143.944776 104.229498 141.285715 97.233466 134.958004 91.417659 C 124.392858 81.719908 106.51885 86.853175 86.241733 86.853175 C 86.170636 86.853175 85.843585 86.853175 85.758268 86.853175 C 65.481151 86.853175 47.621363 81.719908 37.056217 91.417659 C 30.728506 97.233466 28.055225 104.229498 28.055225 111.780093 C 28.055225 143.304895 53.565146 147.926258 86.000001 147.926258 L 86.483466 147.926258 C 118.918321 147.926258 143.944776 143.304895 143.944776 111.780093 Z M 68.794313 115.235451 C 68.794313 123.781416 64.656416 130.72057 58.485119 130.72057 C 52.313823 130.72057 48.161707 123.781416 48.161707 115.235451 C 48.161707 106.689485 52.313823 99.764551 58.485119 99.764551 C 64.656416 99.764551 68.794313 106.689485 68.794313 115.235451 Z M 68.794313 115.235451 " transform="matrix(0.274709,0,0,0.274709,1.375,1.375)"/>
<path style=" stroke:none;fill-rule:nonzero;fill:rgb(100%,100%,100%);fill-opacity:1;" d="M 32.558594 28.78125 C 30.863281 28.78125 29.726562 30.210938 29.726562 32.558594 C 29.726562 34.90625 30.566406 37.328125 32.558594 37.285156 C 34.65625 37.238281 35.414062 35.183594 35.394531 32.558594 C 35.378906 30.210938 34.253906 28.78125 32.558594 28.78125 Z M 43.203125 17.503906 C 43.460938 16.234375 43.570312 11.738281 41.707031 7.046875 C 41.707031 7.046875 37.425781 7.515625 30.949219 11.957031 C 29.597656 11.582031 27.296875 11.394531 25 11.394531 C 22.703125 11.394531 20.40625 11.582031 19.046875 11.953125 C 12.574219 7.515625 8.296875 7.046875 8.296875 7.046875 C 6.429688 11.738281 6.519531 16.125 6.796875 17.503906 C 4.605469 19.882812 3.265625 22.742188 3.265625 26.644531 C 3.265625 43.625 17.351562 43.894531 20.90625 43.894531 C 21.710938 43.894531 23.308594 43.894531 25 43.898438 C 26.691406 43.894531 28.292969 43.894531 29.09375 43.894531 C 32.648438 43.894531 46.734375 43.625 46.734375 26.644531 C 46.734375 22.742188 45.394531 19.882812 43.203125 17.503906 Z M 25.132812 42.011719 L 25 42.011719 C 16.089844 42.011719 9.082031 40.742188 9.082031 32.082031 C 9.082031 30.007812 9.816406 28.085938 11.554688 26.488281 C 14.457031 23.824219 19.363281 25.234375 24.933594 25.234375 C 24.957031 25.234375 25.046875 25.234375 25.066406 25.234375 C 30.636719 25.234375 35.546875 23.824219 38.449219 26.488281 C 40.1875 28.085938 40.917969 30.007812 40.917969 32.082031 C 40.917969 40.742188 34.042969 42.011719 25.132812 42.011719 Z M 17.441406 28.78125 C 15.746094 28.78125 14.605469 30.683594 14.605469 33.03125 C 14.605469 35.378906 15.746094 37.285156 17.441406 37.285156 C 19.136719 37.285156 20.273438 35.378906 20.273438 33.03125 C 20.273438 30.683594 19.136719 28.78125 17.441406 28.78125 Z M 17.441406 28.78125 "/>
</g>
</svg>
