<?xml version="1.0" encoding="UTF-8"?>
<svg xmlns="http://www.w3.org/2000/svg" xmlns:xlink="http://www.w3.org/1999/xlink" viewBox="0 0 100 100" width="100px" height="100px">
<g id="surface58994741">
<path style="fill-rule:nonzero;fill:rgb(100%,100%,100%);fill-opacity:1;stroke-width:10;stroke-linecap:butt;stroke-linejoin:round;stroke:rgb(100%,100%,100%);stroke-opacity:1;stroke-miterlimit:10;" d="M 158.242561 22.936177 L 158.242561 149.078043 C 158.242561 154.125993 154.125993 158.242561 149.063824 158.242561 L 22.936177 158.242561 C 17.874008 158.242561 13.757441 154.125993 13.757441 149.063824 L 13.757441 22.936177 C 13.757441 17.874008 17.874008 13.757441 22.936177 13.757441 L 149.078043 13.757441 C 154.125993 13.757441 158.242561 17.874008 158.242561 22.936177 Z M 92.882276 79.117725 L 79.117725 79.117725 L 79.117725 122.373678 C 79.117725 129.014221 76.60797 130.72057 72.24256 130.72057 C 67.670966 130.72057 64.5 127.869545 62.416832 124.172455 L 51.602844 130.72057 C 54.731151 137.346893 62.402613 144.47801 73.045966 144.47801 C 84.819776 144.47801 92.882276 138.221397 92.882276 124.471066 Z M 144.47801 126.191635 C 144.47801 115.228341 138.192957 110.351026 127.02348 105.580358 L 123.745867 104.16551 C 118.114915 101.719743 115.683367 100.13426 115.683367 96.202547 C 115.683367 93.017362 118.114915 90.571595 121.96131 90.571595 C 125.736608 90.571595 128.153936 92.157077 130.407739 96.202547 L 140.624505 89.625993 C 136.294644 82.025629 130.301092 79.117725 121.96131 79.117725 C 110.244379 79.117725 102.729333 86.618552 102.729333 96.45139 C 102.729333 107.151621 109.028605 112.199571 118.505953 116.230821 L 121.783566 117.645669 C 127.762898 120.262071 130.72057 121.861773 130.72057 126.35516 C 130.72057 130.116238 127.869545 132.832177 122.430556 132.832177 C 115.953539 132.832177 112.88922 128.438328 110.080854 123.838295 L 99.757441 130.72057 C 103.618056 138.342263 110.53588 144.47801 122.722058 144.47801 C 135.192627 144.47801 144.47801 138.000993 144.47801 126.191635 Z M 144.47801 126.191635 " transform="matrix(0.549419,0,0,0.549419,2.75,2.75)"/>
<path style=" stroke:none;fill-rule:nonzero;fill:rgb(100%,100%,100%);fill-opacity:1;" d="M 84.65625 10.308594 L 15.351562 10.308594 C 12.570312 10.308594 10.308594 12.570312 10.308594 15.351562 L 10.308594 84.648438 C 10.308594 87.429688 12.570312 89.691406 15.351562 89.691406 L 84.648438 89.691406 C 87.429688 89.691406 89.691406 87.429688 89.691406 84.65625 L 89.691406 15.351562 C 89.691406 12.570312 87.429688 10.308594 84.65625 10.308594 Z M 53.78125 71.136719 C 53.78125 78.691406 49.351562 82.128906 42.882812 82.128906 C 37.035156 82.128906 32.820312 78.210938 31.101562 74.570312 L 37.042969 70.972656 C 38.1875 73.003906 39.929688 74.570312 42.441406 74.570312 C 44.839844 74.570312 46.21875 73.632812 46.21875 69.984375 L 46.21875 46.21875 L 53.78125 46.21875 Z M 70.175781 82.128906 C 63.480469 82.128906 59.679688 78.757812 57.558594 74.570312 L 63.230469 70.789062 C 64.773438 73.316406 66.457031 75.730469 70.015625 75.730469 C 73.003906 75.730469 74.570312 74.238281 74.570312 72.171875 C 74.570312 69.703125 72.945312 68.828125 69.660156 67.386719 L 67.859375 66.613281 C 62.652344 64.398438 59.191406 61.621094 59.191406 55.742188 C 59.191406 50.339844 63.320312 46.21875 69.757812 46.21875 C 74.339844 46.21875 77.632812 47.816406 80.011719 51.992188 L 74.398438 55.605469 C 73.160156 53.382812 71.832031 52.511719 69.757812 52.511719 C 67.644531 52.511719 66.308594 53.855469 66.308594 55.605469 C 66.308594 57.765625 67.644531 58.636719 70.738281 59.980469 L 72.539062 60.757812 C 78.675781 63.378906 82.128906 66.058594 82.128906 72.082031 C 82.128906 78.570312 77.027344 82.128906 70.175781 82.128906 Z M 70.175781 82.128906 "/>
</g>
</svg>
