<?xml version="1.0" encoding="iso-8859-1" ?>
<svg version="1.1" xmlns="http://www.w3.org/2000/svg" xmlns:xlink="http://www.w3.org/1999/xlink" 
    viewBox="0 0 1200 800" width="1200" height="800">
    
    
    <!-- ITEM 0 -->
    <g>
        <defs>
            <clipPath id="clip-path-id-viewbox-item-0">
                <rect x="0.0" y="0.0" width="73.634" height="100.136"/>
            </clipPath>
        </defs>
        <g transform="translate(563.0 350.0) rotate(0.0 36.5 50.0) scale(0.9913898470815112 0.9986418470879604)">
            <g clip-path="url(#clip-path-id-viewbox-item-0)" transform="translate(-0.0 -0.0)">
                <title>leaf_3</title><g id="Layer_2-i0" data-name="Layer 2"><g id="leaf_3-i0"><path d="M66.3,43.483C64.809,24.212,48.616,9.114,31.184,3.021A57.169,57.169,0,0,0,18.068.17a47.487,47.487,0,0,0-8.035,0,16.716,16.716,0,0,0-7.27,1.446c-4.3,2.644-2.52,8.1-1.653,12.062s1.88,7.973,3.016,11.9c2.251,7.786,4.338,15.635,6.816,23.381S16.56,64.634,22.158,70.913c6.9,7.724,18.589,13.239,28.916,9.315C65.615,74.589,67.887,57.074,66.3,43.483Z" fill="#55d4ab"></path><path d="M22.1,12.749A46.109,46.109,0,0,1,33.7,19.813a51.463,51.463,0,0,1,9.542,10.079A50.255,50.255,0,0,1,52.6,56.743c.1,1.2,0,2.4,0,3.615v3.16c0,2.066.123,3.986.309,5.907a41.9,41.9,0,0,0,2.252,10.761c2.4,6.465,6.754,10.328,13.8,10.328h.289a4.441,4.441,0,0,1,1.281,8.675,20.658,20.658,0,0,1-16.4-1.756,25.463,25.463,0,0,1-10.7-12.579A42.421,42.421,0,0,1,40.354,70.19a58.428,58.428,0,0,1,.124-7.126l.269-3.346c0-.971.186-1.942.186-2.892a47.691,47.691,0,0,0-4.772-22.72A63.394,63.394,0,0,0,21.042,14.463h0a.991.991,0,0,1,1.033-1.652Z" fill="#111633"></path></g></g>
            </g>
        </g>
    </g>
    
</svg>