<svg width="41" height="41" viewBox="0 0 41 41" fill="none" xmlns="http://www.w3.org/2000/svg">
<path d="M4.51007 25.0099C4.59863 25.2276 5.33007 29.1099 10.4551 29.1099C20.9101 29.1099 22.9601 9.42993 36.0801 9.42993V34.0299H4.51007V25.0099Z" fill="#F9E65C"/>
<path d="M16.8101 18.245C17.6026 18.245 18.2451 17.6025 18.2451 16.81C18.2451 16.0174 17.6026 15.375 16.8101 15.375C16.0175 15.375 15.3751 16.0174 15.3751 16.81C15.3751 17.6025 16.0175 18.245 16.8101 18.245Z" fill="#111633"/>
<path d="M23.4779 11.9871C24.4969 11.9871 25.3229 11.1611 25.3229 10.1421C25.3229 9.12312 24.4969 8.29709 23.4779 8.29709C22.4589 8.29709 21.6329 9.12312 21.6329 10.1421C21.6329 11.1611 22.4589 11.9871 23.4779 11.9871Z" fill="#F7EEDE"/>
<path d="M16.8101 9.22497C17.829 9.22497 18.6551 8.39894 18.6551 7.37997C18.6551 6.36101 17.829 5.53497 16.8101 5.53497C15.7911 5.53497 14.9651 6.36101 14.9651 7.37997C14.9651 8.39894 15.7911 9.22497 16.8101 9.22497Z" fill="#F7EEDE"/>
<path d="M10.1422 11.9871C11.1612 11.9871 11.9872 11.1611 11.9872 10.1421C11.9872 9.12312 11.1612 8.29709 10.1422 8.29709C9.12328 8.29709 8.29724 9.12312 8.29724 10.1421C8.29724 11.1611 9.12328 11.9871 10.1422 11.9871Z" fill="#F7EEDE"/>
<path d="M7.38006 18.655C8.39903 18.655 9.22506 17.8289 9.22506 16.81C9.22506 15.791 8.39903 14.965 7.38006 14.965C6.3611 14.965 5.53506 15.791 5.53506 16.81C5.53506 17.8289 6.3611 18.655 7.38006 18.655Z" fill="#F7EEDE"/>
<path d="M10.1422 25.3228C11.1612 25.3228 11.9872 24.4968 11.9872 23.4778C11.9872 22.4588 11.1612 21.6328 10.1422 21.6328C9.12328 21.6328 8.29724 22.4588 8.29724 23.4778C8.29724 24.4968 9.12328 25.3228 10.1422 25.3228Z" fill="#F7EEDE"/>
<path d="M18.0794 24.9063C17.7485 24.5914 17.3033 24.395 16.8101 24.395C15.7912 24.395 14.9651 25.2211 14.9651 26.24C14.9651 26.6914 15.1336 27.0993 15.4025 27.42C16.3521 26.7349 17.234 25.8767 18.0794 24.9063Z" fill="#F7EEDE"/>
<path d="M32.1851 29.315C31.8964 29.5589 31.3651 29.725 30.7501 29.725C30.1351 29.725 29.6037 29.5589 29.3151 29.315C28.9854 29.5589 28.3782 29.725 27.6751 29.725C26.9719 29.725 26.3647 29.5589 26.0351 29.315C25.7464 29.5589 25.2151 29.725 24.6001 29.725C23.9851 29.725 23.4537 29.5589 23.1651 29.315C23.1651 29.315 23.1651 32.595 22.3451 35.465H33.0051C32.1851 32.595 32.1851 29.315 32.1851 29.315Z" fill="#F7EEDE"/>
<path d="M30.7501 29.725C31.3651 29.725 31.8964 29.5589 32.1851 29.315C32.1851 29.315 30.1351 28.085 27.6816 25.625L29.3151 29.315C29.6037 29.5589 30.1351 29.725 30.7501 29.725Z" fill="#F7EEDE"/>
<path d="M29.3151 29.315L27.6816 25.625L26.0351 29.315C26.3647 29.5589 26.9719 29.725 27.6751 29.725C28.3782 29.725 28.9854 29.5589 29.3151 29.315Z" fill="#F7EEDE"/>
<path d="M26.0351 29.315L27.6816 25.625C25.2183 28.0882 23.1651 29.315 23.1651 29.315C23.4537 29.5589 23.9851 29.725 24.6001 29.725C25.2151 29.725 25.7464 29.5589 26.0351 29.315Z" fill="#F7EEDE"/>
<path d="M26.0351 35.465C27.3471 33.2284 27.666 31.365 27.666 31.365C27.666 31.365 28.0031 33.2284 29.3151 35.465H26.0351Z" fill="#111633"/>
<path d="M10.4551 29.52C7.22016 29.52 4.91965 27.9501 4.14311 25.2134L4.12548 25.1519C4.05578 24.9419 4.1632 24.7082 4.37066 24.632C4.57894 24.5549 4.80649 24.6512 4.89013 24.8558C4.89874 24.8776 4.9135 24.9231 4.93236 24.9899C5.32514 26.3753 6.5658 28.7 10.4551 28.7C15.1725 28.7 18.1713 24.4114 21.3463 19.8711C25.0769 14.5365 28.9346 9.01999 36.0801 9.01999C36.3068 9.01999 36.4901 9.20367 36.4901 9.42999C36.4901 9.65631 36.3068 9.83999 36.0801 9.83999C29.3614 9.83999 25.6287 15.1786 22.0183 20.3409C18.7174 25.0612 15.5997 29.52 10.4551 29.52Z" fill="#111633"/>
<path d="M6.76506 34.235C6.6519 34.235 6.56006 34.1432 6.56006 34.03V28.1367C6.56006 28.0235 6.6519 27.9317 6.76506 27.9317C6.87822 27.9317 6.97006 28.0235 6.97006 28.1367V34.03C6.97006 34.1432 6.87822 34.235 6.76506 34.235Z" fill="#111633"/>
<path d="M9.22508 30.34C9.11192 30.34 9.02008 30.2481 9.02008 30.135V29.0284C9.02008 28.9152 9.11192 28.8234 9.22508 28.8234C9.33824 28.8234 9.43008 28.9152 9.43008 29.0284V30.135C9.43008 30.2481 9.33824 30.34 9.22508 30.34Z" fill="#111633"/>
<path d="M11.6851 34.235C11.5719 34.235 11.4801 34.1431 11.4801 34.03V29.0284C11.4801 28.9152 11.5719 28.8234 11.6851 28.8234C11.7982 28.8234 11.8901 28.9152 11.8901 29.0284V34.03C11.8901 34.1431 11.7982 34.235 11.6851 34.235Z" fill="#111633"/>
<path d="M14.1451 34.235C14.0319 34.235 13.9401 34.1431 13.9401 34.03V28.2006C13.9401 28.0874 14.0319 27.9956 14.1451 27.9956C14.2582 27.9956 14.3501 28.0874 14.3501 28.2006V34.03C14.3501 34.1431 14.2582 34.235 14.1451 34.235Z" fill="#111633"/>
<path d="M16.6051 31.57C16.4919 31.57 16.4001 31.4782 16.4001 31.365V26.445C16.4001 26.3318 16.4919 26.24 16.6051 26.24C16.7182 26.24 16.8101 26.3318 16.8101 26.445V31.365C16.8101 31.4782 16.7182 31.57 16.6051 31.57Z" fill="#111633"/>
<path d="M19.0651 34.235C18.9519 34.235 18.8601 34.1431 18.8601 34.03V23.7111C18.8601 23.5979 18.9519 23.5061 19.0651 23.5061C19.1782 23.5061 19.2701 23.5979 19.2701 23.7111V34.03C19.2701 34.1431 19.1782 34.235 19.0651 34.235Z" fill="#111633"/>
<path d="M23.9851 27.47C23.8719 27.47 23.7801 27.3781 23.7801 27.265V16.901C23.7801 16.7878 23.8719 16.696 23.9851 16.696C24.0982 16.696 24.1901 16.7878 24.1901 16.901V27.265C24.1901 27.3781 24.0982 27.47 23.9851 27.47Z" fill="#111633"/>
<path d="M26.4451 25.01C26.3319 25.01 26.2401 24.9182 26.2401 24.805V19.885C26.2401 19.7719 26.3319 19.68 26.4451 19.68C26.5582 19.68 26.6501 19.7719 26.6501 19.885V24.805C26.6501 24.9182 26.5582 25.01 26.4451 25.01Z" fill="#111633"/>
<path d="M28.9051 25.01C28.7919 25.01 28.7001 24.9182 28.7001 24.805V11.8035C28.7001 11.6904 28.7919 11.5985 28.9051 11.5985C29.0182 11.5985 29.1101 11.6904 29.1101 11.8035V24.805C29.1101 24.9182 29.0182 25.01 28.9051 25.01Z" fill="#111633"/>
<path d="M31.3651 27.47C31.2519 27.47 31.1601 27.3781 31.1601 27.265V10.391C31.1601 10.2778 31.2519 10.186 31.3651 10.186C31.4782 10.186 31.5701 10.2778 31.5701 10.391V27.265C31.5701 27.3781 31.4782 27.47 31.3651 27.47Z" fill="#111633"/>
<path d="M33.8251 20.5C33.7119 20.5 33.6201 20.4081 33.6201 20.295V17.425C33.6201 17.3118 33.7119 17.22 33.8251 17.22C33.9382 17.22 34.0301 17.3118 34.0301 17.425V20.295C34.0301 20.4081 33.9382 20.5 33.8251 20.5Z" fill="#111633"/>
<path d="M33.8251 32.8C33.7119 32.8 33.6201 32.7082 33.6201 32.595V21.525C33.6201 21.4118 33.7119 21.32 33.8251 21.32C33.9382 21.32 34.0301 21.4118 34.0301 21.525V32.595C34.0301 32.7082 33.9382 32.8 33.8251 32.8Z" fill="#111633"/>
<path d="M33.8251 16.4C33.7119 16.4 33.6201 16.3081 33.6201 16.195V15.785C33.6201 15.6718 33.7119 15.58 33.8251 15.58C33.9382 15.58 34.0301 15.6718 34.0301 15.785V16.195C34.0301 16.3081 33.9382 16.4 33.8251 16.4Z" fill="#111633"/>
<path d="M33.8251 14.76C33.7119 14.76 33.6201 14.6682 33.6201 14.555V9.63542C33.6201 9.52226 33.7119 9.43042 33.8251 9.43042C33.9382 9.43042 34.0301 9.52226 34.0301 9.63542V14.555C34.0301 14.6682 33.9382 14.76 33.8251 14.76Z" fill="#111633"/>
<path d="M16.6051 34.235C16.4919 34.235 16.4001 34.1431 16.4001 34.03V32.595C16.4001 32.4818 16.4919 32.39 16.6051 32.39C16.7182 32.39 16.8101 32.4818 16.8101 32.595V34.03C16.8101 34.1431 16.7182 34.235 16.6051 34.235Z" fill="#111633"/>
<path d="M26.4451 18.86C26.3319 18.86 26.2401 18.7682 26.2401 18.655V13.9777C26.2401 13.8646 26.3319 13.7727 26.4451 13.7727C26.5582 13.7727 26.6501 13.8646 26.6501 13.9777V18.655C26.6501 18.7682 26.5582 18.86 26.4451 18.86Z" fill="#111633"/>
<path d="M9.22508 34.235C9.11192 34.235 9.02008 34.1432 9.02008 34.03V31.365C9.02008 31.2518 9.11192 31.16 9.22508 31.16C9.33824 31.16 9.43008 31.2518 9.43008 31.365V34.03C9.43008 34.1432 9.33824 34.235 9.22508 34.235Z" fill="#111633"/>
<path d="M21.5251 32.8C21.4119 32.8 21.3201 32.7082 21.3201 32.595V20.3483C21.3201 20.2352 21.4119 20.1433 21.5251 20.1433C21.6382 20.1433 21.7301 20.2352 21.7301 20.3483V32.595C21.7301 32.7082 21.6382 32.8 21.5251 32.8Z" fill="#111633"/>
<path d="M17.2201 9.22501H16.4001V15.375H17.2201V9.22501Z" fill="#111633"/>
<path d="M11.7366 11.1568L11.1568 11.7366L15.5056 16.0852L16.0854 15.5054L11.7366 11.1568Z" fill="#111633"/>
<path d="M15.3751 16.4H9.22507V17.22H15.3751V16.4Z" fill="#111633"/>
<path d="M15.5047 17.5345L11.156 21.8833L11.7359 22.4631L16.0845 18.1143L15.5047 17.5345Z" fill="#111633"/>
<path d="M18.1138 17.5356L17.534 18.1154L20.7422 21.3236L21.3221 20.7437L18.1138 17.5356Z" fill="#111633"/>
<path d="M21.883 11.1565L17.5344 15.5053L18.1142 16.0851L22.4629 11.7363L21.883 11.1565Z" fill="#111633"/>
<path d="M17.2201 18.245H16.4001V24.395H17.2201V18.245Z" fill="#111633"/>
<path d="M24.049 16.4H18.2451V17.22H24.049V16.4Z" fill="#111633"/>
<path d="M14.9044 26.4589C13.6129 26.2047 12.4103 25.7086 11.3316 24.9842L11.7888 24.3036C12.7765 24.9669 13.8781 25.4216 15.0626 25.6541L14.9044 26.4589Z" fill="#111633"/>
<path d="M8.6359 22.2884C7.91143 21.2097 7.41533 20.0076 7.16113 18.7157L7.96596 18.5574C8.19884 19.7419 8.65353 20.8436 9.3165 21.8313L8.6359 22.2884Z" fill="#111633"/>
<path d="M7.96105 15.0622L7.15622 14.9039C7.40509 13.635 7.9057 12.4349 8.64288 11.3369L9.32348 11.7941C8.64739 12.801 8.18901 13.9006 7.96105 15.0622Z" fill="#111633"/>
<path d="M11.7925 9.32093L11.3353 8.64033C12.4153 7.91463 13.6162 7.41771 14.904 7.16269L15.0635 7.96711C13.8818 8.2004 12.7818 8.65632 11.7925 9.32093Z" fill="#111633"/>
<path d="M21.8256 9.32339C20.8182 8.64689 19.7186 8.18851 18.5579 7.96096L18.7157 7.15613C19.9843 7.405 21.1844 7.9052 22.2827 8.64238L21.8256 9.32339Z" fill="#111633"/>
<path d="M25.5525 14.6107C25.2967 13.5976 24.8752 12.6493 24.2991 11.792L24.9797 11.3348C25.6083 12.2705 26.0683 13.3049 26.3475 14.4098L25.5525 14.6107Z" fill="#111633"/>
<path d="M23.4783 12.1918C22.9305 12.1918 22.4156 11.9786 22.0285 11.5915C21.2295 10.7924 21.2295 9.49149 22.0285 8.6924C22.4156 8.30536 22.9305 8.09216 23.4783 8.09216C24.0261 8.09216 24.5406 8.30536 24.9277 8.6924C25.3147 9.07944 25.5283 9.5944 25.5283 10.1418C25.5283 10.6891 25.3147 11.2041 24.9277 11.5915C24.5402 11.9786 24.0261 12.1918 23.4783 12.1918ZM23.4783 8.50216C23.0404 8.50216 22.6284 8.67272 22.3184 8.98227C21.6792 9.62187 21.6792 10.662 22.3184 11.3016C22.9383 11.9212 24.0187 11.9212 24.6378 11.3016C24.9477 10.9921 25.1183 10.58 25.1183 10.1418C25.1183 9.70387 24.9477 9.29182 24.6378 8.98227C24.3282 8.67272 23.9162 8.50216 23.4783 8.50216Z" fill="#111633"/>
<path d="M16.8101 18.45C15.9056 18.45 15.1701 17.7144 15.1701 16.81C15.1701 15.9055 15.9056 15.17 16.8101 15.17C17.7145 15.17 18.4501 15.9055 18.4501 16.81C18.4501 17.7144 17.7145 18.45 16.8101 18.45ZM16.8101 15.58C16.1319 15.58 15.5801 16.1318 15.5801 16.81C15.5801 17.4881 16.1319 18.04 16.8101 18.04C17.4882 18.04 18.0401 17.4881 18.0401 16.81C18.0401 16.1318 17.4882 15.58 16.8101 15.58Z" fill="#111633"/>
<path d="M16.8101 9.42999C15.6797 9.42999 14.7601 8.51036 14.7601 7.37999C14.7601 6.24962 15.6797 5.32999 16.8101 5.32999C17.9404 5.32999 18.8601 6.24962 18.8601 7.37999C18.8601 8.51036 17.9404 9.42999 16.8101 9.42999ZM16.8101 5.73999C15.9056 5.73999 15.1701 6.47553 15.1701 7.37999C15.1701 8.28445 15.9056 9.01999 16.8101 9.01999C17.7145 9.01999 18.4501 8.28445 18.4501 7.37999C18.4501 6.47553 17.7145 5.73999 16.8101 5.73999Z" fill="#111633"/>
<path d="M10.1418 12.1918C9.59407 12.1918 9.07952 11.9786 8.69248 11.5915C8.30544 11.2045 8.09183 10.6895 8.09183 10.1418C8.09183 9.5944 8.30544 9.07944 8.69248 8.6924C9.07952 8.30536 9.59407 8.09216 10.1418 8.09216C10.6896 8.09216 11.2045 8.30536 11.5916 8.6924C12.3907 9.49149 12.3907 10.7924 11.5916 11.5915C11.2045 11.9786 10.6896 12.1918 10.1418 12.1918ZM10.1418 8.50216C9.70395 8.50216 9.2919 8.67272 8.98235 8.98227C8.67239 9.29182 8.50183 9.70387 8.50183 10.1418C8.50183 10.58 8.67239 10.9917 8.98235 11.3016C9.60145 11.9212 10.6822 11.9212 11.3017 11.3016C11.9409 10.662 11.9409 9.62187 11.3017 8.98227C10.9922 8.67272 10.5801 8.50216 10.1418 8.50216Z" fill="#111633"/>
<path d="M7.38008 18.8599C6.24971 18.8599 5.33008 17.9403 5.33008 16.8099C5.33008 15.6796 6.24971 14.7599 7.38008 14.7599C8.51045 14.7599 9.43008 15.6796 9.43008 16.8099C9.43008 17.9403 8.51045 18.8599 7.38008 18.8599ZM7.38008 15.1699C6.47562 15.1699 5.74008 15.9055 5.74008 16.8099C5.74008 17.7144 6.47562 18.4499 7.38008 18.4499C8.28454 18.4499 9.02008 17.7144 9.02008 16.8099C9.02008 15.9055 8.28454 15.1699 7.38008 15.1699Z" fill="#111633"/>
<path d="M10.1418 25.5278C9.59407 25.5278 9.07952 25.3146 8.69248 24.9276C8.30544 24.5406 8.09183 24.0256 8.09183 23.4783C8.09183 22.9309 8.30544 22.4159 8.69248 22.0285C9.07952 21.6415 9.59407 21.4283 10.1418 21.4283C10.6896 21.4283 11.2045 21.6415 11.5916 22.0285C12.3907 22.8276 12.3907 24.1285 11.5916 24.9276C11.2045 25.3146 10.6896 25.5278 10.1418 25.5278ZM10.1418 21.8383C9.70395 21.8383 9.2919 22.0088 8.98235 22.3184C8.67239 22.6279 8.50183 23.04 8.50183 23.4783C8.50183 23.9161 8.67239 24.3282 8.98235 24.6377C9.2919 24.9473 9.70395 25.1178 10.1418 25.1178C10.5797 25.1178 10.9918 24.9473 11.3017 24.6377C11.9409 23.9981 11.9409 22.958 11.3017 22.3184C10.9922 22.0088 10.5801 21.8383 10.1418 21.8383ZM8.83762 22.1736H8.84172H8.83762Z" fill="#111633"/>
<path d="M15.3681 27.698L15.2455 27.552C14.9278 27.1732 14.7601 26.7193 14.7601 26.24C14.7601 25.1096 15.6797 24.19 16.8101 24.19C17.3353 24.19 17.8363 24.3917 18.2205 24.7579L18.3627 24.8932L18.234 25.0412C17.3053 26.1072 16.4185 26.9395 15.5231 27.5864L15.3681 27.698ZM16.8101 24.6C15.9056 24.6 15.1701 25.3355 15.1701 26.24C15.1701 26.5594 15.2644 26.8653 15.4444 27.1346C16.2164 26.5569 16.986 25.8321 17.7879 24.9276C17.505 24.7152 17.1643 24.6 16.8101 24.6Z" fill="#111633"/>
<path d="M33.0051 35.67H22.3451C22.2807 35.67 22.22 35.6396 22.1815 35.5884C22.1425 35.5371 22.1306 35.4703 22.1483 35.4088C22.951 32.5987 22.9601 29.3474 22.9601 29.315C22.9601 29.2428 22.9982 29.176 23.0597 29.1391C23.0802 29.1268 25.122 27.8943 27.5369 25.4803C27.5754 25.4417 27.6275 25.42 27.682 25.42C27.7366 25.42 27.789 25.4417 27.8272 25.4803C30.2343 27.8943 32.2703 29.1272 32.2904 29.1391C32.3523 29.1764 32.3901 29.2428 32.3901 29.315C32.3901 29.3474 32.3999 32.6007 33.2019 35.4088C33.2195 35.4707 33.2076 35.5371 33.1687 35.5884C33.1301 35.6396 33.0694 35.67 33.0051 35.67ZM22.614 35.26H32.7361C32.0699 32.7627 31.9907 30.0177 31.9813 29.4294C31.5508 29.1559 29.7624 27.9726 27.6816 25.914C25.5927 27.9755 23.8006 29.1567 23.3688 29.4298C23.3598 30.0185 23.2803 32.7631 22.614 35.26Z" fill="#111633"/>
<path d="M27.6751 29.9299C26.9526 29.9299 26.2942 29.7614 25.9133 29.4798C25.8219 29.4125 25.8026 29.2842 25.8702 29.1932C25.9383 29.1022 26.067 29.0833 26.1568 29.1505C26.4656 29.3781 27.0473 29.5199 27.6751 29.5199C28.3028 29.5199 28.8846 29.3781 29.1933 29.1501C29.2839 29.0829 29.4122 29.1022 29.4799 29.1928C29.5471 29.2838 29.5278 29.4121 29.4368 29.4794C29.0559 29.7614 28.3975 29.9299 27.6751 29.9299Z" fill="#111633"/>
<path d="M30.7501 29.93C30.1084 29.93 29.5225 29.7586 29.1827 29.4716C29.0966 29.3986 29.0855 29.2691 29.1585 29.1826C29.2314 29.096 29.361 29.0858 29.4475 29.1584C29.7111 29.3814 30.2105 29.52 30.7501 29.52C31.2896 29.52 31.789 29.3814 32.0527 29.1584C32.1396 29.0858 32.2687 29.096 32.3417 29.1826C32.4151 29.2691 32.4036 29.3982 32.3175 29.4716C31.9776 29.7586 31.3917 29.93 30.7501 29.93Z" fill="#111633"/>
<path d="M24.6001 29.93C23.9584 29.93 23.3725 29.7586 23.0326 29.4716C22.9465 29.3986 22.9355 29.2691 23.0084 29.1826C23.0814 29.096 23.2106 29.0858 23.2975 29.1584C23.5611 29.3814 24.0605 29.52 24.6001 29.52C25.1396 29.52 25.639 29.3814 25.9026 29.1584C25.99 29.0858 26.1187 29.096 26.1917 29.1826C26.2651 29.2691 26.2536 29.3982 26.1675 29.4716C25.8276 29.7586 25.2417 29.93 24.6001 29.93Z" fill="#111633"/>
<path d="M29.1379 35.5687C28.3352 34.2006 27.894 32.9792 27.6689 32.2174C27.4492 32.9796 27.0141 34.201 26.2118 35.5687L25.8579 35.3613C27.1335 33.187 27.4602 31.3486 27.4635 31.3302C27.4807 31.2322 27.5652 31.1604 27.6648 31.16C27.6648 31.16 27.6652 31.16 27.6656 31.16C27.7644 31.16 27.8493 31.2305 27.8674 31.3281C27.8706 31.3466 28.2154 33.1858 29.4918 35.3609L29.1379 35.5687Z" fill="#111633"/>
<path d="M27.8669 25.5428L27.4923 25.7086L29.1254 29.3985L29.4999 29.2328L27.8669 25.5428Z" fill="#111633"/>
<path d="M27.493 25.5446L25.8483 29.2357L26.2231 29.4027L27.8678 25.7116L27.493 25.5446Z" fill="#111633"/>
<path d="M22.762 33.62H4.51007C4.28375 33.62 4.10007 33.8036 4.10007 34.03C4.10007 34.2563 4.28375 34.44 4.51007 34.44H22.6009C22.6612 34.1649 22.7141 33.8914 22.762 33.62Z" fill="#111633"/>
<path d="M36.0801 33.62H32.5881C32.6361 33.8914 32.689 34.1649 32.7492 34.44H36.0801C36.3064 34.44 36.4901 34.2563 36.4901 34.03C36.4901 33.8036 36.3064 33.62 36.0801 33.62Z" fill="#111633"/>
</svg>
