<svg width="41" height="41" viewBox="0 0 41 41" fill="none" xmlns="http://www.w3.org/2000/svg">

<path d="M4.51001 25.01C4.59857 25.2277 5.33001 29.11 10.455 29.11C20.91 29.11 22.96 9.42996 36.08 9.42996V34.03H4.51001V25.01Z" fill="#DEAB9E"/>
<path d="M16.81 18.245C17.6025 18.245 18.245 17.6025 18.245 16.81C18.245 16.0175 17.6025 15.375 16.81 15.375C16.0175 15.375 15.375 16.0175 15.375 16.81C15.375 17.6025 16.0175 18.245 16.81 18.245Z" fill="#111633"/>
<path d="M23.4778 11.9871C24.4968 11.9871 25.3228 11.1611 25.3228 10.1421C25.3228 9.12317 24.4968 8.29713 23.4778 8.29713C22.4588 8.29713 21.6328 9.12317 21.6328 10.1421C21.6328 11.1611 22.4588 11.9871 23.4778 11.9871Z" fill="#F7EEDE"/>
<path d="M16.81 9.22502C17.8289 9.22502 18.655 8.39898 18.655 7.38002C18.655 6.36105 17.8289 5.53502 16.81 5.53502C15.791 5.53502 14.965 6.36105 14.965 7.38002C14.965 8.39898 15.791 9.22502 16.81 9.22502Z" fill="#F7EEDE"/>
<path d="M10.1421 11.9871C11.1611 11.9871 11.9871 11.1611 11.9871 10.1421C11.9871 9.12317 11.1611 8.29713 10.1421 8.29713C9.12315 8.29713 8.29712 9.12317 8.29712 10.1421C8.29712 11.1611 9.12315 11.9871 10.1421 11.9871Z" fill="#F7EEDE"/>
<path d="M7.38003 18.655C8.399 18.655 9.22503 17.8289 9.22503 16.81C9.22503 15.791 8.399 14.965 7.38003 14.965C6.36107 14.965 5.53503 15.791 5.53503 16.81C5.53503 17.8289 6.36107 18.655 7.38003 18.655Z" fill="#F7EEDE"/>
<path d="M10.1421 25.3228C11.1611 25.3228 11.9871 24.4968 11.9871 23.4778C11.9871 22.4589 11.1611 21.6328 10.1421 21.6328C9.12315 21.6328 8.29712 22.4589 8.29712 23.4778C8.29712 24.4968 9.12315 25.3228 10.1421 25.3228Z" fill="#F7EEDE"/>
<path d="M18.0793 24.9063C17.7485 24.5914 17.3032 24.395 16.81 24.395C15.7911 24.395 14.965 25.2212 14.965 26.24C14.965 26.6914 15.1335 27.0994 15.4024 27.42C16.352 26.7349 17.2339 25.8768 18.0793 24.9063Z" fill="#F7EEDE"/>
<path d="M32.185 29.315C31.8963 29.559 31.365 29.725 30.75 29.725C30.135 29.725 29.6036 29.559 29.315 29.315C28.9853 29.559 28.3781 29.725 27.675 29.725C26.9718 29.725 26.3646 29.559 26.035 29.315C25.7463 29.559 25.215 29.725 24.6 29.725C23.985 29.725 23.4536 29.559 23.165 29.315C23.165 29.315 23.165 32.595 22.345 35.465H33.005C32.185 32.595 32.185 29.315 32.185 29.315Z" fill="#F7EEDE"/>
<path d="M30.75 29.725C31.365 29.725 31.8963 29.559 32.185 29.315C32.185 29.315 30.135 28.085 27.6815 25.625L29.315 29.315C29.6036 29.559 30.135 29.725 30.75 29.725Z" fill="#F7EEDE"/>
<path d="M29.315 29.315L27.6816 25.625L26.035 29.315C26.3647 29.559 26.9719 29.725 27.675 29.725C28.3782 29.725 28.9854 29.559 29.315 29.315Z" fill="#F7EEDE"/>
<path d="M26.035 29.315L27.6816 25.625C25.2183 28.0883 23.165 29.315 23.165 29.315C23.4537 29.559 23.985 29.725 24.6 29.725C25.215 29.725 25.7464 29.559 26.035 29.315Z" fill="#F7EEDE"/>
<path d="M26.035 35.465C27.347 33.2285 27.666 31.365 27.666 31.365C27.666 31.365 28.003 33.2285 29.315 35.465H26.035Z" fill="#111633"/>
<path d="M10.4549 29.52C7.22 29.52 4.9195 27.9501 4.14296 25.2134L4.12533 25.1519C4.05563 24.942 4.16305 24.7082 4.37051 24.632C4.57879 24.5549 4.80634 24.6513 4.88998 24.8559C4.89859 24.8776 4.91335 24.9231 4.93221 24.9899C5.32499 26.3753 6.56564 28.7 10.4549 28.7C15.1724 28.7 18.1711 24.4114 21.3461 19.8711C25.0767 14.5366 28.9344 9.02 36.0799 9.02C36.3066 9.02 36.4899 9.20368 36.4899 9.43C36.4899 9.65632 36.3066 9.84 36.0799 9.84C29.3612 9.84 25.6286 15.1786 22.0181 20.3409C18.7172 25.0613 15.5996 29.52 10.4549 29.52Z" fill="#111633"/>
<path d="M6.76494 34.235C6.65178 34.235 6.55994 34.1432 6.55994 34.03V28.1367C6.55994 28.0235 6.65178 27.9317 6.76494 27.9317C6.8781 27.9317 6.96994 28.0235 6.96994 28.1367V34.03C6.96994 34.1432 6.8781 34.235 6.76494 34.235Z" fill="#111633"/>
<path d="M9.22502 30.34C9.11186 30.34 9.02002 30.2482 9.02002 30.135V29.0284C9.02002 28.9152 9.11186 28.8234 9.22502 28.8234C9.33818 28.8234 9.43002 28.9152 9.43002 29.0284V30.135C9.43002 30.2482 9.33818 30.34 9.22502 30.34Z" fill="#111633"/>
<path d="M11.685 34.235C11.5718 34.235 11.48 34.1432 11.48 34.03V29.0284C11.48 28.9153 11.5718 28.8234 11.685 28.8234C11.7981 28.8234 11.89 28.9153 11.89 29.0284V34.03C11.89 34.1432 11.7981 34.235 11.685 34.235Z" fill="#111633"/>
<path d="M14.1449 34.235C14.0318 34.235 13.9399 34.1431 13.9399 34.03V28.2006C13.9399 28.0874 14.0318 27.9956 14.1449 27.9956C14.2581 27.9956 14.3499 28.0874 14.3499 28.2006V34.03C14.3499 34.1431 14.2581 34.235 14.1449 34.235Z" fill="#111633"/>
<path d="M16.605 31.57C16.4919 31.57 16.4 31.4782 16.4 31.365V26.445C16.4 26.3319 16.4919 26.24 16.605 26.24C16.7182 26.24 16.81 26.3319 16.81 26.445V31.365C16.81 31.4782 16.7182 31.57 16.605 31.57Z" fill="#111633"/>
<path d="M19.065 34.235C18.9518 34.235 18.86 34.1431 18.86 34.03V23.7111C18.86 23.5979 18.9518 23.5061 19.065 23.5061C19.1781 23.5061 19.27 23.5979 19.27 23.7111V34.03C19.27 34.1431 19.1781 34.235 19.065 34.235Z" fill="#111633"/>
<path d="M23.985 27.47C23.8719 27.47 23.78 27.3782 23.78 27.265V16.901C23.78 16.7879 23.8719 16.696 23.985 16.696C24.0982 16.696 24.19 16.7879 24.19 16.901V27.265C24.19 27.3782 24.0982 27.47 23.985 27.47Z" fill="#111633"/>
<path d="M26.445 25.01C26.3318 25.01 26.24 24.9182 26.24 24.805V19.885C26.24 19.7719 26.3318 19.68 26.445 19.68C26.5582 19.68 26.65 19.7719 26.65 19.885V24.805C26.65 24.9182 26.5582 25.01 26.445 25.01Z" fill="#111633"/>
<path d="M28.905 25.01C28.7918 25.01 28.7 24.9182 28.7 24.805V11.8035C28.7 11.6904 28.7918 11.5985 28.905 11.5985C29.0181 11.5985 29.11 11.6904 29.11 11.8035V24.805C29.11 24.9182 29.0181 25.01 28.905 25.01Z" fill="#111633"/>
<path d="M31.3649 27.47C31.2518 27.47 31.1599 27.3782 31.1599 27.265V10.391C31.1599 10.2779 31.2518 10.186 31.3649 10.186C31.4781 10.186 31.5699 10.2779 31.5699 10.391V27.265C31.5699 27.3782 31.4781 27.47 31.3649 27.47Z" fill="#111633"/>
<path d="M33.825 20.5C33.7118 20.5 33.62 20.4082 33.62 20.295V17.425C33.62 17.3118 33.7118 17.22 33.825 17.22C33.9382 17.22 34.03 17.3118 34.03 17.425V20.295C34.03 20.4082 33.9382 20.5 33.825 20.5Z" fill="#111633"/>
<path d="M33.825 32.8C33.7118 32.8 33.62 32.7082 33.62 32.595V21.525C33.62 21.4119 33.7118 21.32 33.825 21.32C33.9382 21.32 34.03 21.4119 34.03 21.525V32.595C34.03 32.7082 33.9382 32.8 33.825 32.8Z" fill="#111633"/>
<path d="M33.825 16.4C33.7118 16.4 33.62 16.3082 33.62 16.195V15.785C33.62 15.6718 33.7118 15.58 33.825 15.58C33.9382 15.58 34.03 15.6718 34.03 15.785V16.195C34.03 16.3082 33.9382 16.4 33.825 16.4Z" fill="#111633"/>
<path d="M33.825 14.76C33.7118 14.76 33.62 14.6682 33.62 14.555V9.63544C33.62 9.52228 33.7118 9.43044 33.825 9.43044C33.9382 9.43044 34.03 9.52228 34.03 9.63544V14.555C34.03 14.6682 33.9382 14.76 33.825 14.76Z" fill="#111633"/>
<path d="M16.605 34.235C16.4919 34.235 16.4 34.1431 16.4 34.03V32.595C16.4 32.4818 16.4919 32.39 16.605 32.39C16.7182 32.39 16.81 32.4818 16.81 32.595V34.03C16.81 34.1431 16.7182 34.235 16.605 34.235Z" fill="#111633"/>
<path d="M26.445 18.86C26.3318 18.86 26.24 18.7682 26.24 18.655V13.9777C26.24 13.8646 26.3318 13.7727 26.445 13.7727C26.5582 13.7727 26.65 13.8646 26.65 13.9777V18.655C26.65 18.7682 26.5582 18.86 26.445 18.86Z" fill="#111633"/>
<path d="M9.22502 34.235C9.11186 34.235 9.02002 34.1432 9.02002 34.03V31.365C9.02002 31.2518 9.11186 31.16 9.22502 31.16C9.33818 31.16 9.43002 31.2518 9.43002 31.365V34.03C9.43002 34.1432 9.33818 34.235 9.22502 34.235Z" fill="#111633"/>
<path d="M21.5249 32.8C21.4118 32.8 21.3199 32.7082 21.3199 32.595V20.3483C21.3199 20.2352 21.4118 20.1433 21.5249 20.1433C21.6381 20.1433 21.7299 20.2352 21.7299 20.3483V32.595C21.7299 32.7082 21.6381 32.8 21.5249 32.8Z" fill="#111633"/>
<path d="M17.22 9.22502H16.4V15.375H17.22V9.22502Z" fill="#111633"/>
<path d="M11.7366 11.1568L11.1567 11.7366L15.5055 16.0852L16.0853 15.5054L11.7366 11.1568Z" fill="#111633"/>
<path d="M15.375 16.4H9.22498V17.22H15.375V16.4Z" fill="#111633"/>
<path d="M15.5045 17.5345L11.1559 21.8833L11.7357 22.4631L16.0844 18.1143L15.5045 17.5345Z" fill="#111633"/>
<path d="M18.1138 17.5356L17.5339 18.1155L20.7422 21.3236L21.322 20.7438L18.1138 17.5356Z" fill="#111633"/>
<path d="M21.8829 11.1565L17.5343 15.5053L18.1141 16.0851L22.4628 11.7364L21.8829 11.1565Z" fill="#111633"/>
<path d="M17.22 18.245H16.4V24.395H17.22V18.245Z" fill="#111633"/>
<path d="M24.049 16.4H18.245V17.22H24.049V16.4Z" fill="#111633"/>
<path d="M14.9043 26.4589C13.6128 26.2047 12.4103 25.7086 11.3315 24.9842L11.7887 24.3036C12.7764 24.9669 13.8781 25.4216 15.0625 25.6541L14.9043 26.4589Z" fill="#111633"/>
<path d="M8.63578 22.2884C7.91131 21.2097 7.41521 20.0076 7.16101 18.7157L7.96584 18.5574C8.19872 19.7419 8.65341 20.8436 9.31638 21.8313L8.63578 22.2884Z" fill="#111633"/>
<path d="M7.96096 15.0622L7.15613 14.9039C7.405 13.635 7.90561 12.4349 8.64279 11.3369L9.32339 11.7941C8.6473 12.801 8.18892 13.9006 7.96096 15.0622Z" fill="#111633"/>
<path d="M11.7924 9.32096L11.3352 8.64036C12.4151 7.91466 13.616 7.41774 14.9038 7.16272L15.0633 7.96714C13.8817 8.20043 12.7817 8.65635 11.7924 9.32096Z" fill="#111633"/>
<path d="M21.8256 9.32339C20.8182 8.64689 19.7186 8.18851 18.5579 7.96096L18.7157 7.15613C19.9843 7.405 21.1843 7.9052 22.2827 8.64238L21.8256 9.32339Z" fill="#111633"/>
<path d="M25.5524 14.6107C25.2966 13.5976 24.8751 12.6493 24.2991 11.792L24.9797 11.3348C25.6082 12.2705 26.0682 13.3049 26.3474 14.4098L25.5524 14.6107Z" fill="#111633"/>
<path d="M23.4782 12.1918C22.9304 12.1918 22.4154 11.9786 22.0284 11.5915C21.2293 10.7924 21.2293 9.49151 22.0284 8.69242C22.4154 8.30538 22.9304 8.09218 23.4782 8.09218C24.0259 8.09218 24.5405 8.30538 24.9275 8.69242C25.3145 9.07946 25.5282 9.59442 25.5282 10.1418C25.5282 10.6891 25.3145 11.2041 24.9275 11.5915C24.5401 11.9786 24.0259 12.1918 23.4782 12.1918ZM23.4782 8.50218C23.0403 8.50218 22.6282 8.67274 22.3183 8.98229C21.6791 9.62189 21.6791 10.6621 22.3183 11.3017C22.9382 11.9212 24.0185 11.9212 24.6376 11.3017C24.9476 10.9921 25.1182 10.5801 25.1182 10.1418C25.1182 9.70389 24.9476 9.29184 24.6376 8.98229C24.3281 8.67274 23.916 8.50218 23.4782 8.50218Z" fill="#111633"/>
<path d="M16.8099 18.45C15.9055 18.45 15.1699 17.7144 15.1699 16.81C15.1699 15.9055 15.9055 15.17 16.8099 15.17C17.7144 15.17 18.4499 15.9055 18.4499 16.81C18.4499 17.7144 17.7144 18.45 16.8099 18.45ZM16.8099 15.58C16.1318 15.58 15.5799 16.1318 15.5799 16.81C15.5799 17.4881 16.1318 18.04 16.8099 18.04C17.4881 18.04 18.0399 17.4881 18.0399 16.81C18.0399 16.1318 17.4881 15.58 16.8099 15.58Z" fill="#111633"/>
<path d="M16.81 9.43C15.6796 9.43 14.76 8.51037 14.76 7.38C14.76 6.24963 15.6796 5.33 16.81 5.33C17.9404 5.33 18.86 6.24963 18.86 7.38C18.86 8.51037 17.9404 9.43 16.81 9.43ZM16.81 5.74C15.9055 5.74 15.17 6.47554 15.17 7.38C15.17 8.28446 15.9055 9.02 16.81 9.02C17.7145 9.02 18.45 8.28446 18.45 7.38C18.45 6.47554 17.7145 5.74 16.81 5.74Z" fill="#111633"/>
<path d="M10.1418 12.1918C9.59404 12.1918 9.07949 11.9786 8.69245 11.5915C8.30541 11.2045 8.0918 10.6895 8.0918 10.1418C8.0918 9.59442 8.30541 9.07946 8.69245 8.69242C9.07949 8.30538 9.59404 8.09218 10.1418 8.09218C10.6896 8.09218 11.2045 8.30538 11.5916 8.69242C12.3906 9.49151 12.3906 10.7924 11.5916 11.5915C11.2045 11.9786 10.6896 12.1918 10.1418 12.1918ZM10.1418 8.50218C9.70392 8.50218 9.29187 8.67274 8.98232 8.98229C8.67236 9.29184 8.5018 9.70389 8.5018 10.1418C8.5018 10.5801 8.67236 10.9917 8.98232 11.3017C9.60142 11.9212 10.6822 11.9212 11.3017 11.3017C11.9409 10.6621 11.9409 9.62189 11.3017 8.98229C10.9921 8.67274 10.5801 8.50218 10.1418 8.50218Z" fill="#111633"/>
<path d="M7.37996 18.86C6.24959 18.86 5.32996 17.9403 5.32996 16.81C5.32996 15.6796 6.24959 14.76 7.37996 14.76C8.51033 14.76 9.42996 15.6796 9.42996 16.81C9.42996 17.9403 8.51033 18.86 7.37996 18.86ZM7.37996 15.17C6.4755 15.17 5.73996 15.9055 5.73996 16.81C5.73996 17.7144 6.4755 18.45 7.37996 18.45C8.28442 18.45 9.01996 17.7144 9.01996 16.81C9.01996 15.9055 8.28442 15.17 7.37996 15.17Z" fill="#111633"/>
<path d="M10.1418 25.5278C9.59404 25.5278 9.07949 25.3146 8.69245 24.9276C8.30541 24.5406 8.0918 24.0256 8.0918 23.4783C8.0918 22.9309 8.30541 22.4159 8.69245 22.0285C9.07949 21.6415 9.59404 21.4283 10.1418 21.4283C10.6896 21.4283 11.2045 21.6415 11.5916 22.0285C12.3906 22.8276 12.3906 24.1285 11.5916 24.9276C11.2045 25.3146 10.6896 25.5278 10.1418 25.5278ZM10.1418 21.8383C9.70392 21.8383 9.29187 22.0088 8.98232 22.3184C8.67236 22.6279 8.5018 23.04 8.5018 23.4783C8.5018 23.9161 8.67236 24.3282 8.98232 24.6377C9.29187 24.9473 9.70392 25.1178 10.1418 25.1178C10.5797 25.1178 10.9917 24.9473 11.3017 24.6377C11.9409 23.9981 11.9409 22.958 11.3017 22.3184C10.9921 22.0088 10.5801 21.8383 10.1418 21.8383ZM8.83759 22.1736H8.84169H8.83759Z" fill="#111633"/>
<path d="M15.368 27.698L15.2454 27.552C14.9277 27.1732 14.76 26.7193 14.76 26.24C14.76 25.1096 15.6796 24.19 16.81 24.19C17.3352 24.19 17.8362 24.3917 18.2204 24.7579L18.3627 24.8932L18.2339 25.0412C17.3053 26.1072 16.4185 26.9395 15.523 27.5864L15.368 27.698ZM16.81 24.6C15.9055 24.6 15.17 25.3355 15.17 26.24C15.17 26.5594 15.2643 26.8653 15.4443 27.1346C16.2163 26.5569 16.9859 25.8321 17.7879 24.9276C17.505 24.7152 17.1642 24.6 16.81 24.6Z" fill="#111633"/>
<path d="M33.005 35.67H22.345C22.2807 35.67 22.22 35.6396 22.1814 35.5884C22.1425 35.5371 22.1306 35.4703 22.1482 35.4088C22.951 32.5987 22.96 29.3474 22.96 29.315C22.96 29.2428 22.9982 29.176 23.0597 29.1391C23.0802 29.1268 25.122 27.8943 27.5369 25.4803C27.5754 25.4417 27.6275 25.42 27.682 25.42C27.7365 25.42 27.789 25.4417 27.8271 25.4803C30.2342 27.8943 32.2703 29.1272 32.2904 29.1391C32.3523 29.1764 32.39 29.2428 32.39 29.315C32.39 29.3474 32.3999 32.6007 33.2018 35.4088C33.2195 35.4707 33.2076 35.5371 33.1686 35.5884C33.1301 35.6396 33.0694 35.67 33.005 35.67ZM22.614 35.26H32.7361C32.0698 32.7627 31.9907 30.0177 31.9813 29.4294C31.5508 29.1559 29.7623 27.9726 27.6816 25.914C25.5926 27.9755 23.8005 29.1567 23.3688 29.4298C23.3598 30.0185 23.2802 32.7631 22.614 35.26Z" fill="#111633"/>
<path d="M27.6749 29.93C26.9525 29.93 26.2941 29.7615 25.9132 29.4798C25.8217 29.4126 25.8025 29.2842 25.8701 29.1932C25.9382 29.1022 26.0669 29.0833 26.1567 29.1506C26.4654 29.3781 27.0472 29.52 27.6749 29.52C28.3026 29.52 28.8844 29.3781 29.1932 29.1502C29.2838 29.0829 29.4121 29.1022 29.4798 29.1928C29.547 29.2838 29.5277 29.4121 29.4367 29.4794C29.0558 29.7615 28.3974 29.93 27.6749 29.93Z" fill="#111633"/>
<path d="M30.75 29.93C30.1084 29.93 29.5225 29.7586 29.1826 29.4716C29.0965 29.3986 29.0854 29.2691 29.1584 29.1826C29.2314 29.0961 29.3609 29.0858 29.4474 29.1584C29.7111 29.3814 30.2105 29.52 30.75 29.52C31.2896 29.52 31.789 29.3814 32.0526 29.1584C32.1395 29.0858 32.2687 29.0961 32.3416 29.1826C32.415 29.2691 32.4036 29.3982 32.3175 29.4716C31.9776 29.7586 31.3917 29.93 30.75 29.93Z" fill="#111633"/>
<path d="M24.6 29.93C23.9583 29.93 23.3725 29.7586 23.0326 29.4716C22.9465 29.3986 22.9354 29.2691 23.0084 29.1826C23.0814 29.0961 23.2105 29.0858 23.2974 29.1584C23.5611 29.3814 24.0604 29.52 24.6 29.52C25.1396 29.52 25.6389 29.3814 25.9026 29.1584C25.9899 29.0858 26.1186 29.0961 26.1916 29.1826C26.265 29.2691 26.2535 29.3982 26.1674 29.4716C25.8275 29.7586 25.2416 29.93 24.6 29.93Z" fill="#111633"/>
<path d="M29.1379 35.5687C28.3351 34.2006 27.894 32.9792 27.6689 32.2174C27.4491 32.9796 27.0141 34.201 26.2117 35.5687L25.8579 35.3613C27.1334 33.187 27.4602 31.3486 27.4635 31.3302C27.4807 31.2322 27.5651 31.1604 27.6648 31.16C27.6648 31.16 27.6652 31.16 27.6656 31.16C27.7644 31.16 27.8493 31.2305 27.8673 31.3281C27.8706 31.3466 28.2154 33.1858 29.4917 35.3609L29.1379 35.5687Z" fill="#111633"/>
<path d="M27.8667 25.5428L27.4922 25.7086L29.1253 29.3986L29.4998 29.2328L27.8667 25.5428Z" fill="#111633"/>
<path d="M27.4928 25.5446L25.8481 29.2357L26.223 29.4027L27.8677 25.7116L27.4928 25.5446Z" fill="#111633"/>
<path d="M22.7619 33.62H4.50998C4.28366 33.62 4.09998 33.8037 4.09998 34.03C4.09998 34.2563 4.28366 34.44 4.50998 34.44H22.6008C22.6611 34.1649 22.714 33.8914 22.7619 33.62Z" fill="#111633"/>
<path d="M36.08 33.62H32.588C32.636 33.8914 32.6889 34.1649 32.7491 34.44H36.08C36.3063 34.44 36.49 34.2563 36.49 34.03C36.49 33.8037 36.3063 33.62 36.08 33.62Z" fill="#111633"/>
</svg>
