<svg width="41" height="41" viewBox="0 0 41 41" fill="none" xmlns="http://www.w3.org/2000/svg">
<g clip-path="url(#clip0)">
<path d="M28.2177 7.23544L38.1059 17.1237V37.6237C38.1059 39.4885 36.5942 41.0001 34.7295 41.0001H13.5059C11.6411 41.0001 10.1295 39.4885 10.1295 37.6237V10.6119C10.1295 8.74714 11.6411 7.23544 13.5059 7.23544H28.2177Z" fill="#DEAB9E"/>
<path d="M19.776 30.6296C19.6091 30.6296 19.4422 30.5727 19.3053 30.4554L15.9288 27.5613C15.7686 27.4239 15.6765 27.2232 15.6765 27.0119C15.6765 26.8007 15.7686 26.6 15.9288 26.4625L19.3053 23.5684C19.6096 23.3084 20.0654 23.3436 20.3254 23.6466C20.5854 23.95 20.5507 24.4067 20.2473 24.6667L17.5119 27.0119L20.2478 29.3566C20.5512 29.6166 20.5859 30.0734 20.3259 30.3768C20.1827 30.5437 19.9801 30.6296 19.776 30.6296ZM28.4593 30.6296C28.6262 30.6296 28.7931 30.5727 28.9301 30.4554L32.3066 27.5613C32.4667 27.4239 32.5589 27.2232 32.5589 27.0119C32.5589 26.8007 32.4667 26.6 32.3066 26.4625L28.9301 23.5684C28.6258 23.3084 28.1699 23.3436 27.9099 23.6466C27.65 23.95 27.6847 24.4067 27.9881 24.6667L30.7235 27.0119L27.9876 29.3566C27.6842 29.6166 27.6495 30.0734 27.9095 30.3768C28.0527 30.5437 28.2553 30.6296 28.4593 30.6296ZM21.7122 33.5169C21.6162 33.5169 21.5183 33.4976 21.4242 33.4571C21.0576 33.2975 20.8898 32.8716 21.049 32.505L26.3481 20.9324C26.5073 20.5653 26.9337 20.3994 27.3003 20.5571C27.6668 20.7167 27.8347 21.1427 27.6755 21.5092L22.3764 33.0814C22.2577 33.3544 21.9915 33.5169 21.7122 33.5169Z" fill="#F7EEDE"/>
<path d="M35.9353 19.5354V20.5002M35.9353 25.3237V37.3825C35.9353 38.1818 35.2875 38.8296 34.4883 38.8296H13.7471C12.9478 38.8296 12.3 38.1818 12.3 37.3825V10.8531C12.3 10.0538 12.9478 9.40604 13.7471 9.40604H20.0177L35.9353 25.3237ZM35.9353 21.9472V23.8766V21.9472Z" stroke="#111633" stroke-width="0.5" stroke-miterlimit="10" stroke-linecap="round" stroke-linejoin="round"/>
<path d="M28.2177 7.23544V13.7472C28.2177 15.612 29.7294 17.1237 31.5942 17.1237H38.1059" fill="#F7EEDE"/>
<path d="M28.2177 7.23544V13.7472C28.2177 15.612 29.7294 17.1237 31.5942 17.1237H38.1059" stroke="#111633" stroke-width="0.5" stroke-miterlimit="10"/>
<path d="M28.2177 7.23544L38.1059 17.1237V37.6237C38.1059 39.4885 36.5942 41.0001 34.7295 41.0001H13.5059C11.6411 41.0001 10.1295 39.4885 10.1295 37.6237V10.6119C10.1295 8.74714 11.6411 7.23544 13.5059 7.23544H28.2177Z" stroke="#111633" stroke-miterlimit="10" stroke-linejoin="round"/>
<path d="M19.776 30.6296C19.6091 30.6296 19.4422 30.5727 19.3053 30.4554L15.9288 27.5613C15.7686 27.4239 15.6765 27.2232 15.6765 27.0119C15.6765 26.8007 15.7686 26.6 15.9288 26.4625L19.3053 23.5684C19.6096 23.3084 20.0654 23.3436 20.3254 23.6466C20.5854 23.95 20.5507 24.4067 20.2473 24.6667L17.5119 27.0119L20.2478 29.3566C20.5512 29.6166 20.5859 30.0734 20.3259 30.3768C20.1827 30.5437 19.9801 30.6296 19.776 30.6296ZM28.4593 30.6296C28.6262 30.6296 28.7931 30.5727 28.9301 30.4554L32.3066 27.5613C32.4667 27.4239 32.5589 27.2232 32.5589 27.0119C32.5589 26.8007 32.4667 26.6 32.3066 26.4625L28.9301 23.5684C28.6258 23.3084 28.1699 23.3436 27.9099 23.6466C27.65 23.95 27.6847 24.4067 27.9881 24.6667L30.7235 27.0119L27.9876 29.3566C27.6842 29.6166 27.6495 30.0734 27.9095 30.3768C28.0527 30.5437 28.2553 30.6296 28.4593 30.6296ZM21.7122 33.5169C21.6162 33.5169 21.5183 33.4976 21.4242 33.4571C21.0576 33.2975 20.8898 32.8716 21.049 32.505L26.3481 20.9324C26.5073 20.5653 26.9337 20.3994 27.3003 20.5571C27.6668 20.7167 27.8347 21.1427 27.6755 21.5092L22.3764 33.0814C22.2577 33.3544 21.9915 33.5169 21.7122 33.5169Z" stroke="#111633" stroke-width="0.5" stroke-miterlimit="10" stroke-linejoin="round"/>
</g>
<defs>
<clipPath id="clip0">
<rect width="41" height="41" fill="white" transform="translate(6.10352e-05 0.000152588)"/>
</clipPath>
</defs>
</svg>
