<svg width="41" height="41" viewBox="0 0 41 41" fill="none" xmlns="http://www.w3.org/2000/svg">
<path d="M9.02007 28.789C9.02007 31.5701 9.02007 34.0301 7.38007 35.6701C10.1308 35.6701 13.5301 34.8501 15.6539 31.8259C17.1856 32.1925 18.8129 32.3901 20.5001 32.3901C29.5574 32.3901 36.9001 26.6997 36.9001 19.6801C36.9001 12.6605 29.5574 6.97008 20.5001 6.97008C11.4428 6.97008 4.10007 12.6605 4.10007 19.6801C4.10007 23.2352 5.98402 26.4508 9.02007 28.7579V28.789Z" fill="#E3CE63"/>
<path d="M20.5001 21.1151C21.2926 21.1151 21.9351 20.4726 21.9351 19.6801C21.9351 18.8876 21.2926 18.2451 20.5001 18.2451C19.7075 18.2451 19.0651 18.8876 19.0651 19.6801C19.0651 20.4726 19.7075 21.1151 20.5001 21.1151Z" fill="#F7EEDE"/>
<path d="M13.5301 21.1151C14.3226 21.1151 14.9651 20.4726 14.9651 19.6801C14.9651 18.8876 14.3226 18.2451 13.5301 18.2451C12.7375 18.2451 12.0951 18.8876 12.0951 19.6801C12.0951 20.4726 12.7375 21.1151 13.5301 21.1151Z" fill="#F7EEDE"/>
<path d="M27.4701 21.1151C28.2626 21.1151 28.9051 20.4726 28.9051 19.6801C28.9051 18.8876 28.2626 18.2451 27.4701 18.2451C26.6775 18.2451 26.0351 18.8876 26.0351 19.6801C26.0351 20.4726 26.6775 21.1151 27.4701 21.1151Z" fill="#F7EEDE"/>
<path d="M7.38006 36.08C7.21442 36.08 7.06477 35.9804 7.00122 35.8271C6.93767 35.6737 6.97293 35.4974 7.09019 35.3802C8.57849 33.8919 8.60965 31.6086 8.61006 28.9596C5.43543 26.4836 3.69006 23.195 3.69006 19.68C3.69006 12.4456 11.2312 6.56004 20.5001 6.56004C29.7689 6.56004 37.3101 12.4456 37.3101 19.68C37.3101 26.9145 29.7689 32.8 20.5001 32.8C18.9097 32.8 17.3386 32.6274 15.8261 32.2867C13.3599 35.5803 9.49402 36.08 7.38006 36.08ZM20.5001 7.38004C11.683 7.38004 4.51006 12.8978 4.51006 19.68C4.51006 22.992 6.20008 26.0998 9.26811 28.4315C9.3702 28.5086 9.43006 28.6295 9.43006 28.7579V28.7894C9.43006 31.2088 9.43006 33.5122 8.27263 35.2289C10.3501 35.0829 13.3775 34.3535 15.3181 31.5905C15.4148 31.4532 15.5854 31.3888 15.749 31.4274C17.2812 31.7939 18.8797 31.98 20.5001 31.98C29.3171 31.98 36.4901 26.4623 36.4901 19.68C36.4901 12.8978 29.3171 7.38004 20.5001 7.38004Z" fill="#111633"/>
<path d="M8.32226 25.8301C8.26527 25.8301 8.20869 25.8063 8.16851 25.7604C6.57976 23.9535 5.74008 21.851 5.74008 19.6801C5.74008 13.576 12.3612 8.61006 20.5001 8.61006C24.3459 8.61006 27.9883 9.71583 30.7566 11.7244C30.8485 11.7908 30.8686 11.9192 30.8022 12.0106C30.7357 12.102 30.6066 12.1221 30.516 12.0557C27.8169 10.0984 24.2598 9.02006 20.5001 9.02006C12.5875 9.02006 6.15008 13.8019 6.15008 19.6801C6.15008 21.7497 6.9545 23.7583 8.47642 25.4898C8.55104 25.5746 8.54284 25.7042 8.45797 25.7792C8.41902 25.8132 8.37064 25.8301 8.32226 25.8301Z" fill="#111633"/>
<path d="M20.5001 30.75C20.0146 30.75 19.5267 30.732 19.0499 30.6971C18.9371 30.6885 18.8523 30.5901 18.8605 30.4774C18.8687 30.3646 18.9658 30.2757 19.0798 30.288C19.5468 30.3224 20.0245 30.34 20.5001 30.34C28.4127 30.34 34.8501 25.5582 34.8501 19.68C34.8501 17.8576 34.2162 16.0573 33.017 14.4739C32.9485 14.3837 32.9661 14.2553 33.0567 14.1869C33.1473 14.1184 33.2757 14.136 33.3437 14.2266C34.5975 15.8814 35.2601 17.7674 35.2601 19.68C35.2601 25.7841 28.639 30.75 20.5001 30.75Z" fill="#111633"/>
<path d="M32.6779 13.94C32.6209 13.94 32.5643 13.9163 32.5241 13.8703C32.4044 13.7338 32.2802 13.5997 32.1523 13.4681C32.0731 13.3869 32.0752 13.257 32.1564 13.1783C32.2375 13.0991 32.3679 13.1012 32.4462 13.1824C32.5791 13.3189 32.7078 13.4587 32.832 13.6001C32.9067 13.685 32.8985 13.8146 32.8136 13.8896C32.7742 13.9232 32.7259 13.94 32.6779 13.94Z" fill="#111633"/>
<path d="M31.657 12.9151C31.6082 12.9151 31.5594 12.8978 31.5204 12.863C31.4266 12.7793 31.331 12.6965 31.2334 12.6153C31.1465 12.5424 31.135 12.4132 31.208 12.3267C31.2802 12.2394 31.4097 12.2283 31.4967 12.3009C31.5975 12.3853 31.6963 12.4706 31.7935 12.5575C31.878 12.633 31.8853 12.7625 31.8099 12.847C31.7693 12.8917 31.7131 12.9151 31.657 12.9151Z" fill="#111633"/>
<path d="M20.5001 21.3201C19.5956 21.3201 18.8601 20.5845 18.8601 19.6801C18.8601 18.7756 19.5956 18.0401 20.5001 18.0401C21.4045 18.0401 22.1401 18.7756 22.1401 19.6801C22.1401 20.5845 21.4045 21.3201 20.5001 21.3201ZM20.5001 18.4501C19.8219 18.4501 19.2701 19.0019 19.2701 19.6801C19.2701 20.3582 19.8219 20.9101 20.5001 20.9101C21.1782 20.9101 21.7301 20.3582 21.7301 19.6801C21.7301 19.0019 21.1782 18.4501 20.5001 18.4501Z" fill="#111633"/>
<path d="M13.53 21.3201C12.6256 21.3201 11.89 20.5845 11.89 19.6801C11.89 18.7756 12.6256 18.0401 13.53 18.0401C14.4345 18.0401 15.17 18.7756 15.17 19.6801C15.17 20.5845 14.4345 21.3201 13.53 21.3201ZM13.53 18.4501C12.8519 18.4501 12.3 19.0019 12.3 19.6801C12.3 20.3582 12.8519 20.9101 13.53 20.9101C14.2082 20.9101 14.76 20.3582 14.76 19.6801C14.76 19.0019 14.2082 18.4501 13.53 18.4501Z" fill="#111633"/>
<path d="M27.47 21.3201C26.5656 21.3201 25.83 20.5845 25.83 19.6801C25.83 18.7756 26.5656 18.0401 27.47 18.0401C28.3745 18.0401 29.1101 18.7756 29.1101 19.6801C29.1101 20.5845 28.3745 21.3201 27.47 21.3201ZM27.47 18.4501C26.7919 18.4501 26.24 19.0019 26.24 19.6801C26.24 20.3582 26.7919 20.9101 27.47 20.9101C28.1482 20.9101 28.7 20.3582 28.7 19.6801C28.7 19.0019 28.1482 18.4501 27.47 18.4501Z" fill="#111633"/>
</svg>
