<svg width="41" height="41" viewBox="0 0 41 41" fill="none" xmlns="http://www.w3.org/2000/svg">
<path d="M29.1101 33.6203H11.8901C9.39932 33.6203 7.38007 31.601 7.38007 29.1103V11.8903C7.38007 9.39953 9.39932 7.38028 11.8901 7.38028H29.1101C31.6008 7.38028 33.6201 9.39953 33.6201 11.8903V29.1103C33.6201 31.601 31.6008 33.6203 29.1101 33.6203Z" fill="#E1CC61"/>
<path d="M25.0101 26.0353V27.6753C25.0101 27.7901 24.9199 27.8803 24.8051 27.8803H17.4251C17.3103 27.8803 17.2201 27.7901 17.2201 27.6753V26.0353C17.2201 25.9205 17.3103 25.8303 17.4251 25.8303H19.0651C19.1799 25.8303 19.2701 25.7401 19.2701 25.6253V19.4753C19.2701 19.3605 19.1799 19.2703 19.0651 19.2703H17.8351C17.7203 19.2703 17.6301 19.1801 17.6301 19.0653V17.4253C17.6301 17.3105 17.7203 17.2203 17.8351 17.2203H22.7551C22.8699 17.2203 22.9601 17.3105 22.9601 17.4253V25.6253C22.9601 25.7401 23.0503 25.8303 23.1651 25.8303H24.8051C24.9199 25.8303 25.0101 25.9205 25.0101 26.0353ZM20.7051 12.5053C20.4359 12.5053 20.1693 12.553 19.9206 12.6457C19.6718 12.7384 19.4459 12.8743 19.2555 13.0457C19.0651 13.217 18.9141 13.4204 18.8111 13.6442C18.7081 13.8681 18.6551 14.108 18.6551 14.3503C18.6551 14.5926 18.7081 14.8325 18.8111 15.0563C18.9141 15.2802 19.0651 15.4836 19.2555 15.6549C19.4459 15.8262 19.6718 15.9621 19.9206 16.0548C20.1693 16.1476 20.4359 16.1953 20.7051 16.1953C20.9743 16.1953 21.2408 16.1476 21.4896 16.0548C21.7383 15.9621 21.9643 15.8262 22.1546 15.6549C22.345 15.4836 22.496 15.2802 22.599 15.0563C22.702 14.8325 22.7551 14.5926 22.7551 14.3503C22.7551 14.108 22.702 13.8681 22.599 13.6442C22.496 13.4204 22.345 13.217 22.1546 13.0457C21.9643 12.8743 21.7383 12.7384 21.4896 12.6457C21.2408 12.553 20.9743 12.5053 20.7051 12.5053Z" fill="#F7EEDE"/>
<path d="M29.1101 34.0303H11.8901C9.17709 34.0303 6.97006 31.8232 6.97006 29.1103V11.8903C6.97006 9.17731 9.17709 6.97028 11.8901 6.97028H29.1101C31.823 6.97028 34.0301 9.17731 34.0301 11.8903V29.1103C34.0301 31.8232 31.823 34.0303 29.1101 34.0303ZM11.8901 7.79028C9.62932 7.79028 7.79006 9.62954 7.79006 11.8903V29.1103C7.79006 31.371 9.62932 33.2103 11.8901 33.2103H29.1101C31.3708 33.2103 33.2101 31.371 33.2101 29.1103V11.8903C33.2101 9.62954 31.3708 7.79028 29.1101 7.79028H11.8901Z" fill="#111633"/>
<path d="M29.11 31.9803H11.89C10.3074 31.9803 9.02005 30.6924 9.02005 29.1103V11.8903C9.02005 10.3081 10.3074 9.02026 11.89 9.02026H27.265C27.3782 9.02026 27.47 9.1121 27.47 9.22526C27.47 9.33842 27.3782 9.43026 27.265 9.43026H11.89C10.5334 9.43026 9.43005 10.5336 9.43005 11.8903V29.1103C9.43005 30.4669 10.5334 31.5703 11.89 31.5703H29.11C30.4667 31.5703 31.57 30.4669 31.57 29.1103V20.9103C31.57 20.7971 31.6619 20.7053 31.775 20.7053C31.8882 20.7053 31.98 20.7971 31.98 20.9103V29.1103C31.98 30.6924 30.6926 31.9803 29.11 31.9803ZM31.775 19.6803C31.6619 19.6803 31.57 19.5884 31.57 19.4753V17.8353C31.57 17.7221 31.6619 17.6303 31.775 17.6303C31.8882 17.6303 31.98 17.7221 31.98 17.8353V19.4753C31.98 19.5884 31.8882 19.6803 31.775 19.6803ZM31.775 17.2203C31.6619 17.2203 31.57 17.1284 31.57 17.0153V16.1953C31.57 16.0821 31.6619 15.9903 31.775 15.9903C31.8882 15.9903 31.98 16.0821 31.98 16.1953V17.0153C31.98 17.1284 31.8882 17.2203 31.775 17.2203Z" fill="#111633"/>
<path d="M20.7051 16.4003C21.9482 16.4003 22.9601 15.4806 22.9601 14.3503C22.9601 13.2199 21.9482 12.3003 20.7051 12.3003C19.4619 12.3003 18.4501 13.2199 18.4501 14.3503C18.4501 15.4806 19.4619 16.4003 20.7051 16.4003ZM20.7051 12.7103C21.7223 12.7103 22.5501 13.4458 22.5501 14.3503C22.5501 15.2547 21.7223 15.9903 20.7051 15.9903C19.6879 15.9903 18.8601 15.2547 18.8601 14.3503C18.8601 13.4458 19.6879 12.7103 20.7051 12.7103ZM24.8051 25.8303H23.1651C23.0523 25.8303 22.9601 25.738 22.9601 25.6253V24.8053C22.9601 24.6921 22.8682 24.6003 22.7551 24.6003C22.6419 24.6003 22.5501 24.6921 22.5501 24.8053V25.6253C22.5501 25.9643 22.826 26.2403 23.1651 26.2403H24.6001V27.4703H17.6301V26.2403H19.0651C19.4041 26.2403 19.6801 25.9643 19.6801 25.6253V19.4753C19.6801 19.1362 19.4041 18.8603 19.0651 18.8603H18.0401V17.6303H22.5501V23.5753C22.5501 23.6884 22.6419 23.7803 22.7551 23.7803C22.8682 23.7803 22.9601 23.6884 22.9601 23.5753V17.4253C22.9601 17.3121 22.8682 17.2203 22.7551 17.2203H17.8351C17.7219 17.2203 17.6301 17.3121 17.6301 17.4253V19.0653C17.6301 19.1784 17.7219 19.2703 17.8351 19.2703H19.0651C19.1778 19.2703 19.2701 19.3625 19.2701 19.4753V25.6253C19.2701 25.738 19.1778 25.8303 19.0651 25.8303H17.4251C17.3119 25.8303 17.2201 25.9221 17.2201 26.0353V27.6753C17.2201 27.7884 17.3119 27.8803 17.4251 27.8803H24.8051C24.9182 27.8803 25.0101 27.7884 25.0101 27.6753V26.0353C25.0101 25.9221 24.9182 25.8303 24.8051 25.8303Z" fill="#111633"/>
</svg>
