<svg width="41" height="41" viewBox="0 0 41 41" fill="none" xmlns="http://www.w3.org/2000/svg">
<path d="M29.11 33.62H11.89C9.39925 33.62 7.38 31.6008 7.38 29.11V11.89C7.38 9.39926 9.39925 7.38 11.89 7.38H29.11C31.6007 7.38 33.62 9.39926 33.62 11.89V29.11C33.62 31.6008 31.6007 33.62 29.11 33.62Z" fill="#DEAB9E"/>
<path d="M25.01 26.035V27.675C25.01 27.7898 24.9198 27.88 24.805 27.88H17.425C17.3102 27.88 17.22 27.7898 17.22 27.675V26.035C17.22 25.9202 17.3102 25.83 17.425 25.83H19.065C19.1798 25.83 19.27 25.7398 19.27 25.625V19.475C19.27 19.3602 19.1798 19.27 19.065 19.27H17.835C17.7202 19.27 17.63 19.1798 17.63 19.065V17.425C17.63 17.3102 17.7202 17.22 17.835 17.22H22.755C22.8698 17.22 22.96 17.3102 22.96 17.425V25.625C22.96 25.7398 23.0502 25.83 23.165 25.83H24.805C24.9198 25.83 25.01 25.9202 25.01 26.035ZM20.705 12.505C20.4358 12.505 20.1692 12.5527 19.9205 12.6454C19.6718 12.7382 19.4458 12.8741 19.2554 13.0454C19.065 13.2167 18.914 13.4201 18.811 13.644C18.708 13.8678 18.655 14.1077 18.655 14.35C18.655 14.5923 18.708 14.8322 18.811 15.0561C18.914 15.2799 19.065 15.4833 19.2554 15.6546C19.4458 15.8259 19.6718 15.9618 19.9205 16.0546C20.1692 16.1473 20.4358 16.195 20.705 16.195C20.9742 16.195 21.2408 16.1473 21.4895 16.0546C21.7382 15.9618 21.9642 15.8259 22.1545 15.6546C22.3449 15.4833 22.4959 15.2799 22.5989 15.0561C22.7019 14.8322 22.755 14.5923 22.755 14.35C22.755 14.1077 22.7019 13.8678 22.5989 13.644C22.4959 13.4201 22.3449 13.2167 22.1545 13.0454C21.9642 12.8741 21.7382 12.7382 21.4895 12.6454C21.2408 12.5527 20.9742 12.505 20.705 12.505V12.505Z" fill="#F7EEDE"/>
<path d="M29.11 34.03H11.89C9.177 34.03 6.96997 31.823 6.96997 29.11V11.89C6.96997 9.17703 9.177 6.97 11.89 6.97H29.11C31.8229 6.97 34.03 9.17703 34.03 11.89V29.11C34.03 31.823 31.8229 34.03 29.11 34.03ZM11.89 7.79C9.62923 7.79 7.78997 9.62926 7.78997 11.89V29.11C7.78997 31.3707 9.62923 33.21 11.89 33.21H29.11C31.3707 33.21 33.21 31.3707 33.21 29.11V11.89C33.21 9.62926 31.3707 7.79 29.11 7.79H11.89Z" fill="#111633"/>
<path d="M29.11 31.98H11.89C10.3074 31.98 9.02002 30.6922 9.02002 29.11V11.89C9.02002 10.3078 10.3074 9.01999 11.89 9.01999H27.265C27.3782 9.01999 27.47 9.11183 27.47 9.22499C27.47 9.33815 27.3782 9.42999 27.265 9.42999H11.89C10.5333 9.42999 9.43002 10.5333 9.43002 11.89V29.11C9.43002 30.4667 10.5333 31.57 11.89 31.57H29.11C30.4667 31.57 31.57 30.4667 31.57 29.11V20.91C31.57 20.7968 31.6619 20.705 31.775 20.705C31.8882 20.705 31.98 20.7968 31.98 20.91V29.11C31.98 30.6922 30.6926 31.98 29.11 31.98ZM31.775 19.68C31.6619 19.68 31.57 19.5881 31.57 19.475V17.835C31.57 17.7218 31.6619 17.63 31.775 17.63C31.8882 17.63 31.98 17.7218 31.98 17.835V19.475C31.98 19.5881 31.8882 19.68 31.775 19.68ZM31.775 17.22C31.6619 17.22 31.57 17.1281 31.57 17.015V16.195C31.57 16.0818 31.6619 15.99 31.775 15.99C31.8882 15.99 31.98 16.0818 31.98 16.195V17.015C31.98 17.1281 31.8882 17.22 31.775 17.22Z" fill="#111633"/>
<path d="M20.705 16.4C21.9481 16.4 22.96 15.4804 22.96 14.35C22.96 13.2196 21.9481 12.3 20.705 12.3C19.4619 12.3 18.45 13.2196 18.45 14.35C18.45 15.4804 19.4619 16.4 20.705 16.4ZM20.705 12.71C21.7222 12.71 22.55 13.4455 22.55 14.35C22.55 15.2544 21.7222 15.99 20.705 15.99C19.6878 15.99 18.86 15.2544 18.86 14.35C18.86 13.4455 19.6878 12.71 20.705 12.71ZM24.805 25.83H23.165C23.0522 25.83 22.96 25.7377 22.96 25.625V24.805C22.96 24.6918 22.8681 24.6 22.755 24.6C22.6418 24.6 22.55 24.6918 22.55 24.805V25.625C22.55 25.9641 22.8259 26.24 23.165 26.24H24.6V27.47H17.63V26.24H19.065C19.404 26.24 19.68 25.9641 19.68 25.625V19.475C19.68 19.1359 19.404 18.86 19.065 18.86H18.04V17.63H22.55V23.575C22.55 23.6881 22.6418 23.78 22.755 23.78C22.8681 23.78 22.96 23.6881 22.96 23.575V17.425C22.96 17.3118 22.8681 17.22 22.755 17.22H17.835C17.7218 17.22 17.63 17.3118 17.63 17.425V19.065C17.63 19.1781 17.7218 19.27 17.835 19.27H19.065C19.1777 19.27 19.27 19.3622 19.27 19.475V25.625C19.27 25.7377 19.1777 25.83 19.065 25.83H17.425C17.3118 25.83 17.22 25.9218 17.22 26.035V27.675C17.22 27.7881 17.3118 27.88 17.425 27.88H24.805C24.9181 27.88 25.01 27.7881 25.01 27.675V26.035C25.01 25.9218 24.9181 25.83 24.805 25.83Z" fill="#111633"/>
</svg>
