<svg width="41" height="41" viewBox="0 0 41 41" fill="none" xmlns="http://www.w3.org/2000/svg">
<g clip-path="url(#clip0)">
<path d="M28.2176 7.23529L38.1059 17.1235V37.6235C38.1059 39.4883 36.5942 41 34.7294 41H13.5059C11.6411 41 10.1294 39.4883 10.1294 37.6235V10.6118C10.1294 8.74698 11.6411 7.23529 13.5059 7.23529H28.2176Z" fill="#E1CC61"/>
<path d="M19.776 30.6294C19.6091 30.6294 19.4422 30.5725 19.3052 30.4553L15.9287 27.5612C15.7686 27.4237 15.6765 27.223 15.6765 27.0118C15.6765 26.8005 15.7686 26.5998 15.9287 26.4624L19.3052 23.5683C19.6096 23.3083 20.0654 23.3435 20.3254 23.6464C20.5854 23.9498 20.5506 24.4066 20.2472 24.6666L17.5118 27.0118L20.2477 29.3565C20.5511 29.6165 20.5858 30.0733 20.3259 30.3767C20.1826 30.5436 19.98 30.6294 19.776 30.6294ZM28.4593 30.6294C28.6262 30.6294 28.7931 30.5725 28.9301 30.4553L32.3065 27.5612C32.4667 27.4237 32.5588 27.223 32.5588 27.0118C32.5588 26.8005 32.4667 26.5998 32.3065 26.4624L28.9301 23.5683C28.6257 23.3083 28.1699 23.3435 27.9099 23.6464C27.6499 23.9498 27.6846 24.4066 27.988 24.6666L30.7234 27.0118L27.9875 29.3565C27.6841 29.6165 27.6494 30.0733 27.9094 30.3767C28.0527 30.5436 28.2552 30.6294 28.4593 30.6294ZM21.7121 33.5168C21.6161 33.5168 21.5182 33.4975 21.4242 33.457C21.0576 33.2973 20.8897 32.8714 21.0489 32.5048L26.348 20.9322C26.5072 20.5651 26.9336 20.3992 27.3002 20.5569C27.6668 20.7166 27.8346 21.1425 27.6755 21.5091L22.3763 33.0812C22.2577 33.3542 21.9914 33.5168 21.7121 33.5168Z" fill="#F7EEDE"/>
<path d="M35.9353 19.5353V20.5M35.9353 25.3235V37.3824C35.9353 38.1816 35.2875 38.8294 34.4882 38.8294H13.747C12.9478 38.8294 12.3 38.1816 12.3 37.3824V10.8529C12.3 10.0537 12.9478 9.40588 13.747 9.40588H20.0176L35.9353 25.3235ZM35.9353 21.9471V23.8765V21.9471Z" stroke="#111633" stroke-width="0.5" stroke-miterlimit="10" stroke-linecap="round" stroke-linejoin="round"/>
<path d="M28.2177 7.23529V13.7471C28.2177 15.6118 29.7293 17.1235 31.5941 17.1235H38.1059" fill="#F7EEDE"/>
<path d="M28.2177 7.23529V13.7471C28.2177 15.6118 29.7293 17.1235 31.5941 17.1235H38.1059" stroke="#111633" stroke-width="0.5" stroke-miterlimit="10"/>
<path d="M28.2176 7.23529L38.1059 17.1235V37.6235C38.1059 39.4883 36.5942 41 34.7294 41H13.5059C11.6411 41 10.1294 39.4883 10.1294 37.6235V10.6118C10.1294 8.74698 11.6411 7.23529 13.5059 7.23529H28.2176Z" stroke="#111633" stroke-miterlimit="10" stroke-linejoin="round"/>
<path d="M19.776 30.6294C19.6091 30.6294 19.4422 30.5725 19.3052 30.4553L15.9287 27.5612C15.7686 27.4237 15.6765 27.223 15.6765 27.0118C15.6765 26.8005 15.7686 26.5998 15.9287 26.4624L19.3052 23.5683C19.6096 23.3083 20.0654 23.3435 20.3254 23.6464C20.5854 23.9498 20.5506 24.4066 20.2472 24.6666L17.5118 27.0118L20.2477 29.3565C20.5511 29.6165 20.5858 30.0733 20.3259 30.3767C20.1826 30.5436 19.98 30.6294 19.776 30.6294ZM28.4593 30.6294C28.6262 30.6294 28.7931 30.5725 28.9301 30.4553L32.3065 27.5612C32.4667 27.4237 32.5588 27.223 32.5588 27.0118C32.5588 26.8005 32.4667 26.5998 32.3065 26.4624L28.9301 23.5683C28.6257 23.3083 28.1699 23.3435 27.9099 23.6464C27.6499 23.9498 27.6846 24.4066 27.988 24.6666L30.7234 27.0118L27.9875 29.3565C27.6841 29.6165 27.6494 30.0733 27.9094 30.3767C28.0527 30.5436 28.2552 30.6294 28.4593 30.6294ZM21.7121 33.5168C21.6161 33.5168 21.5182 33.4975 21.4242 33.457C21.0576 33.2973 20.8897 32.8714 21.0489 32.5048L26.348 20.9322C26.5072 20.5651 26.9336 20.3992 27.3002 20.5569C27.6668 20.7166 27.8346 21.1425 27.6755 21.5091L22.3763 33.0812C22.2577 33.3542 21.9914 33.5168 21.7121 33.5168Z" stroke="#111633" stroke-width="0.5" stroke-miterlimit="10" stroke-linejoin="round"/>
</g>
<defs>
<clipPath id="clip0">
<rect width="41" height="41" fill="white"/>
</clipPath>
</defs>
</svg>
