<?xml version="1.0" encoding="iso-8859-1" ?>
<svg version="1.1" xmlns="http://www.w3.org/2000/svg" xmlns:xlink="http://www.w3.org/1999/xlink" 
    viewBox="0 0 1200 800" width="1200" height="800">
    
    
    <!-- ITEM 0 -->
    <g>
        <defs>
            <clipPath id="clip-path-id-viewbox-item-0">
                <rect x="0.0" y="0.0" width="476.984" height="445.72"/>
            </clipPath>
        </defs>
        <g transform="translate(362.0 177.0) rotate(0.0 238.0 222.5) scale(0.9979370377203428 0.998384636094409)">
            <g clip-path="url(#clip-path-id-viewbox-item-0)" transform="translate(-0.0 -0.0)">
                <title>flow_burst</title><g id="Layer_2-i0" data-name="Layer 2"><g id="flow_burst-i0"><path d="M59.024.1,370.854,0s53.79,27.62,105.55,45.56l.58,8.94-45.74,347.68c-3.18,24.12-27.34,39.15-50.6,32a64.578,64.578,0,0,0-15.68-2.57c-17.29-.93-39.52,17.09-61.27,13.68-18.49-2.89-33.91-26.44-54-32-18.57-5.17-44.15,7.15-62.78-1-17.88-7.8-26-34.63-42.79-45.76-16.26-10.76-44.39-7.83-58.64-22.22-13.56-13.7-10.4-41.48-21.28-58.92-10-16.09-36.64-25.2-43.69-44.85-6.34-17.65,8-41.81,4.54-62.59-3-18.44-24.68-36.37-25.05-57.46-.33-18.72,20.41-37.73,22.42-58.67a41.834,41.834,0,0,0-1.29-13.58A39,39,0,0,1,59.024.1Z" fill="#d987d9"></path><path d="M409.084,375.69a60.8,60.8,0,0,1,.09,8.32c-.13,2.75-.39,5.49-.75,8.2a72,72,0,0,1-1.47,8.1,40.634,40.634,0,0,1-2.75,7.91.65.65,0,0,1-.87.29.629.629,0,0,1-.35-.47,39.306,39.306,0,0,1-.38-8.36,69.543,69.543,0,0,1,.9-8.18c.43-2.71,1-5.4,1.62-8.08a61.032,61.032,0,0,1,2.46-8,.78.78,0,0,1,1-.44A.76.76,0,0,1,409.084,375.69Z" fill="#1c2e4a"></path><path d="M383.484,259.63c-1.84,6.42-4,12.72-6.18,19-1.11,3.13-2.23,6.26-3.41,9.37l-1.75,4.66-1.82,4.65c-2.37,6.2-4.93,12.33-7.62,18.41s-5.55,12.1-8.84,17.94a.62.62,0,0,1-1.15-.46c1.63-6.5,3.74-12.81,5.91-19.1s4.58-12.48,7.12-18.62l1.87-4.62,1.94-4.59c1.27-3.07,2.61-6.11,4-9.15,2.71-6.07,5.49-12.12,8.56-18a.76.76,0,0,1,1-.32A.751.751,0,0,1,383.484,259.63Z" fill="#1c2e4a"></path><path d="M402.584,185.73a22.8,22.8,0,0,1-.58,5,36.4,36.4,0,0,1-1.37,4.64,25.053,25.053,0,0,1-2.05,4.36,15,15,0,0,1-3.26,3.89.7.7,0,0,1-.987-.083l-.013-.017a.777.777,0,0,1-.15-.35,15.321,15.321,0,0,1,.31-5.06,24.771,24.771,0,0,1,1.51-4.58,36.391,36.391,0,0,1,2.19-4.32,22.763,22.763,0,0,1,3-4,.821.821,0,0,1,1.16,0h0A.85.85,0,0,1,402.584,185.73Z" fill="#1c2e4a"></path><path d="M454.144,111.76a54.406,54.406,0,0,1-.49,7.8c-.32,2.56-.77,5.1-1.31,7.61a63.94,63.94,0,0,1-2,7.45,35.9,35.9,0,0,1-3.28,7.15.65.65,0,0,1-.894.214l-.006,0a.669.669,0,0,1-.31-.48,36.149,36.149,0,0,1,.2-7.87,64.2,64.2,0,0,1,1.46-7.58q.93-3.75,2.17-7.41a53.671,53.671,0,0,1,3-7.22.78.78,0,0,1,1.48.34Z" fill="#1c2e4a"></path><path d="M286.4,298.03c-4.39,8.37-9.06,16.58-13.78,24.75-2.37,4.07-4.75,8.15-7.18,12.19l-3.63,6.07-3.7,6-3.69,6-3.76,6c-2.49,4-5.08,7.94-7.65,11.9-5.22,7.87-10.5,15.69-16.22,23.24a.6.6,0,0,1-.837.137l-.023-.017a.61.61,0,0,1-.18-.76c4.19-8.5,8.83-16.72,13.52-24.91,2.4-4.06,4.76-8.15,7.23-12.16l3.67-6.05,3.74-6,3.75-6,3.8-6c2.52-4,5.11-7.93,7.69-11.88,5.19-7.88,10.44-15.72,16-23.4a.76.76,0,0,1,1.29.8Z" fill="#1c2e4a"></path><path d="M344.614,205.18a43.687,43.687,0,0,1-2.55,6.57c-1,2.11-2.09,4.15-3.27,6.14a51.7,51.7,0,0,1-3.89,5.74,28.839,28.839,0,0,1-5,5.07.66.66,0,0,1-.925-.124l0-.006a.692.692,0,0,1-.12-.52,29.008,29.008,0,0,1,2.3-6.73,49.05,49.05,0,0,1,3.4-6.05,69.318,69.318,0,0,1,4-5.67,43.1,43.1,0,0,1,4.74-5.22.79.79,0,0,1,1.29.8Z" fill="#1c2e4a"></path><path d="M425.4,101.81c-3.36,7.51-7,14.86-10.7,22.18-1.86,3.65-3.72,7.3-5.65,10.91l-2.86,5.44-2.93,5.41-2.93,5.4-3,5.36c-2,3.59-4.07,7.12-6.13,10.66-4.21,7-8.48,14-13.2,20.79a.62.62,0,0,1-1.08-.59c3.15-7.61,6.76-15,10.42-22.31,1.89-3.64,3.73-7.3,5.69-10.9l2.91-5.41,3-5.38,3-5.37,3.05-5.34c2-3.57,4.09-7.1,6.17-10.64,4.18-7.05,8.42-14.07,12.94-20.93a.76.76,0,0,1,1.33.72Z" fill="#1c2e4a"></path><path d="M230.9,255.65a17.311,17.311,0,0,1-1.77,3.92,26.3,26.3,0,0,1-2.41,3.36,18.309,18.309,0,0,1-2.95,2.88,11.829,11.829,0,0,1-3.91,2,.731.731,0,0,1-.9-.51l0-.01a.609.609,0,0,1,0-.3,11.579,11.579,0,0,1,1.55-4.12,17.855,17.855,0,0,1,2.52-3.26,24.422,24.422,0,0,1,3.06-2.77,16.879,16.879,0,0,1,3.69-2.21.84.84,0,0,1,1.1.44A.868.868,0,0,1,230.9,255.65Z" fill="#1c2e4a"></path><path d="M277.884,235.4c-3.29,4.68-6.81,9.16-10.39,13.59-1.8,2.2-3.6,4.41-5.46,6.56l-2.76,3.26-2.82,3.2q-5.58,6.45-11.55,12.56a167.582,167.582,0,0,1-12.5,11.69.609.609,0,0,1-.859-.077l-.011-.013a.618.618,0,0,1,0-.73c3.12-4.84,6.62-9.34,10.17-13.8s7.31-8.72,11.16-12.91l2.86-3.17,2.91-3.11c1.93-2.09,3.92-4.14,5.9-6.18,4-4.06,8-8.07,12.31-11.88a.76.76,0,0,1,1.13,1Z" fill="#1c2e4a"></path><path d="M344.4,117.08c-3.93,5.14-8.08,10.06-12.29,14.94-2.11,2.42-4.23,4.85-6.4,7.23l-3.23,3.58-3.28,3.54c-4.34,4.75-8.83,9.35-13.42,13.87s-9.32,8.9-14.38,13a.62.62,0,0,1-.89-.84c3.75-5.3,7.88-10.25,12.07-15.14s8.55-9.62,13-14.25l3.33-3.49,3.38-3.44c2.24-2.31,4.53-4.57,6.83-6.83,4.61-4.5,9.27-8.94,14.16-13.18a.76.76,0,0,1,1.1,1Z" fill="#1c2e4a"></path><path d="M156.164,251.83c-4.27,4.21-8.76,8.13-13.23,12.13-2.26,1.94-4.52,3.88-6.83,5.77l-3.44,2.85-3.48,2.79q-6.94,5.63-14.19,10.86c-4.87,3.44-9.78,6.84-15,9.82a.631.631,0,0,1-.77-1c4.12-4.4,8.56-8.38,13-12.32s9.13-7.65,13.86-11.28l3.52-2.74,3.57-2.69c2.37-1.81,4.78-3.56,7.19-5.3,4.85-3.48,9.74-6.89,14.82-10.07a.76.76,0,0,1,.94,1.19Z" fill="#1c2e4a"></path><path d="M337.094,85.13a12.287,12.287,0,0,1-2.06,2.89,16.86,16.86,0,0,1-2.53,2.19,11.989,11.989,0,0,1-2.93,1.57,8.435,8.435,0,0,1-3.64.5.791.791,0,0,1-.711-.862V91.41a.392.392,0,0,1,0-.16,8.544,8.544,0,0,1,1.9-3.15,11.672,11.672,0,0,1,2.62-2.05,15.746,15.746,0,0,1,3-1.45,11.567,11.567,0,0,1,3.48-.74.88.88,0,0,1,.92.83A.9.9,0,0,1,337.094,85.13Z" fill="#1c2e4a"></path><path d="M404.454,50.47a5.312,5.312,0,0,1-.63,2.14,5.44,5.44,0,0,1-1.15,1.47,3.779,3.779,0,0,1-1.6.9,4.421,4.421,0,0,1-2.41-.12,1.09,1.09,0,0,1-.76-1,4.345,4.345,0,0,1,.44-2.37,3.7,3.7,0,0,1,1.25-1.35,5.379,5.379,0,0,1,3.92-.89A1.121,1.121,0,0,1,404.454,50.47Z" fill="#1c2e4a"></path><path d="M217.994,129.75c-5.53,3.72-11.2,7.17-16.91,10.55-2.86,1.68-5.72,3.36-8.61,5l-4.33,2.44-4.36,2.39c-5.8,3.22-11.69,6.26-17.64,9.18a196.686,196.686,0,0,1-18.26,8,.63.63,0,0,1-.59-1.09c5.42-3.93,11.07-7.4,16.76-10.82s11.51-6.6,17.39-9.66l4.39-2.33,4.43-2.27q4.41-2.28,8.89-4.45c6-2.9,12-5.73,18.12-8.3a.77.77,0,0,1,.72,1.34Z" fill="#1c2e4a"></path><path d="M281.964,88.31a24.587,24.587,0,0,1-3.84,3.54,37.581,37.581,0,0,1-4.24,2.78,26.974,26.974,0,0,1-4.59,2.14,16.356,16.356,0,0,1-5.2,1,.68.68,0,0,1-.7-.66v-.03a.663.663,0,0,1,.12-.39,16.473,16.473,0,0,1,3.7-3.79,26.937,26.937,0,0,1,4.31-2.65,37.931,37.931,0,0,1,4.66-2,24.861,24.861,0,0,1,5.07-1.26.8.8,0,0,1,.9.688l0,.012A.772.772,0,0,1,281.964,88.31Z" fill="#1c2e4a"></path><path d="M378.4,43.41c-4.63,3.24-9.41,6.21-14.22,9.11-2.41,1.44-4.82,2.88-7.27,4.25l-3.65,2.09-3.69,2q-7.35,4.091-14.95,7.74a165.743,165.743,0,0,1-15.57,6.58.62.62,0,0,1-.59-1.08,166.131,166.131,0,0,1,14.07-9.38q7.23-4.331,14.7-8.21l3.72-2,3.75-1.9c2.49-1.29,5-2.51,7.55-3.73,5.07-2.42,10.18-4.77,15.43-6.85a.77.77,0,0,1,1,.43A.76.76,0,0,1,378.4,43.41Z" fill="#1c2e4a"></path><path d="M96.584,106.85a35.982,35.982,0,0,1-5.47,3.17,61.879,61.879,0,0,1-5.74,2.36,40.772,40.772,0,0,1-6,1.67,23.485,23.485,0,0,1-6.37.44.671.671,0,0,1-.611-.725v0a.65.65,0,0,1,.22-.44,23.981,23.981,0,0,1,5.38-3.45,42.452,42.452,0,0,1,5.79-2.22,59,59,0,0,1,6-1.52,35.1,35.1,0,0,1,6.29-.72.78.78,0,0,1,.8.76v.02A.8.8,0,0,1,96.584,106.85Z" fill="#1c2e4a"></path><path d="M258.064,78.54c-9.82,3.94-19.74,7.59-29.68,11.16-5,1.78-10,3.55-15,5.26l-7.49,2.58-7.49,2.51-7.52,2.52-7.48,2.44c-5,1.65-10.08,3.17-15.12,4.73-10.13,3-20.28,6-30.58,8.45a.62.62,0,0,1-.749-.456v0a.62.62,0,0,1,.36-.71c9.75-4.17,19.66-7.84,29.59-11.45,5-1.75,10-3.54,15-5.21l7.51-2.53,7.53-2.46,7.46-2.41,7.55-2.39c5-1.61,10.08-3.15,15.14-4.69,10.11-3.06,20.25-6,30.48-8.73a.76.76,0,0,1,.48,1.44Z" fill="#1c2e4a"></path><path d="M77.3,84.96a113.081,113.081,0,0,1-11,2.89c-3.68.81-7.38,1.49-11.09,2.07s-7.44,1.07-11.2,1.34q-2.82.21-5.67.24a52.5,52.5,0,0,1-5.72-.18.63.63,0,0,1-.571-.684V90.63a.639.639,0,0,1,.39-.53,54.773,54.773,0,0,1,5.44-1.81q2.73-.78,5.49-1.38c3.68-.81,7.39-1.42,11.12-1.91s7.46-.91,11.22-1.19a112.828,112.828,0,0,1,11.35-.35.76.76,0,0,1,.74.779v.011A.779.779,0,0,1,77.3,84.96Z" fill="#1c2e4a"></path><path d="M150.554,16.06a14.18,14.18,0,0,1-3.68,1.26,20.755,20.755,0,0,1-3.67.4,14.66,14.66,0,0,1-3.66-.33,9.875,9.875,0,0,1-3.65-1.62.77.77,0,0,1-.16-1.07.832.832,0,0,1,.17-.16,9.768,9.768,0,0,1,3.68-1.55,14.21,14.21,0,0,1,3.67-.25,20.894,20.894,0,0,1,3.66.48,14.017,14.017,0,0,1,3.65,1.33.86.86,0,0,1,.35,1.16A.812.812,0,0,1,150.554,16.06Z" fill="#1c2e4a"></path><path d="M226.194,32.1a81.87,81.87,0,0,1-9.29,1.91c-3.11.47-6.23.81-9.36,1.06s-6.25.39-9.4.33a51.267,51.267,0,0,1-9.49-1,.64.64,0,0,1-.49-.76.669.669,0,0,1,.41-.47,52.042,52.042,0,0,1,9.28-2.2c3.11-.47,6.23-.74,9.37-.9s6.26-.23,9.41-.18a84.074,84.074,0,0,1,9.46.67.77.77,0,0,1,.662.864l0,.016A.76.76,0,0,1,226.194,32.1Z" fill="#1c2e4a"></path><path d="M449.924,165.88a4,4,0,0,1-2.823-6.827l0,0a3.529,3.529,0,0,1,.6-.49,3.786,3.786,0,0,1,.69-.37,4.013,4.013,0,0,1,.75-.23,3.776,3.776,0,0,1,1.57,0,4.091,4.091,0,0,1,.74.23,3.5,3.5,0,0,1,.69.37,3.64,3.64,0,0,1,.61.49,4,4,0,0,1,1.17,2.83,3.41,3.41,0,0,1-.08.78,3.841,3.841,0,0,1-.22.75,4.125,4.125,0,0,1-.37.69,3.708,3.708,0,0,1-.5.61A4,4,0,0,1,449.924,165.88Z" fill="#1c2e4a"></path><path d="M320.554,34.84a4,4,0,0,1-2.823-6.827l0,0a3.529,3.529,0,0,1,.6-.49,3.786,3.786,0,0,1,.69-.37,4.013,4.013,0,0,1,.75-.23,3.776,3.776,0,0,1,1.57,0,4.091,4.091,0,0,1,.74.23,3.5,3.5,0,0,1,.69.37,3.64,3.64,0,0,1,.61.49,4,4,0,0,1,1.17,2.83,3.41,3.41,0,0,1-.08.78,3.841,3.841,0,0,1-.22.75,4.125,4.125,0,0,1-.37.69,3.708,3.708,0,0,1-.5.61A4,4,0,0,1,320.554,34.84Z" fill="#f7eede"></path><path d="M178.094,16.46a4,4,0,0,1-2.823-6.827l0,0a3.529,3.529,0,0,1,.6-.49,3.786,3.786,0,0,1,.69-.37,4.013,4.013,0,0,1,.75-.23,3.776,3.776,0,0,1,1.57,0,4.091,4.091,0,0,1,.74.23,3.5,3.5,0,0,1,.69.37,3.64,3.64,0,0,1,.61.49,4,4,0,0,1,1.17,2.83,3.41,3.41,0,0,1-.08.78,3.841,3.841,0,0,1-.22.75,4.125,4.125,0,0,1-.37.69,3.658,3.658,0,0,1-.5.61A4,4,0,0,1,178.094,16.46Z" fill="#f7eede"></path><path d="M311.684,175.88a4,4,0,0,1-2.823-6.827l0,0a3.529,3.529,0,0,1,.6-.49,3.786,3.786,0,0,1,.69-.37,4.013,4.013,0,0,1,.75-.23,3.776,3.776,0,0,1,1.57,0,4.091,4.091,0,0,1,.74.23,3.5,3.5,0,0,1,.69.37,3.64,3.64,0,0,1,.61.49,4,4,0,0,1,1.17,2.83,3.41,3.41,0,0,1-.08.78,3.841,3.841,0,0,1-.22.75,4.125,4.125,0,0,1-.37.69,3.658,3.658,0,0,1-.5.61A4,4,0,0,1,311.684,175.88Z" fill="#f7eede"></path><path d="M421.634,327.48a4,4,0,0,1-2.823-6.827l0,0a3.529,3.529,0,0,1,.6-.49,3.786,3.786,0,0,1,.69-.37,4.013,4.013,0,0,1,.75-.23,3.776,3.776,0,0,1,1.57,0,4.091,4.091,0,0,1,.74.23,3.5,3.5,0,0,1,.69.37,3.64,3.64,0,0,1,.61.49,4,4,0,0,1,1.17,2.83,3.355,3.355,0,0,1-.08.78,3.841,3.841,0,0,1-.22.75,4.125,4.125,0,0,1-.37.69,3.658,3.658,0,0,1-.5.61A4,4,0,0,1,421.634,327.48Z" fill="#f7eede"></path><path d="M410.584,40.54a4,4,0,0,1-2.823-6.827l0,0a3.529,3.529,0,0,1,.6-.49,3.786,3.786,0,0,1,.69-.37,4.013,4.013,0,0,1,.75-.23,3.776,3.776,0,0,1,1.57,0,4.091,4.091,0,0,1,.74.23,3.5,3.5,0,0,1,.69.37,3.64,3.64,0,0,1,.61.49,4,4,0,0,1,1.17,2.83,3.41,3.41,0,0,1-.08.78,3.841,3.841,0,0,1-.22.75,4.125,4.125,0,0,1-.37.69,3.708,3.708,0,0,1-.5.61A4,4,0,0,1,410.584,40.54Z" fill="#f7eede"></path><path d="M203.054,125.65a4,4,0,0,1-2.823-6.827l0,0a3.529,3.529,0,0,1,.6-.49,3.786,3.786,0,0,1,.69-.37,4.013,4.013,0,0,1,.75-.23,3.776,3.776,0,0,1,1.57,0,4.091,4.091,0,0,1,.74.23,3.5,3.5,0,0,1,.69.37,3.64,3.64,0,0,1,.61.49,4,4,0,0,1,1.17,2.83,3.41,3.41,0,0,1-.08.78,3.841,3.841,0,0,1-.22.75,4.125,4.125,0,0,1-.37.69,3.708,3.708,0,0,1-.5.61A4,4,0,0,1,203.054,125.65Z" fill="#1c2e4a"></path><path d="M151.464,224.67a4,4,0,0,1-2.823-6.827l0,0a3.529,3.529,0,0,1,.6-.49,3.786,3.786,0,0,1,.69-.37,4.013,4.013,0,0,1,.75-.23,3.776,3.776,0,0,1,1.57,0,4.091,4.091,0,0,1,.74.23,3.5,3.5,0,0,1,.69.37,3.64,3.64,0,0,1,.61.49,4,4,0,0,1,1.17,2.83,3.355,3.355,0,0,1-.08.78,3.841,3.841,0,0,1-.22.75,4.125,4.125,0,0,1-.37.69,3.658,3.658,0,0,1-.5.61A4,4,0,0,1,151.464,224.67Z" fill="#f7eede"></path><path d="M138.554,297.05a4,4,0,0,1-2.823-6.827l0,0a3.529,3.529,0,0,1,.6-.49,3.848,3.848,0,0,1,.69-.37,4.013,4.013,0,0,1,.75-.23,3.776,3.776,0,0,1,1.57,0,4.091,4.091,0,0,1,.74.23,3.5,3.5,0,0,1,.69.37,3.64,3.64,0,0,1,.61.49,4,4,0,0,1,1.17,2.83,3.355,3.355,0,0,1-.08.78,3.841,3.841,0,0,1-.22.75,4.125,4.125,0,0,1-.37.69,3.658,3.658,0,0,1-.5.61A4,4,0,0,1,138.554,297.05Z" fill="#f7eede"></path><path d="M163.824,300.39A4,4,0,0,1,161,293.563l0,0a3.529,3.529,0,0,1,.6-.49,3.786,3.786,0,0,1,.69-.37,4.013,4.013,0,0,1,.75-.23,3.776,3.776,0,0,1,1.57,0,4.091,4.091,0,0,1,.74.23,3.5,3.5,0,0,1,.69.37,3.64,3.64,0,0,1,.61.49,4,4,0,0,1,1.17,2.83,3.355,3.355,0,0,1-.08.78,3.841,3.841,0,0,1-.22.75,4.125,4.125,0,0,1-.37.69,3.658,3.658,0,0,1-.5.61A4,4,0,0,1,163.824,300.39Z" fill="#1c2e4a"></path><path d="M50.874,133.08a4,4,0,0,1-2.823-6.827l0,0a3.529,3.529,0,0,1,.6-.49,3.786,3.786,0,0,1,.69-.37,4.013,4.013,0,0,1,.75-.23,3.776,3.776,0,0,1,1.57,0,4.091,4.091,0,0,1,.74.23,3.5,3.5,0,0,1,.69.37,3.64,3.64,0,0,1,.61.49,4,4,0,0,1,1.17,2.83,3.41,3.41,0,0,1-.08.78,3.841,3.841,0,0,1-.22.75,4.125,4.125,0,0,1-.37.69,3.708,3.708,0,0,1-.5.61A4,4,0,0,1,50.874,133.08Z" fill="#f7eede"></path><path d="M173.624,276.79a3.1,3.1,0,0,1-2.19-5.31,2.864,2.864,0,0,1,.47-.38,2.99,2.99,0,0,1,1.12-.47,3.131,3.131,0,0,1,1.22,0,2.905,2.905,0,0,1,.57.18,2.577,2.577,0,0,1,.54.29,2.906,2.906,0,0,1,.47.38,3.089,3.089,0,0,1,.91,2.2,2.5,2.5,0,0,1-.06.61,2.992,2.992,0,0,1-.17.58,3.549,3.549,0,0,1-.29.54,2.474,2.474,0,0,1-.39.47A3.089,3.089,0,0,1,173.624,276.79Z" fill="#1c2e4a"></path><path d="M88.4,204.32a3.1,3.1,0,0,1-2.19-5.31,2.864,2.864,0,0,1,.47-.38,2.99,2.99,0,0,1,1.12-.47,3.131,3.131,0,0,1,1.22,0,2.905,2.905,0,0,1,.57.18,2.577,2.577,0,0,1,.54.29,2.906,2.906,0,0,1,.47.38,3.089,3.089,0,0,1,.91,2.2,2.5,2.5,0,0,1-.06.61,2.992,2.992,0,0,1-.17.58,3.549,3.549,0,0,1-.29.54,2.474,2.474,0,0,1-.39.47A3.089,3.089,0,0,1,88.4,204.32Z" fill="#1c2e4a"></path><path d="M210.494,106.48a3,3,0,0,1-2.19-.91,3.11,3.11,0,0,1,1-5.07,4.228,4.228,0,0,1,.58-.18,3.131,3.131,0,0,1,1.22,0,3.894,3.894,0,0,1,.58.18,2.755,2.755,0,0,1,.53.29,3.026,3.026,0,0,1,.48.38,3.163,3.163,0,0,1,.91,2.2,3.123,3.123,0,0,1-.06.61,3.538,3.538,0,0,1-.17.58,3.152,3.152,0,0,1-.29.54,3.023,3.023,0,0,1-.39.47A3.089,3.089,0,0,1,210.494,106.48Z" fill="#f7eede"></path><path d="M230.554,219.69a3.1,3.1,0,0,1-2.19-5.31,2.864,2.864,0,0,1,.47-.38,2.99,2.99,0,0,1,1.12-.47,3.131,3.131,0,0,1,1.22,0,2.905,2.905,0,0,1,.57.18,2.577,2.577,0,0,1,.54.29,2.906,2.906,0,0,1,.47.38,3.089,3.089,0,0,1,.91,2.2,2.421,2.421,0,0,1-.06.6,2.885,2.885,0,0,1-.17.59,3.448,3.448,0,0,1-.29.53,2.31,2.31,0,0,1-.39.48A3.089,3.089,0,0,1,230.554,219.69Z" fill="#f7eede"></path><path d="M302.614,143.66a3.082,3.082,0,0,1-2.19-.91,3.138,3.138,0,0,1-.92-2.2,3.174,3.174,0,0,1,.92-2.2,2.864,2.864,0,0,1,.47-.38,2.95,2.95,0,0,1,.53-.28,3.045,3.045,0,0,1,.59-.18,2.79,2.79,0,0,1,1.22,0,2.905,2.905,0,0,1,.57.18,2.493,2.493,0,0,1,.54.28,2.906,2.906,0,0,1,.47.38,3.122,3.122,0,0,1,.91,2.2,2.407,2.407,0,0,1-.06.61,2.736,2.736,0,0,1-.17.58,3.152,3.152,0,0,1-.29.54,2.474,2.474,0,0,1-.39.47A3.051,3.051,0,0,1,302.614,143.66Z" fill="#1c2e4a"></path><path d="M339.464,288.13a3.11,3.11,0,0,1-2.22-5.28l.03-.03a2.524,2.524,0,0,1,.47-.38,2.99,2.99,0,0,1,1.12-.47,2.994,2.994,0,0,1,1.79.18,2.836,2.836,0,0,1,.54.29,2.906,2.906,0,0,1,.47.38,3.089,3.089,0,0,1,.91,2.2,2.5,2.5,0,0,1-.06.61,2.992,2.992,0,0,1-.17.58,3.549,3.549,0,0,1-.29.54,3.023,3.023,0,0,1-.39.47A3.089,3.089,0,0,1,339.464,288.13Z" fill="#f7eede"></path><path d="M443.544,186.31a3.109,3.109,0,0,1-2.92-3.289h0a3.128,3.128,0,0,1,1-2.14,2.912,2.912,0,0,1,.49-.35,2.873,2.873,0,0,1,1.15-.4,2.907,2.907,0,0,1,1.21.07,2.766,2.766,0,0,1,.57.21,3.474,3.474,0,0,1,.52.32,2.918,2.918,0,0,1,.45.41,3.173,3.173,0,0,1,.78,2.25,4.061,4.061,0,0,1-.1.6,2.826,2.826,0,0,1-.21.57,2.722,2.722,0,0,1-.32.52,2.539,2.539,0,0,1-.41.45A3.093,3.093,0,0,1,443.544,186.31Z" fill="#f7eede"></path><path d="M457.934,73.22a3.109,3.109,0,0,1-2.92-3.289h0a3.128,3.128,0,0,1,1-2.14,2.912,2.912,0,0,1,.49-.35,3.006,3.006,0,0,1,.55-.26,3.988,3.988,0,0,1,.6-.14,2.907,2.907,0,0,1,1.21.07,2.8,2.8,0,0,1,.57.22,2.759,2.759,0,0,1,.52.31,2.918,2.918,0,0,1,.45.41,3.173,3.173,0,0,1,.78,2.25,3.814,3.814,0,0,1-.1.6,3.14,3.14,0,0,1-.21.58,3.259,3.259,0,0,1-.73,1A3.131,3.131,0,0,1,457.934,73.22Z" fill="#f7eede"></path><path d="M328.4,164.96a3.083,3.083,0,0,1-2.14-1,3.12,3.12,0,0,1,.26-4.4,2.912,2.912,0,0,1,.49-.35,2.416,2.416,0,0,1,.55-.25,3.273,3.273,0,0,1,.6-.15,3.136,3.136,0,0,1,1.22.07,3.9,3.9,0,0,1,.56.22,2.806,2.806,0,0,1,.52.32,2.85,2.85,0,0,1,.45.4,3.119,3.119,0,0,1,.78,2.25,3,3,0,0,1-.1.61,2.826,2.826,0,0,1-.21.57,3.474,3.474,0,0,1-.32.52,2.918,2.918,0,0,1-.41.45A3.127,3.127,0,0,1,328.4,164.96Z" fill="#f7eede"></path><path d="M246.954,157.28a3.089,3.089,0,0,1-2.13-1,3.179,3.179,0,0,1-.79-2.25,3.1,3.1,0,0,1,1.05-2.14,3.028,3.028,0,0,1,.49-.36,3.785,3.785,0,0,1,.55-.25,3.151,3.151,0,0,1,.59-.15,3.009,3.009,0,0,1,1.22.08,3.3,3.3,0,0,1,.57.21,2.456,2.456,0,0,1,.51.32,3.038,3.038,0,0,1,.46.41,3.131,3.131,0,0,1,.77,2.25,2.445,2.445,0,0,1-.1.6,2.794,2.794,0,0,1-.2.57,3.474,3.474,0,0,1-.32.52,2.983,2.983,0,0,1-.42.45A3.06,3.06,0,0,1,246.954,157.28Z" fill="#f7eede"></path><path d="M161.014,27.28a3.071,3.071,0,0,1-1.88-5.39,3.028,3.028,0,0,1,.49-.36,3.785,3.785,0,0,1,.55-.25,2.518,2.518,0,0,1,.6-.14,2.75,2.75,0,0,1,1.21.07,3.071,3.071,0,0,1,1.09.53,2.918,2.918,0,0,1,.45.41,3.154,3.154,0,0,1,.78,2.25,4.061,4.061,0,0,1-.1.6,2.826,2.826,0,0,1-.21.57,3.474,3.474,0,0,1-.32.52,2.918,2.918,0,0,1-.41.45A3.09,3.09,0,0,1,161.014,27.28Z" fill="#f7eede"></path><path d="M78.634,218.61a3.089,3.089,0,0,1-2.14-1,3.154,3.154,0,0,1,.22-4.39,3.329,3.329,0,0,1,.49-.35,2.82,2.82,0,0,1,.56-.26,3.863,3.863,0,0,1,.59-.14,2.888,2.888,0,0,1,1.78.29,2.759,2.759,0,0,1,.52.31,2.918,2.918,0,0,1,.45.41,3.119,3.119,0,0,1,.78,2.25,2.354,2.354,0,0,1-.1.6,3.14,3.14,0,0,1-.21.58,3.259,3.259,0,0,1-.73,1A3.129,3.129,0,0,1,78.634,218.61Z" fill="#f7eede"></path><path d="M453.734,56.59a3.071,3.071,0,0,1-1.915-5.35l.045-.04a2.416,2.416,0,0,1,.49-.35,2.739,2.739,0,0,1,.55-.26,2.439,2.439,0,0,1,.59-.14,2.99,2.99,0,0,1,1.22.07,2.952,2.952,0,0,1,.56.21,3.259,3.259,0,0,1,1,.73,3.11,3.11,0,0,1,.78,2.25,2.445,2.445,0,0,1-.1.6,2.794,2.794,0,0,1-.2.57,3.474,3.474,0,0,1-.32.52,2.983,2.983,0,0,1-.42.45A3.093,3.093,0,0,1,453.734,56.59Z" fill="#1c2e4a"></path><path d="M234.9,18.45a3.066,3.066,0,0,1-1.885-5.377l.015-.013a2.8,2.8,0,0,1,.48-.35,3.128,3.128,0,0,1,.56-.26,3.863,3.863,0,0,1,.59-.14,2.99,2.99,0,0,1,1.22.07,2.952,2.952,0,0,1,.56.21,3.474,3.474,0,0,1,.52.32,2.918,2.918,0,0,1,.45.41,3.119,3.119,0,0,1,.78,2.25,2.445,2.445,0,0,1-.1.6,3.5,3.5,0,0,1-.2.57,3.3,3.3,0,0,1-.32.52,2.635,2.635,0,0,1-.42.45A3.09,3.09,0,0,1,234.9,18.45Z" fill="#1c2e4a"></path><path d="M75.524,258.71a3.089,3.089,0,0,1-2.14-1,3.169,3.169,0,0,1-.78-2.25,3.128,3.128,0,0,1,1-2.14,3.393,3.393,0,0,1,.49-.36,3.555,3.555,0,0,1,.56-.25,2.928,2.928,0,0,1,1.81-.07,2.952,2.952,0,0,1,.56.21,2.806,2.806,0,0,1,.52.32,2.918,2.918,0,0,1,.45.41,3.092,3.092,0,0,1,.78,2.25,2.445,2.445,0,0,1-.1.6,2.826,2.826,0,0,1-.21.57,3.474,3.474,0,0,1-.32.52,2.918,2.918,0,0,1-.41.45A3.09,3.09,0,0,1,75.524,258.71Z" fill="#1c2e4a"></path><path d="M291.534,349.14a4,4,0,0,1-2.82-6.82,2.8,2.8,0,0,1,.6-.49,2.868,2.868,0,0,1,.69-.37,3.826,3.826,0,0,1,2.32-.24,4,4,0,0,1,.74.24,2.7,2.7,0,0,1,.69.37,2.854,2.854,0,0,1,.61.49,4,4,0,0,1,1.17,2.82,3.355,3.355,0,0,1-.08.78,3.922,3.922,0,0,1-.59,1.45,3.266,3.266,0,0,1-.5.6A4,4,0,0,1,291.534,349.14Z" fill="#1c2e4a"></path><path d="M402.614,334.78a4,4,0,0,1-2.823-6.827l0,0a3.529,3.529,0,0,1,.6-.49,3.786,3.786,0,0,1,.69-.37,4.013,4.013,0,0,1,.75-.23,3.776,3.776,0,0,1,1.57,0,4.091,4.091,0,0,1,.74.23,3.5,3.5,0,0,1,.69.37,3.64,3.64,0,0,1,.61.49,4,4,0,0,1,1.17,2.83,3.41,3.41,0,0,1-.08.78,3.841,3.841,0,0,1-.22.75,4.125,4.125,0,0,1-.37.69,3.708,3.708,0,0,1-.5.61A4,4,0,0,1,402.614,334.78Z" fill="#1c2e4a"></path></g></g>
            </g>
        </g>
    </g>
    
</svg>