<?xml version="1.0" encoding="UTF-8"?>
<svg xmlns="http://www.w3.org/2000/svg" xmlns:xlink="http://www.w3.org/1999/xlink" viewBox="0 0 100 100" width="100px" height="100px">
<g id="surface6542505">
<path style=" stroke:none;fill-rule:nonzero;fill:#deab9e;fill-opacity:1;" d="M 81 48.1875 L 81 83 L 19 83 L 19 48.1875 L 50 25 Z M 81 48.1875 "/>
<path style=" stroke:none;fill-rule:nonzero;fill:rgb(96.862745%,93.333334%,87.058824%);fill-opacity:1;" d="M 40 83 L 40 57 C 40 56.449219 40.449219 56 41 56 L 59 56 C 59.550781 56 60 56.449219 60 57 L 60 83 "/>
<path style=" stroke:none;fill-rule:nonzero;fill:rgb(6.666667%,8.627451%,20%);fill-opacity:1;" d="M 81 48.191406 L 81 53.191406 L 50 30 L 19 53.191406 L 19 48.191406 L 50 25 Z M 81 48.191406 "/>
<path style=" stroke:none;fill-rule:nonzero;fill:rgb(96.862745%,93.333334%,87.058824%);fill-opacity:1;" d="M 15 41 L 50 15 L 85 41 L 85 51 L 50 25 L 15 51 Z M 15 41 "/>
<path style=" stroke:none;fill-rule:nonzero;fill:#deab9e;fill-opacity:1;" d="M 79 17.5 L 79 21.5 C 79 21.78125 78.78125 22 78.5 22 L 77 22 L 77 38.5 C 77 38.691406 76.890625 38.859375 76.71875 38.949219 C 76.648438 38.980469 76.578125 39 76.5 39 C 76.390625 39 76.289062 38.96875 76.199219 38.898438 L 70.199219 34.398438 C 70.070312 34.308594 70 34.160156 70 34 L 70 22 L 68.5 22 C 68.21875 22 68 21.78125 68 21.5 L 68 17.5 C 68 17.21875 68.21875 17 68.5 17 L 78.5 17 C 78.78125 17 79 17.21875 79 17.5 Z M 79 17.5 "/>
<path style=" stroke:none;fill-rule:nonzero;fill:rgb(6.666667%,8.627451%,20%);fill-opacity:1;" d="M 85.601562 40.199219 L 77 33.8125 L 77 22 L 78.5 22 C 78.777344 22 79 21.777344 79 21.5 L 79 17.5 C 79 17.222656 78.777344 17 78.5 17 L 68.5 17 C 68.222656 17 68 17.222656 68 17.5 L 68 21.5 C 68 21.777344 68.222656 22 68.5 22 L 70 22 L 70 28.605469 L 50.601562 14.199219 C 50.238281 13.929688 49.761719 13.929688 49.398438 14.199219 L 14.398438 40.199219 C 14.148438 40.390625 14 40.679688 14 41 L 14 51 C 14 51.378906 14.210938 51.71875 14.550781 51.890625 C 14.890625 52.058594 15.289062 52.03125 15.601562 51.800781 L 18 50.015625 L 18 83 C 18 83.550781 18.445312 84 19 84 L 81 84 C 81.554688 84 82 83.550781 82 83 L 82 50.015625 L 84.398438 51.800781 C 84.578125 51.929688 84.789062 52 85 52 C 85.148438 52 85.308594 51.960938 85.449219 51.890625 C 85.789062 51.71875 86 51.378906 86 51 L 86 41 C 86 40.679688 85.851562 40.390625 85.601562 40.199219 Z M 59 82 L 41 82 L 41 57 L 59 57 Z M 80 82 L 60 82 L 60 56.5 C 60 56.222656 59.777344 56 59.5 56 L 40.5 56 C 40.222656 56 40 56.222656 40 56.5 L 40 82 L 20 82 L 20 48.53125 L 50 26.25 L 80 48.53125 Z M 84 49.011719 L 50.601562 24.199219 C 50.421875 24.070312 50.210938 24 50 24 C 49.789062 24 49.578125 24.070312 49.398438 24.199219 L 16 49.011719 L 16 41.5 L 50 16.25 L 70 31.105469 L 70 34 C 70 34.15625 70.074219 34.304688 70.199219 34.398438 L 73.199219 36.648438 C 73.421875 36.816406 73.734375 36.773438 73.898438 36.550781 C 74.066406 36.328125 74.019531 36.015625 73.800781 35.851562 L 71 33.75 L 71 21.5 C 71 21.222656 70.773438 21 70.5 21 L 69 21 L 69 18 L 78 18 L 78 21 L 76.5 21 C 76.222656 21 76 21.222656 76 21.5 L 76 37.5 L 75.800781 37.351562 C 75.582031 37.1875 75.265625 37.226562 75.101562 37.449219 C 74.933594 37.671875 74.980469 37.984375 75.199219 38.148438 L 76.199219 38.898438 C 76.289062 38.964844 76.394531 39 76.5 39 C 76.578125 39 76.652344 38.980469 76.726562 38.945312 C 76.894531 38.863281 77 38.6875 77 38.5 L 77 36.300781 L 84 41.5 Z M 84 49.011719 "/>
<path style=" stroke:none;fill-rule:nonzero;fill:rgb(6.666667%,8.627451%,20%);fill-opacity:1;" d="M 54.5 70 L 56.5 70 C 56.777344 70 57 69.777344 57 69.5 C 57 69.222656 56.777344 69 56.5 69 L 54.5 69 C 54.222656 69 54 69.222656 54 69.5 C 54 69.777344 54.222656 70 54.5 70 Z M 54.5 70 "/>
</g>
</svg>
