<?xml version="1.0" encoding="UTF-8" standalone="no"?>
<!DOCTYPE svg PUBLIC "-//W3C//DTD SVG 1.1//EN" "http://www.w3.org/Graphics/SVG/1.1/DTD/svg11.dtd">
<svg version="1.1" xmlns="http://www.w3.org/2000/svg" xmlns:xlink="http://www.w3.org/1999/xlink" preserveAspectRatio="xMidYMid meet" viewBox="0 0 640 640" width="100" height="100"><defs><path d="M194.61 496.11L191.11 502.17L99.81 449.46L103.31 443.4L194.61 496.11Z" id="h4KoJBZHs"></path><path d="M195.95 511.72L199.45 517.77L108.15 570.48L104.66 564.43L195.95 511.72Z" id="b8ecS1CMgD"></path><path d="M328.88 387.19L334.47 387.19L334.47 471.41L328.88 471.41L328.88 387.19Z" id="d1h2cepFva"></path><path d="M328.88 486.26L334.47 486.26L334.47 570.48L328.88 570.48L328.88 486.26Z" id="c1w1dkjzMh"></path><path d="M415.9 568.44L415.9 574.02L331.68 574.02L331.68 568.44L415.9 568.44Z" id="aXFxZ4mgf"></path><path d="M447.1 571.39C447.1 581.37 438.99 589.48 429 589.48C419.02 589.48 410.91 581.37 410.91 571.39C410.91 561.4 419.02 553.29 429 553.29C438.99 553.29 447.1 561.4 447.1 571.39Z" id="bjKcGFWwI"></path><path d="M506.45 472.23L500.86 472.23L500.86 388.01L506.45 388.01L506.45 472.23Z" id="b29LPewIWJ"></path><path d="M506.45 571.23L500.86 571.23L500.86 487.01L506.45 487.01L506.45 571.23Z" id="daOREytPR"></path><path d="M505.08 389.98L505.08 384.39L589.3 384.39L589.3 389.98L505.08 389.98Z" id="a4Memq1Eln"></path><path d="M503.65 482.01L503.65 476.42L587.88 476.42L587.88 482.01L503.65 482.01Z" id="b8N9cqr15"></path><path d="M610.5 479.85C610.5 489.84 602.39 497.95 592.4 497.95C582.42 497.95 574.31 489.84 574.31 479.85C574.31 469.87 582.42 461.76 592.4 461.76C602.39 461.76 610.5 469.87 610.5 479.85Z" id="a7WmUAh6P"></path><path d="M522.39 573.26C522.39 583.24 514.28 591.35 504.29 591.35C494.3 591.35 486.2 583.24 486.2 573.26C486.2 563.27 494.3 555.16 504.29 555.16C514.28 555.16 522.39 563.27 522.39 573.26Z" id="jM0mmXwNh"></path><path d="M328.54 134.96L332.42 138.98L271.81 197.47L267.94 193.45L328.54 134.96Z" id="i7kvNkYvtC"></path><path d="M395.33 199.47L399.21 195.45L338.6 136.96L334.72 140.98L395.33 199.47Z" id="a17OwOEwBB"></path><path d="M353.75 134.96C353.75 146.73 344.19 156.29 332.42 156.29C320.65 156.29 311.1 146.73 311.1 134.96C311.1 123.2 320.65 113.64 332.42 113.64C344.19 113.64 353.75 123.2 353.75 134.96Z" id="aa8Z2NjhF"></path><path d="M264.06 197.47L267.94 201.49L207.33 259.97L203.45 255.95L264.06 197.47Z" id="c21VN31CrS"></path><path d="M289.26 199.47C289.26 211.24 279.7 220.79 267.94 220.79C256.17 220.79 246.61 211.24 246.61 199.47C246.61 187.7 256.17 178.14 267.94 178.14C279.7 178.14 289.26 187.7 289.26 199.47Z" id="a1R8ZDMmQ1"></path><path d="M395.33 199.47L399.21 203.49L338.6 261.97L334.72 257.95L395.33 199.47Z" id="f1bkrUN81O"></path><path d="M395.33 322.47L399.21 326.49L338.6 384.97L334.72 380.95L395.33 322.47Z" id="m1Cyx1pyo2"></path><path d="M457.37 259.97L461.25 255.95L400.64 197.47L396.76 201.49L457.37 259.97Z" id="c16gbYsC4g"></path><path d="M522.77 323.47L526.65 319.45L466.04 260.97L462.16 264.99L522.77 323.47Z" id="a19VXuPpmE"></path><path d="M418.09 199.47C418.09 211.24 408.53 220.79 396.76 220.79C384.99 220.79 375.44 211.24 375.44 199.47C375.44 187.7 384.99 178.14 396.76 178.14C408.53 178.14 418.09 187.7 418.09 199.47Z" id="b2kXHcxvwr"></path><path d="M335.5 259.97L339.38 263.99L278.77 322.47L274.89 318.45L335.5 259.97Z" id="b2vWA7L6FY"></path><path d="M199.57 259.97L203.45 263.99L142.84 322.47L138.96 318.45L199.57 259.97Z" id="ayUZ8BEy"></path><path d="M225.88 259.97C225.88 271.74 216.33 281.29 204.56 281.29C192.79 281.29 183.24 271.74 183.24 259.97C183.24 248.2 192.79 238.64 204.56 238.64C216.33 238.64 225.88 248.2 225.88 259.97Z" id="a3MYr5aWh"></path><path d="M397.87 319.97L401.75 315.95L341.14 257.47L337.26 261.49L397.87 319.97Z" id="dbAIrWWiT"></path><path d="M360.75 259.97C360.75 271.74 351.19 281.29 339.42 281.29C327.65 281.29 318.1 271.74 318.1 259.97C318.1 248.2 327.65 238.64 339.42 238.64C351.19 238.64 360.75 248.2 360.75 259.97Z" id="aaTtXTENE"></path><path d="M420.53 322.47C420.53 334.24 410.98 343.79 399.21 343.79C387.44 343.79 377.89 334.24 377.89 322.47C377.89 310.7 387.44 301.14 399.21 301.14C410.98 301.14 420.53 310.7 420.53 322.47Z" id="d36drTDNP7"></path><path d="M353.75 387.19C353.75 398.96 344.19 408.51 332.42 408.51C320.65 408.51 311.1 398.96 311.1 387.19C311.1 375.42 320.65 365.86 332.42 365.86C344.19 365.86 353.75 375.42 353.75 387.19Z" id="a6E0JlzM4M"></path><path d="M198.69 384.97L202.57 380.95L141.96 322.47L138.08 326.49L198.69 384.97Z" id="bpbrL1cq7"></path><path d="M135.08 325.51L138.96 329.53L78.35 388.01L74.47 383.99L135.08 325.51Z" id="aCcPtGbUV"></path><path d="M159.4 322.47C159.4 334.24 149.85 343.79 138.08 343.79C126.31 343.79 116.75 334.24 116.75 322.47C116.75 310.7 126.31 301.14 138.08 301.14C149.85 301.14 159.4 310.7 159.4 322.47Z" id="i1g6YsDlHr"></path><path d="M353 478.39C353 490.16 343.44 499.71 331.68 499.71C319.91 499.71 310.35 490.16 310.35 478.39C310.35 466.62 319.91 457.06 331.68 457.06C343.44 457.06 353 466.62 353 478.39Z" id="b3ZVBzu5Lj"></path><path d="M353 571.39C353 583.15 343.44 592.71 331.68 592.71C319.91 592.71 310.35 583.15 310.35 571.39C310.35 559.62 319.91 550.06 331.68 550.06C343.44 550.06 353 559.62 353 571.39Z" id="c8Od2jFA"></path><path d="M591.31 388.01L595.19 383.99L534.58 325.51L530.7 329.53L591.31 388.01Z" id="a1BV3fS43"></path><path d="M548.35 322.47C548.35 334.24 538.79 343.79 527.02 343.79C515.25 343.79 505.7 334.24 505.7 322.47C505.7 310.7 515.25 301.14 527.02 301.14C538.79 301.14 548.35 310.7 548.35 322.47Z" id="b7brsMFGf"></path><path d="M615.52 386.82C615.52 398.59 605.96 408.14 594.19 408.14C582.42 408.14 572.87 398.59 572.87 386.82C572.87 375.05 582.42 365.49 594.19 365.49C605.96 365.49 615.52 375.05 615.52 386.82Z" id="i3dNLsYTe"></path><path d="M459.37 346.19L464.95 346.19L464.95 261.97L459.37 261.97L459.37 346.19Z" id="f7woSks4"></path><path d="M482.57 261.97C482.57 273.74 473.02 283.29 461.25 283.29C449.48 283.29 439.92 273.74 439.92 261.97C439.92 250.2 449.48 240.64 461.25 240.64C473.02 240.64 482.57 250.2 482.57 261.97Z" id="b6RoqrdcG"></path><path d="M292.99 322.18C292.99 332.16 284.88 340.27 274.89 340.27C264.9 340.27 256.79 332.16 256.79 322.18C256.79 312.19 264.9 304.08 274.89 304.08C284.88 304.08 292.99 312.19 292.99 322.18Z" id="c2upXfHZNi"></path><path d="M195.95 387.19L199.45 393.24L108.15 445.95L104.66 439.9L195.95 387.19Z" id="e6UmCrWTZi"></path><path d="M479.35 341.57C479.35 351.55 471.24 359.66 461.25 359.66C451.26 359.66 443.15 351.55 443.15 341.57C443.15 331.58 451.26 323.47 461.25 323.47C471.24 323.47 479.35 331.58 479.35 341.57Z" id="e2mlSzGWUX"></path><path d="M224.89 384.22C224.89 395.99 215.34 405.54 203.57 405.54C191.8 405.54 182.24 395.99 182.24 384.22C182.24 372.45 191.8 362.89 203.57 362.89C215.34 362.89 224.89 372.45 224.89 384.22Z" id="b2t05A5vD9"></path><path d="M121.14 443.4C121.14 455.17 111.58 464.73 99.81 464.73C88.04 464.73 78.49 455.17 78.49 443.4C78.49 431.63 88.04 422.08 99.81 422.08C111.58 422.08 121.14 431.63 121.14 443.4Z" id="a4cRgEAXvs"></path><path d="M128.76 568.16C128.76 578.15 120.66 586.26 110.67 586.26C100.68 586.26 92.57 578.15 92.57 568.16C92.57 558.17 100.68 550.06 110.67 550.06C120.66 550.06 128.76 558.17 128.76 568.16Z" id="czO2W9Urh"></path><path d="M219.14 522.61C210.55 530.66 197.05 530.22 189 521.63C180.96 513.04 181.4 499.53 189.99 491.49C198.58 483.44 212.08 483.88 220.13 492.47C228.17 501.06 227.73 514.57 219.14 522.61Z" id="b6WAkDPsk"></path><path d="M525.62 387.19C525.62 398.96 516.06 408.51 504.29 408.51C492.52 408.51 482.97 398.96 482.97 387.19C482.97 375.42 492.52 365.86 504.29 365.86C516.06 365.86 525.62 375.42 525.62 387.19Z" id="bmigwnxn"></path><path d="M92.57 384.97C92.57 394.96 84.46 403.07 74.47 403.07C64.48 403.07 56.38 394.96 56.38 384.97C56.38 374.98 64.48 366.87 74.47 366.87C84.46 366.87 92.57 374.98 92.57 384.97Z" id="a3mzlIvLa9"></path><path d="M-31.85 744.06C-31.85 755.83 -41.41 765.39 -53.18 765.39C-64.95 765.39 -74.5 755.83 -74.5 744.06C-74.5 732.3 -64.95 722.74 -53.18 722.74C-41.41 722.74 -31.85 732.3 -31.85 744.06Z" id="a97M9zByo"></path><path d="M525.62 475.6C525.62 487.37 516.06 496.92 504.29 496.92C492.52 496.92 482.97 487.37 482.97 475.6C482.97 463.83 492.52 454.27 504.29 454.27C516.06 454.27 525.62 463.83 525.62 475.6Z" id="a2yuklbnu"></path></defs><g><g><g><use xlink:href="#h4KoJBZHs" opacity="1" fill="#d987d9" fill-opacity="1"></use></g><g><use xlink:href="#b8ecS1CMgD" opacity="1" fill="#d987d9" fill-opacity="1"></use></g><g><use xlink:href="#d1h2cepFva" opacity="1" fill="#d987d9" fill-opacity="1"></use></g><g><use xlink:href="#c1w1dkjzMh" opacity="1" fill="#d987d9" fill-opacity="1"></use></g><g><use xlink:href="#aXFxZ4mgf" opacity="1" fill="#d987d9" fill-opacity="1"></use></g><g><use xlink:href="#bjKcGFWwI" opacity="1" fill="#55d4ab" fill-opacity="1"></use></g><g><use xlink:href="#b29LPewIWJ" opacity="1" fill="#d987d9" fill-opacity="1"></use></g><g><use xlink:href="#daOREytPR" opacity="1" fill="#d987d9" fill-opacity="1"></use></g><g><use xlink:href="#a4Memq1Eln" opacity="1" fill="#d987d9" fill-opacity="1"></use></g><g><use xlink:href="#b8N9cqr15" opacity="1" fill="#d987d9" fill-opacity="1"></use></g><g><use xlink:href="#a7WmUAh6P" opacity="1" fill="#55d4ab" fill-opacity="1"></use></g><g><use xlink:href="#jM0mmXwNh" opacity="1" fill="#55d4ab" fill-opacity="1"></use></g><g><use xlink:href="#i7kvNkYvtC" opacity="1" fill="#deab9e" fill-opacity="1"></use></g><g><use xlink:href="#a17OwOEwBB" opacity="1" fill="#deab9e" fill-opacity="1"></use></g><g><use xlink:href="#aa8Z2NjhF" opacity="1" fill="#e3ce63" fill-opacity="1"></use></g><g><use xlink:href="#c21VN31CrS" opacity="1" fill="#deab9e" fill-opacity="1"></use></g><g><use xlink:href="#a1R8ZDMmQ1" opacity="1" fill="#e3ce63" fill-opacity="1"></use></g><g><use xlink:href="#f1bkrUN81O" opacity="1" fill="#deab9e" fill-opacity="1"></use></g><g><use xlink:href="#m1Cyx1pyo2" opacity="1" fill="#deab9e" fill-opacity="1"></use></g><g><use xlink:href="#c16gbYsC4g" opacity="1" fill="#deab9e" fill-opacity="1"></use></g><g><use xlink:href="#a19VXuPpmE" opacity="1" fill="#deab9e" fill-opacity="1"></use></g><g><use xlink:href="#b2kXHcxvwr" opacity="1" fill="#e3ce63" fill-opacity="1"></use></g><g><use xlink:href="#b2vWA7L6FY" opacity="1" fill="#deab9e" fill-opacity="1"></use></g><g><use xlink:href="#ayUZ8BEy" opacity="1" fill="#deab9e" fill-opacity="1"></use></g><g><use xlink:href="#a3MYr5aWh" opacity="1" fill="#e3ce63" fill-opacity="1"></use></g><g><use xlink:href="#dbAIrWWiT" opacity="1" fill="#deab9e" fill-opacity="1"></use></g><g><use xlink:href="#aaTtXTENE" opacity="1" fill="#e3ce63" fill-opacity="1"></use></g><g><use xlink:href="#d36drTDNP7" opacity="1" fill="#e3ce63" fill-opacity="1"></use></g><g><use xlink:href="#a6E0JlzM4M" opacity="1" fill="#55d4ab" fill-opacity="1"></use></g><g><use xlink:href="#bpbrL1cq7" opacity="1" fill="#deab9e" fill-opacity="1"></use></g><g><use xlink:href="#aCcPtGbUV" opacity="1" fill="#deab9e" fill-opacity="1"></use></g><g><use xlink:href="#i1g6YsDlHr" opacity="1" fill="#e3ce63" fill-opacity="1"></use></g><g><use xlink:href="#b3ZVBzu5Lj" opacity="1" fill="#55d4ab" fill-opacity="1"></use></g><g><use xlink:href="#c8Od2jFA" opacity="1" fill="#55d4ab" fill-opacity="1"></use></g><g><use xlink:href="#a1BV3fS43" opacity="1" fill="#deab9e" fill-opacity="1"></use></g><g><use xlink:href="#b7brsMFGf" opacity="1" fill="#e3ce63" fill-opacity="1"></use></g><g><use xlink:href="#i3dNLsYTe" opacity="1" fill="#55d4ab" fill-opacity="1"></use></g><g><use xlink:href="#f7woSks4" opacity="1" fill="#deab9e" fill-opacity="1"></use></g><g><use xlink:href="#b6RoqrdcG" opacity="1" fill="#e3ce63" fill-opacity="1"></use></g><g><use xlink:href="#c2upXfHZNi" opacity="1" fill="#e3ce63" fill-opacity="1"></use></g><g><use xlink:href="#e6UmCrWTZi" opacity="1" fill="#d987d9" fill-opacity="1"></use></g><g><use xlink:href="#e2mlSzGWUX" opacity="1" fill="#e3ce63" fill-opacity="1"></use></g><g><use xlink:href="#b2t05A5vD9" opacity="1" fill="#55d4ab" fill-opacity="1"></use></g><g><use xlink:href="#a4cRgEAXvs" opacity="1" fill="#55d4ab" fill-opacity="1"></use></g><g><use xlink:href="#czO2W9Urh" opacity="1" fill="#55d4ab" fill-opacity="1"></use></g><g><use xlink:href="#b6WAkDPsk" opacity="1" fill="#55d4ab" fill-opacity="1"></use></g><g><use xlink:href="#bmigwnxn" opacity="1" fill="#55d4ab" fill-opacity="1"></use></g><g><use xlink:href="#a3mzlIvLa9" opacity="1" fill="#e3ce63" fill-opacity="1"></use></g><g><use xlink:href="#a97M9zByo" opacity="1" fill="#e3ce63" fill-opacity="1"></use></g><g><use xlink:href="#a2yuklbnu" opacity="1" fill="#55d4ab" fill-opacity="1"></use></g></g></g></svg>