<?xml version="1.0" encoding="iso-8859-1" ?>
<svg version="1.1" xmlns="http://www.w3.org/2000/svg" xmlns:xlink="http://www.w3.org/1999/xlink" 
    viewBox="0 0 1200 800" width="1200" height="800">
    
    
    <!-- ITEM 0 -->
    <g>
        <defs>
            <clipPath id="clip-path-id-viewbox-item-0">
                <rect x="0.0" y="0.0" width="2389.405" height="1620.247"/>
            </clipPath>
        </defs>
        <g transform="translate(180.0 115.0) rotate(0.0 420.0 284.5) scale(0.35155195540312334 0.35118102363405085)">
            <g clip-path="url(#clip-path-id-viewbox-item-0)" transform="translate(-0.0 -0.0)">
                
<g>
	<path style="fill:#deab9e;" d="M2377.734,1058.053c-39.55,224.87-189.36,433.06-400.38,520.25   c-178.05,73.57-384.94,47.59-545.5-56.24c-93.81-60.66-174.28-124.36-266.27-173.87c-53.22-28.64-110.3-52.54-176.05-68.34   c-31.36-7.54-63-13.42-94.83-18.16c-107.78-16.08-217.73-19.25-326.38-30.48c-140.74-14.54-284.89-44.81-399.71-127.48   c-111.35-80.17-188.66-219.78-164.02-353.84c0.77-4.18,1.63-8.35,2.6-12.51c27.46-118.19,128.72-206.97,238.99-257.59   c46.23-21.22,94.39-37.07,143.36-50.71c67.86-18.91,137.26-33.58,205.18-52.4c165.98-46,323.69-117.06,484.53-178.84   c64.95-24.96,130.41-48.39,197.12-68.05c231.92-68.34,495.23-86.26,704.37,35.07c100.42,58.25,181.95,145.3,246.33,241.91   c40.45,60.71,74.47,126.15,100.73,194.44C2383.794,746.663,2404.644,905.033,2377.734,1058.053z"></path>
	<path style="fill:#deab9e;" d="M689.304,218.743c-85.6,60.57-178.41,104.96-274.27,131.6c-15.48,4.3-32.14,8.99-49.56,13.71   c-75.08,20.38-164.14,41.37-232.28,34.41c-35.24-3.6-71.46-26.69-85.52-67.55c-13.71-39.82-3.23-87.8,18.18-121.8   c21.41-34,52.09-56.52,82.81-76.16c104.26-66.66,218.16-109.09,334.35-125.38c57.19-8.03,114.94-9.72,172.37-4.85   c44.2,3.74,97.23,20.36,109.79,73.87C779.114,135.943,732.144,188.443,689.304,218.743z"></path>
</g>

            </g>
        </g>
    </g>
    
</svg>