<?xml version="1.0" encoding="iso-8859-1" ?>
<svg version="1.1" xmlns="http://www.w3.org/2000/svg" xmlns:xlink="http://www.w3.org/1999/xlink" 
    viewBox="0 0 1200 800" width="1200" height="800">
    
    
    <!-- ITEM 0 -->
    <g>
        <defs>
            <clipPath id="clip-path-id-viewbox-item-0">
                <rect x="0.0" y="0.0" width="2064.212" height="1330.024"/>
            </clipPath>
        </defs>
        <g transform="translate(180.0 129.0) rotate(0.0 420.0 270.5) scale(0.40693494660432167 0.4067595772707861)">
            <g clip-path="url(#clip-path-id-viewbox-item-0)" transform="translate(-0.0 -0.0)">
                
<g>
	<path style="fill:#deab9e;" d="M2023.275,711.225c-11.36,21.22-24.67,41.12-39.44,59.95c-6.3,8.021-12.87,15.85-19.66,23.5   c-3.23,3.64-6.51,7.23-9.84,10.78c-6.32,6.75-12.81,13.36-19.44,19.83c-2.67,2.62-5.37,5.21-8.08,7.78   c-5.27,4.98-10.61,9.88-16.03,14.72c-3.81,3.4-7.65,6.77-11.52,10.11c-16.77,14.46-34.09,28.33-51.58,41.77   c-2.74,2.12-5.5,4.22-8.25,6.31c-317.92,241.46-706.55,388.47-1104.57,418.71c-19,1.45-38.02,2.63-57.06,3.54   c-52.65,2.51-106.22,2.82-158.96-1.84c-31.38-2.77-62.45-7.3-92.86-14.16c-41.89-9.44-82.51-23.33-120.9-43.16   c-113.08-58.43-201.59-179.86-187.15-306.33c4.36-38.15,17.27-73.76,34.89-107.64c25.9-49.83,62.01-95.92,96.15-140.91   c21.83-28.76,43.55-59.03,61.8-90.72c29.73-51.6,50.27-106.96,47.09-165.66c-3.1-57.35-28.75-110.62-48.59-164.52   c-35.18-95.57-27.38-199.95,69.42-255.33c59.68-34.15,131.64-39,200.3-35.34c72.55,3.87,141.04,19.26,207.47,39.87   c211.5,65.61,402.17,184.15,636.65,152.42c130.84-17.71,266.77-47.06,392.26-6.04   C2025.595,257.575,2126.735,517.995,2023.275,711.225z"></path>
	<path style="fill:#deab9e;" d="M1474.747,134.583c22.306-7.444,46.935-21.464,49.108-44.879   c2.394-25.809-23.758-44.462-47.476-54.915C1403.624,2.727,1321.44-7.571,1243.024,5.551   c-27.749,4.644-58.415,14.862-70.163,40.426C1122.701,155.131,1424.227,151.443,1474.747,134.583z"></path>
	<path style="fill:#deab9e;" d="M186.811,615.454c-15.734,30.214-35.484,59.832-64.607,77.506   c-29.123,17.674-69.516,20.411-95.779-1.286C4.363,673.448-3.253,641.87,1.232,613.608c4.486-28.263,19.316-53.797,35.812-77.193   c27.856-39.507,106.4-150.872,164.343-119.448C268.838,453.547,210.113,570.704,186.811,615.454z"></path>
</g>

            </g>
        </g>
    </g>
    
</svg>