<?xml version="1.0" encoding="iso-8859-1" ?>
<svg version="1.1" xmlns="http://www.w3.org/2000/svg" xmlns:xlink="http://www.w3.org/1999/xlink" 
    viewBox="0 0 1200 800" width="1200" height="800">
    
    
    <!-- ITEM 0 -->
    <g>
        <defs>
            <clipPath id="clip-path-id-viewbox-item-0">
                <rect x="0.0" y="0.0" width="642.115" height="251.0"/>
            </clipPath>
        </defs>
        <g transform="translate(279.0 274.0) rotate(0.0 321.0 125.5) scale(0.9998209043551388 1.0)">
            <g clip-path="url(#clip-path-id-viewbox-item-0)" transform="translate(-0.0 -0.0)">
                

<g>
	<path d="M581.063,178c-4.262,15.344-10.97,25.156-15.47,33.071c-2.224,3.911-5.821,6.852-10.096,8.251   C534.462,226.202,460.873,251,322.063,251c-144.03,0-225.611-29.43-247.175-38.422c-3.799-1.584-6.938-4.406-8.917-8.016   c-3.92-7.148-10.675-20.354-14.908-33.562c-1.92-5.991-3.321-11.983-4.341-17.409C44.615,142.379,53.168,132,64.577,132l251.487,24   l251.373-24c10.596,0,18.99,9.029,18.122,19.589C584.912,159.456,583.612,168.825,581.063,178z" style="fill:#7b5b92;"></path>
	<path d="M69.891,59.955C68.063,61,49.063,62,39.063,71s-9,11-19,15s-21,9-20,17c1.414,11.314,15.557,10.315,15,17   c-1,12-10,12-8,18c4,12,15,6,28,8c27.955,4.301,35,15,53,22s55,2,74,0s42,14,64,14s31-8,50-8s32,11,56,11s34-7,58-10s39,8,67,3   s25-23,56-20s50,9,77-8s51.474-9.735,45-27c-6-16,8-20,7-32c-1.003-12.041-17-18-27-20s-15-2-24-8s-160.803-36.307-192-35   s-281,18-281,18L69.891,59.955" style="fill:#e3ce63;"></path>
	<path d="M39.063,92c0-21,101-92,274-92s292,71,292,92c0,16-39,45-126,49c-89.616,4.12-291.223,2.76-342-2   C73.063,133,39.063,111,39.063,92z" style="fill:#deab9e;"></path>
	<path d="M484.063,144c31.37-1.657,56.953-5.641,76-12c-0.017-0.016-35.991-35.371-78.621-63.858   c42.029-8.92,63.447-14.022,73.029-16.424c-17.247-8.639-38.543-17.394-63.283-25.185c-13.905,2.03-33.99,5.09-53.124,8.467   c-3.4,0.6-7.195,1.352-11.309,2.235c-4.238-1.891-8.474-3.646-12.691-5.235c-23.516-8.861-42.684-15.996-57.746-21.557   c5.39-1.383,10.725-2.578,15.746-3.443c4.689-0.809,8.399-1.854,11.343-3.036C361.174,1.439,337.667,0,313.063,0   c-42.418,0-80.495,4.275-113.828,11.028c9.375,0.139,20.694,1.149,32.554,2.628c-10.533,4.597-21.473,9.521-32.725,14.344   c-7,3-13.831,6.329-20.471,9.841c-14.71-1.027-29.097-0.629-43.529,1.159c-17.284,2.142-31.736,5.206-42.948,8.145   C68.88,59.089,50.032,71.634,42.063,81c9.257-2.308,41.095-3.129,71.808-1.927c-0.944,0.649-1.895,1.305-2.808,1.927   c-17.287,11.787-37.387,35.258-44,44c13.584,6.121,32.841,12.943,55,16c3.353-4.604,9.634-14.36,16-22   c9.676-11.611,26.007-22.804,41.751-33.045c17.052,4.5,36.482,12.06,55.178,20.319c-24.375,14.746-36.674,33.312-42.929,38.727   c31.289,1.023,54.766,0.772,97,1c1.667-0.993,13.084-12.87,15-14c2.168,1.143,12.917,13.982,15,15c31.315,0.109,56.903,0.388,86,0   c-7.958-10.323-25.537-26.681-43.854-39.08c14.92-7.646,29.706-14.185,46.82-20.172C434.148,105.761,472.292,133.192,484.063,144z    M301.998,74.103c-8.312-4.002-16.681-7.74-24.935-11.103c-11.535-4.699-22.6-8.73-33.307-12.12   c26.367-10.896,57.925-22.247,65.307-24.88c5,2,4.62,1.959,4.62,1.959c12.388,6.764,31.017,17.375,46.505,26.879   C340.407,60.784,320.113,67.441,301.998,74.103z" style="fill:#e3ce63;"></path>
	<g>
		<path d="M303.885,135.763c3.089-0.661,5.943-2.696,8.71-4.179c2.861-1.533,5.709-3.093,8.583-4.601    c5.622-2.949,11.37-5.644,17.174-8.213c11.63-5.147,23.729-9.34,36.003-12.663c3.416-0.925,6.859-1.736,10.289-2.604    c1.717-0.435,3.375-1.016,5.084-1.49c1.825-0.506,3.725-0.874,5.418-1.738c1.522-0.777,0.575-2.697-0.779-2.875    c-1.583-0.208-3.207,0.073-4.789,0.244c-1.669,0.18-3.376,0.262-5.027,0.535c-3.206,0.53-6.37,1.265-9.524,2.041    c-6.298,1.55-12.549,3.33-18.684,5.438c-12.37,4.251-24.383,9.473-35.846,15.777c-3.231,1.777-6.438,3.599-9.522,5.623    c-2.972,1.951-6.472,3.852-8.589,6.754C301.647,134.823,302.86,135.983,303.885,135.763L303.885,135.763z" style="fill:#deab9e;"></path>
	</g>
	<g>
		<path d="M228.269,108.953c3.396-1.37,6.547-3.085,9.773-4.804c3.103-1.654,6.226-3.269,9.335-4.912    c6.351-3.356,12.79-6.542,19.277-9.626c12.791-6.081,25.883-11.415,39.157-16.346c3.727-1.384,7.487-2.668,11.228-4.012    c3.891-1.398,7.697-3.122,11.542-4.657c1.589-0.634,1.016-2.955-0.717-2.599c-3.593,0.738-7.177,1.541-10.745,2.384    c-3.46,0.818-6.872,2.188-10.229,3.346c-6.861,2.367-13.628,4.979-20.333,7.757c-13.323,5.52-26.374,11.651-39.048,18.535    c-3.492,1.897-6.933,3.867-10.33,5.93c-3.518,2.136-6.978,4.247-10.126,6.915C226.131,107.645,227.116,109.418,228.269,108.953    L228.269,108.953z" style="fill:#deab9e;"></path>
	</g>
	<g>
		<path d="M354.092,55.522c2.15,2.18,4.703,3.778,7.294,5.397c2.479,1.549,4.941,3.128,7.366,4.762    c5.031,3.389,10.005,6.889,14.893,10.481c9.568,7.03,18.793,14.584,27.514,22.641c2.467,2.28,4.919,4.58,7.345,6.904    c1.213,1.162,2.399,2.352,3.614,3.512c0.634,0.605,1.275,1.204,1.915,1.802c0.758,0.709,1.493,1.129,2.447,1.532    c1.491,0.629,3.152-1.212,2.643-2.643c-0.556-1.562-1.545-2.603-2.625-3.831c-1.062-1.207-2.182-2.362-3.299-3.517    c-2.132-2.206-4.295-4.379-6.532-6.479c-4.366-4.099-8.857-8.064-13.466-11.887c-9.386-7.787-19.334-14.99-29.822-21.222    c-2.887-1.715-5.798-3.393-8.736-5.02c-3.06-1.695-6.121-3.399-9.562-4.128C354.113,53.62,353.352,54.771,354.092,55.522    L354.092,55.522z" style="fill:#deab9e;"></path>
	</g>
	<g>
		<path d="M459.324,54.789c0.064,0,0.064-0.1,0-0.1C459.26,54.689,459.26,54.789,459.324,54.789L459.324,54.789z" style="fill:#deab9e;"></path>
	</g>
	<g>
		<path d="M426.571,36.662c22.307,12.407,44.483,25.009,65.666,39.285c2.948,1.987,5.921,3.934,8.861,5.932    c1.533,1.042,3.062,2.091,4.585,3.148c1.525,1.058,2.999,2.265,4.794,2.791c1.457,0.427,2.952-1.336,2.051-2.668    c-0.917-1.356-2.149-2.211-3.442-3.199c-1.354-1.035-2.735-2.036-4.109-3.043c-2.624-1.923-5.265-3.823-7.921-5.701    c-5.176-3.659-10.522-7.098-15.866-10.505c-10.829-6.904-21.96-13.315-33.284-19.372c-6.433-3.44-13.008-6.552-19.68-9.501    C426.343,32.996,424.681,35.611,426.571,36.662L426.571,36.662z" style="fill:#deab9e;"></path>
	</g>
	<g>
		<path d="M302.796,30.634c1.26-0.284,2.604-0.463,3.811-0.913c1.228-0.458,2.455-0.917,3.682-1.376    c2.451-0.917,4.902-1.833,7.359-2.733c4.879-1.788,9.779-3.542,14.712-5.177c9.659-3.202,19.671-5.743,29.841-6.562    c5.787-0.466,11.598,0.196,17.363-0.317c0.91-0.081,1.6-1.512,0.532-1.965c-4.836-2.053-10.252-2.194-15.443-2.067    c-5.246,0.129-10.488,0.733-15.625,1.801c-10.392,2.16-20.457,5.709-30.241,9.774c-2.85,1.184-5.69,2.394-8.527,3.608    c-1.416,0.606-2.831,1.213-4.247,1.819c-1.418,0.606-2.684,1.434-4.014,2.217C300.967,29.349,301.662,30.89,302.796,30.634    L302.796,30.634z" style="fill:#deab9e;"></path>
	</g>
	<g>
		<path d="M106.427,83.13c6.489-0.451,12.937-1.248,19.45-1.382c6.523-0.134,13.063,0.106,19.564,0.649    c12.801,1.07,25.51,3.76,37.69,7.837c3.475,1.163,6.896,2.474,10.303,3.822c1.612,0.638,3.212,1.304,4.798,2.001    c1.721,0.757,3.485,1.704,5.333,2.066c1.359,0.267,2.612-1.404,1.444-2.481c-2.397-2.21-5.846-3.477-8.784-4.819    c-3.034-1.386-6.123-2.631-9.256-3.775c-6.266-2.286-12.683-4.202-19.201-5.62c-12.928-2.812-26.248-4.148-39.472-3.427    c-7.407,0.404-14.992,1.045-22.149,3.055C105.036,81.37,105.207,83.214,106.427,83.13L106.427,83.13z" style="fill:#deab9e;"></path>
	</g>
	<g>
		<path d="M172.708,37.05c0.786,0.198,1.531,0.547,2.328,0.673c0.817,0.129,1.648,0.213,2.47,0.311    c1.677,0.2,3.36,0.349,5.038,0.537c3.19,0.357,6.378,0.732,9.567,1.099c6.386,0.736,12.747,1.686,19.068,2.86    c12.688,2.356,25.262,5.568,37.467,9.767c3.438,1.183,6.824,2.593,10.308,3.621c3.487,1.03,6.92,2.349,10.318,3.637    c1.164,0.441,1.922-1.418,0.843-1.999c-5.859-3.152-11.769-6.067-18.035-8.319c-6.193-2.225-12.481-4.187-18.836-5.894    c-12.58-3.378-25.474-5.601-38.412-7.061c-3.634-0.41-7.264-0.745-10.917-0.926c-1.829-0.09-3.661-0.178-5.492-0.225    c-0.991-0.026-1.993-0.043-2.984-0.005c-0.935,0.035-1.809,0.32-2.732,0.455C171.941,35.693,172.024,36.878,172.708,37.05    L172.708,37.05z" style="fill:#deab9e;"></path>
	</g>
	<g>
		<path d="M218.763,16.27c4.744-0.421,9.357-1.861,13.979-2.974c4.362-1.051,8.749-2.004,13.124-2.996    c4.373-0.992,8.776-1.84,13.149-2.827c4.7-1.061,9.267-2.386,13.859-3.843c1.201-0.381,1.065-2.407-0.312-2.302    c-4.813,0.366-9.56,0.831-14.316,1.67c-4.489,0.792-8.952,1.786-13.4,2.781c-4.451,0.996-8.848,2.169-13.23,3.434    c-4.56,1.317-9.288,2.563-13.435,4.909C217.235,14.658,217.594,16.374,218.763,16.27L218.763,16.27z" style="fill:#deab9e;"></path>
	</g>
	<g>
		<path d="M68.292,122.826c2.388,1.714,4.851,2.801,7.575,3.88c2.661,1.054,5.288,2.109,8.037,2.923    c5.449,1.614,10.952,3.046,16.496,4.294c5.47,1.232,10.982,2.215,16.532,3.013c2.946,0.424,5.901,0.841,8.864,1.128    c2.842,0.275,5.645,0.355,8.49,0.475c3.153,0.133,6.304,0.164,9.459,0.083c3.266-0.083,6.461-0.525,9.709-0.795    c1.96-0.163,1.958-2.877,0-3.047c-2.86-0.248-5.671-0.736-8.526-1.054c-2.758-0.308-5.519-0.611-8.279-0.89    c-2.767-0.28-5.498-0.739-8.262-1.05c-2.825-0.318-5.651-0.648-8.47-1.018c-10.971-1.441-21.912-3.538-32.633-6.272    c-3.068-0.782-6.136-1.495-9.221-2.198c-1.462-0.333-2.909-0.734-4.37-1.068c-1.589-0.363-3.207-0.437-4.83-0.518    C67.645,120.655,67.454,122.225,68.292,122.826L68.292,122.826z" style="fill:#deab9e;"></path>
	</g>
	<g>
		<path d="M189.517,141.605c7.915,1.734,16.161,2.28,24.225,2.954c8.075,0.674,16.192,1.025,24.285,1.433    c16.187,0.817,32.407,1.187,48.612,1.387c32.236,0.398,64.546-0.258,96.733-2.123c9.09-0.527,18.17-1.157,27.244-1.904    c4.473-0.368,8.905-1.001,13.363-1.524c4.603-0.54,9.142-1.392,13.728-2.041c1.577-0.223,1.188-2.81-0.374-2.762    c-4.126,0.126-8.239,0.028-12.365,0.155c-3.953,0.121-7.934,0.102-11.877,0.326c-8.087,0.459-16.178,0.86-24.268,1.245    c-16.025,0.763-32.057,1.379-48.097,1.722c-32.242,0.689-64.522,0.44-96.749-0.774c-8.924-0.336-17.847-0.642-26.767-1.071    c-4.449-0.214-8.92-0.443-13.374-0.479c-4.618-0.036-9.253-0.238-13.862,0.079C188.146,138.354,187.515,141.166,189.517,141.605    L189.517,141.605z" style="fill:#deab9e;"></path>
	</g>
	<g>
		<path d="M469.389,141.405c3.506,0.889,7.141,0.976,10.74,0.992c3.663,0.016,7.299-0.017,10.961-0.204    c7.383-0.377,14.755-1.27,22.059-2.4c7.234-1.12,14.397-2.726,21.47-4.605c6.685-1.775,13.361-3.736,19.758-6.384    c3.503-1.449,6.987-3.019,10.208-5.032c3.161-1.975,6.272-4.261,8.14-7.538c0.79-1.385-0.733-2.545-2.004-2.004    c-0.782,0.333-1.579,0.593-2.311,1.023c-0.604,0.355-1.179,0.761-1.783,1.116c-1.453,0.853-2.936,1.691-4.416,2.499    c-2.65,1.447-5.37,2.78-8.172,3.908c-6.215,2.504-12.68,4.477-19.131,6.27c-13.555,3.768-27.463,6.414-41.439,7.999    c-3.964,0.45-7.937,0.885-11.908,1.24c-4.069,0.364-8.18,0.438-12.171,1.385C468.525,139.878,468.541,141.19,469.389,141.405    L469.389,141.405z" style="fill:#deab9e;"></path>
	</g>
	<g>
		<path d="M45.92,84.39c-0.225-2.35,1.257-4.429,2.666-6.167c1.55-1.912,3.236-3.712,5.039-5.387    c1.748-1.624,3.45-3.251,5.37-4.681c0.967-0.72,1.924-1.457,2.904-2.161c1-0.719,2.06-1.36,2.943-2.225    c0.722-0.708-0.035-1.774-0.931-1.6c-2.524,0.492-5.067,2.131-7.16,3.568c-2.238,1.536-4.454,3.203-6.38,5.118    c-1.893,1.882-3.662,3.912-5.239,6.066c-1.618,2.209-2.96,5.111-1.836,7.823c0.258,0.622,0.752,1.053,1.465,0.957    C45.366,85.62,45.984,85.053,45.92,84.39L45.92,84.39z" style="fill:#deab9e;"></path>
	</g>
</g>

            </g>
        </g>
    </g>
    
</svg>