<?xml version="1.0" encoding="iso-8859-1" ?>
<svg version="1.1" xmlns="http://www.w3.org/2000/svg" xmlns:xlink="http://www.w3.org/1999/xlink" 
    viewBox="0 0 1200 800" width="1200" height="800">
    
    
    <!-- ITEM 0 -->
    <g>
        <defs>
            <clipPath id="clip-path-id-viewbox-item-0">
                <rect x="0.0" y="0.0" width="619.311" height="265.182"/>
            </clipPath>
        </defs>
        <g transform="translate(290.0 267.0) rotate(0.0 309.5 132.5) scale(0.9994978290390449 0.9993136789073164)">
            <g clip-path="url(#clip-path-id-viewbox-item-0)" transform="translate(-0.0 -0.0)">
                

<g id="Слой_68-i0">
	<g>
		<path d="M75.224,40.593c51.873-27.462,155-44,241-40s199,28,249,61s54.873,70.16,54,85c-1,17-6,34-34,61    c-7.652,7.379-23,5-23,5l-219-72c0,0,34,59,45,74c9.027,12.309,19,13,22,21s3,20-3,26c-6,6-135,6-218-12s-152-34-181-90    S41.224,58.593,75.224,40.593z" style="fill:#e3ce63;"></path>
		<path d="M0.385,134.172c0.109-0.603,0.9-0.753,1.234-0.239c3.972,6.126-1.747,14.867,37.605,47.66c24,20,81,43,136,53    s171,20,203,18s33.566-0.759,33.566-0.759s0.434,9.759-7.566,11.759c-4,1-94,4-179-6c-79.829-9.392-136.894-24.402-185.447-60.701    C-2.003,165.657-0.772,140.565,0.385,134.172z" style="fill:#deab9e;"></path>
		<path d="M343.224,140.593l-7-12c0,0,207,65,215,67s10,1,20,2s16,8,14,10s-10.025,5.608-15.013,5.304    c-4.987-0.304-0.768,1.809-12.378-1.747C546.224,207.593,343.224,140.593,343.224,140.593z" style="fill:#deab9e;"></path>
		<g>
			<path d="M24.075,104.571c-9.705,23.454,4.725,50.018,24.105,63.454c1.008,0.699,2.199-0.867,1.306-1.693     c-16.643-15.395-27.494-38.244-23.016-61.1C26.784,103.63,24.677,103.114,24.075,104.571L24.075,104.571z" style="fill:#deab9e;"></path>
		</g>
		<g>
			<path d="M52.327,73.345c7.569-4.587,14.764-9.628,22.612-13.764c8.176-4.309,16.691-7.969,25.356-11.174     c17.366-6.422,35.234-11.503,53.254-15.726c38.2-8.952,77.313-13.712,116.485-15.407c22.112-0.957,44.321-1.173,66.442-1.179     c2.678-0.001,2.627-3.949,0-4.125c-40.115-2.695-80.41-1.241-120.331,3.666c-38.601,4.746-77.558,12.67-114.05,26.367     c-17.877,6.71-37.905,15.331-51.218,29.465C49.967,72.434,51.134,74.067,52.327,73.345L52.327,73.345z" style="fill:#deab9e;"></path>
		</g>
		<g>
			<path d="M549.446,198.452c8.923,3.193,21.045-6.242,26.696-12.286c7.905-8.454,13.784-19.947,15.485-31.439     c0.34-2.298-2.462-3.733-3.855-1.625c-5.826,8.814-9.957,18.561-17.074,26.539c-3.182,3.568-6.721,6.738-10.685,9.411     c-3.578,2.412-8.174,3.629-11.311,6.58C547.716,196.558,548.306,198.044,549.446,198.452L549.446,198.452z" style="fill:#deab9e;"></path>
		</g>
		<g>
			<path d="M398.41,22.776c10.02,1.852,19.903,4.91,29.811,7.302c9.194,2.22,18.38,4.479,27.527,6.886     c18.744,4.931,37.455,10.468,55.261,18.197c31.914,13.854,60.125,35.381,77.11,66.258c0.713,1.295,2.519,0.158,1.943-1.136     C566.137,66.542,504.2,45.052,451.488,31.695c-17.297-4.383-34.954-9.694-52.785-11.083     C397.477,20.517,397.186,22.55,398.41,22.776L398.41,22.776z" style="fill:#deab9e;"></path>
		</g>
		<g>
			<path d="M393.887,225.831c-8.794-1.059-18.119,0.208-26.96,0.475c-9,0.272-17.996,0.236-26.998,0.162     c-17.68-0.146-35.373-0.876-53.004-2.199c-18.011-1.351-36.003-3.264-53.88-5.844c-17.373-2.508-34.597-6.3-51.992-8.533     c-2.276-0.292-2.55,3.235-0.523,3.867c17.022,5.308,35.278,7.949,52.892,10.498c17.761,2.57,35.594,4.495,53.503,5.668     c17.97,1.177,35.962,1.65,53.968,1.409c9.001-0.121,18.007-0.532,26.997-0.968c8.567-0.416,17.942-0.298,26.258-2.6     C395.292,227.448,394.932,225.957,393.887,225.831L393.887,225.831z" style="fill:#deab9e;"></path>
		</g>
		<g>
			<path d="M340.642,127.779c7.28,0.059,14.625-0.727,21.888-1.208c7.294-0.483,14.597-0.88,21.887-1.408     c14.425-1.045,28.851-2.091,43.274-3.166c29.027-2.164,58.048-4.431,87.034-7.092c16.138-1.482,32.396-2.57,48.439-4.898     c0.862-0.125,0.644-1.519-0.203-1.504c-14.598,0.268-29.198,1.642-43.76,2.642c-14.426,0.991-28.85,2.044-43.266,3.17     c-29.021,2.266-58.029,4.676-87.041,7.06c-8.129,0.668-16.248,1.446-24.374,2.155c-3.98,0.347-7.961,0.678-11.939,1.049     c-4.069,0.38-8.161,0.647-12.197,1.297C339.284,126.054,339.581,127.771,340.642,127.779L340.642,127.779z" style="fill:#deab9e;"></path>
		</g>
		<g>
			<path d="M319.808,128.088c-7.471,0.091-14.934-0.289-22.41-0.115c-7.303,0.17-14.607,0.351-21.91,0.544     c-14.773,0.389-29.544,1.094-44.309,1.727c-29.538,1.265-59.069,2.765-88.578,4.583c-8.293,0.511-16.584,1.046-24.871,1.649     c-4.145,0.302-8.29,0.601-12.433,0.919c-4.114,0.316-8.292,0.523-12.342,1.325c-1.779,0.352-1.228,2.899,0.407,3.008     c3.796,0.253,7.639-0.042,11.437-0.229c3.647-0.18,7.294-0.368,10.941-0.551c7.296-0.365,14.591-0.741,21.886-1.139     c14.759-0.805,29.52-1.58,44.28-2.358c29.36-1.548,58.729-2.953,88.104-4.191c8.301-0.35,16.598-0.833,24.897-1.239     c8.318-0.407,16.591-1.331,24.9-1.776C321.184,130.17,321.206,128.071,319.808,128.088L319.808,128.088z" style="fill:#deab9e;"></path>
		</g>
		<g>
			<path d="M318.024,130.853c-10.163,3.359-20.091,7.478-30.079,11.321c-10.016,3.854-19.95,7.932-29.917,11.911     c-19.874,7.933-39.708,15.953-59.512,24.056c-5.543,2.268-11.116,4.48-16.612,6.859c-2.737,1.184-5.439,2.45-8.173,3.641     c-2.802,1.221-5.686,2.328-8.36,3.812c-1.077,0.598-0.345,2.281,0.831,1.971c5.101-1.349,10.023-3.581,15.001-5.333     c5.093-1.792,10.099-3.854,15.119-5.84c9.981-3.949,19.971-7.862,29.928-11.869c19.851-7.988,39.678-16.032,59.507-24.076     c5.562-2.256,11.077-4.638,16.611-6.963c5.572-2.341,11.154-4.627,16.608-7.234C320.233,132.508,319.349,130.415,318.024,130.853     L318.024,130.853z" style="fill:#deab9e;"></path>
		</g>
		<g>
			<path d="M331.751,120.568c2.265-0.61,4.273-1.661,6.371-2.694c2.134-1.05,4.27-2.098,6.413-3.129     c4.283-2.061,8.531-4.195,12.801-6.285c8.536-4.179,17.133-8.233,25.767-12.207c8.557-3.939,17.149-7.806,25.792-11.554     c8.702-3.774,17.578-7.195,26.205-11.132c9.725-4.438,19.827-8.132,29.721-12.177c1.337-0.547,0.837-2.7-0.615-2.23     c-18.131,5.876-35.972,12.748-53.484,20.257c-17.533,7.518-34.814,15.57-51.836,24.181c-4.789,2.422-9.673,4.753-14.336,7.411     c-2.267,1.292-4.555,2.546-6.833,3.82c-2.367,1.323-4.734,2.542-6.786,4.329C330.275,119.728,330.975,120.777,331.751,120.568     L331.751,120.568z" style="fill:#deab9e;"></path>
		</g>
		<g>
			<path d="M327.914,118.337c-1.244-3.164-2.894-6.096-4.474-9.101c-1.629-3.1-3.245-6.206-4.878-9.304     c-3.176-6.027-6.824-11.852-10.253-17.739c-6.959-11.95-13.958-23.87-21.201-35.65c-4.109-6.682-8.342-13.26-12.71-19.776     c-0.904-1.349-2.947-0.176-2.186,1.278c12.835,24.503,27.475,48.006,41.876,71.608c1.997,3.274,4.203,6.424,6.34,9.607     c2.169,3.231,4.195,6.55,6.703,9.533C327.424,119.142,328.084,118.768,327.914,118.337L327.914,118.337z" style="fill:#deab9e;"></path>
		</g>
		<g>
			<path d="M321.62,121.587c-2.743-1.564-5.769-2.666-8.682-3.887c-2.831-1.186-5.702-2.258-8.58-3.322     c-5.896-2.182-11.802-4.338-17.727-6.442c-11.695-4.151-23.425-8.191-35.242-11.983c-23.776-7.629-47.727-14.68-71.846-21.143     c-6.691-1.793-13.399-3.514-20.121-5.189c-6.87-1.712-13.764-3.583-20.765-4.649c-2.364-0.36-3.366,2.858-1.005,3.646     c5.955,1.988,12.098,3.379,18.172,4.967c5.999,1.568,11.994,3.154,17.987,4.747c12.064,3.206,24.092,6.55,36.079,10.033     c23.816,6.92,47.495,14.302,71.054,22.051c6.575,2.163,13.139,4.359,19.688,6.599c3.349,1.145,6.688,2.32,10.058,3.403     c3.338,1.073,6.733,2.306,10.172,2.969C321.912,123.589,322.64,122.169,321.62,121.587L321.62,121.587z" style="fill:#deab9e;"></path>
		</g>
		<path d="M126.58,67.811c-15.756,8.292-15,21-13,27s13.696,15.157,39,16c30,1,40-12,43-19s-6-20-17-25    S145.58,57.811,126.58,67.811z" style="fill:#deab9e;"></path>
		<path d="M239.58,169.811c5-8,19.967-13,35-13c23,0,43,8,49,20s-7,23-18,27s-34,7-52,0    C235.995,196.972,231.49,182.755,239.58,169.811z" style="fill:#deab9e;"></path>
		<path d="M463.58,92.811c6,6,17,8,36,9c23.988,1.263,43-1,44-11s-22-21-45-19c-23,2-34,8-37,11    S461.999,91.23,463.58,92.811z" style="fill:#deab9e;"></path>
		<path d="M280.58,68.811c15,6,37,4,43,2s17-6,24-13s-7.114-14.282-20-16c-15-2-42-1-54,8s-3,13,3,16" style="fill:#deab9e;"></path>
		<g>
			<path d="M135.361,75.027c-0.577-0.217-1.161-0.423-1.733-0.654c0.137,0.058,0.274,0.115,0.41,0.173     c-0.161-0.079-0.323-0.158-0.484-0.237c-0.499-0.245-1.028-0.358-1.579-0.207c-0.475,0.131-0.99,0.498-1.224,0.942     c-0.532,1.007-0.236,2.195,0.735,2.803c0.643,0.402,1.46,0.438,2.196,0.489c0.44,0.03,0.881,0.041,1.322,0.032     c1.073-0.022,2.141-0.169,3.195-0.363c-0.426,0-0.853,0-1.279,0c0.029,0.01,0.058,0.019,0.087,0.029     c-0.196-0.083-0.392-0.166-0.589-0.248c0.267,0.145,0.546,0.288,0.839,0.366c0.568,0.151,1.07,0.069,1.63-0.04     c0.215-0.091,0.429-0.181,0.644-0.272c0.314-0.169,0.566-0.401,0.756-0.694c0.351-0.454,0.605-1.042,0.578-1.632     c-0.054-1.215-0.803-2.235-1.978-2.598c-0.971-0.3-1.957-0.454-2.966-0.576c-0.394-0.048-0.79-0.081-1.187-0.093     c-0.655-0.021-1.249,0.044-1.908,0.136c-0.532,0.149-0.995,0.419-1.387,0.808c-0.39,0.392-0.659,0.854-0.808,1.387     c-0.15,0.557-0.15,1.114,0,1.671c0.149,0.532,0.419,0.995,0.808,1.387c0.77,0.631,1.35,0.983,2.292,1.33     c0.624,0.23,1.329,0.314,1.988,0.319c0.648,0.004,1.339-0.081,1.957-0.291c0.425-0.144,0.848-0.317,1.244-0.53     c0.405-0.218,0.765-0.534,1.119-0.816c0.399-0.402,0.675-0.875,0.828-1.42c0.153-0.57,0.153-1.141,0-1.711     c-0.301-1.093-1.166-1.935-2.248-2.248c-1.025-0.297-2.141-0.448-3.209-0.394c-1.073,0.054-2.176,0.225-3.178,0.625     c-0.263,0.111-0.526,0.222-0.788,0.333c-0.385,0.207-0.693,0.491-0.926,0.85c-0.43,0.557-0.741,1.277-0.709,2     c0.026,0.586,0.177,1.147,0.451,1.666c0.414,0.783,1.185,1.216,1.972,1.517c0.6,0.229,1.222,0.301,1.861,0.371     c0.354,0.039,0.705,0.048,1.059,0.009c1.273-0.137,2.426-0.412,3.539-1.086c0.622-0.377,1.078-0.922,1.359-1.588     c0.279-0.66,0.394-1.462,0.167-2.163c-0.177-0.548-0.465-1.041-0.854-1.466c-0.55-0.6-1.544-0.989-2.349-0.973     c-1.38,0.027-2.76,0.057-4.14,0.097c-0.828,0.024-1.769,0.344-2.345,0.971c-0.173,0.224-0.346,0.447-0.519,0.671     c-0.242,0.381-0.374,0.792-0.394,1.233c-0.095,0.707-0.005,1.497,0.394,2.114c0.467,0.724,1.132,1.296,1.982,1.524     c2.269,0.61,4.695,0.611,6.964,0.002c0.69-0.185,1.273-0.618,1.703-1.175c0.427-0.553,0.736-1.269,0.704-1.987     c-0.026-0.582-0.175-1.14-0.448-1.655c-0.363-0.687-1.208-1.325-1.96-1.507c-1.238-0.299-2.708-0.436-3.94-0.024     c-0.757,0.253-1.532,0.743-1.918,1.475c-0.108,0.256-0.216,0.511-0.324,0.767c-0.134,0.427-0.153,0.853-0.057,1.28     c0.09,0.674,0.367,1.37,0.883,1.843c0.629,0.577,1.399,0.938,2.27,0.94c0.508,0.001,1.01-0.034,1.517,0.024     c-0.29-0.039-0.58-0.078-0.87-0.117c0.236,0.032,0.466,0.076,0.697,0.136c0-2.108,0-4.216,0-6.324     c-0.376,0.095-0.755,0.169-1.138,0.223c0.291-0.039,0.583-0.078,0.874-0.117c-0.875,0.114-1.754,0.115-2.629,0.004     c0.293,0.039,0.586,0.079,0.879,0.118c-0.489-0.067-0.969-0.167-1.443-0.302c-0.294,2.171-0.588,4.342-0.882,6.514     c1.38-0.021,2.76-0.052,4.14-0.086c-0.559-2.063-1.118-4.126-1.676-6.19c-0.185,0.113-0.374,0.212-0.571,0.301     c0.264-0.112,0.529-0.223,0.793-0.335c-0.371,0.156-0.754,0.263-1.152,0.325c0.294-0.039,0.588-0.079,0.882-0.118     c-0.43,0.057-0.858,0.058-1.288,0.002c0.294,0.039,0.587,0.079,0.881,0.118c-0.306-0.047-0.603-0.116-0.896-0.216     c0.263,2.011,0.526,4.021,0.788,6.032c0.06-0.027,0.121-0.053,0.182-0.078c-0.263,0.111-0.525,0.222-0.788,0.332     c0.553-0.224,1.125-0.379,1.715-0.465c-0.289,0.039-0.579,0.078-0.868,0.117c0.658-0.087,1.316-0.088,1.974-0.001     c-0.286-0.038-0.573-0.077-0.859-0.115c0.262,0.039,0.52,0.09,0.777,0.155c-0.473-1.793-0.947-3.587-1.42-5.38     c-0.04,0.035-0.082,0.07-0.124,0.103c0.217-0.168,0.434-0.335,0.651-0.503c-0.215,0.164-0.444,0.297-0.692,0.405     c0.255-0.108,0.51-0.215,0.765-0.323c-0.276,0.112-0.558,0.188-0.852,0.23c0.282-0.038,0.565-0.076,0.847-0.114     c-0.296,0.036-0.589,0.037-0.885,0.004c0.281,0.038,0.562,0.076,0.843,0.113c-0.295-0.041-0.577-0.114-0.853-0.225     c0.251,0.106,0.503,0.212,0.754,0.318c-0.248-0.107-0.478-0.24-0.693-0.404c-0.25,1.915-0.501,3.83-0.751,5.744     c0.526-0.092,1.038-0.233,1.569-0.307c-0.264,0.036-0.529,0.071-0.793,0.107c0.962-0.126,1.932-0.135,2.898-0.036     c-0.239-1.764-0.477-3.528-0.716-5.292c-0.51,0.209-0.973,0.364-1.377,0.768c-0.195,0.195-0.389,0.479-0.543,0.731     c0.128-0.166,0.257-0.332,0.385-0.499c-0.021,0.022-0.041,0.045-0.062,0.067c0.354-0.206,0.708-0.413,1.062-0.619     c-0.802,0.259-1.631,0.435-2.466,0.548c0.201-0.027,0.402-0.054,0.603-0.081c-0.439,0.057-0.88,0.097-1.322,0.115     c-0.557,0.024-1.239-0.048-1.76,0.156c0.526,1.248,1.052,2.496,1.579,3.745c0.646-0.445,1.334-0.81,2.019-1.192     c0.311-0.174,0.471-0.544,0.425-0.887C135.949,75.397,135.701,75.155,135.361,75.027L135.361,75.027z" style="fill:#f7eede;"></path>
		</g>
		<g>
			<path d="M173.75,83.661c-0.14-0.056-0.28-0.109-0.424-0.155c-0.082-0.026-0.183-0.077-0.268-0.078     c-0.103-0.034-0.077-0.008,0.081,0.077c0.142,0.104,0.176,0.125,0.103,0.064c-0.327-0.356-0.754-0.574-1.226-0.652     c-0.901-0.149-1.737-0.159-2.64-0.013c0.186-0.025,0.373-0.05,0.559-0.075c-0.566,0.066-1.199,0.12-1.741,0.32     c-0.939,0.347-1.622,1.013-1.761,2.044c-0.135,1.004,0.336,1.897,1.174,2.449c2.632,1.736,6.017,1.713,8.926,0.728     c0.991-0.336,1.774-1.024,2.059-2.059c0.265-0.962,0.018-2.189-0.758-2.869c-0.45-0.394-0.926-0.784-1.447-1.08     c-0.566-0.322-1.194-0.563-1.806-0.775c-0.993-0.345-2.08-0.498-3.125-0.543c-1.257-0.054-2.511,0.117-3.63,0.72     c-2.005,1.081-2.806,3.661-1.642,5.646c0.769,1.311,2.27,2.106,3.674,2.552c1.223,0.389,2.609,0.457,3.861,0.178     c1.356-0.302,2.616-1.26,3.323-2.444c1.177-1.971,0.441-4.523-1.492-5.697c-1.217-0.739-2.841-0.972-4.228-1.062     c-0.26-0.017-0.514-0.012-0.773,0.007c-0.951,0.071-1.302,0.207-2.154,0.579c-0.425,0.186-0.826,0.375-1.154,0.732     c-0.28,0.305-0.466,0.653-0.689,0.992c-0.339,0.516-0.447,1.39-0.258,1.975c0.204,0.632,0.588,1.196,1.178,1.531     c0.084,0.048,0.162,0.093,0.239,0.152c-0.191-0.148-0.383-0.296-0.574-0.444c1.29,1.305,3.162,1.068,4.828,1.29     c-0.299-0.04-0.598-0.08-0.897-0.121c0.572,0.085,1.156,0.207,1.691,0.432c-0.269-0.113-0.537-0.227-0.806-0.34     c0.101,0.05,0.189,0.101,0.281,0.167c-0.228-0.176-0.455-0.352-0.683-0.528c0.057,0.045,0.107,0.096,0.151,0.154     c-0.176-0.228-0.352-0.455-0.528-0.683c0.034,0.044,0.063,0.092,0.088,0.142c-0.113-0.269-0.227-0.537-0.34-0.806     c0.031,0.074,0.051,0.138,0.065,0.217c-0.04-0.299-0.08-0.598-0.121-0.897c0.006,0.077,0.004,0.142-0.006,0.219     c0.04-0.299,0.08-0.598,0.121-0.897c-0.017,0.076-0.039,0.143-0.069,0.215c0.113-0.269,0.227-0.537,0.34-0.806     c-0.037,0.073-0.077,0.139-0.124,0.206c0.176-0.228,0.352-0.455,0.528-0.683c-0.11,0.141-0.234,0.258-0.375,0.368     c0.228-0.176,0.455-0.352,0.683-0.528c-0.155,0.109-0.315,0.199-0.488,0.276c0.269-0.113,0.537-0.227,0.806-0.34     c-0.174,0.068-0.347,0.117-0.532,0.144c0.299-0.04,0.598-0.08,0.897-0.121c-0.343,0.034-0.686,0.021-1.028-0.019     c0.299,0.04,0.598,0.08,0.897,0.121c-0.431-0.06-0.844-0.17-1.248-0.331c0.269,0.113,0.537,0.227,0.806,0.34     c-0.352-0.151-0.69-0.331-0.996-0.563c0.228,0.176,0.455,0.352,0.683,0.528c-0.08-0.068-0.149-0.135-0.217-0.215     c0.176,0.228,0.352,0.455,0.528,0.683c-0.041-0.053-0.075-0.109-0.102-0.17c0.113,0.269,0.227,0.537,0.34,0.806     c-0.025-0.058-0.042-0.118-0.05-0.18c0.04,0.299,0.08,0.598,0.121,0.897c-0.005-0.054-0.007-0.108-0.006-0.163     c-0.04,0.299-0.08,0.597-0.12,0.896c0.012-0.084,0.029-0.149,0.061-0.228c-0.113,0.267-0.226,0.535-0.338,0.802     c0.023-0.049,0.051-0.096,0.083-0.14c-0.174,0.226-0.349,0.452-0.523,0.678c0.074-0.093,0.154-0.171,0.246-0.246     c-0.225,0.174-0.449,0.347-0.674,0.521c0.129-0.093,0.262-0.169,0.407-0.236c-0.263,0.111-0.526,0.222-0.789,0.333     c0.326-0.135,0.667-0.193,1.014-0.242c-0.288,0.039-0.575,0.077-0.863,0.116c0.658-0.082,1.314-0.073,1.971,0.012     c-0.28-0.038-0.56-0.075-0.84-0.113c0.849,0.123,1.651,0.387,2.44,0.718c-0.241-0.102-0.482-0.203-0.723-0.305     c0.344,0.151,0.691,0.293,1.037,0.437c-0.238-0.1-0.475-0.2-0.713-0.301c0.072,0.031,0.143,0.062,0.214,0.095     c0-1.697,0-3.395,0-5.092c-0.311,0.222-0.635,0.426-0.979,0.594c0.221-0.093,0.443-0.187,0.664-0.28     c-0.508,0.186-1.029,0.314-1.564,0.393c0.241-0.032,0.483-0.065,0.724-0.097c-0.691,0.091-1.383,0.095-2.075,0.008     c0.235,0.032,0.47,0.063,0.705,0.095c-0.758-0.107-1.52-0.268-2.235-0.544c0.362,1.37,0.723,2.739,1.085,4.109     c0.184-0.207,0.348-0.435,0.515-0.656c-0.125,0.161-0.249,0.323-0.374,0.484c0.113-0.143,0.239-0.271,0.373-0.394     c0.052-0.048,0.106-0.094,0.159-0.141c0.257-0.228-0.34,0.24-0.126,0.099c0.138-0.09,0.274-0.185,0.417-0.268     c0.148-0.086,0.341-0.146,0.477-0.247c-0.063,0.047-0.343,0.133-0.116,0.049c0.087-0.032,0.173-0.066,0.262-0.094     c0.353-0.111,0.654-0.251,0.914-0.518c0.085-0.069,0.083-0.069-0.007,0.002c-0.06,0.062-0.136,0.091-0.227,0.088     c-0.351,0.078-0.017,0.03,0.065,0.029c0.185-0.001,0.369,0.01,0.552,0.026c0.517,0.046,0.965-0.434,1.028-0.908     C174.574,84.258,174.242,83.859,173.75,83.661L173.75,83.661z" style="fill:#f7eede;"></path>
		</g>
		<g>
			<path d="M137.301,91.221c-0.058,0.273-0.08,0.537-0.017,0.811c0.072,0.314,0.272,0.546,0.465,0.79     c0.225,0.286,0.494,0.51,0.791,0.723c0.29,0.208,0.66,0.322,1.012,0.381c0.398,0.067,0.792,0.122,1.193,0.069     c-0.164-0.022-0.329-0.044-0.493-0.066c0.022,0.004,0.043,0.009,0.065,0.013c-0.151-0.064-0.301-0.127-0.452-0.191     c0.016,0.007,0.031,0.014,0.047,0.021c0.468,0.212,0.981,0.363,1.497,0.196c0.41-0.133,0.745-0.354,1.009-0.696     c0.546-0.707,0.593-1.929-0.152-2.551c-0.382-0.319-0.734-0.538-1.216-0.678c-0.327-0.095-0.737-0.089-1.085-0.116     c-0.412-0.031-0.825-0.058-1.237-0.095c0.208,0.028,0.415,0.056,0.623,0.084c-0.293-0.042-0.585-0.098-0.877-0.148     c-0.688-0.118-1.329-0.109-1.952,0.255c-0.526,0.308-1.027,0.91-1.164,1.514c-0.148,0.649-0.116,1.377,0.255,1.952     c0.132,0.171,0.264,0.342,0.396,0.513c0.316,0.314,0.689,0.531,1.118,0.652c0.496,0.202,1.012,0.239,1.546,0.301     c0.341,0.04,0.683,0.059,1.026,0.058c0.873-0.003,1.757-0.123,2.608-0.314c0.622-0.14,1.333-0.691,1.63-1.254     c0.291-0.551,0.407-1.119,0.324-1.739c-0.077-0.572-0.312-1.164-0.75-1.566c-0.536-0.492-1.188-0.794-1.929-0.799     c-1.137-0.007-2.27-0.11-3.407-0.137c-0.716-0.017-1.606,0.335-2.094,0.867c-0.154,0.2-0.309,0.4-0.463,0.599     c-0.216,0.34-0.334,0.707-0.351,1.101c-0.085,0.631-0.004,1.337,0.351,1.888c0.433,0.672,1.01,1.098,1.77,1.361     c2.357,0.815,5.02,0.422,7.18-0.757c0.209-0.161,0.417-0.322,0.626-0.483c0.301-0.28,0.514-0.612,0.639-0.995     c0.259-0.614,0.367-1.36,0.156-2.013c-0.165-0.51-0.433-0.969-0.795-1.364c-0.534-0.581-1.417-0.888-2.186-0.905     c-0.815-0.019-1.616-0.077-2.432-0.02c-1.067,0.075-2.132,0.219-3.184,0.409c-0.264,0.111-0.528,0.223-0.792,0.334     c-0.224,0.173-0.447,0.346-0.671,0.518c-0.173,0.224-0.346,0.447-0.518,0.671c-0.242,0.381-0.373,0.791-0.393,1.233     c-0.079,0.294-0.079,0.588,0,0.881c0.001,0.299,0.076,0.578,0.226,0.837c0.079,0.281,0.221,0.525,0.426,0.732     c0.234,0.361,0.544,0.646,0.93,0.854c0.441,0.272,0.943,0.477,1.425,0.651c0.138,0.05,0.28,0.088,0.424,0.119     c0.293,0.063,0.677,0.137,0.975,0.137c0.296-0.04,0.593-0.08,0.889-0.119c0.169-0.021,0.328-0.081,0.475-0.18     c0.441-0.186,0.846-0.453,1.184-0.797c0.141-0.144,0.258-0.306,0.381-0.466c0.542-0.701,0.741-1.578,0.512-2.452     c-0.141-0.54-0.475-0.943-0.813-1.373c0.155,0.201,0.31,0.401,0.465,0.602c-0.047-0.062-0.088-0.127-0.13-0.193     c-0.485-0.752-1.224-1.388-2.117-1.599c-0.272-0.064-0.539-0.137-0.799-0.241c0.265,0.112,0.53,0.224,0.795,0.336     c-0.109-0.046-0.214-0.096-0.319-0.151c-0.264,2.02-0.528,4.04-0.792,6.06c0.817-0.21,1.644-0.372,2.48-0.486     c-0.286,0.038-0.571,0.077-0.857,0.115c0.519-0.068,1.038-0.132,1.556-0.203c-0.283,0.038-0.565,0.076-0.848,0.114     c0.503-0.066,1.014-0.136,1.522-0.14c-0.52-1.92-1.04-3.84-1.56-5.76c-0.252,0.149-0.512,0.279-0.782,0.393     c0.245-0.103,0.49-0.207,0.735-0.31c-0.49,0.199-0.996,0.336-1.519,0.414c0.27-0.036,0.541-0.073,0.811-0.109     c-0.636,0.085-1.285,0.082-1.921,0.001c0.265,0.036,0.531,0.071,0.796,0.107c-0.204-0.029-0.405-0.066-0.605-0.113     c-0.262,1.939-0.525,3.878-0.787,5.817c1.138-0.092,2.268-0.259,3.407-0.33c-0.242-1.786-0.483-3.572-0.725-5.358     c-0.438,0.13-0.881,0.227-1.333,0.291c0.238-0.032,0.475-0.064,0.713-0.096c-0.405,0.052-0.812,0.081-1.221,0.078     c-0.407-0.003-0.807-0.045-1.214-0.033c0.225,1.659,0.449,3.318,0.674,4.977c0.525-0.132,1.041-0.244,1.576-0.326     c0.267-0.04,0.533-0.081,0.8-0.121c0.53-0.08,1.034-0.366,1.416-0.739c-1.017-0.785-2.034-1.57-3.051-2.354     c-0.01,0.016-0.019,0.033-0.029,0.049c0.099-0.128,0.197-0.255,0.296-0.383c-0.016,0.015-0.033,0.03-0.049,0.045     c0.273-0.159,0.546-0.318,0.819-0.477c-0.168,0.061-0.337,0.105-0.514,0.133c0.159-0.021,0.319-0.043,0.478-0.064     c-0.219,0.028-0.427,0.02-0.647,0.008c-0.204-0.011-0.404,0.016-0.61-0.008c0.134,0.018,0.268,0.036,0.401,0.054     c-0.183-0.027-0.359-0.076-0.542-0.1c-0.251-0.034-0.473-0.014-0.719,0.053C137.732,90.525,137.382,90.839,137.301,91.221     L137.301,91.221z" style="fill:#f7eede;"></path>
		</g>
		<g>
			<path d="M259.789,169.354c-0.242-0.019-0.484-0.038-0.726-0.057c-0.083-0.007-0.214,0.008-0.29-0.023     c0.171,0.036,0.2,0.034,0.087-0.006c-0.128-0.05-0.085-0.04,0.132,0.029c0.224,0.224,0.447,0.447,0.671,0.671     c-0.462-0.62-0.972-1.042-1.799-1.041c-0.821,0.001-1.505,0.459-1.938,1.13c-0.438,0.68-0.456,1.646-0.241,2.4     c0.424,1.486,1.781,2.463,3.225,2.85c1.387,0.371,2.83,0.229,4.225,0.02c1.29-0.193,2.499-0.65,3.675-1.204     c0.918-0.433,1.465-1.584,1.465-2.554c0-1.033-0.562-2.04-1.465-2.554c-1.336-0.761-2.78-1.327-4.282-1.653     c-1.747-0.378-3.582-0.533-5.35-0.203c-2.528,0.471-3.643,3.566-2.398,5.687c0.632,1.076,1.619,1.79,2.811,2.13     c1.083,0.309,2.147,0.156,3.095-0.427c1.02-0.627,1.746-1.694,1.746-2.919c0-1.008-0.477-1.821-1.152-2.518     c-0.594-0.614-1.291-0.785-2.028-1.09c0.284,0.12,0.567,0.239,0.851,0.359c-0.091-0.044-0.174-0.092-0.255-0.153     c0.24,0.186,0.481,0.371,0.721,0.557c-0.035-0.028-0.067-0.06-0.097-0.094c0.186,0.24,0.371,0.481,0.557,0.721     c-0.041-0.054-0.069-0.101-0.097-0.163c0.12,0.284,0.239,0.567,0.359,0.851c-0.015-0.04-0.024-0.081-0.028-0.123     c0.042,0.316,0.085,0.631,0.127,0.947c-0.004-0.045-0.002-0.09,0.005-0.135c-0.042,0.316-0.085,0.631-0.127,0.947     c0.008-0.05,0.022-0.099,0.041-0.146c-0.829,0.829-1.659,1.659-2.488,2.488c0.662-0.151,1.295-0.356,1.97-0.453     c-0.299,0.04-0.598,0.08-0.897,0.121c0.846-0.111,1.692-0.136,2.539-0.031c-0.279-0.037-0.558-0.075-0.836-0.112     c0.883,0.12,1.76,0.328,2.585,0.667c-0.237-0.1-0.474-0.2-0.711-0.3c0.118,0.05,0.235,0.102,0.352,0.155c0-1.703,0-3.406,0-5.109     c-0.419,0.247-0.851,0.465-1.298,0.656c0.23-0.097,0.46-0.194,0.691-0.291c-0.862,0.355-1.758,0.6-2.681,0.728     c0.245-0.033,0.49-0.066,0.734-0.099c-0.588,0.074-1.21,0.171-1.803,0.106c0.232,0.031,0.465,0.062,0.697,0.094     c-0.298-0.043-0.582-0.119-0.859-0.236c0.202,0.085,0.404,0.171,0.606,0.256c-0.239-0.111-0.49-0.234-0.709-0.382     c0.16,0.124,0.321,0.248,0.481,0.372c-0.065-0.05-0.12-0.098-0.175-0.158c0.12,0.156,0.24,0.311,0.361,0.467     c-0.045-0.064-0.081-0.124-0.115-0.195c0.076,0.18,0.152,0.359,0.227,0.539c-0.027-0.074-0.045-0.14-0.057-0.218     c0.026,0.195,0.052,0.39,0.079,0.586c-0.014-0.231-0.03-0.509-0.096-0.731c-0.072-0.171-0.144-0.342-0.217-0.513     c-0.425-0.553-0.448-0.58-0.068-0.082c0,0.67,0,1.34,0,2.01c-0.138,0.156-0.276,0.312-0.414,0.468     c-0.172,0.069-0.197,0.091-0.075,0.065c0.094,0.014,0.263-0.038,0.352-0.051c0.235-0.034,0.469-0.068,0.704-0.103     c0.735-0.107,1.163-0.988,1.074-1.646C261.159,169.883,260.543,169.414,259.789,169.354L259.789,169.354z" style="fill:#f7eede;"></path>
		</g>
		<g>
			<path d="M301.701,185.969c0.339-0.065,0.678-0.129,1.017-0.194c-0.242,0.033-0.484,0.065-0.726,0.098     c0.019-0.002,0.037-0.004,0.056-0.005c-0.243-0.033-0.486-0.065-0.729-0.098c0.033,0.005,0.066,0.011,0.099,0.016     c0.247,0.033,0.494,0.066,0.741,0.1c0.247-0.033,0.494-0.066,0.741-0.1c0.222-0.094,0.444-0.187,0.666-0.281     c0.325-0.175,0.585-0.414,0.782-0.718c0.173-0.174,0.292-0.379,0.358-0.615c0.126-0.217,0.189-0.452,0.19-0.703     c0.066-0.247,0.066-0.494,0-0.741c-0.017-0.371-0.127-0.716-0.331-1.036c-0.198-0.294-0.422-0.574-0.647-0.847     c-0.083-0.1-0.177-0.182-0.278-0.263c-0.398-0.317-0.79-0.654-1.257-0.864c-0.027-0.012-0.055-0.024-0.083-0.036     c-0.246-0.106-0.576-0.284-0.836-0.347c-0.062-0.015-0.125-0.025-0.188-0.035c-0.412-0.067-0.83-0.133-1.248-0.16     c-0.569-0.037-1.143,0.074-1.702,0.157c-0.448,0.106-0.837,0.312-1.169,0.616c-0.374,0.242-0.67,0.564-0.886,0.965     c-0.116,0.274-0.231,0.548-0.347,0.821c-0.143,0.457-0.164,0.914-0.061,1.371c0.001,0.31,0.079,0.6,0.235,0.868     c0.139,0.426,0.376,0.795,0.711,1.107c0.232,0.179,0.464,0.358,0.696,0.538c0.536,0.311,1.115,0.468,1.736,0.469     c0.116,0.01,0.232,0.018,0.347,0.03c-0.308-0.041-0.615-0.083-0.923-0.124c0.551,0.075,1.123,0.115,1.666,0.239     c0.497,0.156,0.993,0.178,1.49,0.067c0.497-0.023,0.96-0.17,1.389-0.443c0.435-0.235,0.785-0.555,1.048-0.962     c0.33-0.361,0.553-0.784,0.669-1.27c0.044-0.331,0.089-0.662,0.133-0.993c-0.002-0.674-0.172-1.303-0.51-1.886     c-0.195-0.252-0.389-0.504-0.584-0.756c-0.466-0.463-1.016-0.783-1.649-0.961c-0.619-0.148-1.249-0.221-1.884-0.242     c-0.153-0.005-0.307-0.01-0.46-0.015c-0.16-0.005-0.329-0.026-0.489-0.007c-0.532-0.02-1.029,0.091-1.49,0.333     c-0.479,0.156-0.894,0.422-1.244,0.799c-0.377,0.35-0.644,0.765-0.799,1.244c-0.242,0.461-0.353,0.957-0.333,1.49     c0.046,0.343,0.092,0.685,0.138,1.028c0.184,0.655,0.515,1.224,0.994,1.706c0.261,0.202,0.522,0.403,0.783,0.605     c0.603,0.35,1.254,0.526,1.952,0.528c0.15,0.018,0.309-0.001,0.46-0.006c0.163-0.005,0.326-0.011,0.489-0.016     c0.635-0.021,1.265-0.094,1.884-0.242c-0.662-2.402-1.324-4.803-1.986-7.205c-0.541,0.135-1.114,0.185-1.666,0.271     c0.308-0.041,0.615-0.083,0.923-0.124c-0.116,0.014-0.231,0.024-0.347,0.036c0.305,2.252,0.609,4.503,0.914,6.755     c0.228-0.078,0.46-0.134,0.698-0.169c-0.299,0.04-0.598,0.08-0.897,0.12c0.176-0.023,0.353-0.036,0.53-0.036     c0.183,0.001,0.364-0.027,0.547-0.031c0.334-0.008,0.67,0.012,1.002,0.052c-0.252-0.034-0.504-0.068-0.756-0.102     c0.046,0.006,0.092,0.013,0.138,0.021c-0.222-1.698-0.444-3.395-0.666-5.093c-0.029,0.022-0.059,0.045-0.088,0.067     c0.218-0.092,0.436-0.184,0.655-0.276c-0.331,0.139-0.696,0.224-1.039,0.332c-0.656,0.206-1.245,0.627-1.597,1.228     c-0.195,0.307-0.301,0.638-0.317,0.993c-0.08,0.355-0.064,0.71,0.048,1.065c0.209,0.647,0.61,1.27,1.228,1.597     c0.213,0.09,0.426,0.18,0.638,0.269C300.754,186.096,301.227,186.096,301.701,185.969L301.701,185.969z" style="fill:#f7eede;"></path>
		</g>
		<g>
			<path d="M265.588,195.189c0.347,0.331,0.769,0.571,1.236,0.684c0.603,0.147,0.953,0.068,1.552-0.022     c0.257-0.039,0.512-0.088,0.763-0.156c0.695-0.187,1.376-0.477,2.006-0.823c0.785-0.431,1.268-1.328,1.268-2.211     c-0.001-0.462-0.118-0.893-0.35-1.293c-0.228-0.385-0.534-0.691-0.919-0.919c-0.306-0.131-0.601-0.288-0.907-0.419     c-0.386-0.166-0.678-0.291-1.06-0.389c-0.168-0.043-0.337-0.082-0.506-0.118c-0.323-0.068-0.649-0.116-0.969-0.195     c-0.324-0.08-0.666-0.105-0.986-0.193c0.267,0.112,0.533,0.225,0.8,0.337c-0.02-0.01-0.039-0.02-0.059-0.03     c-0.389-0.248-0.809-0.382-1.261-0.402c-0.309-0.042-0.377-0.067-0.612-0.047c-0.467-0.018-0.903,0.08-1.307,0.292     c-0.421,0.137-0.785,0.371-1.092,0.702c-0.331,0.307-0.565,0.671-0.702,1.092c-0.212,0.404-0.31,0.84-0.292,1.307     c0.039,0.878,0.328,1.788,0.994,2.4c0.67,0.615,1.475,0.979,2.4,0.994c1.058,0.017,2.116,0.033,3.174,0.05     c-0.581-0.157-1.162-0.314-1.743-0.471c0.308,0.131,0.651,0.325,0.975,0.41c0.312,0.042,0.623,0.084,0.935,0.126     c0.056,0.005,0.111,0.01,0.167,0.014c0.486,0.018,0.94-0.083,1.361-0.304c0.438-0.142,0.817-0.386,1.137-0.73     c0.344-0.32,0.588-0.699,0.73-1.137c0.221-0.421,0.323-0.875,0.304-1.361c-0.041-0.914-0.341-1.861-1.035-2.498     c-0.238-0.184-0.477-0.368-0.715-0.552c-0.551-0.32-1.145-0.48-1.783-0.482c-0.269-0.024-0.538-0.048-0.806-0.071     c-0.127-0.011-0.255-0.031-0.382-0.034c-0.322,0.043-0.645,0.087-0.967,0.13c-0.026,0.007-0.053,0.013-0.079,0.02     c-0.471,0.112-0.881,0.328-1.23,0.647c-0.151,0.092-0.287,0.2-0.408,0.325c-0.347,0.322-0.592,0.704-0.735,1.145     c-0.223,0.424-0.325,0.881-0.306,1.37c0.042,0.943,0.361,1.834,1.042,2.515c0.816,0.816,1.934,1.189,3.067,1.089     c0.269-0.024,0.538-0.048,0.806-0.071c0-2.355,0-4.71,0-7.065c-0.363,0.033-0.782,0.055-1.102,0.141     c-0.338,0.091-0.652,0.271-0.975,0.411c0.581-0.157,1.162-0.314,1.743-0.471c-1.058,0.023-2.116,0.046-3.174,0.069     c0,2.262,0,4.525,0,6.787c0.341-0.042,0.809-0.058,1.063-0.14c0.323-0.105,0.631-0.276,0.935-0.418     c-0.264,0.112-0.529,0.223-0.793,0.335c0.395-0.122,0.808-0.26,1.218-0.322c-0.268,0.036-0.536,0.072-0.804,0.108     c0.443-0.047,0.888-0.073,1.333-0.074c0.437-0.001,0.878-0.072,1.315-0.046c-0.431-1.591-0.862-3.182-1.293-4.772     c-0.347,0.237-0.713,0.438-1.098,0.605c0.199-0.084,0.398-0.168,0.597-0.252c-0.274,0.114-0.554,0.213-0.841,0.289     c-0.344,0.092-0.592,0.138-0.942,0.33c-0.437,0.24-0.766,0.566-1.046,0.984c-0.077,0.183-0.154,0.366-0.232,0.549     c-0.096,0.305-0.109,0.61-0.041,0.916C265.022,194.359,265.221,194.838,265.588,195.189L265.588,195.189z" style="fill:#f7eede;"></path>
		</g>
		<g>
			<path d="M292.946,49.79c-0.917,0.132-1.484,1.035-1.503,1.901c-0.015,0.703,0.444,1.354,1.061,1.661     c0.298,0.148,0.612,0.279,0.931,0.377c1.046,0.321,2.27,0.312,3.303-0.058c0.416-0.149,0.832-0.398,1.047-0.805     c0.187-0.354,0.262-0.719,0.208-1.117c-0.119-0.884-0.84-1.475-1.721-1.519c-0.88-0.045-1.76-0.09-2.64-0.134     c0,1.205,0,2.41,0,3.615c0.589-0.002,1.178-0.006,1.767-0.006c0.587,0,1.18-0.02,1.767,0.01c0.168-0.023,0.336-0.045,0.504-0.068     c0.247-0.059,0.462-0.172,0.645-0.34c0.314-0.242,0.59-0.588,0.68-0.986c0.076-0.334,0.076-0.675,0-1.009     c-0.099-0.435-0.479-0.924-0.872-1.134c-0.875-0.467-1.869-0.775-2.867-0.784c-0.496-0.005-1.004,0.065-1.488,0.162     c-0.511,0.103-0.988,0.309-1.461,0.523c-0.141,0.109-0.282,0.218-0.423,0.327c-0.109,0.141-0.218,0.282-0.327,0.423     c-0.238,0.406-0.31,0.871-0.248,1.332c0.112,0.831,0.693,1.488,1.496,1.737c0.575,0.178,1.199,0.267,1.8,0.269     c0.295,0.001,0.583-0.039,0.874-0.078c0.351-0.047,0.692-0.133,0.985-0.344c0.329-0.236,0.677-0.485,0.862-0.861     c0.225-0.458,0.362-1.008,0.198-1.515c-0.163-0.503-0.46-0.881-0.903-1.175c-0.23-0.153-0.513-0.234-0.784-0.283     c-0.19-0.025-0.379-0.051-0.569-0.076c-0.216,0.015-0.43,0.046-0.641,0.091c-0.073,0.013-0.145,0.026-0.219,0.036     c0.189-0.025,0.378-0.051,0.567-0.076c-0.37,0.048-0.738,0.051-1.108,0.006c0.186,0.025,0.373,0.05,0.559,0.075     c-0.172-0.024-0.341-0.057-0.51-0.099c0.166,1.273,0.333,2.545,0.499,3.818c0.1-0.052,0.201-0.1,0.305-0.146     c-0.166,0.07-0.331,0.14-0.497,0.21c0.376-0.158,0.767-0.265,1.171-0.322c-0.181,0.024-0.363,0.049-0.544,0.073     c0.467-0.059,0.948-0.067,1.415-0.009c-0.174-0.023-0.349-0.047-0.523-0.07c0.314,0.044,0.62,0.117,0.919,0.223     c0.168-1.242,0.336-2.485,0.504-3.727c-0.585,0.058-1.179,0.067-1.767,0.096c-0.589,0.029-1.178,0.054-1.767,0.08     c-0.476,0.022-0.935,0.187-1.278,0.529c-0.313,0.313-0.55,0.828-0.529,1.278c0.044,0.987,0.794,1.798,1.807,1.807     c0.88,0.008,1.76,0.016,2.64,0.024c-0.155-1.147-0.311-2.295-0.466-3.442c-0.289,0.117-0.587,0.198-0.896,0.244     c0.154-0.021,0.307-0.041,0.461-0.062c-0.354,0.046-0.707,0.046-1.061-0.002c0.152,0.02,0.303,0.041,0.455,0.061     c-0.309-0.047-0.607-0.127-0.896-0.243c0.135,0.057,0.269,0.114,0.404,0.17c-0.236-0.1-0.467-0.208-0.711-0.287     c0.331,0.254,0.661,0.508,0.992,0.763c-0.019-0.022-0.035-0.047-0.047-0.073c0.055,0.131,0.11,0.262,0.166,0.392     c-0.017-0.041-0.026-0.075-0.033-0.119c0.019,0.144,0.039,0.287,0.058,0.431c-0.003-0.027-0.003-0.055,0-0.082     c-0.019,0.142-0.038,0.284-0.057,0.427c0.03-0.193,0.049-0.387,0.072-0.58c-0.018,0.137-0.037,0.273-0.055,0.41     c0.008-0.04,0.017-0.076,0.031-0.115c-0.05,0.118-0.099,0.236-0.149,0.354c0.01-0.026,0.022-0.051,0.035-0.075     c0.271-0.522,0.254-1.124-0.113-1.599c-0.157-0.203-0.339-0.343-0.576-0.443C293.561,49.727,293.294,49.741,292.946,49.79     L292.946,49.79z" style="fill:#f7eede;"></path>
		</g>
		<g>
			<path d="M330.223,50.826c-1.269-0.086-2.534-0.184-3.8-0.309c-0.31-0.031-0.648,0.132-0.882,0.313     c-0.241,0.186-0.452,0.451-0.522,0.756c-0.144,0.632,0.095,1.308,0.669,1.644c0.635,0.372,1.312,0.674,2.011,0.905     c0.732,0.242,1.475,0.362,2.237,0.463c-0.164-0.022-0.329-0.044-0.493-0.066c0.305,0.061,0.605,0.131,0.913,0.177     c-0.165-0.07-0.329-0.139-0.494-0.209c0.022,0.011,0.043,0.022,0.065,0.032c-0.143-0.11-0.285-0.22-0.428-0.331     c0.459,0.496,1.104,0.689,1.759,0.732c0.2-0.027,0.4-0.054,0.599-0.081c0.18-0.076,0.359-0.152,0.539-0.227     c0.424-0.248,0.734-0.631,0.923-1.078c0.346-0.821,0.184-1.826-0.466-2.463c-0.282-0.277-0.6-0.541-0.927-0.76     c-0.332-0.222-0.755-0.362-1.121-0.501c-0.609-0.231-1.26-0.318-1.905-0.382c-1.311-0.13-2.598,0.214-3.775,0.763     c-0.771,0.36-1.229,1.332-1.229,2.143c0,0.897,0.482,1.673,1.229,2.143c0.939,0.59,1.962,0.853,3.05,0.971     c0.344,0.037,0.686,0.035,1.03-0.005c0.546-0.063,1.085-0.13,1.602-0.318c0.612-0.223,1.221-0.581,1.539-1.183     c0.275-0.52,0.384-1.056,0.306-1.642c-0.073-0.54-0.294-1.099-0.708-1.478c-0.174-0.134-0.347-0.268-0.521-0.403     c-0.402-0.233-0.835-0.35-1.299-0.351c-0.613-0.07-1.226-0.173-1.842-0.155c-0.64,0.019-1.367,0.266-1.812,0.751     c-0.389,0.423-0.628,0.899-0.705,1.471c-0.073,0.546-0.004,1.157,0.304,1.634c0.35,0.543,0.88,1.039,1.531,1.178     c0.833,0.178,1.677,0.214,2.523,0.271c-0.228-1.686-0.456-3.371-0.684-5.057c-0.344,0.144-0.699,0.241-1.068,0.295     c0.226-0.03,0.452-0.061,0.677-0.091c-0.397,0.05-0.791,0.049-1.188-0.003c0.223,0.03,0.447,0.06,0.67,0.09     c-0.369-0.056-0.724-0.153-1.068-0.297c0.198,0.084,0.397,0.168,0.595,0.251c-0.146-0.064-0.288-0.135-0.427-0.213     c0,1.428,0,2.857,0,4.285c0.113-0.059,0.227-0.115,0.344-0.166c-0.197,0.083-0.394,0.166-0.591,0.249     c0.401-0.169,0.818-0.282,1.249-0.343c-0.216,0.029-0.433,0.058-0.649,0.087c0.432-0.054,0.865-0.055,1.298-0.003     c-0.214-0.029-0.427-0.057-0.641-0.086c0.431,0.059,0.849,0.169,1.253,0.334c-0.189-0.08-0.379-0.16-0.568-0.24     c0.397,0.17,0.8,0.312,1.199,0.473c-0.182-0.077-0.363-0.153-0.545-0.23c0.047,0.02,0.095,0.04,0.141,0.061     c0.18-1.374,0.359-2.748,0.539-4.122c-0.641,0.195-1.139,0.566-1.49,1.135c0.253-0.253,0.506-0.506,0.759-0.759     c-0.022,0.016-0.043,0.032-0.065,0.047c0.165-0.07,0.329-0.139,0.494-0.209c-0.299,0.093-0.604,0.183-0.913,0.233     c0.164-0.022,0.329-0.044,0.493-0.066c-0.671,0.051-1.342,0.035-2.009-0.053c0.146,0.02,0.291,0.039,0.437,0.059     c-0.525-0.074-1.045-0.176-1.555-0.322c0,0.936,0,1.872,0,2.808c0.298-0.045,0.597-0.091,0.895-0.136     c0.141-0.021,0.283-0.043,0.424-0.064c0.038-0.006,0.31-0.044,0.118-0.019c-0.197,0.026,0.116-0.013,0.125-0.014     c0.617-0.074,1.234-0.149,1.851-0.223c0.542-0.065,1.074-0.435,1.047-1.047C331.243,51.274,330.81,50.866,330.223,50.826     L330.223,50.826z" style="fill:#f7eede;"></path>
		</g>
		<g>
			<path d="M310.657,61.441c0.092,0.196,0.232,0.358,0.372,0.522c-0.063-0.081-0.125-0.162-0.188-0.243     c0.277,0.417,0.653,0.691,1.139,0.829c0.229,0.065,0.46,0.122,0.693,0.17c0.569,0.118,1.15,0.19,1.729,0.234     c-0.144-0.019-0.288-0.039-0.432-0.058c0.345,0.094,0.689,0.151,1.048,0.142c0.458-0.012,0.916-0.188,1.242-0.514     c0.305-0.305,0.534-0.805,0.514-1.242c-0.02-0.454-0.17-0.925-0.514-1.242c-0.359-0.329-0.756-0.475-1.242-0.514     c-0.956-0.077-1.912-0.162-2.868-0.23c-0.465-0.033-1.091,0.241-1.403,0.581c-0.301,0.328-0.486,0.697-0.546,1.14     c-0.057,0.423-0.003,0.896,0.236,1.265c0.268,0.415,0.683,0.815,1.186,0.912c1.245,0.24,2.555,0.222,3.755-0.228     c0.347-0.097,0.648-0.273,0.904-0.527c0.254-0.256,0.429-0.557,0.527-0.904c0.197-0.717-0.018-1.462-0.527-1.993     c-0.235-0.245-0.514-0.462-0.807-0.632c-0.158-0.091-0.299-0.204-0.464-0.285c-0.476-0.236-0.983-0.346-1.517-0.35     c-0.265-0.002-0.591,0.031-0.821,0.094c-0.254,0.07-0.504,0.192-0.741,0.306c-0.253,0.136-0.456,0.323-0.609,0.559     c-0.192,0.21-0.322,0.456-0.389,0.739c-0.026,0.192-0.052,0.385-0.078,0.577c-0.011,0.299,0.051,0.578,0.187,0.837     c0.176,0.417,0.477,0.821,0.889,1.039c0.173,0.073,0.346,0.146,0.519,0.219c0.385,0.103,0.77,0.103,1.155,0     c0.035-0.006,0.07-0.012,0.105-0.016c-0.194,0.026-0.388,0.052-0.581,0.078c0.283-0.029,0.563-0.07,0.844-0.115     c-0.195,0.026-0.389,0.052-0.584,0.078c0.159-0.021,0.315-0.022,0.474-0.005c-0.193-0.026-0.385-0.052-0.578-0.078     c0.245,0.034,0.486,0.081,0.733,0.082c0.068,0,0.134,0.006,0.201,0.013c-0.186-0.025-0.371-0.05-0.557-0.075     c0.055,0.008,0.102,0.015,0.154,0.033c-0.164-0.069-0.328-0.139-0.493-0.208c0.112,0.054,0.216,0.116,0.317,0.189     c-0.139-0.107-0.277-0.214-0.416-0.321c0.056,0.044,0.109,0.089,0.16,0.138c0.138-1.072,0.276-2.145,0.415-3.217     c-0.02,0.009-0.04,0.017-0.06,0.026c0.163-0.069,0.326-0.138,0.489-0.206c-0.403,0.166-0.821,0.279-1.252,0.339     c0.179-0.024,0.357-0.048,0.536-0.072c-0.432,0.054-0.865,0.054-1.298-0.003c0.176,0.024,0.352,0.047,0.528,0.071     c-0.022-0.003-0.043-0.006-0.065-0.009c-0.176,1.299-0.352,2.599-0.528,3.898c0.957-0.067,1.912-0.15,2.868-0.226     c-0.156-1.15-0.311-2.3-0.467-3.45c-0.137,0.026-0.264,0.046-0.393,0.099c-0.132,0.055-0.246,0.085-0.388,0.105     c0.142-0.019,0.284-0.038,0.426-0.057c-0.488,0.064-0.98,0.096-1.472,0.089c-0.34-0.005-0.662-0.042-0.995,0.059     c-0.261,0.08-0.533,0.204-0.759,0.362C310.557,60.533,310.442,60.982,310.657,61.441L310.657,61.441z" style="fill:#f7eede;"></path>
		</g>
		<g>
			<path d="M481.78,83.108c-0.171-0.081-0.341-0.164-0.513-0.243c-0.271-0.125-0.547-0.203-0.823-0.308     c0.218,0.127,0.436,0.254,0.654,0.381c-0.258-0.255-0.548-0.421-0.893-0.532c-0.143-0.046-0.288-0.086-0.432-0.129     c0.141,0.06,0.282,0.119,0.423,0.179c-0.022-0.015-0.045-0.03-0.067-0.045c0.123,0.095,0.246,0.19,0.369,0.285     c-0.179-0.178-0.359-0.353-0.586-0.475c-0.259-0.14-0.515-0.226-0.804-0.265c-0.154-0.021-0.308-0.041-0.462-0.059     c-0.495-0.058-1.14,0.275-1.477,0.612c-0.362,0.362-0.635,0.957-0.612,1.477c0.024,0.54,0.202,1.1,0.612,1.477     c0.141,0.109,0.282,0.218,0.423,0.327c0.326,0.189,0.677,0.284,1.054,0.285c0.558,0.07,1.117,0.157,1.678,0.193     c0.559,0.036,1.119,0.067,1.678,0.108c-0.209-0.028-0.418-0.056-0.627-0.084c0.029,0.01,0.058,0.021,0.088,0.031     c-0.19-0.08-0.381-0.161-0.571-0.241c0.36,0.155,0.719,0.33,1.089,0.456c0.231,0.031,0.462,0.062,0.693,0.093     c0.231-0.031,0.462-0.062,0.693-0.093c0.549-0.151,1.011-0.49,1.355-0.935c0.29-0.375,0.45-0.765,0.513-1.234     c0.062-0.231,0.062-0.462,0-0.693c-0.016-0.347-0.119-0.67-0.31-0.97c-0.362-0.803-1.039-1.415-1.791-1.854     c-0.57-0.333-1.226-0.599-1.883-0.7c-0.438-0.068-0.911-0.163-1.361-0.126c-0.45,0.037-0.918,0.086-1.357,0.206     c-0.934,0.254-1.655,0.714-2.388,1.321c-0.361,0.364-0.611,0.792-0.749,1.286c-0.121,0.387-0.139,0.774-0.052,1.162     c0.018,0.388,0.133,0.749,0.346,1.083c0.259,0.438,0.607,0.786,1.045,1.045c0.457,0.21,0.924,0.42,1.408,0.563     c0.373,0.11,0.747,0.163,1.132,0.215c0.384,0.052,0.762,0.106,1.15,0.1c0.517-0.007,1.037-0.093,1.544-0.175     c0.236-0.1,0.472-0.199,0.709-0.299c0.346-0.186,0.623-0.441,0.832-0.764c0.387-0.5,0.666-1.148,0.637-1.797     c-0.024-0.527-0.159-1.031-0.405-1.497c-0.186-0.346-0.441-0.623-0.764-0.832c-0.286-0.262-0.623-0.439-1.009-0.531     c-0.662-0.251-1.329-0.379-2.029-0.473c-0.7-0.094-1.379-0.148-2.084-0.077c-0.536,0.054-1.063,0.138-1.536,0.416     c-0.205,0.159-0.411,0.317-0.616,0.476c-0.297,0.276-0.507,0.602-0.629,0.98c-0.138,0.237-0.207,0.493-0.208,0.768     c-0.072,0.27-0.072,0.539,0,0.809c0.001,0.275,0.07,0.531,0.208,0.768c0.123,0.377,0.333,0.704,0.629,0.98     c0.231,0.185,0.479,0.419,0.736,0.565c0.208,0.118,0.561,0.274,0.797,0.322c0.524,0.107,0.943,0.15,1.453,0.081     c0.262-0.001,0.507-0.067,0.733-0.198c0.36-0.117,0.672-0.318,0.935-0.601c0.193-0.191,0.364-0.408,0.492-0.647     c0.305-0.57,0.48-1.266,0.267-1.903c0.029,0.213,0.057,0.425,0.086,0.638c0.024-0.274-0.034-0.603-0.091-0.87     c-0.096-0.446-0.272-0.704-0.527-1.034c-0.136-0.176-0.275-0.339-0.413-0.51c0.157,0.204,0.315,0.407,0.472,0.611     c-0.013-0.018-0.027-0.036-0.04-0.054c-0.191-0.355-0.453-0.639-0.784-0.854c-0.144-0.111-0.283-0.22-0.429-0.326     c-0.242,1.854-0.485,3.709-0.727,5.563c0.029-0.004,0.058-0.009,0.088-0.013c-0.27,0.036-0.539,0.072-0.809,0.109     c0.649-0.087,1.299-0.087,1.948-0.002c-0.266-0.036-0.531-0.071-0.797-0.107c0.441,0.064,0.873,0.164,1.296,0.306     c0-1.907,0-3.814,0-5.721c-0.11,0.022-0.221,0.042-0.332,0.058c0.262-0.035,0.525-0.07,0.787-0.106     c-0.45,0.059-0.898,0.059-1.348,0.002c0.26,0.035,0.52,0.07,0.78,0.105c-0.422-0.061-0.826-0.17-1.22-0.333     c0.232,0.098,0.464,0.196,0.696,0.294c-0.026-0.011-0.052-0.022-0.078-0.034c0.197,1.525,0.393,3.05,0.59,4.576     c0.048-0.041,0.096-0.081,0.146-0.121c-0.196,0.152-0.393,0.303-0.589,0.455c0.202-0.151,0.418-0.274,0.651-0.373     c-0.231,0.098-0.462,0.195-0.693,0.293c0.254-0.101,0.516-0.17,0.787-0.209c-0.256,0.034-0.513,0.069-0.769,0.103     c0.356-0.044,0.712-0.056,1.069-0.011c-0.252-0.034-0.504-0.068-0.756-0.102c0.292,0.042,0.574,0.117,0.847,0.23     c-0.222-0.094-0.445-0.188-0.667-0.281c0.193,0.084,0.371,0.187,0.547,0.302c0.17,0.111,0.353,0.196,0.52,0.316     c0.208-1.589,0.415-3.178,0.623-4.768c-0.206,0.066-0.4,0.165-0.605,0.234c0.209-0.028,0.418-0.056,0.627-0.084     c-0.559,0.031-1.119,0.052-1.678,0.078c-0.561,0.026-1.12,0.103-1.678,0.163c0,1.392,0,2.785,0,4.177     c0.443-0.052,0.87-0.077,1.266-0.323c0.213-0.133,0.407-0.298,0.586-0.475c-0.123,0.095-0.246,0.19-0.369,0.285     c0.022-0.015,0.045-0.03,0.067-0.045c-0.141,0.06-0.282,0.119-0.423,0.179c0.144-0.043,0.289-0.084,0.432-0.129     c0.344-0.11,0.634-0.275,0.893-0.532c-0.218,0.127-0.436,0.254-0.654,0.381c0.279-0.106,0.547-0.179,0.823-0.308     c0.171-0.08,0.342-0.162,0.513-0.243C482.444,84.547,482.444,83.423,481.78,83.108L481.78,83.108z" style="fill:#f7eede;"></path>
		</g>
		<g>
			<path d="M518.941,82.682c-0.011-0.017-0.022-0.035-0.033-0.052c0.038,0.09,0.076,0.181,0.114,0.271     c-0.004-0.016-0.007-0.032-0.011-0.047c-0.101-0.434-0.489-0.807-0.917-0.917c-0.332-0.085-0.66-0.182-1.001-0.227     c-0.351-0.047-0.704-0.083-1.056-0.122c-0.384-0.043-0.88,0.211-1.142,0.473c-0.28,0.28-0.491,0.74-0.473,1.142     c0.019,0.418,0.156,0.851,0.473,1.142c0.109,0.084,0.218,0.168,0.327,0.253c0.252,0.146,0.524,0.22,0.815,0.221     c0.512,0.06,1.031,0.069,1.546,0.097c-0.401-0.166-0.803-0.333-1.204-0.499c0.018,0.024,0.04,0.044,0.064,0.06     c0.162,0.174,0.354,0.297,0.575,0.37c0.213,0.112,0.443,0.163,0.689,0.154c0.438,0,0.962-0.195,1.264-0.523     c0.313-0.341,0.545-0.788,0.523-1.264c-0.021-0.464-0.174-0.939-0.523-1.264c-0.397-0.369-0.879-0.568-1.389-0.736     c-0.242-0.08-0.49-0.134-0.743-0.171c-0.4-0.059-0.799-0.117-1.204-0.103c-0.405,0.014-0.812,0.075-1.209,0.152     c-0.324,0.091-0.605,0.255-0.843,0.492c-0.186,0.173-0.318,0.378-0.395,0.615c-0.12,0.228-0.175,0.473-0.165,0.736     c0.001,0.345,0.088,0.667,0.261,0.965c0.177,0.299,0.399,0.594,0.669,0.816c0.44,0.363,0.763,0.554,1.299,0.754     c0.337,0.126,0.706,0.169,1.062,0.193c0.096,0.007,0.189-0.005,0.284-0.004c0.105,0.001,0.208,0.015,0.314,0.009     c-0.185-0.025-0.37-0.05-0.555-0.075c0.018,0.005,0.036,0.009,0.054,0.014c0.205,0.028,0.41,0.055,0.615,0.083     c0.318,0.012,0.615-0.054,0.891-0.199c0.196-0.055,0.366-0.154,0.51-0.297c0.252-0.163,0.45-0.379,0.596-0.649     c0.192-0.363,0.297-0.757,0.316-1.167c0.012-0.318-0.054-0.615-0.199-0.891c-0.093-0.287-0.253-0.535-0.478-0.744     c-0.222-0.279-0.52-0.486-0.808-0.691c-0.032-0.023-0.066-0.045-0.1-0.065c-0.196-0.083-0.392-0.165-0.588-0.248     c-0.124-0.022-0.249-0.039-0.375-0.052c-0.327-0.073-0.653-0.059-0.98,0.044c-0.196,0.083-0.391,0.165-0.587,0.248     c-0.032,0.018-0.062,0.039-0.092,0.059c-0.354,0.209-0.636,0.491-0.845,0.845c-0.172,0.27-0.265,0.562-0.28,0.876     c-0.07,0.313-0.056,0.626,0.042,0.939c0.112,0.399,0.314,0.746,0.606,1.039c0.008,0.01,0.016,0.021,0.024,0.031     c-0.125-0.161-0.249-0.322-0.374-0.484c0.074,0.104,0.147,0.197,0.229,0.303c0.109,0.185,0.256,0.331,0.441,0.441     c0.237,0.217,0.516,0.364,0.835,0.44c0.272,0.069,0.559,0.085,0.838,0.114c-0.215-0.029-0.43-0.058-0.644-0.087     c0.126,0.017,0.246,0.047,0.365,0.094c-0.185-0.078-0.37-0.156-0.555-0.234c0.015,0.007,0.029,0.013,0.044,0.02     c-0.156-0.121-0.312-0.241-0.468-0.362c0.015,0.015,0.03,0.029,0.045,0.044c0.141-1.094,0.282-2.188,0.423-3.281     c-0.075,0.054-0.151,0.101-0.234,0.143c0.16-0.068,0.32-0.135,0.48-0.203c-0.04,0.017-0.074,0.023-0.117,0.029     c0.177-0.024,0.354-0.048,0.531-0.071c-0.163,0.021-0.324,0.021-0.487,0.001c0.175,0.023,0.35,0.047,0.525,0.07     c-0.149-0.022-0.292-0.061-0.432-0.117c0.155,0.066,0.311,0.131,0.466,0.197c-0.138-0.059-0.266-0.132-0.386-0.222     c0.13,0.101,0.261,0.201,0.391,0.302c-0.096-0.076-0.182-0.161-0.259-0.256c0.1,0.129,0.2,0.258,0.299,0.388     c-0.017-0.022-0.033-0.043-0.049-0.066c-0.381,0.936-0.762,1.872-1.142,2.808c0.192-0.056,0.387-0.095,0.586-0.123     c-0.167,0.022-0.335,0.045-0.502,0.067c0.363-0.045,0.726-0.046,1.089-0.001c-0.164-0.022-0.328-0.044-0.492-0.066     c0.199,0.027,0.396,0.066,0.589,0.12c0.087,0.024,0.174,0.052,0.26,0.082c0.245,0.087,0.459,0.107,0.734,0.142     c-0.421-1.017-0.842-2.034-1.264-3.051c-0.025,0.016-0.046,0.036-0.064,0.059c0.401-0.166,0.803-0.333,1.204-0.499     c-0.515,0.022-1.034,0.024-1.546,0.079c0,1.077,0,2.154,0,3.231c0.352-0.039,0.705-0.075,1.056-0.122     c0.34-0.046,0.668-0.142,1.001-0.227c0.428-0.11,0.815-0.482,0.917-0.917c0.004-0.016,0.007-0.032,0.011-0.047     c-0.038,0.09-0.076,0.181-0.114,0.271c0.011-0.017,0.022-0.035,0.033-0.052C519.131,83.423,519.131,82.981,518.941,82.682     L518.941,82.682z" style="fill:#f7eede;"></path>
		</g>
		<g>
			<path d="M498.836,93.429c0.23,0.101,0.459,0.216,0.706,0.27c0.127,0.028,0.256,0.051,0.384,0.076     c0.46,0.091,0.919,0.159,1.388,0.179c0.609,0.026,1.218,0.052,1.827,0.078c-0.639-0.366-1.277-0.733-1.916-1.099     c0.018,0.029,0.036,0.059,0.054,0.088c0.342,0.561,0.852,0.93,1.468,1.129c0.435,0.117,0.871,0.117,1.306,0     c0.32-0.076,0.598-0.223,0.835-0.44c0.267-0.173,0.478-0.403,0.633-0.689c0.18-0.282,0.277-0.586,0.292-0.913     c0.073-0.327,0.059-0.653-0.044-0.98c-0.117-0.416-0.327-0.777-0.632-1.084c-0.25-0.303-0.586-0.473-0.932-0.627     c-0.33-0.147-0.666-0.293-1.007-0.415c-0.349-0.125-0.708-0.218-1.073-0.279c-0.549-0.091-1.148-0.203-1.712-0.163     c-0.588,0.042-1.18,0.121-1.754,0.26c-0.355,0.084-0.664,0.247-0.928,0.488c-0.297,0.192-0.531,0.448-0.703,0.766     c-0.092,0.217-0.183,0.435-0.275,0.652c-0.114,0.363-0.13,0.725-0.049,1.088c0.001,0.246,0.063,0.476,0.186,0.689     c0.11,0.338,0.298,0.631,0.564,0.878c0.527,0.484,1.196,0.816,1.93,0.799c0.54-0.012,1.082-0.015,1.604-0.178     c0.213-0.09,0.426-0.18,0.639-0.27c0.312-0.168,0.562-0.398,0.75-0.689c0.166-0.167,0.28-0.363,0.344-0.59     c0.167-0.319,0.244-0.662,0.23-1.03c-0.021-0.475-0.143-0.929-0.365-1.35c-0.168-0.312-0.398-0.562-0.689-0.75     c-0.258-0.236-0.561-0.396-0.909-0.479c-0.365-0.09-0.74-0.157-1.117-0.142c-0.162,0.006-0.325,0.012-0.487,0.019     c0.242,1.787,0.484,3.574,0.725,5.361c0.256-0.066,0.514-0.117,0.776-0.152c-0.241,0.032-0.483,0.065-0.724,0.097     c0.69-0.085,1.384-0.126,2.075-0.039c-0.229-0.031-0.458-0.062-0.687-0.092c0.215,0.03,0.428,0.068,0.639,0.119     c0.399,0.096,0.791,0.249,1.21,0.222c-0.79-1.037-1.579-2.073-2.369-3.11c-0.01,0.032-0.02,0.063-0.03,0.095     c0.713-0.543,1.426-1.086,2.14-1.629c-0.555,0.031-1.109,0.062-1.664,0.093c-0.431,0.024-0.857,0.052-1.282,0.142     c-0.251,0.053-0.503,0.116-0.756,0.157c0.169-0.023,0.339-0.046,0.508-0.068c-0.055,0.006-0.108,0.01-0.163,0.009     c-0.793-0.009-1.632,0.587-1.812,1.38c-0.075,0.33-0.075,0.669,0,0.999C498.063,92.704,498.45,93.259,498.836,93.429     L498.836,93.429z" style="fill:#f7eede;"></path>
		</g>
		<g>
			<path d="M521.607,90.656c-0.389-0.032-0.768-0.074-1.158-0.061c-0.387,0.013-0.774,0.019-1.161,0.019     c-0.775,0-1.55-0.028-2.323-0.079c-0.484-0.032-1.13,0.248-1.456,0.603c-0.312,0.34-0.504,0.722-0.566,1.182     c-0.137,1.021,0.485,1.956,1.474,2.259c1.601,0.489,3.306,0.68,4.975,0.544c-0.683-0.52-1.366-1.04-2.049-1.56     c0.252,0.855,0.866,1.376,1.694,1.645c0.533,0.173,1.316,0.07,1.787-0.234c0.431-0.278,0.749-0.635,0.949-1.109     c0.194-0.461,0.275-1.021,0.117-1.51c-0.174-0.536-0.526-1.149-1.066-1.386c-0.323-0.142-0.634-0.3-0.984-0.353     c-0.178-0.027-0.355-0.054-0.533-0.079c-0.384-0.054-0.751-0.091-1.136-0.094c-0.185-0.002-0.371-0.003-0.556-0.005     c-0.649-0.006-1.343,0.288-1.801,0.746c-0.442,0.442-0.774,1.166-0.746,1.801c0.029,0.659,0.246,1.342,0.746,1.801     c0.492,0.452,1.116,0.761,1.801,0.746c0.573-0.012,1.122-0.025,1.692-0.112c0.178-0.027,0.356-0.057,0.533-0.086     c0.351-0.058,0.659-0.211,0.984-0.359c-0.78-1.335-1.561-2.67-2.341-4.005c-0.499,0.293-1.055,0.853-1.14,1.464     c0.683-0.52,1.366-1.04,2.049-1.56c-1.023,0.095-2.041,0.054-3.058-0.076c0.186,0.025,0.372,0.05,0.557,0.075     c-0.465-0.063-0.924-0.15-1.379-0.263c-0.182,1.348-0.365,2.696-0.547,4.043c0.79,0.009,1.581-0.007,2.37-0.051     c0.387-0.022,0.774-0.05,1.161-0.084c0.553-0.05,1.063-0.154,1.594-0.301c0.872-0.241,1.417-1.106,1.298-1.989     c-0.051-0.38-0.207-0.773-0.499-1.041C522.518,90.847,522.109,90.698,521.607,90.656L521.607,90.656z" style="fill:#f7eede;"></path>
		</g>
		<path d="M178.224,170.593c0-5.385,4-13,10-18c4.137-3.448,6-6,1-8c-6.228-2.491-8-15,2-18c10-3,21.863-2.172,29,1    c9,4,13.229,7.382,16,12c3,5,6,14,0,20c-8.544,8.544-13-3-16-1s-6.757,4.309-14,13c-5,6-17,11-22,8    C179.937,177.021,178.224,173.593,178.224,170.593z" style="fill:#111633;"></path>
		<path d="M192.224,41.593c2-2,3.753-5.126,15-7c12-2,25,1,27,6s2,7-2,10s-9,4-8,6s4,11,2,16s-10,6-15,5s-7-12-7-16    s0.123-5-4-5c-4,0-8,0-11-4S190.224,43.593,192.224,41.593z" style="fill:#111633;"></path>
		<path d="M389.224,58.593c-6,7-7,15-6,24s6,15,14,15s12-11,14-11c5,0,10,3,14,3s15.348,2.217,18.348-2.783s4-11,0-15    s-15.348-5.217-19.348-5.217s-8,1-10,0s-1.652-0.783-2.652-5.783s-7.517-8.217-13.348-8.217    C392.224,52.593,389.224,58.593,389.224,58.593z" style="fill:#111633;"></path>
		<path d="M480.224,135.593c3.225,1.612-6,7-8,12s6,10,12,12s17,3,21,0s5-12,6-15c1-3,0-3,5-3c5,0,8-1,8-6s-3-16-19-19    c-16-3-27-1-31,4s-4,7-2,9C474.224,131.593,478.224,134.593,480.224,135.593z" style="fill:#111633;"></path>
		<path d="M194.987,133.197c4.226-1.964,7.418-3.641,16.265-1.71c6.839,1.493,13.75,4.851,16.551,11.213    c2.802,6.362,1.585,9.702-0.22,10.38c-1.805,0.678-11.288-8.117-16.254-10.371c-4.966-2.254-13.452-4.009-15.935-5.136    C192.912,136.447,193.881,133.711,194.987,133.197z" style="fill:#55d4ab;"></path>
		<path d="M198.261,152.921c-2.681,1.574-7.76,5.173-10.347,10.347c-2.587,5.173-2.34,8.948,0,10.347    c3.31,1.979,10.347-2.587,14.658-6.898c4.311-4.311,4.79-7.399,5.652-9.123S202.224,150.593,198.261,152.921z" style="fill:#55d4ab;"></path>
		<path d="M483.224,122.593c3.13-0.447,12-1,19,1s14,7,14,9s-5.082,1.986-11,1c-6-1-17-3-20-5    C484.047,127.809,476.224,123.593,483.224,122.593z" style="fill:#55d4ab;"></path>
		<path d="M487.224,143.593c-1.581,1.581-5,7-4,8s3.078,3.216,7,4c5,1,5,1,7-3c2.408-4.817,3-9,2-11s-6-2-7-2    S489.224,141.593,487.224,143.593z" style="fill:#55d4ab;"></path>
		<path d="M395.224,62.593c-2.884,2.163-5,7-5,13s2.172,13,5,13c3,0,5-4,6-9s3-10,2-14S399.224,59.593,395.224,62.593z" style="fill:#55d4ab;"></path>
		<path d="M416.224,72.593c2,0,8.652,0.661,12,2c5,2,9,3,7,6c-2.287,3.431-7,2-13,1c-6.238-1.04-10-1.764-10-4    C412.224,72.593,416.224,72.593,416.224,72.593z" style="fill:#55d4ab;"></path>
		<path d="M201.224,42.593c2.263-1.697,7-3,13-3s11,2,12,3s-1,6-6,7s-12,2-18,1S197.224,45.593,201.224,42.593z" style="fill:#55d4ab;"></path>
		<path d="M211.224,58.593c-1.897,0.632-1,8,1,10s6,3,7,1s2-5,0-9S214.224,57.593,211.224,58.593z" style="fill:#55d4ab;"></path>
		<path d="M73.724,92.593c-9.665,0-17.5,6.268-17.5,14s7.835,14,17.5,14s17.5-6.268,17.5-14    S83.389,92.593,73.724,92.593z M73.724,111.593c-5.799,0-10.5-3.806-10.5-8.5s4.701-8.5,10.5-8.5c5.799,0,10.5,3.806,10.5,8.5    S79.523,111.593,73.724,111.593z" style="fill:#111633;"></path>
		<g>
			<path d="M115.724,139.593c-9.665,0-17.5,6.492-17.5,14.5s7.835,14.5,17.5,14.5s17.5-6.492,17.5-14.5     S125.389,139.593,115.724,139.593z M119.224,165.593c-5.523,0-10-4.029-10-9s4.477-9,10-9c5.523,0,10,4.029,10,9     S124.747,165.593,119.224,165.593z" style="fill:#111633;"></path>
			<path d="M277.224,100.593c-8.837,0-16,5.149-16,11.5s7.163,11.5,16,11.5s16-5.149,16-11.5     S286.061,100.593,277.224,100.593z M279.724,120.593c-4.142,0-7.5-2.687-7.5-6s3.358-6,7.5-6s7.5,2.687,7.5,6     S283.866,120.593,279.724,120.593z" style="fill:#111633;"></path>
			<path d="M431.724,120.593c-9.665,0-17.5,6.044-17.5,13.5c0,7.456,7.835,13.5,17.5,13.5s17.5-6.044,17.5-13.5     C449.224,126.637,441.389,120.593,431.724,120.593z M428.724,141.593c-5.799,0-10.5-4.029-10.5-9c0-4.971,4.701-9,10.5-9     c5.799,0,10.5,4.029,10.5,9C439.224,137.564,434.523,141.593,428.724,141.593z" style="fill:#111633;"></path>
			<path d="M558.224,114.593c-9.389,0-17,6.044-17,13.5c0,7.456,7.611,13.5,17,13.5s17-6.044,17-13.5     C575.224,120.637,567.613,114.593,558.224,114.593z M560.224,138.593c-5.523,0-10-3.582-10-8c0-4.418,4.477-8,10-8     c5.523,0,10,3.582,10,8C570.224,135.012,565.747,138.593,560.224,138.593z" style="fill:#111633;"></path>
			<path d="M374.224,30.593c-7.732,0-14,4.029-14,9s6.268,9,14,9s14-4.029,14-9S381.956,30.593,374.224,30.593z      M374.224,44.593c-3.866,0-7-2.687-7-6s3.134-6,7-6s7,2.687,7,6S378.09,44.593,374.224,44.593z" style="fill:#111633;"></path>
		</g>
	</g>
</g>

            </g>
        </g>
    </g>
    
</svg>