<?xml version="1.0" encoding="iso-8859-1" ?>
<svg version="1.1" xmlns="http://www.w3.org/2000/svg" xmlns:xlink="http://www.w3.org/1999/xlink" 
    viewBox="0 0 1600 1200" width="1600" height="1200">
    
    
    <!-- ITEM 0 -->
    <g>
        <defs>
            <clipPath id="clip-path-id-viewbox-item-0">
                <rect x="0.0" y="0.0" width="207.1" height="219.8"/>
            </clipPath>
        </defs>
        <g transform="translate(89.0 792.0) rotate(0.0 193.5 204.0) scale(1.8686624818928055 1.8562329390354868)">
            <g clip-path="url(#clip-path-id-viewbox-item-0)" transform="translate(-0.0 -0.0)">
                

<title>seat_stool</title>
<g id="Layer_2-i0">
	<g id="seat_stool-i0">
		<path d="M112.9,176.3c21.8-0.3,41.5-1.7,55.4-2.8c-18.1-4.9-36.7-8.1-55.4-9.8C112.9,163.7,112.9,176.3,112.9,176.3z" style="fill:none;"></path>
		<path d="M40,173.5c13.3,1.2,32.1,2.4,52.9,2.8v-12.4C75,165.6,57.3,168.8,40,173.5z" style="fill:none;"></path>
		<path d="M92.9,59.8c-9.6-0.3-19.2-1.3-28.7-3c0,0.1-0.1,0.2-0.1,0.3c-0.2,0.6-17,37.9-33.4,110.3    c20.3-6,41.2-10,62.3-11.9V59.8H92.9z" style="fill:none;"></path>
		<path d="M112.9,155.3c21.5,1.8,42.8,5.8,63.6,11.8c-16.3-72.2-33.1-109.3-33.3-110c0-0.1,0-0.1-0.1-0.2    c-10,1.7-20.1,2.7-30.2,2.9L112.9,155.3z" style="fill:none;"></path>
		<path d="M207,211.6c-18-96.3-40.7-151.9-44-160.7c-4.1,2.4-11,4.5-19.9,6.1c0,0.1,0,0.1,0.1,0.2    c0.2,0.6,17,37.7,33.4,109.9c0.4,1.8,0.8,3.6,1.2,5.5c-2.7,0.3-5.9,0.6-9.5,0.9c-13.9,1.2-33.6,2.6-55.4,2.8    c-2.8,0-5.7,0.1-8.6,0.1H104c-3.7,0-7.4,0-11.1-0.1c-20.8-0.4-39.6-1.7-52.9-2.8c-4-0.3-7.6-0.7-10.5-1c0.4-1.7,0.8-3.4,1.1-5.1    C47,95,63.8,57.8,64,57.1c0-0.1,0.1-0.2,0.1-0.3c-9-1.7-16-3.8-19.8-6.4c-2.7,7.2-25.8,63.3-44.1,161.2c-1.1,5.6,3.5,6.9,9.2,8    c0.6,0.1,1.3,0.2,1.9,0.2c4.9,0,8.4,0.7,9.4-4.3c2.3-12.1,4.6-23.7,7-34.8c12.6,1.3,37.1,3.5,65.2,3.9c3.6,0.1,7.3,0.1,11.1,0.1    h0.3c2.9,0,5.8,0,8.6-0.1c28.3-0.4,53.4-2.5,66.6-3.9c2.4,11,4.7,22.6,7,34.7c0.9,5,4.5,4.3,9.4,4.3c0.6,0,1.3-0.1,1.9-0.2    C203.5,218.6,208.1,217.3,207,211.6z" style="fill:#deab9e;"></path>
		<path d="M92.9,59.8c3.6,0.1,7.3,0.2,11.1,0.2c3,0,6,0,8.9-0.1c10.1-0.3,20.2-1.2,30.2-2.9c8.9-1.6,15.9-3.7,19.9-6.1    c0.9-0.5,1.7-1.1,2.4-1.8l0,0c0.6-0.7,0.7-1.5,1.5-2.4l0,0c3.3-8.1,2.5-25.3,0-32.7v0.4c-2.2,7.3-28.2,13.3-63.1,13.3    s-61.1-5.9-63-13.3v-0.6c-4.7,11.9-2.1,28.3,0.2,33.5c0.1,0.2,0.2,0.5,0.3,0.7l0.1,0.2c0.7,1,1.6,1.8,2.7,2.4    c4.1,2.4,11.1,4.6,20.1,6.3C73.7,58.5,83.2,59.5,92.9,59.8z" style="fill:#7b5b92;"></path>
		<path d="M167,46.6c-0.4,0.9-0.9,1.7-1.5,2.4C166.2,48.4,166.7,47.5,167,46.6z" style="fill:#deab9e;"></path>
		<path d="M104.2,184.7H104c-3.7,0-7.4,0-11.1-0.1v22.9c0,5.3,4.7,5.3,10,5.3s10,0.1,10-5.3v-22.8    c-2.8,0-5.7,0.1-8.6,0.1L104.2,184.7z" style="fill:#111633;"></path>
		<path d="M112.9,59.9C110,60,107,60,104,60c-3.8,0-7.5-0.1-11.1-0.2v95.7c-21.1,1.9-42,5.9-62.3,11.9    c-0.4,1.7-0.8,3.3-1.1,5.1c2.9,0.3,6.5,0.6,10.5,1c17.3-4.6,35-7.8,52.9-9.6v12.4c3.6,0.1,7.3,0.1,11.1,0.1h0.3    c2.9,0,5.8,0,8.6-0.1v-12.6c18.7,1.7,37.2,4.9,55.4,9.8c3.6-0.3,6.8-0.6,9.5-0.9c-0.4-1.8-0.8-3.7-1.2-5.5    c-20.8-6-42.1-10-63.6-11.8V59.9H112.9z" style="fill:#111633;"></path>
		<path d="M41.6,47.8c-0.1-0.2-0.2-0.5-0.3-0.7C41.3,47.4,41.4,47.6,41.6,47.8z" style="fill:#deab9e;"></path>
		<path d="M103.8,28.4c34.8,0,63.1-6.3,63.1-14.2v-0.4l0,0c-0.1-0.6-0.3-1.3-0.7-1.8l0,0c-4.7-6.8-30.8-12-62.4-12    S46.1,5.2,41.5,12l0,0c-0.3,0.5-0.6,1-0.7,1.5c0,0.2-0.1,0.4-0.1,0.6C40.8,22,69,28.4,103.8,28.4z" style="fill:#deab9e;"></path>
	</g>
</g>

            </g>
        </g>
    </g>
    
    <!-- ITEM 1 -->
    <g>
        <defs>
            <clipPath id="clip-path-id-viewbox-item-1">
                <rect x="0.0" y="0.0" width="547.024" height="641.992"/>
            </clipPath>
        </defs>
        <g transform="translate(55.0 1.0) rotate(0.0 512.0 599.5) scale(1.8719471174939308 1.8676245186855913)">
            <g clip-path="url(#clip-path-id-viewbox-item-1)" transform="translate(-0.0 -0.0)">
                <title>flower</title><g id="Layer_2-i1" data-name="Layer 2"><g id="flower-i1"><g id="_Groupe_-i1" data-name=" Groupe "><path d="M480.1,540.292c-13.8,8.9-43.5,15.1-77.8,15.1-33.9,0-63.2-6-77.2-14.8,2.1,25.5,8.4,67.1,14.8,86.6h0c.4,1.3.9,2.6,1.3,3.7,6.1,6.3,31.1,11,61.1,11,32.6,0,59.4-5.6,62.2-12.8h0c0-.1.1-.2.1-.3,6.7-18.8,13.5-62.2,15.7-88.4Z" fill="#e3ce63"></path><path d="M464.6,629.292c0-.1.1-.2.1-.3C464.7,629.092,464.6,629.192,464.6,629.292Z" fill="#e3ce63"></path><path d="M402.3,484.992c-42.7,0-77.2,7.8-77.2,17.3,0,3.1,3.6,6,9.9,8.5a15.546,15.546,0,0,0,2.3.8c13.7,4.8,37.8,8,65.1,8,27.4,0,51.4-3.1,65.1-8l1.2-.4h0s1.6-.6,2.5-1c5.4-2.4,8.4-5,8.4-7.9C479.6,492.792,445,484.992,402.3,484.992Z" fill="none"></path><path d="M402.3,474.892c-52.3,0-94.7,13-94.7,29.2,0,11.7,4.6,25.6,12.5,32.8l.3.3a31.015,31.015,0,0,0,4.6,3.5h0c14,8.7,43.4,14.8,77.2,14.8,34.3,0,64-6.2,77.8-15.1a25.145,25.145,0,0,0,4.1-3.2c4.9-3.7,12.8-23.1,12.8-33.2C497,487.892,454.6,474.892,402.3,474.892Zm68.9,35.3c-.9.4-2.5,1-2.5,1h0l-1.2.4c-13.7,4.8-37.8,8-65.1,8-27.4,0-51.4-3.2-65.1-8a20.944,20.944,0,0,0-2.3-.8c-6.3-2.5-9.9-5.4-9.9-8.5,0-9.6,34.6-17.3,77.2-17.3s77.3,7.8,77.3,17.3C479.6,505.092,476.5,507.792,471.2,510.192Z" fill="#7b5b92"></path><path d="M479.6,502.292c0-9.6-34.6-17.3-77.3-17.3s-77.2,7.8-77.2,17.3c0,3.1,3.6,6,9.9,8.5a15.546,15.546,0,0,0,2.3.8c13.7,4.8,37.8,8,65.1,8,26.8,0,50.3-3.1,64.2-7.7h0a32.674,32.674,0,0,0,6.5-2.6C477.2,507.192,479.6,504.792,479.6,502.292Z" fill="#1c2e4a"></path></g><path d="M372.7,249.992a110.321,110.321,0,0,0-9-9.1c-3.1-2.8-6.2-5.5-9.4-8.1a232.851,232.851,0,0,0-19.9-14.3,278.613,278.613,0,0,0-43-22.4c-2.7-1.1-5.4-2.2-8.1-3.2,3-1.2,6-2.5,9.1-3.8a245.655,245.655,0,0,0,43-24.2c3.3-2.4,6.7-4.9,9.9-7.5s6.4-5.3,9.5-8.1a125.712,125.712,0,0,0,9-8.9c1.5-1.5,2.9-3.1,4.3-4.8.7-.8,1.4-1.7,2.1-2.5l1-1.3,1.1-1.4a12.335,12.335,0,0,0-11.3-19.7l-1.4.2c-.9.1-1.9.3-2.9.5l-3,.6c-2,.4-3.9.8-5.8,1.3s-3.8.9-5.8,1.4-3.8,1-5.7,1.5c-3.8,1-7.6,2.1-11.2,3.3-3.7,1.2-7.4,2.3-11,3.5-14.6,4.8-28.8,10.1-42.8,15.6-1.7.7-3.5,1.4-5.2,2.1s-3.5,1.5-5.2,2.1l-5.2,2.1-5.2,2.2-.9.4a214.135,214.135,0,0,0,12.8-26.4,184.877,184.877,0,0,0,7.9-24.2l1.5-6.3c.4-2.1.8-4.2,1.2-6.4s.7-4.3,1-6.5c.1-1.1.3-2.1.4-3.2l.3-3.3c.4-4.3.5-8.8.6-13.3-.1-2.3-.1-4.5-.3-6.7l-.1-1.7-.2-1.7c-.1-1.1-.2-2.3-.4-3.4-.1-1.1-.3-2.2-.4-3.3-.2-1.1-.4-2.3-.7-3.4a54.256,54.256,0,0,0-1.6-6.7c-.3-1.1-.6-2.2-1-3.3s-.7-2.2-1.1-3.3c-.9-2.2-1.8-4.3-2.8-6.4a12.277,12.277,0,0,0-22.5,1.2l-.7,1.8c-.7,1.8-1.2,3.6-1.8,5.3-.2.8-.6,1.7-.8,2.6a24.13,24.13,0,0,0-.8,2.5c-.5,1.7-1.2,3.3-1.8,5a24.13,24.13,0,0,0-.8,2.5l-1,2.5c-.3.8-.6,1.7-.9,2.4l-.4,1.2-.5,1.2c-.7,1.7-1.3,3.2-1.9,4.9-1.4,3.2-2.6,6.5-4,9.7-2.7,6.4-5.4,12.9-8.3,19.4s-5.7,13-8.7,19.6c-3.2,7.1-6.4,14.4-9.5,21.7-.6-1.7-1.3-3.5-1.9-5.2l-.6-1.6-.7-1.6-1.4-3.2a155.416,155.416,0,0,0-13.2-24,179.006,179.006,0,0,0-35.8-39.9,153.839,153.839,0,0,0-21.7-15.2c-3.8-2.2-7.8-4.3-11.9-6.2-2-1-4.1-1.8-6.2-2.7-1.1-.4-2.1-.8-3.2-1.2l-1.7-.6-.8-.3-.4-.1-.5-.2a11.879,11.879,0,0,0-15.2,7.2,11.622,11.622,0,0,0,.3,8.6l1.3,3.1c0,.1.1.2.1.3l.2.3.4.6.7,1.3c.5.9,1,1.7,1.6,2.6,1.1,1.7,2.1,3.4,3.2,5.1s2.2,3.3,3.2,5c1.1,1.7,2.2,3.3,3.2,5l12.5,19.4c4.2,6.3,8.3,12.6,12.4,18.8,4,6.2,7.9,12.4,11.7,18.5.9,1.6,1.9,3.1,2.8,4.6.9,1.6,1.8,3.1,2.7,4.6s1.8,3.1,2.7,4.6c.4.8.9,1.5,1.3,2.3a17.1,17.1,0,0,0,1.3,2.3c.8,1.5,1.8,3.1,2.6,4.6.7,1.3,1.4,2.6,2.1,3.8-4.8-2.6-9.7-5.1-14.6-7.3-7.5-3.4-15.1-6.5-22.9-9.2a240.947,240.947,0,0,0-23.4-6.9q-11.85-2.85-24-4.8a223.1,223.1,0,0,0-24.5-2.3c-4.1-.2-8.3-.2-12.5-.1-2.1,0-4.2.2-6.3.3s-4.2.4-6.5.7a12.921,12.921,0,0,0-10.6,14.4,12.6,12.6,0,0,0,4.9,8.3l.4.3a111.505,111.505,0,0,0,10.1,6.8c3.4,2.1,6.9,4.2,10.4,6.1,6.9,3.9,13.9,7.5,20.9,10.8,14,6.8,28.2,12.7,42.3,18.2q10.65,4.05,21.3,7.8c3.6,1.2,7.1,2.5,10.7,3.6s7.1,2.3,10.7,3.5c4.1,1.3,8.2,2.5,12.4,3.7l-.3.1c-1.7.6-3.3,1.3-4.9,2-.8.3-1.6.7-2.4,1l-2.5,1c-6.6,2.6-13.1,5.3-19.9,7.8s-13.6,5.2-20.5,7.8l-21,7.9q-10.65,4.05-21.3,8.4c-7.1,2.9-14.3,6-21.5,9.3-3.6,1.7-7.2,3.3-10.8,5.2-1.8.9-3.6,1.8-5.4,2.8l-2.7,1.5c-.9.5-1.8,1-2.6,1.5l-1.4.9a12.263,12.263,0,0,0-3.4,17,12.71,12.71,0,0,0,7.6,5.2c1.2.3,2.2.5,3.3.7s2.2.4,3.2.6c2.1.3,4.3.7,6.4.9s4.3.4,6.4.6,4.3.3,6.4.4a195.932,195.932,0,0,0,25.4-.7,216.346,216.346,0,0,0,49.8-10.4,179.535,179.535,0,0,0,24.1-9.9,151.137,151.137,0,0,0,14.2-7.9c-.5,1.2-1.1,2.4-1.7,3.6-2.9,6.1-5.8,12.3-9.2,18.4-3.3,6.1-6.8,12.3-10.4,18.5-3.7,6.2-7.5,12.4-11.5,18.7l-12.2,19.2c-2.1,3.2-4.2,6.6-6.2,9.9l-3.1,5.1c-.5.9-1,1.7-1.5,2.6a19.649,19.649,0,0,0-1.3,2.5l-1.3,3.3a11.7,11.7,0,0,0,6.5,15.4,11.859,11.859,0,0,0,8.5.2l.5-.2.4-.1.8-.3,1.7-.6c1.1-.4,2.2-.8,3.2-1.2,2.1-.8,4.2-1.7,6.2-2.7,4-1.9,7.9-4,11.8-6.3a150.264,150.264,0,0,0,21.4-15.6,170.47,170.47,0,0,0,18.8-19.2,171.5,171.5,0,0,0,15.6-22.3,147.7,147.7,0,0,0,11.7-25.2c.2-.6.4-1.2.6-1.9l3.3,8.8c5,13.2,10.1,26.6,15.7,40.1,2.8,6.8,5.8,13.6,8.9,20.5,1.6,3.4,3.2,6.9,5,10.3.8,1.7,1.8,3.4,2.7,5.2.5.8.9,1.7,1.4,2.6a25.158,25.158,0,0,0,1.5,2.4l1.2,1.7a12.22,12.22,0,0,0,17.1,3,12.093,12.093,0,0,0,4.9-7.2c.3-1.2.6-2.2.8-3.2s.4-2.1.7-3.1c.4-2.1.7-4.1,1-6.2.6-4.1.9-8.2,1.2-12.3a180.691,180.691,0,0,0-.4-24.4,198.687,198.687,0,0,0-3.5-24.2,218.283,218.283,0,0,0-6.4-23.7,185.867,185.867,0,0,0-8.8-21.7c5.7,2.3,11.5,4.6,17.3,6.8,14.3,5.4,28.9,10.3,43.9,14.4,7.5,2.1,15.1,3.9,22.9,5.5,1.9.4,3.9.8,5.9,1.1s3.9.7,5.9,1c4,.6,8.1,1.2,12.1,1.5h.6a12.2,12.2,0,0,0,10-20.4Z" fill="#e3ce63"></path><path d="M48.9,140.392c23.7,0,116,23.1,116,51.5s-92.3,51.5-116,51.5S0,220.292,0,191.892,25.1,140.392,48.9,140.392Z" fill="#55d4ab"></path><path d="M347.8,244.092c-23.7,0-116-23-116-51.5s92.3-51.5,116-51.5,48.9,23,48.9,51.5S371.6,244.092,347.8,244.092Z" fill="#55d4ab"></path><path d="M251,49.792a25.578,25.578,0,0,0-.5-2.7c-.2-.9-.3-1.8-.6-2.8-.2-1-.5-1.9-.7-2.9l-.4-1.4-.5-1.5-1-3.1c-.4-1.1-.9-2.2-1.3-3.3l-.7-1.7a14.167,14.167,0,0,1-.8-1.8c-.6-1.2-1.2-2.3-1.9-3.5-15.4-24.5-48.4-32.4-73.9-17.7a52.075,52.075,0,0,0-25.7,37.7c-2.4,21.7,7.4,29.2,13.6,38.1a154.62,154.62,0,0,1,10.8,17.9c3.6,6.8,6.9,14.1,10.1,21.8,1.6,3.8,3.1,7.7,4.5,11.8q2.1,6,3.9,12.6l.6,2.1a12.523,12.523,0,0,0,2,4,13.158,13.158,0,0,0,17.8,2.9c1.2-.8,2.4-1.7,3.5-2.6,1.2-.9,2.2-1.9,3.3-2.8,2.2-1.9,4.1-4,6-6a101.633,101.633,0,0,0,10.3-13.2,138.574,138.574,0,0,0,14.9-29.2,117.831,117.831,0,0,0,7.5-33.1A98.375,98.375,0,0,0,251,49.792Z" fill="#55d4ab"></path><path d="M137,71.392c-.6-.5-1.3-.9-2-1.4-.7-.4-1.3-.9-2.1-1.3s-1.5-.9-2.3-1.3l-1.2-.6-1.3-.6-2.6-1.2c-.9-.4-1.9-.8-2.9-1.2l-1.5-.6c-.5-.2-1.1-.4-1.7-.6-1.1-.4-2.2-.7-3.3-1-24.6-6.1-49.7,8.4-55.9,32.4a43.4,43.4,0,0,0,8.2,38c12.2,14.6,23,13.4,32.3,15.2a154.946,154.946,0,0,1,17.8,4.6c6.4,2,13.1,4.5,19.9,7.3,3.3,1.4,6.8,2.9,10.2,4.5s6.8,3.4,10.3,5.4l1.7.9a12.564,12.564,0,0,0,3.7,1.3,10.874,10.874,0,0,0,12.6-8.7c.2-1.2.3-2.4.5-3.7a22.345,22.345,0,0,0,.2-3.6c.1-2.4,0-4.8-.1-7.2a97.67,97.67,0,0,0-2-14.1,122.57,122.57,0,0,0-9.3-26.5,100.989,100.989,0,0,0-16.4-24.5A86.993,86.993,0,0,0,137,71.392Z" fill="#55d4ab"></path><path d="M321.8,134.392a23.069,23.069,0,0,0,1.4-1.9c.5-.7.9-1.3,1.4-2s.9-1.5,1.4-2.2l.7-1.1.7-1.2,1.3-2.5c.4-.9.8-1.8,1.2-2.8l.6-1.4c.2-.5.4-1,.6-1.6.4-1.1.7-2.2,1.1-3.2,6.2-23.9-8.9-48.2-33.7-54.1a47.511,47.511,0,0,0-39.3,7.9c-15.2,11.7-14,22.1-15.8,31a129.1,129.1,0,0,1-4.8,17.2c-2.1,6.2-4.7,12.7-7.6,19.2-1.5,3.2-3,6.5-4.7,9.8s-3.5,6.5-5.6,9.9l-1,1.6a9.174,9.174,0,0,0-1.3,3.6,10.769,10.769,0,0,0,8.9,12.2h.2c1.2.2,2.5.3,3.8.5a24.2,24.2,0,0,0,3.8.2c2.5.1,5,0,7.5-.1a102.5,102.5,0,0,0,14.6-2,132.132,132.132,0,0,0,27.5-9,105.918,105.918,0,0,0,25.4-15.8A79.571,79.571,0,0,0,321.8,134.392Z" fill="#55d4ab"></path><path d="M251,334.592a25.578,25.578,0,0,1-.5,2.7c-.2.9-.3,1.8-.6,2.8-.2,1-.5,1.9-.7,2.9l-.4,1.4-.5,1.5-1,3.1c-.4,1.1-.9,2.2-1.3,3.3l-.7,1.7a14.167,14.167,0,0,0-.8,1.8c-.6,1.2-1.2,2.3-1.9,3.5-15.3,24.6-48.3,32.5-73.8,17.8a52.075,52.075,0,0,1-25.7-37.7c-2.4-21.7,7.4-29.2,13.6-38.1a154.62,154.62,0,0,0,10.8-17.9c3.6-6.8,6.9-14.1,10.1-21.8,1.6-3.8,3.1-7.8,4.5-11.8s2.7-8.2,3.9-12.6l.6-2.1a12.523,12.523,0,0,1,2-4,13.158,13.158,0,0,1,17.8-2.9c1.2.8,2.4,1.7,3.5,2.6,1.2.9,2.2,1.9,3.3,2.8,2.2,1.9,4.1,4,6,6a101.633,101.633,0,0,1,10.3,13.2,138.574,138.574,0,0,1,14.9,29.2,117.831,117.831,0,0,1,7.5,33.1A106.187,106.187,0,0,1,251,334.592Z" fill="#55d4ab"></path><path d="M137,312.992c-.6.5-1.3.9-2,1.4-.7.4-1.3.9-2.1,1.3s-1.5.9-2.3,1.3l-1.2.6-1.3.6-2.6,1.2c-.9.4-1.9.8-2.9,1.2l-1.5.6c-.5.2-1.1.4-1.7.6-1.1.4-2.2.7-3.3,1-24.8,6-49.9-8.6-56.1-32.5a43.4,43.4,0,0,1,8.2-38c12.2-14.6,23-13.4,32.3-15.2a154.946,154.946,0,0,0,17.8-4.6c6.4-2,13.1-4.5,19.9-7.3,3.3-1.4,6.8-2.9,10.2-4.5s6.8-3.4,10.3-5.4l1.7-.9a12.564,12.564,0,0,1,3.7-1.3,10.874,10.874,0,0,1,12.6,8.7c.2,1.2.3,2.4.5,3.7.1,1.2.2,2.4.2,3.6.1,2.4,0,4.8-.1,7.2a97.67,97.67,0,0,1-2,14.1,122.57,122.57,0,0,1-9.3,26.5,100.989,100.989,0,0,1-16.4,24.5A72.931,72.931,0,0,1,137,312.992Z" fill="#55d4ab"></path><path d="M258.9,312.992c.6.5,1.3.9,2,1.4.7.4,1.3.9,2.1,1.3s1.5.9,2.3,1.3l1.2.6,1.3.6,2.6,1.2c.9.4,1.9.8,2.9,1.2l1.5.6c.5.2,1.1.4,1.7.6,1.1.4,2.2.7,3.3,1,24.8,6,49.9-8.6,56.1-32.5a43.4,43.4,0,0,0-8.2-38c-12.2-14.6-22.9-13.4-32.3-15.2a154.946,154.946,0,0,1-17.8-4.6c-6.4-2-13.1-4.5-19.9-7.3-3.3-1.4-6.8-2.9-10.2-4.5s-6.8-3.4-10.3-5.4l-1.7-.9a12.564,12.564,0,0,0-3.7-1.3,10.95,10.95,0,0,0-12.6,8.7c-.2,1.2-.3,2.4-.5,3.7-.1,1.2-.2,2.4-.2,3.6-.1,2.4,0,4.8.1,7.2a97.67,97.67,0,0,0,2,14.1,122.57,122.57,0,0,0,9.3,26.5,103.133,103.133,0,0,0,16.3,24.6A77.208,77.208,0,0,0,258.9,312.992Z" fill="#55d4ab"></path><path d="M76.4,147.092c20.7,0,101.1,20.1,101.1,44.9s-80.4,44.8-101.1,44.8-42.6-20.1-42.6-44.9S55.7,147.092,76.4,147.092Z" fill="#1c2e4a"></path><path d="M337,237.392c-20.7,0-101.1-20.1-101.1-44.9s80.5-44.9,101.1-44.9,42.6,20.1,42.6,44.9S357.7,237.392,337,237.392Z" fill="#1c2e4a"></path><path d="M252.5,68.092c-.1-.8-.3-1.6-.4-2.4-.2-.8-.3-1.6-.5-2.4s-.4-1.7-.6-2.5l-.3-1.3-.4-1.3-.9-2.7c-.4-.9-.8-1.9-1.2-2.9l-.6-1.4c-.2-.5-.5-1-.7-1.5-.5-1-1.1-2-1.7-3.1-13.3-21.4-42.1-28.3-64.3-15.5a44.891,44.891,0,0,0-22.3,32.8c-2.1,18.9,6.5,25.5,11.8,33.2a137.337,137.337,0,0,1,9.4,15.6c3.1,5.9,6,12.3,8.8,19,1.4,3.3,2.7,6.8,3.9,10.3s2.3,7.1,3.3,11l.5,1.8a9.5,9.5,0,0,0,1.7,3.5,11.453,11.453,0,0,0,15.5,2.5c1-.7,2.1-1.5,3.1-2.3s1.9-1.6,2.9-2.5c1.9-1.7,3.6-3.5,5.3-5.3a112.077,112.077,0,0,0,9.1-11.5,121.792,121.792,0,0,0,13-25.4,99.335,99.335,0,0,0,6.5-28.9A86.517,86.517,0,0,0,252.5,68.092Z" fill="#1c2e4a"></path><path d="M153.2,86.892c-.6-.4-1.2-.8-1.7-1.2s-1.2-.8-1.8-1.2c-.7-.4-1.3-.8-2-1.2l-1-.6-1.1-.6-2.2-1.1a26.043,26.043,0,0,0-2.5-1l-1.3-.5c-.4-.2-.9-.3-1.4-.5-1-.3-1.9-.6-2.9-.9-21.6-5.2-43.5,7.5-48.9,28.3a37.929,37.929,0,0,0,7.1,33.1c10.7,12.7,20,11.7,28.1,13.2a118.933,118.933,0,0,1,15.6,4c5.6,1.8,11.4,3.9,17.3,6.4,2.9,1.2,5.9,2.5,8.9,3.9s5.9,3,9,4.7l1.4.8a9.368,9.368,0,0,0,3.2,1.1,9.562,9.562,0,0,0,11-7.6,31.063,31.063,0,0,0,.4-3.2c.1-1.1.1-2.1.2-3.2.1-2.1,0-4.2-.1-6.3a86.873,86.873,0,0,0-1.8-12.3,103.842,103.842,0,0,0-8.1-23.1,90.546,90.546,0,0,0-14.2-21.4A95.656,95.656,0,0,0,153.2,86.892Z" fill="#1c2e4a"></path><path d="M314.3,141.892c.4-.5.8-1.1,1.2-1.7a14.036,14.036,0,0,0,1.2-1.8c.4-.6.8-1.3,1.2-1.9l.6-1,.6-1.1,1.1-2.2c.4-.8.7-1.6,1.1-2.4l.5-1.2c.2-.4.3-.9.5-1.4.3-.9.6-1.9.9-2.8,5.4-20.8-7.8-42-29.4-47.2a41.223,41.223,0,0,0-34.2,6.8c-13.2,10.3-12.1,19.3-13.7,27.1a111.235,111.235,0,0,1-4.2,15c-1.8,5.4-4.1,11-6.6,16.7-1.3,2.8-2.6,5.7-4.1,8.6s-3.1,5.7-4.9,8.7l-.8,1.4a9.078,9.078,0,0,0-1.2,3.1,9.279,9.279,0,0,0,7.7,10.6h.1c1.1.2,2.2.3,3.3.4s2.2.1,3.3.2c2.2.1,4.4,0,6.5-.1a90.13,90.13,0,0,0,12.7-1.7,112.24,112.24,0,0,0,24-7.8,92.309,92.309,0,0,0,22.2-13.7A61.343,61.343,0,0,0,314.3,141.892Z" fill="#1c2e4a"></path><path d="M252.5,316.292c-.1.8-.3,1.6-.4,2.4-.2.8-.3,1.6-.5,2.4s-.4,1.7-.6,2.5l-.3,1.3-.4,1.3-.9,2.7c-.4.9-.8,1.9-1.2,2.9l-.6,1.4c-.2.5-.5,1-.7,1.5-.5,1-1.1,2-1.7,3.1-13.3,21.4-42.1,28.3-64.3,15.5a44.891,44.891,0,0,1-22.3-32.8c-2.1-18.9,6.5-25.5,11.8-33.2a137.337,137.337,0,0,0,9.4-15.6c3.1-5.9,6-12.3,8.8-19,1.4-3.3,2.7-6.8,3.9-10.3s2.3-7.1,3.3-11l.5-1.8a9.5,9.5,0,0,1,1.7-3.5,11.453,11.453,0,0,1,15.5-2.5c1,.7,2.1,1.5,3.1,2.3s1.9,1.6,2.9,2.5c1.9,1.7,3.6,3.5,5.3,5.3a91.2,91.2,0,0,1,9,11.5,121.792,121.792,0,0,1,13,25.4,99.335,99.335,0,0,1,6.5,28.9A95.034,95.034,0,0,1,252.5,316.292Z" fill="#1c2e4a"></path><path d="M153.2,297.392c-.6.4-1.2.8-1.7,1.2l-1.8,1.2c-.7.4-1.3.8-2,1.2l-1,.6-1.1.6-2.2,1.1a26.043,26.043,0,0,1-2.5,1l-1.3.5c-.4.2-.9.3-1.4.5-1,.3-1.9.6-2.9.9-21.6,5.2-43.5-7.5-48.9-28.3a37.929,37.929,0,0,1,7.1-33.1c10.7-12.7,20-11.7,28.1-13.2a118.933,118.933,0,0,0,15.6-4c5.6-1.8,11.4-3.9,17.3-6.4,2.9-1.2,5.9-2.5,8.9-3.9s5.9-3,9-4.7l1.4-.8a9.368,9.368,0,0,1,3.2-1.1,9.562,9.562,0,0,1,11,7.6,31.063,31.063,0,0,1,.4,3.2c.1,1.1.1,2.1.2,3.2.1,2.1,0,4.2-.1,6.3a86.873,86.873,0,0,1-1.8,12.3,103.842,103.842,0,0,1-8.1,23.1,90.546,90.546,0,0,1-14.2,21.4A86.994,86.994,0,0,1,153.2,297.392Z" fill="#1c2e4a"></path><path d="M259.4,297.392l1.8,1.2,1.8,1.2c.7.4,1.3.8,2,1.2l1,.6,1.1.6,2.2,1.1a26.043,26.043,0,0,0,2.5,1l1.3.5c.4.2.9.3,1.4.5,1,.3,1.9.6,2.9.9,21.6,5.2,43.5-7.5,48.9-28.3a37.929,37.929,0,0,0-7.1-33.1c-10.7-12.7-20-11.7-28.1-13.2a118.933,118.933,0,0,1-15.6-4c-5.6-1.8-11.4-3.9-17.3-6.4-2.9-1.2-5.9-2.5-8.9-3.9s-5.9-3-9-4.7l-1.4-.8a9.368,9.368,0,0,0-3.2-1.1,9.562,9.562,0,0,0-11,7.6,31.063,31.063,0,0,0-.4,3.2c-.1,1.1-.2,2.1-.2,3.2-.1,2.1,0,4.2.1,6.3a86.873,86.873,0,0,0,1.8,12.3,103.842,103.842,0,0,0,8.1,23.1,90.546,90.546,0,0,0,14.2,21.4A93.293,93.293,0,0,0,259.4,297.392Z" fill="#1c2e4a"></path><path d="M155.9,104.892c9,9-.5,14-9.5,23s-14,18.4-23,9.5c-3.1-3-7.8-30.1-2.7-35.2C125.9,97.092,153.9,102.892,155.9,104.892Z" fill="#e3ce63"></path><path d="M126.9,133.592c11.7,4.9,4.9,13.2,0,24.9s-5.9,22.4-17.6,17.6c-4-1.7-18.7-24.8-16-31.5C96.1,137.892,124.2,132.492,126.9,133.592Z" fill="#e3ce63"></path><path d="M111.1,171.292c12.7,0,9.5,10.3,9.5,23s3.1,23-9.5,23c-4.3,0-26.8-15.7-26.8-23S108.2,171.292,111.1,171.292Z" fill="#e3ce63"></path><path d="M110.9,212.092c11.7-4.8,12.8,5.8,17.6,17.6,4.9,11.7,11.7,20,0,24.9-4,1.7-30.8-4.3-33.5-11C92.2,236.892,108.2,213.192,110.9,212.092Z" fill="#e3ce63"></path><path d="M128,251.592c9-9,14,.5,23,9.5s18.4,14,9.5,23c-3,3-30.1,7.8-35.2,2.7S125.9,253.592,128,251.592Z" fill="#e3ce63"></path><path d="M155,278.992c4.8-11.7,13.1-4.9,24.9,0,11.7,4.9,22.4,5.9,17.6,17.6-1.7,4-24.8,18.7-31.5,16C159.3,309.792,153.9,281.592,155,278.992Z" fill="#e3ce63"></path><path d="M271.3,279.592c-9-9,.5-14,9.5-23s14-18.4,23-9.5c3,3,7.8,30.1,2.7,35.2S273.4,281.592,271.3,279.592Z" fill="#e3ce63"></path><path d="M300.3,250.892c-11.7-4.9-4.9-13.2,0-24.9s5.9-22.4,17.6-17.6c4,1.7,18.7,24.8,16,31.5S303,251.992,300.3,250.892Z" fill="#e3ce63"></path><path d="M316.2,213.192c-12.7,0-9.6-10.3-9.6-23s-3.1-23,9.6-23c4.3,0,26.8,15.7,26.8,23S319.1,213.192,316.2,213.192Z" fill="#e3ce63"></path><path d="M316.4,172.392c-11.7,4.9-12.8-5.8-17.6-17.6-4.9-11.7-11.7-20,0-24.9,4-1.7,30.8,4.3,33.5,11C335.1,147.592,319.1,171.292,316.4,172.392Z" fill="#e3ce63"></path><path d="M300.9,134.592c-9,9-14-.5-23-9.5s-18.4-14-9.5-23c3-3.1,30.1-7.8,35.2-2.7C308.8,104.492,303,132.492,300.9,134.592Z" fill="#e3ce63"></path><path d="M220.3,68.692c1.3-2.3,2.7-5.3,1.9-5.6-1.3-.6-9-.9-12,.1h-.1l-.2.1h0c-7.7,2.9-21.2,22.4-21.2,26.4,0,12.7,10.3,9.5,23,9.5s23,3.1,23-9.5C234.6,87.692,227.3,75.992,220.3,68.692Z" fill="#e3ce63"></path><path d="M265.1,76.392c3.6-1.5,7.2-3.3,6.2-4.1-2-1.5-9.2-1.2-13.5-.6h0c-9,1.2-26.6,12.8-28,16.2-4.9,11.7,5.8,12.8,17.6,17.6,11.7,4.9,20,11.7,24.9,0C273.1,103.392,269.9,85.192,265.1,76.392Z" fill="#e3ce63"></path><path d="M271.5,95.592s20.5-3.8,41,2.8l-29.3,8.8Z" fill="#e3ce63"></path><path d="M267.9,308.192c5.3-7.6,9.4-27.4,8-30.8-4.9-11.7-13.2-4.9-24.9,0-11.7,4.8-22.4,5.9-17.6,17.6.8,1.9,13.5,10.9,22.9,14.7h0l.2.1a24.13,24.13,0,0,0,2.5.8c7.4,2.3,14.9,2.5,18-.9C278.7,307.692,273.5,307.692,267.9,308.192Z" fill="#e3ce63"></path><path d="M224.6,315.792c6.9-7,14-18.1,14-21,0-12.7-10.3-9.5-23-9.5s-23-3.1-23,9.5c0,2.6,12.8,22.3,20.6,26.1h0l.3.1a17.4,17.4,0,0,0,15-.7C230.4,319.192,227.8,317.392,224.6,315.792Z" fill="#e3ce63"></path><path d="M163.5,310.392c3.4,5,12.4,3.1,16.4,2.2l-1.2-9.3Z" fill="#e3ce63"></path><path d="M193.7,89.492c-.6-1.5-8.8-7.5-16.9-11.8,1.8-1.8,2.8-3.3,1.8-3.7-2.5-.9-9.9-3.2-15.6-.7a1.884,1.884,0,0,0-.8.2,6.033,6.033,0,0,0-2.3,1.9h0c-5.6,6.9-10.1,28.1-8.6,31.6,4.9,11.7,13.2,4.9,24.9,0C188,102.092,198.6,101.192,193.7,89.492Z" fill="#e3ce63"></path><path d="M282.3,285.292c14.2,3.3,27.5,1.6,33.7-2.5C320,280.292,289.3,276.492,282.3,285.292Z" fill="#e3ce63"></path><path d="M244.9,89.692c0,12.7-10.3,9.5-23,9.5s-23,3.1-23-9.5c0-4.3,15.7-26.8,23-26.8S244.9,86.792,244.9,89.692Z" fill="#7b5b92"></path><path d="M204,89.492c4.9,11.7-5.8,12.8-17.6,17.6s-20,11.7-24.9,0c-1.7-4,4.3-30.8,11-33.5C179.2,70.792,202.9,86.792,204,89.492Z" fill="#7b5b92"></path><path d="M166.2,104.892c9,9-.5,14-9.5,23s-14,18.4-23,9.5c-3-3-7.8-30.1-2.7-35.2S164.1,102.892,166.2,104.892Z" fill="#7b5b92"></path><path d="M137.2,133.592c11.7,4.8,4.9,13.2,0,24.8-4.8,11.7-5.9,22.4-17.6,17.6-4-1.7-18.7-24.8-16-31.5C106.4,137.892,134.5,132.492,137.2,133.592Z" fill="#7b5b92"></path><path d="M121.4,171.292c12.7,0,9.5,10.3,9.5,23s3.1,23-9.6,23c-4.3,0-26.8-15.7-26.8-23S118.4,171.292,121.4,171.292Z" fill="#7b5b92"></path><path d="M121.1,212.092c11.7-4.8,12.8,5.8,17.6,17.6,4.9,11.7,11.7,20,0,24.9-4,1.7-30.8-4.3-33.5-11S118.4,213.192,121.1,212.092Z" fill="#7b5b92"></path><path d="M136.6,249.892c9-9,14,.5,23,9.5s18.5,14,9.5,23c-3,3-30.1,7.8-35.2,2.7C128.7,279.992,134.5,251.992,136.6,249.892Z" fill="#7b5b92"></path><path d="M165.3,278.992c4.9-11.7,13.2-4.9,24.9,0s22.4,5.9,17.6,17.6c-1.7,4-24.8,18.7-31.5,16S164.2,281.592,165.3,278.992Z" fill="#7b5b92"></path><path d="M202.9,294.792c0-12.7,10.3-9.5,23-9.5s22.9-3.1,22.9,9.5c0,4.3-15.7,26.8-23,26.8S202.9,297.692,202.9,294.792Z" fill="#7b5b92"></path><path d="M243.8,294.992c-4.9-11.7,5.8-12.8,17.6-17.6,11.7-4.9,20-11.7,24.9,0,1.7,4-4.3,30.8-11,33.5C268.6,313.692,244.9,297.692,243.8,294.992Z" fill="#7b5b92"></path><path d="M281.6,279.592c-9-9,.5-14,9.5-23s14-18.4,23-9.5c3.1,3,7.8,30.1,2.7,35.2S283.6,281.592,281.6,279.592Z" fill="#7b5b92"></path><path d="M310.6,250.892c-11.7-4.9-4.9-13.2,0-24.9s5.9-22.4,17.6-17.6c4,1.7,18.7,24.8,16,31.5C341.4,246.592,313.3,251.992,310.6,250.892Z" fill="#7b5b92"></path><path d="M326.4,213.192c-12.7,0-9.5-10.3-9.5-23s-3.1-23,9.5-23c4.3,0,26.8,15.7,26.8,23S329.3,213.192,326.4,213.192Z" fill="#7b5b92"></path><path d="M326.6,172.392c-11.7,4.9-12.8-5.8-17.6-17.6-4.9-11.7-11.7-20,0-24.9,4-1.7,30.8,4.3,33.5,11S329.3,171.292,326.6,172.392Z" fill="#7b5b92"></path><path d="M311.2,134.592c-9,9-14-.5-23-9.5s-18.4-14-9.5-23c3-3.1,30.1-7.8,35.2-2.7S313.3,132.492,311.2,134.592Z" fill="#7b5b92"></path><path d="M282.5,105.492c-4.9,11.7-13.2,4.9-24.9,0s-22.4-5.9-17.6-17.6c1.7-4,24.8-18.7,31.5-16C278.2,74.692,283.6,102.792,282.5,105.492Z" fill="#7b5b92"></path><path d="M366.1,435.592a62.746,62.746,0,0,1,10.3,14.7,83.367,83.367,0,0,1,6.4,17.5,144.1,144.1,0,0,1,3.2,19.5c1,10.3,1.2,21.1,1.2,32q7.35.3,15,.3c5,0,9.8-.1,14.5-.3-.2-11.5-.5-23.1-1.9-35.1a159.213,159.213,0,0,0-4.3-23.7,109.658,109.658,0,0,0-9-23.5,91.241,91.241,0,0,0-15.1-20.9,104.014,104.014,0,0,0-19.7-15.9,134.933,134.933,0,0,0-21.8-11c-3.7-1.5-7.4-2.8-11.2-4.1-3.7-1.2-7.5-2.3-11.2-3.3-1.9-.5-3.8-1-5.6-1.4l-5-1.2c-3.2-.9-6.3-1.8-9.4-2.9a103.268,103.268,0,0,1-17.5-8.2,89.317,89.317,0,0,1-27.7-26,113.736,113.736,0,0,1-16-35.8,148.638,148.638,0,0,1-3.8-19.9,174.606,174.606,0,0,1-1.3-20.4,12.5,12.5,0,0,0-25,0h0a183.427,183.427,0,0,0,1.2,23.4,169.705,169.705,0,0,0,4.1,23.3,137.069,137.069,0,0,0,19.2,44.1,115.193,115.193,0,0,0,35.4,34.1,131.905,131.905,0,0,0,22,10.8c3.8,1.4,7.6,2.7,11.5,3.8l5.6,1.5c1.7.4,3.3.8,5,1.3,13.2,3.7,25.8,8.7,36.5,15.6A68.291,68.291,0,0,1,366.1,435.592Z" fill="#55d4ab"></path><circle cx="232.2" cy="192.192" r="103.8" fill="#e3ce63"></circle><path d="M523,396.192l11.7,2.9a73.112,73.112,0,0,0,4.1-6.6l-4.9-5.2,7.3.2a67.736,67.736,0,0,0,4.1-12.5,84.5,84.5,0,0,0,.5-31.3,74.572,74.572,0,0,0-4.3-16.7,65.542,65.542,0,0,0-15.9-23c-15.2-14.5-36.8-21.2-57.5-19.3a75.492,75.492,0,0,0-10.6,1.7l-1.6,5.9-6.7-3.3-2.5,11.1-7.4-7.3a114.892,114.892,0,0,0-26.7,18c-15.3,13.8-27.2,31.4-36.2,49.8a218.441,218.441,0,0,0-10.7,26c-1.5,4.6-3,9.3-4.2,14.1-.8,3.2-1.9,6.5-1,9.8a10.9,10.9,0,0,0,18.7,4.4c2-2.2,3.8-4.5,5.7-6.8,3.1-3.7,6.2-7.4,9.2-11.1,13.3-15.8,27.3-31.7,44-44.1,8.1-6,17.2-11.4,27.2-13.4a28.821,28.821,0,0,1,8.3-.6h0c16.5.8,27.7,15.4,16.1,32.2a12.133,12.133,0,0,1-1,1.4,42.647,42.647,0,0,1-11,8.8,150.772,150.772,0,0,1-15,7.6l1.7,10.2-8.7-7.1-6.7,3c-9.8,4.3-19.6,8.8-28.6,14.7-8.2,5.4-15.8,12.2-20.4,21.1a39.006,39.006,0,0,0-2.2,29.6,61.515,61.515,0,0,0,13.3,22.2,5.888,5.888,0,0,0,8.4.3,6.47,6.47,0,0,0,.8-.9c2-2.8.5-6.4,0-9.5a62.357,62.357,0,0,1-1-12.9c.2-4.2,1-8.7,4.2-11.6s7.5-4.4,11.5-5.7c4.7-1.5,9.6-2.6,14.5-3.7,10-2.1,20.1-3.9,30-6.5,18.6-4.8,37.1-12.5,50.3-27Z" fill="#55d4ab"></path><path d="M289,378.992a10.721,10.721,0,0,0-8.7-6.2c-3.2-.3-6.3,1-9.2,2l-12.4,4c-19.8,6.5-39.9,12.5-60.4,16a153.542,153.542,0,0,1-31.7,2.5,24.519,24.519,0,0,1-2.7-.2,75.894,75.894,0,0,0-4,15.4c-2.5-4.3-4-11.9-4.7-16.7a35.888,35.888,0,0,1-3.5-.8,29.258,29.258,0,0,1-12.4-6.3c-7.4-6.7-7.1-18-4-26.7a38.309,38.309,0,0,1,13.7-18.5c-.1.1-.2.1-.3.2,12.1-8.6,22.5-19.4,29.3-32.7a76.931,76.931,0,0,0,8.2-30.4,83.749,83.749,0,0,0-3.7-29.4,97.16,97.16,0,0,0-12.7-26.1,95.318,95.318,0,0,0-15.9-18.2,6.2,6.2,0,0,0-8.8.6,5.547,5.547,0,0,0-.6.8,8.165,8.165,0,0,0-.9,4.9c.1,4.1.3,8.2.4,12.3.4,10.1.7,20.3-.4,30.4s-3.8,19.9-10,28.1a53.749,53.749,0,0,1-10.8,10.5c-2.7,2-5.5,3.8-8.2,5.8a87.874,87.874,0,0,0-19.2,19.3c3.6,3.6,8.1,7.6,12.5,9.9a98.56,98.56,0,0,1-17.1-2.9l-2.7,4.8a23.937,23.937,0,0,0,5.4,5.6,28.859,28.859,0,0,1-8.3.7c-.8,1.8-1.5,3.7-2.2,5.6-6.7,19.3-6.8,41.1,1.7,59.9a69.664,69.664,0,0,0,17.2,23.4,74.709,74.709,0,0,0,25.2,14.5c19.3,6.6,40.3,5.8,60,1.4,19.3-4.3,37.8-12,55.2-21.4q12.9-7.05,25.2-15.3c4-2.8,8.1-5.6,11.9-8.6,1.8-1.3,3.5-2.7,5.2-4.1a20.936,20.936,0,0,0,2.8-2.4A11.09,11.09,0,0,0,289,378.992Z" fill="#55d4ab"></path><path d="M325.1,540.692c2.1,25.5,8.4,67.1,14.8,86.6h0c.4,1.3.9,2.6,1.3,3.7,6.1,6.3,31.1,11,61.1,11,32.6,0,59.4-5.6,62.2-12.8h0c0-.1.1-.2.1-.3,6.7-18.8,13.5-62.2,15.7-88.4l-.2-.3c-13.8,8.9-43.5,15.1-77.8,15.1C368.5,555.392,339.1,549.392,325.1,540.692Z" fill="none"></path><path d="M485.6,517.192l-1.8.9c-1.1.6-2.8,1.3-4.9,2.2l-3.6,1.3-4.4,1.4c-3.2.9-6.7,1.9-10.7,2.7l-3,.6c-1,.2-2.1.4-3.2.6-2.1.4-4.4.8-6.7,1.1s-4.7.6-7.1,1c-2.4.3-4.9.6-7.4.8s-5.1.5-7.7.6c-2.6.2-5.2.3-7.9.5-2.7.1-5.3.2-8,.3s-5.4.1-8.1.1-5.5,0-8.1-.1l-4-.1c-1.3,0-2.7-.1-4-.2-5.3-.2-10.5-.7-15.6-1.2-2.5-.3-5-.6-7.4-.9-2.4-.4-4.8-.6-7.1-1l-3.4-.6-3.3-.6c-2.1-.4-4.2-.9-6.2-1.3s-3.8-1-5.6-1.4-3.4-1-5-1.5l-4.3-1.5-3.6-1.5c-2.1-1-3.8-1.7-4.9-2.4l-1.7-.9h-.1a1.1,1.1,0,1,0-1.1,1.9l1.7,1.1a47.594,47.594,0,0,0,4.9,2.8l3.6,1.7,4.4,1.8q2.4.9,5.1,1.8l2.8.8,1.4.4,1.5.4c2,.5,4.1,1.1,6.3,1.6,1.1.2,2.2.5,3.3.8l3.4.7c2.3.5,4.7.8,7.2,1.3,2.4.5,5,.7,7.5,1.1,5.1.6,10.4,1.2,15.8,1.5,1.3.1,2.7.2,4.1.2l4.1.2c2.8.1,5.5.1,8.2.2s5.5,0,8.3-.1,5.5-.1,8.2-.3,5.4-.3,8-.5,5.3-.5,7.8-.8c2.6-.3,5.1-.6,7.5-1,2.5-.3,4.9-.8,7.2-1.2s4.6-.8,6.8-1.4c1.1-.2,2.2-.5,3.2-.7l3.1-.8c2-.5,3.9-1.1,5.7-1.6s3.5-1.2,5.1-1.7l4.4-1.7,3.7-1.6c2.2-1.1,4-2,5-2.6l1.7-1a1.31,1.31,0,0,0,.5-1.7A1.189,1.189,0,0,0,485.6,517.192Z" fill="#1c2e4a"></path><path d="M210.9,185.892a13.69,13.69,0,0,0-1.7-.4c-1.1-.2-2.5-.5-4.3-.7a113.4,113.4,0,0,0-13-.8,94.3,94.3,0,0,0-13,.6c-1.8.2-3.3.4-4.3.6s-1.6.3-1.6.3a1.827,1.827,0,0,0-1.3,2.2,2.1,2.1,0,0,0,1.3,1.3s.6.1,1.6.3,2.5.4,4.3.6a88.612,88.612,0,0,0,12.6.6c.3,6.8,1.9,11.8,9.2,11.8,7.9,0,9.1-5.8,9.2-13.5l.9-.2a1.431,1.431,0,0,0,1-1.8,1.352,1.352,0,0,0-.9-.9Z" fill="#1c2e4a"></path><path d="M327.2,185.892a14.7,14.7,0,0,0-1.6-.4c-1-.2-2.5-.5-4.3-.7a113.4,113.4,0,0,0-13-.8,94.3,94.3,0,0,0-13,.6c-1.8.2-3.2.4-4.3.6-1,.2-1.6.3-1.6.3a2.1,2.1,0,0,0-1.3,1.3,1.827,1.827,0,0,0,1.3,2.2s.6.1,1.6.3,2.5.4,4.3.6a88.612,88.612,0,0,0,12.6.6c.3,6.8,1.9,11.8,9.2,11.8,7.9,0,9.1-5.8,9.2-13.5l.9-.2a1.431,1.431,0,0,0,1-1.8,1.319,1.319,0,0,0-1-.9Z" fill="#1c2e4a"></path><path d="M272.8,211.492c.1-.3.2-.5.3-.8a4.875,4.875,0,0,1,.3-.7,2.506,2.506,0,0,1,.4-.7,9.129,9.129,0,0,1,.8-1.3l.4-.6c.1-.1.2-.3.4-.4.1-.1.2-.3.3-.4a2.181,2.181,0,0,1,.5-.4c.6-.5.9-.8.9-.8a1.875,1.875,0,0,0,.1-2.6,2.035,2.035,0,0,0-1.5-.6,10.9,10.9,0,0,0-1.2.1c-.2,0-.4.1-.6.1a6.89,6.89,0,0,0-.8.3,5.133,5.133,0,0,1-1,.4,7.018,7.018,0,0,0-.9.6c-.3.2-.7.5-1,.7l-1,.9a10.627,10.627,0,0,0-.9,1.1,8.342,8.342,0,0,0-.8,1.2,10.208,10.208,0,0,0-1.1,2.9,5.019,5.019,0,0,0-.2,1.2c-.8-.1-1.7-.3-2.8-.4a113.064,113.064,0,0,0-26-.3c-1,.1-2,.3-2.8.4a2.92,2.92,0,0,0-.2-.9,10.208,10.208,0,0,0-1.1-2.9,5.025,5.025,0,0,0-.8-1.2,10.627,10.627,0,0,0-.9-1.1l-1-.9a3.592,3.592,0,0,0-1-.7l-.9-.6a4.179,4.179,0,0,0-1-.4l-.9-.3a1.268,1.268,0,0,0-.6-.1,9.4,9.4,0,0,0-1.2-.1,1.883,1.883,0,0,0-2,1.7,2.035,2.035,0,0,0,.6,1.5s.3.3.9.8a1.756,1.756,0,0,1,.5.4c.1.1.2.3.3.4s.2.3.4.4l.4.6a5.67,5.67,0,0,1,.8,1.3c.1.2.3.5.4.7.1.3.3.5.3.7a6.89,6.89,0,0,0,.3.8c.1.3.1.6.2.8a8.807,8.807,0,0,1,.2,1.7v1.5l-.1.3v.3a.6.6,0,0,1-.1.4,2.353,2.353,0,0,0-.2.8c-.1.3-.2.5-.3.8a4.875,4.875,0,0,1-.3.7c-.1.2-.3.5-.4.7s-.3.4-.4.6l-.4.6-.4.5c-.1.2-.3.3-.4.5a1.38,1.38,0,0,1-.4.3c-.5.4-.8.7-.8.7l-.2.2a1.5,1.5,0,0,0-.4,1.1,1.367,1.367,0,0,0,1.5,1.3h0a5.853,5.853,0,0,0,1.3-.2c.2,0,.5-.1.7-.1.3-.1.5-.2.8-.3l.9-.4.9-.6a6.07,6.07,0,0,0,1-.7,9.016,9.016,0,0,1,1-.9,10.627,10.627,0,0,0,.9-1.1,8.342,8.342,0,0,0,.8-1.2c.2-.4.5-.9.7-1.4a6.89,6.89,0,0,0,.3-.8,3.091,3.091,0,0,0,.2-.8l.2-.7c.8.1,1.8.3,2.9.4a94.3,94.3,0,0,0,13,.6,112.023,112.023,0,0,0,13-.8c1-.1,2-.3,2.8-.4v.1l.2.9c.1.3.1.6.2.8.1.3.2.5.3.8.2.5.5.9.7,1.4a8.342,8.342,0,0,0,.8,1.2c.3.4.6.7.9,1.1a9.016,9.016,0,0,0,1,.9,3.592,3.592,0,0,0,1,.7l.9.6.9.4c.3.1.5.2.8.3a1.7,1.7,0,0,0,.7.1,5.853,5.853,0,0,0,1.3.2,1.316,1.316,0,0,0,1.5-1.3,1.5,1.5,0,0,0-.4-1.1l-.2-.2s-.3-.3-.8-.7c-.1-.1-.3-.2-.4-.3-.1-.2-.3-.3-.4-.5l-.4-.5-.4-.6a2.092,2.092,0,0,1-.4-.6,2.506,2.506,0,0,0-.4-.7,2.118,2.118,0,0,1-.3-.7c-.1-.3-.2-.5-.3-.8s-.1-.5-.2-.8c0-.1-.1-.2-.1-.4v-.3l-.1-.3v-1.5a9.852,9.852,0,0,1,.2-1.7A1.486,1.486,0,0,1,272.8,211.492Z" fill="#1c2e4a"></path><path d="M268,384.992h0l-3.8,2c-2.5,1.3-6.2,3.2-11,5.4s-10.5,5-17.2,7.9c-5.7,2.4-12.1,5-19,7.5a5.9,5.9,0,0,1-.8-.4c-.8-.3-1.9-.8-3.3-1.3-.7-.2-1.4-.5-2.2-.7s-1.6-.5-2.5-.7c-1.7-.4-3.6-.8-5.4-1.1a26.6,26.6,0,0,0-2.8-.3c-.9-.1-1.8-.1-2.7-.2s-1.7,0-2.5-.1h-2.3a11.483,11.483,0,0,0-1.9.1l-1.5.1-1.3.1a.887.887,0,0,0-.6,1,.9.9,0,0,0,.6.6h0l1.2.2,1.4.2q.75.15,1.8.3a15.525,15.525,0,0,1,2.1.4c.7.2,1.5.3,2.3.5a23.347,23.347,0,0,1,2.5.7,24.13,24.13,0,0,1,2.5.8,34.059,34.059,0,0,1,4.8,1.8l1.8.8a203.4,203.4,0,0,1-22.9,6.1,121.727,121.727,0,0,1-31.6,2.5,62.733,62.733,0,0,1-16.1-3,50.464,50.464,0,0,1-6.4-2.6v-.2c-.1-.8-.3-2.1-.5-3.5a96.89,96.89,0,0,0-.9-4.8c-.4-1.7-.9-3.5-1.5-5.3a20.035,20.035,0,0,0-1-2.6c-.3-.9-.7-1.7-1-2.5a16.269,16.269,0,0,0-1.1-2.3,12.81,12.81,0,0,0-1.1-2c-.3-.6-.6-1.2-.9-1.7l-.8-1.2-.7-1.1a.806.806,0,0,0-.9-.3.825.825,0,0,0-.5,1h0l.4,1.2.4,1.3c.2.5.3,1.1.5,1.7s.4,1.3.6,2.1.4,1.5.6,2.3a22.113,22.113,0,0,1,.5,2.5c.1.8.3,1.7.4,2.6a47.039,47.039,0,0,1,.6,5.1c.1,1.3.2,2.6.2,3.7a14.629,14.629,0,0,0-1.3-.9,39.1,39.1,0,0,1-10.4-12.5,42.976,42.976,0,0,1-4.5-15.7,4.1,4.1,0,0,0-.1-1.1,62.353,62.353,0,0,1,6.7-32.3,45.731,45.731,0,0,1,4.2-7.1h2l1.7-.1a13.664,13.664,0,0,0,1.9-.2l2.1-.3,2.2-.5a14.132,14.132,0,0,0,2.2-.6l2.2-.7a18.028,18.028,0,0,0,2.1-.8c.7-.3,1.3-.5,1.9-.8a13.018,13.018,0,0,0,1.7-.8c2-1.1,3.3-1.8,3.3-1.8a.925.925,0,0,0,.2-1.2.908.908,0,0,0-.7-.3h-.1s-1.5.3-3.6.7a10.1,10.1,0,0,1-1.7.3c-.6.1-1.3.2-1.9.3s-1.3.2-2,.3l-2.1.1c-.7,0-1.4.1-2.1.1h-4.5l.5-.6a63.5,63.5,0,0,1,5.8-5.8,25.119,25.119,0,0,1,3.2-2.5c.5-.4,1.1-.8,1.7-1.2l1.8-1.3a82.9,82.9,0,0,0,12.9-11.5,65.6,65.6,0,0,0,9.6-13.8,64.158,64.158,0,0,0,7-29.5,92.738,92.738,0,0,0-3.5-25.1,152.137,152.137,0,0,0-6.3-18.3c-2-4.9-3.9-8.7-5.2-11.3-.6-1.3-1.1-2.2-1.5-2.9l-.5-1a.687.687,0,0,0-.9-.3.67.67,0,0,0-.3.8l.4,1q.45,1.05,1.2,3c1,2.6,2.6,6.5,4.3,11.5a149.5,149.5,0,0,1,5.1,18.2,112.447,112.447,0,0,1,1.8,11.4,77.05,77.05,0,0,1,.4,12.7,60.463,60.463,0,0,1-7.3,26.9c-.3.5-.6,1.1-.9,1.7a3.552,3.552,0,0,0-.4-.9c-.2-.5-.5-1.1-.7-1.7l-.6-1.9c-.2-.6-.4-1.3-.6-2s-.4-1.3-.6-2a14.159,14.159,0,0,1-.4-2c-.1-.7-.3-1.3-.4-1.9-.1-.5-.2-1.1-.3-1.7-.3-2.1-.5-3.6-.5-3.6v-.1a1.057,1.057,0,0,0-.6-.7.73.73,0,0,0-.9.6s-.3,1.4-.6,3.7a11.019,11.019,0,0,0-.2,1.8c0,.6-.1,1.3-.1,2s-.1,1.4-.1,2.2l.1,2.3a17.852,17.852,0,0,0,.2,2.3c.1.7.2,1.5.3,2.2a11.8,11.8,0,0,0,.4,2,9.512,9.512,0,0,0,.4,1.8c.2.6.3,1.1.4,1.5a8.338,8.338,0,0,0,.4,1.2,6.89,6.89,0,0,0,.3.8l.1.2h0a49.509,49.509,0,0,1-3.7,4.3,75.423,75.423,0,0,1-12.2,10.4l-1.7,1.2a20.278,20.278,0,0,0-1.8,1.3c-1.3.9-2.4,1.8-3.6,2.8a79.515,79.515,0,0,0-6.6,6.4,73.19,73.19,0,0,0-16.9,33.1,68.184,68.184,0,0,0-1.4,10.1h0a42.362,42.362,0,0,1-3.3-3.9c-.6-.7-1.1-1.4-1.6-2l-1.5-2.1c-.5-.7-.9-1.4-1.3-2a17.394,17.394,0,0,1-1.1-1.8c-.3-.6-.7-1.1-.9-1.6l-.7-1.2-.6-1.1h0a.87.87,0,0,0-.9-.4.887.887,0,0,0-.6,1l.3,1.2c.1.4.2.8.4,1.4a18.938,18.938,0,0,0,.6,1.8,9.037,9.037,0,0,0,.8,2.1c.3.7.6,1.5.9,2.3.4.8.7,1.7,1.1,2.5s.8,1.7,1.3,2.5a53.5,53.5,0,0,0,2.9,4.7l1.5,2.1c.5.7,1,1.3,1.4,1.8.5.5,1.1,1.2,1.5,1.7h0a50.7,50.7,0,0,0,5.2,18.7,46.931,46.931,0,0,0,12.3,15,52.965,52.965,0,0,0,16.8,8.8,77.43,77.43,0,0,0,17.9,3.3c3.1.2,6.2.3,9.2.2l-.5.5a43.316,43.316,0,0,1-3.8,3.4c-.7.6-1.4,1.1-2,1.7-.7.6-1.4,1-2,1.5-.7.5-1.3.9-2,1.4l-1.8,1.2c-.6.4-1.1.7-1.5,1l-1.2.7-1.1.6h0a.87.87,0,0,0-.4.9.887.887,0,0,0,1,.6l1.2-.3,1.4-.4c.5-.1,1.1-.4,1.8-.6a18.028,18.028,0,0,0,2.1-.8c.7-.4,1.5-.6,2.3-1l2.4-1.2c.8-.4,1.7-.8,2.5-1.3,1.6-1,3.2-2,4.7-3,.7-.5,1.4-1,2-1.5l1.8-1.5c1-.9,1.9-1.7,2.5-2.3a138.42,138.42,0,0,0,15-2.3,218.925,218.925,0,0,0,28.8-7.9c8.7-3,16.5-6.3,23.3-9.3s12.7-5.8,17.5-8.2,8.5-4.4,11-5.7l3.9-2.1a3.368,3.368,0,0,0,1.4-4.6,3.916,3.916,0,0,0-4.8-1Z" fill="#1c2e4a"></path><path d="M531.8,325.592l-1.1-1.1a4.62,4.62,0,0,1-.7-.7l-.8-.7a17.344,17.344,0,0,0-2-1.5,25.158,25.158,0,0,0-2.4-1.5,22.447,22.447,0,0,0-2.7-1.3,24.884,24.884,0,0,0-2.9-1.1,17.677,17.677,0,0,0-3.1-.8c-1-.2-2.1-.3-3.1-.4-.5,0-1-.1-1.5-.1H510a12.413,12.413,0,0,0-2.7.3,14.191,14.191,0,0,0-2.2.5c-.7.2-1.2.4-1.7.5l-.7.3c-1.3-.9-2.5-1.7-3.9-2.5a51.388,51.388,0,0,0-18.3-6.5,54.517,54.517,0,0,0-18.9.3,69.278,69.278,0,0,0-17.2,5.6,95.276,95.276,0,0,0-14.7,8.8,125.934,125.934,0,0,0-11.9,10c.1-.5.1-1.1.2-1.7.2-1.6.5-3.3.8-5,.1-.8.4-1.7.5-2.6.2-.9.4-1.7.6-2.5s.5-1.6.7-2.3.5-1.4.7-2,.4-1.2.6-1.7a11.215,11.215,0,0,0,.5-1.3,6.743,6.743,0,0,0,.4-1.2h0a.806.806,0,0,0-.3-.9c-.4-.2-.9-.2-1.1.2l-.7,1-.8,1.2c-.3.5-.6,1-1,1.6a11.782,11.782,0,0,0-1.1,1.9c-.3.7-.8,1.4-1.2,2.2l-1.2,2.4c-.3.8-.8,1.7-1.1,2.6a36.2,36.2,0,0,0-1.7,5.3,22.676,22.676,0,0,0-.6,2.5c-.2.8-.3,1.6-.5,2.3a32.358,32.358,0,0,0-.5,3.5c0,.4-.1.8-.1,1v.5c-1.3,1.4-2.6,2.8-3.8,4.2a223.5,223.5,0,0,0-15.8,20.5c-4.4,6.3-7.8,12.1-10.6,16.8-1.4,2.4-2.6,4.5-3.6,6.4s-1.9,3.5-2.6,4.8l-2.1,4a3.468,3.468,0,0,0,6.1,3.3h0l2.1-3.9c.7-1.3,1.6-2.8,2.6-4.6s2.3-3.9,3.6-6.2c1.4-2.3,2.9-4.9,4.7-7.6a20.845,20.845,0,0,0,3-1c.7-.2,1.4-.5,2.2-.8a22.877,22.877,0,0,0,2.3-1c1.6-.7,3.3-1.7,4.9-2.6l2.4-1.5c.8-.5,1.5-1,2.2-1.5s1.4-1,2-1.5,1.2-1,1.7-1.4a8.635,8.635,0,0,0,1.4-1.3l1-1,.9-.9a.92.92,0,0,0,.1-1,.8.8,0,0,0-1.1-.3h0l-1.1.6-1.2.7c-.5.3-1,.5-1.6.8s-1.2.7-1.9,1-1.4.7-2.1,1-1.5.7-2.3,1a23.4,23.4,0,0,1-2.4.9c-1.7.6-3.3,1.2-4.8,1.6l-.3.1.5-.8c2.1-3.1,4.5-6.3,7-9.6s5.3-6.7,8.3-10.2a134.351,134.351,0,0,1,21.4-19.9,79.086,79.086,0,0,1,13.4-8c.9-.4,1.9-.8,2.8-1.3h.1c.2.2.5.3.9.6.7.4,1.8,1,3.1,1.7.6.3,1.4.6,2.1,1,.7.3,1.5.7,2.4,1,1.7.6,3.5,1.2,5.3,1.7.9.3,1.8.4,2.7.7.9.2,1.8.3,2.7.5s1.7.2,2.5.4a17.96,17.96,0,0,0,2.2.2,12.751,12.751,0,0,0,1.9.1h2.8a.76.76,0,0,0,.8-.6.8.8,0,0,0-.6-1h0l-1.2-.3-1.4-.4a15.426,15.426,0,0,1-1.7-.5c-.6-.2-1.3-.4-2-.7s-1.5-.5-2.2-.8l-2.4-.9a25.571,25.571,0,0,1-2.4-1.1,47.3,47.3,0,0,1-4.5-2.3c-1.2-.7-2.3-1.3-3.2-1.9,1.6-.5,3.2-.8,4.8-1.2a48.1,48.1,0,0,1,16.5-.4,45.852,45.852,0,0,1,28.9,16.5,33.473,33.473,0,0,1,4.5,7.2l.4.9.4,1.1.1.3.1.2.2.5.4,1.1c.5,1.4.9,2.8,1.4,4.3.4,1.3.7,2.5,1,3.8a.349.349,0,0,0-.2.1l-.3.2a6.782,6.782,0,0,0-.9.6c-.7.5-1.7,1.2-2.8,2.1-.6.5-1.1,1-1.7,1.5s-1.2,1.1-1.9,1.8a48.857,48.857,0,0,0-3.7,4.1c-.6.7-1.2,1.5-1.7,2.2-.6.7-1.1,1.5-1.6,2.2s-.9,1.4-1.4,2.1a9.933,9.933,0,0,0-1.1,2c-.3.7-.7,1.2-.9,1.7a13.919,13.919,0,0,0-.6,1.3c-.3.7-.5,1.2-.5,1.2a.955.955,0,0,0,.2,1,.792.792,0,0,0,1.1-.1h0l.8-.9.9-1.1c.3-.4.8-.8,1.2-1.4.4-.5.9-1,1.4-1.6s1.1-1.1,1.7-1.7c.6-.5,1.2-1.2,1.8-1.8a16.319,16.319,0,0,1,2-1.7c1.3-1.1,2.7-2.2,4-3.2,1.3-.9,2.5-1.8,3.6-2.5.6-.4,1.2-.7,1.7-1a47.252,47.252,0,0,1,.1,6.5,30.528,30.528,0,0,1-5.4,15.7,43.506,43.506,0,0,1-12.3,11.5,101.276,101.276,0,0,1-15.3,8c-8.1,3.5-16.4,6.3-24.3,9.1-.1-.1-.2-.3-.4-.4l-.2-.2-.4-.3-.4-.3c-.3-.2-.7-.5-1.2-.8a5.978,5.978,0,0,0-1.6-.8,10.837,10.837,0,0,0-1.9-.8,18.66,18.66,0,0,0-2.2-.7,20.024,20.024,0,0,0-2.4-.4c-.4,0-.8-.1-1.3-.1h-1.3a21.052,21.052,0,0,0-2.5.2,20.481,20.481,0,0,0-2.4.5c-.8.2-1.4.5-2.1.7a14.167,14.167,0,0,0-1.8.8,6.376,6.376,0,0,0-1.4.8l-1,.7-.9.6a.91.91,0,0,0,0,1.2.663.663,0,0,0,.7.2h.1l1-.3,1.1-.4a7.006,7.006,0,0,1,1.4-.3,8.585,8.585,0,0,1,1.7-.3,11.019,11.019,0,0,0,1.8-.2,12.052,12.052,0,0,1,1.9,0c.7.1,1.3.2,1.9.3l1,.2.9.3a8.651,8.651,0,0,1,1.7.7c.5.3,1.1.5,1.5.8a6.224,6.224,0,0,1,1.2.8c-10,3.6-19.5,7.3-27.7,12.3a50.3,50.3,0,0,0-10.8,8.7,29.756,29.756,0,0,0-6.4,11,29.431,29.431,0,0,0-1.3,11,47.73,47.73,0,0,0,1.5,9.2,57.784,57.784,0,0,0,2.4,7c.8,2,1.6,3.6,2.2,5s1.2,2.3,1.5,3l.5,1a.894.894,0,0,0,1.6-.8l-.5-1c-.3-.7-.8-1.7-1.4-3a68.3,68.3,0,0,1-4-11.8,35.572,35.572,0,0,1-1.1-8.6,27.7,27.7,0,0,1,1.5-9.9,26.935,26.935,0,0,1,6-9.5,47.969,47.969,0,0,1,10.2-7.7c7.9-4.5,17.3-7.9,27.4-11.3l15.6-5.1c5.4-1.8,10.8-3.7,16.3-5.9l1.7-.7c-.1.5-.2,1-.3,1.6-.2.6-.4,1.2-.6,1.9a16.673,16.673,0,0,1-.8,2,11.782,11.782,0,0,1-1.1,1.9,21.414,21.414,0,0,1-1.3,1.9c-.5.6-.9,1.2-1.4,1.7l-1.5,1.5c-.5.5-1,.8-1.5,1.3a6.42,6.42,0,0,1-1.3,1,4.363,4.363,0,0,0-1,.8l-.9.7h-.1a.806.806,0,0,0-.3.9.876.876,0,0,0,1,.5l1.1-.4,1.3-.5a6.89,6.89,0,0,1,.8-.3l.8-.4c.6-.3,1.2-.6,1.9-1a22.63,22.63,0,0,0,2-1.3c.7-.5,1.3-1,2.1-1.6.7-.6,1.3-1.2,2-1.9a18.111,18.111,0,0,0,1.8-2.1c.5-.7,1-1.5,1.5-2.3a16.269,16.269,0,0,0,1.1-2.3c.3-.8.6-1.5.8-2.2.2-.6.3-1.3.5-2a9.971,9.971,0,0,0,.2-1.6,2.078,2.078,0,0,0,0-.8,74.418,74.418,0,0,0,7.8-4.4,47.361,47.361,0,0,0,14.2-13,35.757,35.757,0,0,0,4.6-8.9,41.582,41.582,0,0,0,2.1-9.9,58.243,58.243,0,0,0-2.2-19.5c-.4-1.6-.9-3.1-1.4-4.6l-.4-1.1-.2-.6-.1-.3-.1-.3-.4-1.1-.1-1.8a39.8,39.8,0,0,0-5.3-8.6,67.738,67.738,0,0,0-5.1-5.6,11.8,11.8,0,0,1,2-.4l1.1-.2a4.869,4.869,0,0,1,1.2-.1,10.454,10.454,0,0,1,2.5,0,24.622,24.622,0,0,1,2.6.2,19.969,19.969,0,0,1,2.6.5,18.285,18.285,0,0,1,2.5.8c.8.3,1.6.6,2.3.9a18.584,18.584,0,0,1,2,1l.9.4c.3.1.5.3.8.4l1.3.8,1.1.7h.1a.92.92,0,0,0,1-.1.785.785,0,0,0,0-1.1Z" fill="#1c2e4a"></path><path d="M397.1,441.092c.1-1.3.1-2,.1-2v-.1a1.028,1.028,0,0,0-1-1.1,1.23,1.23,0,0,0-1.1.7s-.3.7-.7,2a10.548,10.548,0,0,0-.6,2.4c-.2,1-.4,2.1-.5,3.1-.1.6-.1,1.2-.2,1.8,0,.6-.1,1.3-.1,2,0,1.4.1,2.8.2,4.3l.1,1.1a3.6,3.6,0,0,0,.2,1.1,18.915,18.915,0,0,0,.5,2.3l.6,2.1v.3l.1.3.2.6.4,1.1.4,1.1.5,1.1.9,2.1c.3.7.7,1.4,1,2,.4.7.7,1.3,1.1,1.9s.7,1.2,1.1,1.8l1.2,1.7c.7,1,1.5,2,2.3,3,.7.9,1.5,1.7,2.1,2.4a7.637,7.637,0,0,0,.9.9l.8.7c1,.9,1.5,1.4,1.5,1.4a1.39,1.39,0,0,0,1.9-.1,1.347,1.347,0,0,0,.1-1.6s-.4-.6-1.2-1.7c-.4-.5-.8-1.2-1.3-1.9s-1-1.5-1.6-2.5-1.2-1.9-1.8-3c-.3-.5-.6-1.1-1-1.7l-.9-1.7c-.7-1.2-1.2-2.5-1.8-3.7-.3-.6-.5-1.3-.8-1.9l-.4-1-.4-1c-.2-.6-.5-1.3-.7-1.9s-.4-1.4-.6-2.1-.3-1.3-.5-2a2.92,2.92,0,0,1-.2-.9l-.2-1c-.3-1.3-.4-2.6-.6-3.8a10.869,10.869,0,0,1-.1-1.8,9.7,9.7,0,0,1-.1-1.7,27.884,27.884,0,0,1,0-2.9A8.578,8.578,0,0,0,397.1,441.092Z" fill="#1c2e4a"></path><path d="M229.8,358.692a12.723,12.723,0,0,0,5.5,3.4.991.991,0,0,0,1.2-.7v-.4h0a22.708,22.708,0,0,0-2-5.7,35.3,35.3,0,0,0-2.8-5,49.751,49.751,0,0,0-3.3-4.7,24.933,24.933,0,0,0-4.2-4.4h0a1.08,1.08,0,0,0-.7-.3,1.11,1.11,0,0,0-1.1,1.1,21.975,21.975,0,0,0,1.2,6.2,30.951,30.951,0,0,0,2.5,5.6A22.533,22.533,0,0,0,229.8,358.692Z" fill="#1c2e4a"></path><path d="M94.1,319.692h0c2.4-2.1,4.5-4.4,6.5-6.5,2.1-2.2,4.1-4.3,6.1-6.4a69.8,69.8,0,0,1,6.4-5.8c1.1-.9,2.2-1.8,3.4-2.9a15,15,0,0,0,3.4-3.7.755.755,0,0,0,.1-.8,1.015,1.015,0,0,0-1.3-.7h0c-1.5.4-2.9.8-4.4,1.3a22.52,22.52,0,0,0-4.5,1.9,41.112,41.112,0,0,0-7.8,6.1,36.645,36.645,0,0,0-5.9,7.7,34.181,34.181,0,0,0-2.1,4.3,19.308,19.308,0,0,0-1.3,4.7.844.844,0,0,0,.2.7.817.817,0,0,0,1.2.1Z" fill="#1c2e4a"></path><path d="M155.1,338.992c-1.1,1-2.2,2.1-3.3,3.2l-1.7,1.7-.8.8-.9,1a.618.618,0,0,0-.2.7.987.987,0,0,0,1,.9h.6c.4-.1.7-.2,1-.3.4-.1.8-.3,1.1-.4.8-.3,1.5-.6,2.2-.9a35.5,35.5,0,0,0,4.3-2.3,49.335,49.335,0,0,0,7.8-5.8c.6-.6,1.2-1.1,1.8-1.7s1.1-1.2,1.7-1.8c.5-.6,1-1.2,1.5-1.9a14.29,14.29,0,0,0,1.4-2c.4-.7.9-1.4,1.3-2.1a22.56,22.56,0,0,0,1.1-2.2,9.172,9.172,0,0,0,.9-2.3,21.718,21.718,0,0,0,.7-2.4,1.7,1.7,0,0,0-.1-.7.83.83,0,0,0-1.2-.2h-.1a81.675,81.675,0,0,0-7.1,6.1c-2.2,2.1-4.3,4.2-6.5,6.3Z" fill="#1c2e4a"></path><path d="M457.3,584.992c-4.5,1.3-8.5,5-12.3,8.5-4.2,3.9-8.6,7.9-13.3,8.5-3.7.5-8.2-1.9-13-4.4-5.2-2.7-10.6-5.5-16.3-5.5s-11.4,2.8-16.7,5.5c-4.9,2.5-9.6,4.8-13.5,4.3-5-.6-9.5-4.8-13.9-8.8-4-3.7-7.9-7.2-12.4-8.5-5-1.5-10.5-1.5-15.6-1.2h0c0,.3.1.6.1.9.2,1.5.5,3,.7,4.5.1.4.1.8.2,1.3h0c4.4-.2,8.7-.2,12.5.9,3.1.9,6.4,3.9,9.9,7.1,4.9,4.5,10.5,9.6,17.6,10.5,5.8.7,11.7-2.2,17.3-5,4.7-2.3,9.5-4.7,13.7-4.7,4.1,0,8.8,2.4,13.3,4.8,4.9,2.6,10,5.2,15.1,5.2a9.15,9.15,0,0,0,1.7-.1c6.8-.8,12.2-5.8,17-10.2,3.4-3.1,6.7-6.1,9.7-7,4.4-1.3,9.5-.8,14.6-.3.4-2.2.7-4.4,1.1-6.6C469.3,583.892,463,583.292,457.3,584.992Z" fill="#1c2e4a"></path><path d="M457.3,601.692c-4.5,1.3-8.5,5-12.3,8.5-4.2,3.9-8.6,7.9-13.3,8.5-3.7.5-8.2-1.9-13-4.4-5.2-2.7-10.6-5.5-16.3-5.5s-11.4,2.8-16.7,5.5c-4.9,2.5-9.6,4.8-13.5,4.3-5-.6-9.5-4.8-13.9-8.8-4-3.7-7.9-7.2-12.4-8.5a38.71,38.71,0,0,0-12.7-1.3h0l.3,1.7a32,32,0,0,0,.7,3.3l.3,1.5a32.684,32.684,0,0,1,9.4,1c3.1.9,6.4,3.9,9.9,7.1,4.9,4.5,10.5,9.6,17.6,10.5,5.8.7,11.7-2.2,17.3-5,4.7-2.3,9.5-4.8,13.7-4.8,4.1,0,8.8,2.4,13.3,4.8,4.9,2.6,10,5.2,15.1,5.2a9.15,9.15,0,0,0,1.7-.1c6.8-.8,12.2-5.8,17-10.2,3.4-3.1,6.7-6.1,9.7-7,3.5-1,7.4-.9,11.4-.6,0-.2.1-.4.1-.6l.2-1.2c.3-1.5.6-3,.9-4.6v-.2h0C467.1,600.492,462.1,600.292,457.3,601.692Z" fill="#7b5b92"></path></g></g>
            </g>
        </g>
    </g>
    
    <!-- ITEM 2 -->
    <g>
        <defs>
            <clipPath id="clip-path-id-viewbox-item-2">
                <rect x="0.0" y="0.0" width="276.343" height="257.344"/>
            </clipPath>
        </defs>
        <g transform="translate(1036.0 120.0) rotate(0.0 257.0 240.0) scale(1.8600073097563534 1.865207659786123)">
            <g clip-path="url(#clip-path-id-viewbox-item-2)" transform="translate(-0.0 -0.0)">
                <title>clock</title><g id="Layer_2-i2" data-name="Layer 2"><g id="clock-i2"><circle cx="127.5" cy="128.808" r="127.5" fill="#d987d9"></circle><path d="M192.1,8.908h0c-16.6-7.4-51.3-13-89.8-5,69-14,136.2,30.7,150.2,99.7a127.564,127.564,0,0,1-99.8,150.2,125.223,125.223,0,0,1-25.2,2.5,128.884,128.884,0,0,1-48.7-9.6h0c44,18.7,103.6,9.3,123.3-2h0a127.543,127.543,0,0,0-10-235.8Z" fill="#1c2e4a"></path><circle cx="127.5" cy="128.808" r="103.8" fill="#f7eede"></circle><path d="M125.6,53.408a4.768,4.768,0,0,0,.4.8,1.528,1.528,0,0,0,2.1.7,1.575,1.575,0,0,0,.7-.7s.1-.3.3-.8a15.457,15.457,0,0,0,.7-2.3,32.474,32.474,0,0,0,.8-6.9,26.862,26.862,0,0,0-.6-6.9c-.2-.8-.4-1.5-.6-2.3a6.89,6.89,0,0,0-.3-.8,1.892,1.892,0,0,0-2.6-.9,1.962,1.962,0,0,0-.9.9c-.1.3-.2.5-.3.8a8.648,8.648,0,0,0-.6,2.3,26.1,26.1,0,0,0-.6,6.8,32.474,32.474,0,0,0,.8,6.9C125.1,51.908,125.4,52.708,125.6,53.408Z" fill="#1c2e4a"></path><path d="M109.8,43.408a6.034,6.034,0,0,0,.8.8c.1.1.2.2.3.2l.1.1h0a2.067,2.067,0,0,0,2.8-.5h0l.1-.1c0-.1.1-.2.2-.3a3.7,3.7,0,0,0,.5-1.1,5.441,5.441,0,0,0,.3-3.1,5.7,5.7,0,0,0-1.1-2.8,3.044,3.044,0,0,0-.8-.8c-.1-.1-.3-.2-.4-.3a2.625,2.625,0,0,0-3.4.6c-.1.1-.2.3-.3.4a3.582,3.582,0,0,0-.4,1.1,6.1,6.1,0,0,0-.1,3A10.492,10.492,0,0,0,109.8,43.408Z" fill="#1c2e4a"></path><path d="M95.3,47.708a3.592,3.592,0,0,0,1,.7c.1.1.3.1.3.2l.1.1h0a1.9,1.9,0,0,0,2.6-1v-.1a.367.367,0,0,0,.1-.3l.3-1.2a6.54,6.54,0,0,0-.2-3.1,5.438,5.438,0,0,0-1.6-2.6,5.5,5.5,0,0,0-.9-.7.758.758,0,0,0-.4-.2,2.618,2.618,0,0,0-3.3,1.2c-.1.2-.1.3-.2.5a5.569,5.569,0,0,0,.2,4.2A10.65,10.65,0,0,0,95.3,47.708Z" fill="#1c2e4a"></path><path d="M66.9,61.908a5.63,5.63,0,0,0,2.6,1.7l1.2.3h.5a1.872,1.872,0,0,0,2.1-1.8h0v-.5a4.869,4.869,0,0,0-.1-1.2,6.008,6.008,0,0,0-1.3-2.8,5.663,5.663,0,0,0-2.4-1.9,2.279,2.279,0,0,0-1.1-.3c-.2,0-.3-.1-.5-.1a2.694,2.694,0,0,0-2.7,2.2v.5a6.311,6.311,0,0,0,1.7,3.9Z" fill="#1c2e4a"></path><path d="M54.3,71.008a6.342,6.342,0,0,0,1.9,2.4,6.708,6.708,0,0,0,4,1.4h.5a2.017,2.017,0,0,0,1.8-2.2h0v-.5l-.3-1.2a7.821,7.821,0,0,0-1.7-2.6,5.407,5.407,0,0,0-2.7-1.4c-.4-.1-.8-.1-1.2-.2h-.5a2.539,2.539,0,0,0-2.2,2.7.9.9,0,0,0,.1.5A2.016,2.016,0,0,0,54.3,71.008Z" fill="#1c2e4a"></path><path d="M38.2,98.608a5.5,5.5,0,0,0,.7.9,6.332,6.332,0,0,0,2.6,1.6,6.54,6.54,0,0,0,3.1.2l1.2-.3c.1,0,.2-.1.3-.1l.1-.1h0a2.054,2.054,0,0,0,1-2.6h0a.1.1,0,0,0-.1-.1c-.1-.1-.1-.2-.2-.3a3.592,3.592,0,0,0-.7-1,6.422,6.422,0,0,0-2.5-1.8,5.136,5.136,0,0,0-3-.4,2.016,2.016,0,0,0-1.1.3c-.2.1-.3.1-.5.2a2.581,2.581,0,0,0-1.2,3.3C38.1,98.308,38.1,98.508,38.2,98.608Z" fill="#1c2e4a"></path><path d="M34.3,114.608a3.044,3.044,0,0,0,.8.8,5.7,5.7,0,0,0,2.8,1.1,8.2,8.2,0,0,0,3.1-.3,5.359,5.359,0,0,0,1.1-.5c.1-.1.2-.2.3-.2l.1-.1h0a2.05,2.05,0,0,0,.5-2.8h0l-.1-.1c-.1-.1-.1-.2-.2-.3a6.034,6.034,0,0,0-.8-.8,7.388,7.388,0,0,0-2.8-1.4,6.062,6.062,0,0,0-3,.1c-.4.1-.7.3-1.1.4-.1.1-.3.2-.4.3a2.52,2.52,0,0,0-.6,3.4A1.38,1.38,0,0,0,34.3,114.608Z" fill="#1c2e4a"></path><path d="M42,146.508a6.034,6.034,0,0,0,.8-.8c.1-.1.2-.2.2-.3l.1-.1h0a2.067,2.067,0,0,0-.5-2.8h0l-.1-.1c-.1,0-.2-.1-.3-.2a3.7,3.7,0,0,0-1.1-.5,5.441,5.441,0,0,0-3.1-.3,6.048,6.048,0,0,0-3.7,1.9c-.1.1-.2.3-.3.4a2.625,2.625,0,0,0,.6,3.4c.1.1.3.2.4.3a11.731,11.731,0,0,0,1.1.5,6.1,6.1,0,0,0,3,.1A11.3,11.3,0,0,0,42,146.508Z" fill="#1c2e4a"></path><path d="M46.3,161.008a3.592,3.592,0,0,0,.7-1c.1-.1.1-.2.2-.3a.1.1,0,0,1,.1-.1h0a1.9,1.9,0,0,0-1-2.6l-.1-.1c-.1,0-.2-.1-.3-.1l-1.2-.3a6.54,6.54,0,0,0-3.1.2,5.438,5.438,0,0,0-2.6,1.6,5.5,5.5,0,0,0-.7.9.758.758,0,0,0-.2.4,2.581,2.581,0,0,0,1.2,3.3c.2.1.3.1.5.2.4.1.8.2,1.1.3a6.1,6.1,0,0,0,3-.4A6.609,6.609,0,0,0,46.3,161.008Z" fill="#1c2e4a"></path><path d="M62.5,185.208h0a1.917,1.917,0,0,0-1.7-2.1h-.5a4.869,4.869,0,0,0-1.2.1,6.008,6.008,0,0,0-2.8,1.3,5.1,5.1,0,0,0-2.2,3.5c0,.2-.1.3-.1.5a2.694,2.694,0,0,0,2.2,2.7h.5c.4,0,.8-.1,1.2-.1a5.853,5.853,0,0,0,2.7-1.4,5.63,5.63,0,0,0,1.7-2.6l.3-1.2v-.4A.774.774,0,0,1,62.5,185.208Z" fill="#1c2e4a"></path><path d="M73.4,195.608h0a2.017,2.017,0,0,0-2.2-1.8h-.5l-1.2.3a7.821,7.821,0,0,0-2.6,1.7,7.2,7.2,0,0,0-1.5,2.7,4.869,4.869,0,0,0-.1,1.2v.5a2.539,2.539,0,0,0,2.7,2.2.9.9,0,0,0,.5-.1c.4-.1.8-.2,1.1-.3a6.342,6.342,0,0,0,2.4-1.9,7.19,7.19,0,0,0,1.3-2.8,4.869,4.869,0,0,0,.1-1.2v-.5Z" fill="#1c2e4a"></path><path d="M99.7,210.508a1.007,1.007,0,0,0-.1-.3.1.1,0,0,0-.1-.1h0a2.054,2.054,0,0,0-2.6-1h0l-.1.1c-.1.1-.2.1-.3.2a6.07,6.07,0,0,0-1,.7,6.422,6.422,0,0,0-1.8,2.5,5.136,5.136,0,0,0-.4,3,2.016,2.016,0,0,0,.3,1.1,2.477,2.477,0,0,0,3.2,1.7c.1,0,.2,0,.2-.1.2-.1.3-.1.4-.2a5.5,5.5,0,0,0,.9-.7,6.332,6.332,0,0,0,1.6-2.6,6.54,6.54,0,0,0,.2-3.1A5.638,5.638,0,0,1,99.7,210.508Z" fill="#1c2e4a"></path><path d="M114.3,214.108c-.1-.1-.1-.2-.2-.3l-.1-.1h0a2.05,2.05,0,0,0-2.8-.5h0l-.1.1c-.1.1-.2.1-.3.2a6.034,6.034,0,0,0-.8.8,7.388,7.388,0,0,0-1.4,2.8,6.062,6.062,0,0,0,.1,3c.1.4.3.7.4,1.1.1.1.2.3.3.4a2.52,2.52,0,0,0,3.4.6c.1-.1.3-.2.4-.3a3.044,3.044,0,0,0,.8-.8,5.7,5.7,0,0,0,1.1-2.8,8.2,8.2,0,0,0-.3-3.1A5.359,5.359,0,0,0,114.3,214.108Z" fill="#1c2e4a"></path><path d="M145.1,214.308a6.034,6.034,0,0,0-.8-.8c-.1-.1-.2-.2-.3-.2l-.1-.1h0a2.067,2.067,0,0,0-2.8.5h0l-.1.1c-.1.1-.1.2-.2.3a3.7,3.7,0,0,0-.5,1.1,6.468,6.468,0,0,0-.3,3.1,5.7,5.7,0,0,0,1.1,2.8,3.044,3.044,0,0,0,.8.8c.1.1.3.2.4.3a2.625,2.625,0,0,0,3.4-.6c.1-.1.2-.3.3-.4a11.731,11.731,0,0,0,.5-1.1,6.1,6.1,0,0,0,.1-3A9.438,9.438,0,0,0,145.1,214.308Z" fill="#1c2e4a"></path><path d="M159.7,210.008a3.592,3.592,0,0,0-1-.7c-.1-.1-.3-.1-.3-.2l-.1-.1h0a1.9,1.9,0,0,0-2.6,1l-.1.1c0,.1-.1.2-.1.3l-.3,1.2a6.54,6.54,0,0,0,.2,3.1,6.332,6.332,0,0,0,1.6,2.6,5.5,5.5,0,0,0,.9.7.758.758,0,0,0,.4.2,2.618,2.618,0,0,0,3.3-1.2c.1-.1.1-.3.2-.5a5.569,5.569,0,0,0-.2-4.2A10.1,10.1,0,0,0,159.7,210.008Z" fill="#1c2e4a"></path><path d="M189.5,198.508a6.051,6.051,0,0,0-1.5-2.7,6.765,6.765,0,0,0-2.6-1.8,5.274,5.274,0,0,0-1.2-.3c-.1,0-.3-.1-.4-.1s-.1-.2-.1-.2h0a2.342,2.342,0,0,0-2.2,2v.7a4.869,4.869,0,0,0,.1,1.2,6.008,6.008,0,0,0,1.3,2.8,5.663,5.663,0,0,0,2.4,1.9,2.279,2.279,0,0,0,1.1.3c.2,0,.3.1.5.1a2.694,2.694,0,0,0,2.7-2.2v-.5A4.121,4.121,0,0,0,189.5,198.508Z" fill="#1c2e4a"></path><path d="M200.7,186.708a6.342,6.342,0,0,0-1.9-2.4,7.19,7.19,0,0,0-2.8-1.3,4.869,4.869,0,0,0-1.2-.1h-.5a2.017,2.017,0,0,0-1.8,2.2v.5l.3,1.2a7.821,7.821,0,0,0,1.7,2.6,7.2,7.2,0,0,0,2.7,1.5,4.869,4.869,0,0,0,1.2.1h.5a2.539,2.539,0,0,0,2.2-2.7.9.9,0,0,0-.1-.5C200.9,187.408,200.8,187.008,200.7,186.708Z" fill="#1c2e4a"></path><path d="M216.7,159.108a3.114,3.114,0,0,0-.7-.9,6.332,6.332,0,0,0-2.6-1.6,6.54,6.54,0,0,0-3.1-.2l-1.2.3a1.007,1.007,0,0,0-.3.1l-.1.1h0a2.054,2.054,0,0,0-1,2.6h0l.1.1c0,.1.1.2.2.3a6.07,6.07,0,0,0,.7,1,6.422,6.422,0,0,0,2.5,1.8,5.136,5.136,0,0,0,3,.4,2.016,2.016,0,0,0,1.1-.3,2.568,2.568,0,0,0,1.8-3.2c-.1-.1-.2-.3-.4-.5Z" fill="#1c2e4a"></path><path d="M220.6,143.108a6.034,6.034,0,0,0-.8-.8,5.7,5.7,0,0,0-2.8-1.1,8.2,8.2,0,0,0-3.1.3,5.359,5.359,0,0,0-1.1.5c-.1.1-.2.1-.3.2l-.1.1h0a2.05,2.05,0,0,0-.5,2.8h0l.1.1c.1.1.1.2.2.3a6.034,6.034,0,0,0,.8.8,7.388,7.388,0,0,0,2.8,1.4,6.062,6.062,0,0,0,3-.1c.4-.1.7-.3,1.1-.4.1-.1.3-.2.4-.3a2.52,2.52,0,0,0,.6-3.4A1.38,1.38,0,0,0,220.6,143.108Z" fill="#1c2e4a"></path><path d="M213,111.208a6.034,6.034,0,0,0-.8.8c-.1.1-.2.2-.2.3l-.1.1h0a2.067,2.067,0,0,0,.5,2.8l.1.1c.1,0,.2.1.3.2a3.7,3.7,0,0,0,1.1.5,6.468,6.468,0,0,0,3.1.3,5.7,5.7,0,0,0,2.8-1.1,3.044,3.044,0,0,0,.8-.8c.1-.1.2-.3.3-.4a2.625,2.625,0,0,0-.6-3.4c-.1-.1-.3-.2-.4-.3a11.731,11.731,0,0,0-1.1-.5,6.1,6.1,0,0,0-3-.1A8.351,8.351,0,0,0,213,111.208Z" fill="#1c2e4a"></path><path d="M208.6,96.608a3.592,3.592,0,0,0-.7,1c-.1.1-.1.3-.2.3l-.1.1h0a1.9,1.9,0,0,0,1,2.6l.1.1a.367.367,0,0,0,.3.1l1.2.3a6.54,6.54,0,0,0,3.1-.2,5.438,5.438,0,0,0,2.6-1.6,5.5,5.5,0,0,0,.7-.9.758.758,0,0,0,.2-.4,2.618,2.618,0,0,0-1.2-3.3c-.1-.1-.3-.1-.5-.2-.4-.1-.8-.2-1.1-.3a6.1,6.1,0,0,0-3,.4A11.6,11.6,0,0,0,208.6,96.608Z" fill="#1c2e4a"></path><path d="M192.4,72.508a2.078,2.078,0,0,0,1.8,2.2h.5a4.869,4.869,0,0,0,1.2-.1,6.008,6.008,0,0,0,2.8-1.3,5.663,5.663,0,0,0,1.9-2.4,2.279,2.279,0,0,0,.3-1.1c0-.2.1-.3.1-.5a2.694,2.694,0,0,0-2.2-2.7h-.5c-.4,0-.8.1-1.2.1a5.853,5.853,0,0,0-2.7,1.4,5.63,5.63,0,0,0-1.7,2.6l-.3,1.2v.6Z" fill="#1c2e4a"></path><path d="M183.7,63.908h.5a6.439,6.439,0,0,0,3.7-2,5.407,5.407,0,0,0,1.4-2.7,4.869,4.869,0,0,0,.1-1.2v-.5a2.539,2.539,0,0,0-2.7-2.2.9.9,0,0,0-.5.1,5.9,5.9,0,0,0-3.5,2.2,7.19,7.19,0,0,0-1.3,2.8,4.869,4.869,0,0,0-.1,1.2v.5h0a2.353,2.353,0,0,0,2.4,1.8Z" fill="#1c2e4a"></path><path d="M155.3,47.208c0,.1.1.2.1.3l.1.1h0a2.054,2.054,0,0,0,2.6,1h0l.1-.1c.1-.1.2-.1.3-.2a3.592,3.592,0,0,0,1-.7,6.422,6.422,0,0,0,1.8-2.5,5.136,5.136,0,0,0,.4-3,2.016,2.016,0,0,0-.3-1.1c-.1-.2-.1-.3-.2-.5a2.581,2.581,0,0,0-3.3-1.2c-.2.1-.3.1-.4.2a5.5,5.5,0,0,0-.9.7,6.332,6.332,0,0,0-1.6,2.6,6.54,6.54,0,0,0-.2,3.1C155,46.408,155.1,46.808,155.3,47.208Z" fill="#1c2e4a"></path><path d="M140.7,43.608c.1.1.2.2.2.3l.1.1h0a2.05,2.05,0,0,0,2.8.5l.1-.1c.1,0,.2-.1.3-.2a6.034,6.034,0,0,0,.8-.8,7.388,7.388,0,0,0,1.4-2.8,6.062,6.062,0,0,0-.1-3c-.1-.4-.3-.7-.4-1.1-.1-.1-.2-.3-.3-.4a2.52,2.52,0,0,0-3.4-.6c-.1.1-.3.2-.4.3a6.034,6.034,0,0,0-.8.8,5.7,5.7,0,0,0-1.1,2.8,8.2,8.2,0,0,0,.3,3.1A2.7,2.7,0,0,0,140.7,43.608Z" fill="#1c2e4a"></path><path d="M79.3,51.008a29.912,29.912,0,0,0,2.9,6.3,32.022,32.022,0,0,0,4.2,5.5,12.878,12.878,0,0,0,1.7,1.6c.2.2.5.4.7.6a1.538,1.538,0,0,0,2.2-.5,1.689,1.689,0,0,0,.3-1,6.173,6.173,0,0,0-.1-.9,15.536,15.536,0,0,0-.5-2.3,36.122,36.122,0,0,0-2.7-6.4,27.269,27.269,0,0,0-4-5.6c-.5-.6-1.1-1.1-1.7-1.7-.2-.2-.5-.4-.7-.6a1.93,1.93,0,0,0-2.7.5,1.8,1.8,0,0,0-.3,1.2,6.173,6.173,0,0,0,.1.9Q79,49.958,79.3,51.008Z" fill="#1c2e4a"></path><path d="M45.2,83.808c.5.6,1.1,1.1,1.7,1.7a31.676,31.676,0,0,0,5.6,4,36.122,36.122,0,0,0,6.4,2.7,18.915,18.915,0,0,0,2.3.5,6.173,6.173,0,0,0,.9.1,1.929,1.929,0,0,0,1-.3,1.6,1.6,0,0,0,.4-2.2h0a4.349,4.349,0,0,0-.6-.7,12.878,12.878,0,0,0-1.6-1.7,32.022,32.022,0,0,0-5.5-4.2,29.912,29.912,0,0,0-6.3-2.9c-.7-.2-1.5-.4-2.3-.6a2.769,2.769,0,0,0-.9-.1,1.925,1.925,0,0,0-2.1,1.8,2.375,2.375,0,0,0,.3,1.2A4.514,4.514,0,0,1,45.2,83.808Z" fill="#1c2e4a"></path><path d="M36,131.608a26.862,26.862,0,0,0,6.9.6,32.474,32.474,0,0,0,6.9-.8,20.156,20.156,0,0,0,2.3-.7c.5-.2.8-.3.8-.3a1.575,1.575,0,0,0,.7-.7,1.528,1.528,0,0,0-.7-2.1s-.3-.1-.8-.3a15.457,15.457,0,0,0-2.3-.7,32.474,32.474,0,0,0-6.9-.8,26.862,26.862,0,0,0-6.9.6c-.8.2-1.5.4-2.3.6a6.89,6.89,0,0,0-.8.3,1.892,1.892,0,0,0-.9,2.6,1.962,1.962,0,0,0,.9.9c.3.1.5.2.8.3A18.915,18.915,0,0,0,36,131.608Z" fill="#1c2e4a"></path><path d="M62.2,164.908a6.173,6.173,0,0,0-.9.1,18.915,18.915,0,0,0-2.3.5,36.122,36.122,0,0,0-6.4,2.7,27.269,27.269,0,0,0-5.6,4c-.6.5-1.1,1.1-1.7,1.7-.2.2-.4.5-.6.7a1.383,1.383,0,0,0-.3,1.2,1.925,1.925,0,0,0,2.1,1.8h0a6.173,6.173,0,0,0,.9-.1,9.766,9.766,0,0,0,2.3-.6,29.912,29.912,0,0,0,6.3-2.9,32.022,32.022,0,0,0,5.5-4.2,12.878,12.878,0,0,0,1.6-1.7c.2-.2.4-.5.6-.7a1.538,1.538,0,0,0-.5-2.2,2.236,2.236,0,0,0-1-.3Z" fill="#1c2e4a"></path><path d="M89,192.708a4.349,4.349,0,0,0-.7.6,12.878,12.878,0,0,0-1.7,1.6,32.022,32.022,0,0,0-4.2,5.5,29.912,29.912,0,0,0-2.9,6.3c-.2.7-.4,1.5-.6,2.3a2.769,2.769,0,0,0-.1.9,2.375,2.375,0,0,0,.3,1.2,1.93,1.93,0,0,0,2.7.5h0a4.349,4.349,0,0,0,.7-.6c.6-.5,1.1-1.1,1.7-1.7a31.676,31.676,0,0,0,4-5.6,36.122,36.122,0,0,0,2.7-6.4,18.915,18.915,0,0,0,.5-2.3,2.769,2.769,0,0,0,.1-.9,1.929,1.929,0,0,0-.3-1A1.7,1.7,0,0,0,89,192.708Z" fill="#1c2e4a"></path><path d="M130,206.508a20.156,20.156,0,0,0-.7-2.3,4.768,4.768,0,0,0-.4-.8,1.575,1.575,0,0,0-.7-.7,1.528,1.528,0,0,0-2.1.7,4.768,4.768,0,0,0-.4.8,15.457,15.457,0,0,0-.7,2.3,32.474,32.474,0,0,0-.8,6.9,26.862,26.862,0,0,0,.6,6.9c.2.8.4,1.5.6,2.3a6.89,6.89,0,0,0,.3.8,1.962,1.962,0,0,0,.9.9,1.892,1.892,0,0,0,2.6-.9h0c.1-.3.2-.5.3-.8a8.648,8.648,0,0,0,.6-2.3,36.951,36.951,0,0,0-.1-13.8Z" fill="#1c2e4a"></path><path d="M175.6,206.708a27.032,27.032,0,0,0-2.9-6.2,32.022,32.022,0,0,0-4.2-5.5,12.878,12.878,0,0,0-1.7-1.6c-.2-.2-.5-.4-.7-.6a1.689,1.689,0,0,0-1-.3,1.649,1.649,0,0,0-1.5,1.7c0,.3.1.6.1.9a18.915,18.915,0,0,0,.5,2.3,36.122,36.122,0,0,0,2.7,6.4,27.269,27.269,0,0,0,4,5.6c.5.6,1.1,1.1,1.7,1.7.2.2.5.4.7.6a1.383,1.383,0,0,0,1.2.3,1.925,1.925,0,0,0,1.8-2.1h0c0-.3-.1-.6-.1-.9C176,208.208,175.8,207.408,175.6,206.708Z" fill="#1c2e4a"></path><path d="M209.7,173.908c-.5-.6-1.1-1.1-1.7-1.7a31.676,31.676,0,0,0-5.6-4,36.122,36.122,0,0,0-6.4-2.7,18.915,18.915,0,0,0-2.3-.5,2.769,2.769,0,0,0-.9-.1,1.929,1.929,0,0,0-1,.3,1.6,1.6,0,0,0-.4,2.2,4.349,4.349,0,0,0,.6.7,12.878,12.878,0,0,0,1.6,1.7,32.022,32.022,0,0,0,5.5,4.2,29.912,29.912,0,0,0,6.3,2.9c.7.2,1.5.4,2.3.6a2.769,2.769,0,0,0,.9.1,2.375,2.375,0,0,0,1.2-.3,1.93,1.93,0,0,0,.5-2.7h0A4.349,4.349,0,0,0,209.7,173.908Z" fill="#1c2e4a"></path><path d="M222,127.008c-.3-.1-.5-.2-.8-.3a8.648,8.648,0,0,0-2.3-.6,26.862,26.862,0,0,0-6.9-.6,32.474,32.474,0,0,0-6.9.8,20.156,20.156,0,0,0-2.3.7,2.01,2.01,0,0,0-.8.4,1.208,1.208,0,0,0-.7.7,1.528,1.528,0,0,0,.7,2.1,4.559,4.559,0,0,1,.8.4,15.457,15.457,0,0,0,2.3.7,32.474,32.474,0,0,0,6.9.8,26.862,26.862,0,0,0,6.9-.6c.8-.2,1.5-.4,2.3-.6a6.89,6.89,0,0,0,.8-.3,1.892,1.892,0,0,0,.9-2.6,1.5,1.5,0,0,0-.9-1Z" fill="#1c2e4a"></path><path d="M192.7,92.708c.3,0,.6-.1.9-.1a15.536,15.536,0,0,0,2.3-.5,36.122,36.122,0,0,0,6.4-2.7,27.269,27.269,0,0,0,5.6-4c.6-.5,1.1-1.1,1.7-1.7.2-.2.4-.5.6-.7a1.93,1.93,0,0,0-.5-2.7,1.517,1.517,0,0,0-1.3-.3c-.3,0-.6.1-.9.1a9.766,9.766,0,0,0-2.3.6,29.912,29.912,0,0,0-6.3,2.9,32.022,32.022,0,0,0-5.5,4.2,12.878,12.878,0,0,0-1.6,1.7,5.168,5.168,0,0,0-.6.7,1.689,1.689,0,0,0-.3,1A1.8,1.8,0,0,0,192.7,92.708Z" fill="#1c2e4a"></path><path d="M165.9,64.908a4.349,4.349,0,0,0,.7-.6,12.878,12.878,0,0,0,1.7-1.6,32.022,32.022,0,0,0,4.2-5.5,29.912,29.912,0,0,0,2.9-6.3c.2-.7.4-1.5.6-2.3a2.769,2.769,0,0,0,.1-.9,1.925,1.925,0,0,0-1.8-2.1,2.375,2.375,0,0,0-1.2.3,4.349,4.349,0,0,0-.7.6c-.6.5-1.1,1.1-1.7,1.7a31.676,31.676,0,0,0-4,5.6,36.122,36.122,0,0,0-2.7,6.4,18.915,18.915,0,0,0-.5,2.3,6.173,6.173,0,0,0-.1.9,1.929,1.929,0,0,0,.3,1A1.554,1.554,0,0,0,165.9,64.908Z" fill="#1c2e4a"></path><path d="M127.8,126.508l.6-.1a16.449,16.449,0,0,1,1.8-.3c1.6-.3,3.8-.6,6.5-.9s5.8-.5,9.2-.7c1.7-.1,3.4-.1,5.2-.2h5.4c1.8,0,3.6.1,5.4.1,1.8.1,3.5.2,5.2.3,3.4.2,6.5.6,9.2.9a50.642,50.642,0,0,1,6.5,1.1,12.749,12.749,0,0,1,1.8.4l.6.2a2.1,2.1,0,0,1,1.6,2.6,2.028,2.028,0,0,1-1.6,1.6l-.6.1c-.4.1-1,.2-1.8.4-1.6.3-3.8.7-6.5,1s-5.8.6-9.2.8c-1.7.1-3.4.2-5.2.3s-3.6.1-5.4.1h-5.4c-1.8,0-3.5-.1-5.2-.2-3.4-.2-6.5-.4-9.2-.7s-4.9-.7-6.5-1a12.749,12.749,0,0,1-1.8-.4l-.6-.1a2.724,2.724,0,0,1-2-3.2,2.694,2.694,0,0,1,2-2.1Z" fill="#e3ce63"></path><path d="M130.1,127.808c4.2,5.4,8.2,11,11.9,16.7s7.2,11.6,10.5,17.5,6.5,11.9,9.6,18.1a198.284,198.284,0,0,1,8.3,18.8,2.271,2.271,0,0,1-1.3,2.8,2.151,2.151,0,0,1-2.4-.6c-4.4-5.4-8.3-11-12.1-16.7s-7.4-11.5-10.8-17.4c-3.5-5.9-6.7-11.9-9.8-17.9a184.864,184.864,0,0,1-8.5-18.7,2.633,2.633,0,0,1,1.6-3.4,2.48,2.48,0,0,1,3,.8Z" fill="#d987d9"></path><path d="M141.3,129.108a13.5,13.5,0,1,1-13.5-13.5h0a13.507,13.507,0,0,1,13.5,13.5Z" fill="#1c2e4a"></path></g></g>
            </g>
        </g>
    </g>
    
</svg>