<?xml version="1.0" encoding="iso-8859-1" ?>
<svg version="1.1" xmlns="http://www.w3.org/2000/svg" xmlns:xlink="http://www.w3.org/1999/xlink" 
    viewBox="0 0 1200 800" width="1200" height="800">
    
    
    <!-- ITEM 0 -->
    <g>
        <defs>
            <clipPath id="clip-path-id-viewbox-item-0">
                <rect x="0.0" y="0.0" width="133.787" height="189.813"/>
            </clipPath>
        </defs>
        <g transform="translate(533.0 305.0) rotate(0.0 66.5 94.5) scale(0.9941175151546862 0.9957168370975645)">
            <g clip-path="url(#clip-path-id-viewbox-item-0)" transform="translate(-0.0 -0.0)">
                <title>plant</title><g id="Layer_2-i0" data-name="Layer 2"><g id="plant-i0"><g id="_Groupe_-i0" data-name=" Groupe "><path d="M98.1,136.1a35.763,35.763,0,0,1,.178,3.681c0,21.406-17.35,50.033-38.753,50.033s-38.76-28.627-38.76-50.033a38,38,0,0,1,.193-3.8c8.322,3.256,22.552,5.409,38.72,5.409C75.653,141.388,89.733,139.3,98.1,136.1Z" fill="#deab9e"></path><path d="M96.113,127.6a31.962,31.962,0,0,1,2,8.5c-8.366,3.19-22.45,5.289-38.422,5.289-16.168,0-30.4-2.153-38.72-5.409a31.756,31.756,0,0,1,2.023-8.475c8.558,2.819,21.824,4.634,36.7,4.634C74.413,132.138,87.54,130.367,96.113,127.6Z" fill="#1c2e4a"></path><path d="M81.036,111.459A30.484,30.484,0,0,1,96.106,127.6c-8.566,2.769-21.693,4.54-36.425,4.54-14.884,0-28.139-1.819-36.7-4.634a30.443,30.443,0,0,1,15.03-16.045,6.891,6.891,0,0,1-.968-3.19c0-5.165,10.062-7.977,22.483-7.977s22.483,2.812,22.483,7.977A6.857,6.857,0,0,1,81.036,111.459Z" fill="#deab9e"></path></g><path d="M132.382,74.7a9.23,9.23,0,0,0-9.992-3.983c-.818.211-1.557.662-2.379.818a12.806,12.806,0,0,1-3.19.087c-2.033-.134-4.052-.429-6.082-.567a24.222,24.222,0,0,0-9.075.749,17.64,17.64,0,0,0-2.473,1.019c.061-.193.127-.386.2-.571a5.818,5.818,0,0,1,3.128-3.219c1.728-.764,3.637-.852,5.456-1.343a17.735,17.735,0,0,0,7.657-3.87,10.591,10.591,0,0,0,2.713-4.219l-4.83-1.615,5.4-1.091a10.5,10.5,0,0,0-.156-2.859,10.668,10.668,0,0,0-2.3-4.8A10.873,10.873,0,0,0,106,45.688a18.671,18.671,0,0,0-4.263,1.637,42.758,42.758,0,0,1-5.372,2.182c-.859.255-1.7.535-2.525.847L95,55.192l-4.489-3.273c-.16.09-.32.178-.48.276a15.909,15.909,0,0,0-6.969,8.952,24.838,24.838,0,0,0-.761,3.332,55.109,55.109,0,0,1-.7,5.768,8.555,8.555,0,0,1-1.2,2.692,4.342,4.342,0,0,1-1.8,1.422c-1.091.535-2.182,1.062-3.223,1.655A16.492,16.492,0,0,0,68.214,83.1a13.663,13.663,0,0,0-.589,1.455c-.236-.593-.465-1.193-.673-1.8a5.951,5.951,0,0,1,.855-4.783c.364-.462.749-.924,1.131-1.378.95-1.139,1.888-2.285,2.765-3.481a19.673,19.673,0,0,0,4.212-11.92,28.834,28.834,0,0,0-1.335-7.639c-.247-.84-.52-1.676-.786-2.509-.433-1.51.2-3.976,2.215-6.075.5-.491.99-.986,1.455-1.495a23.74,23.74,0,0,0,6.184-10.643,22.645,22.645,0,0,0,.484-3.063c0-.094.022-.185.032-.291.091-1.04.2-2.422.288-4L79.814,23.8l4.751-1.55c0-1.153,0-2.353-.033-3.568l-7.988-1.19,7.566-3.782c-.509-3.7-1.535-7.061-3.452-9.01l-.022-.018c-.251-.3-.509-.6-.789-.881A13.1,13.1,0,0,0,67.629.347a12.9,12.9,0,0,0-9.283,8.545,22.672,22.672,0,0,0-.32,11.276c.327,1.553.789,3.073,1.259,4.586h0a8.629,8.629,0,0,1-1.263,7.024.113.113,0,0,0,0,.026c-.171.225-.345.447-.512.676a33.051,33.051,0,0,0-3.743,6.184c2.1,1.488,4.692,3.292,4.692,3.292L52.8,41.337c-.058.2-.112.4-.163.611a19.749,19.749,0,0,0,.338,10.185,32.79,32.79,0,0,0,2.041,5.18l.458.964c1.113,2.364,1.684,4.656.316,7.064-.629,1.033-1.28,2.058-1.9,3.1l-.364.593A19.811,19.811,0,0,0,51.857,67.1c-.6-.618-1.244-1.2-1.9-1.764a8.939,8.939,0,0,1-1.95-1.957c-.851-1.422-.251-3.146.131-4.626a20.133,20.133,0,0,0-.24-12.044c-1.491-4-4.234-7.442-6.984-10.654-1.4-1.626-2.852-3.208-4.4-4.692a20.043,20.043,0,0,0-3.576-2.91,14.06,14.06,0,0,0-21.21,9.475C10.489,44.8,14.737,50.9,20.062,54.748a8.021,8.021,0,0,1,2.616,2.183c.814,1.422.647,3.146.542,4.769l6.3.247-5.06,3.237,3.434.557L24,68.9a18.141,18.141,0,0,0,.618,1.739,17.1,17.1,0,0,0,4.307,5.976,21.247,21.247,0,0,0,1.782,1.455c-.411.044-.818.105-1.229.178-.775.146-1.543.331-2.3.535a3.114,3.114,0,0,1-.629.171,1.666,1.666,0,0,1-.637-.226C25.4,78.493,24.9,78.257,24.4,78a10.745,10.745,0,0,1-2.066-1.241c-.655-.542-1.211-1.2-1.873-1.738a16.293,16.293,0,0,0-8.282-3.78A10.592,10.592,0,0,0,1.286,86.772l4.907-2.331L3.581,89.7c.084.072.16.145.244.214a10.816,10.816,0,0,0,3.812,2.037A10.71,10.71,0,0,1,11.424,94.1a21.918,21.918,0,0,0,4.364,2.99,14.774,14.774,0,0,0,10.425.913,22.994,22.994,0,0,0,2.612-.873c.527-.211,1.331-.728,1.88-.321.364.259.452.859.593,1.252.117.327.244.651.364.971.04.1.087.2.131.3l3.87-1.211-2.619,3.561a12.182,12.182,0,0,0,3.416,3.419,17.994,17.994,0,0,0,5.019,2.233c.728.211,1.455.4,2.183.578,0,0,.2-.1.284.073,0,0-.131.429.953.975,2.309,1.535,8.06,2.626,14.793,2.626,6.791,0,12.585-1.109,14.855-2.666.255-.222.5-.451.746-.687a1.32,1.32,0,0,0,.28-.772l.029.459a16.411,16.411,0,0,0,2.812-3.91c.054-.113.105-.23.156-.342,1.306-.179,2.619-.3,3.918-.484a33.455,33.455,0,0,0,7.66-1.87c3.783-1.477,6.693-4.216,9.239-7.307a60.355,60.355,0,0,1,4.47-5.267c.568-.546,1.4-1.357,2.183-1.353a14.9,14.9,0,0,1,2.044.2c4.19.622,8.242,1.819,12.52,1.75a30.75,30.75,0,0,0,5.787-.768,9.152,9.152,0,0,0,5.98-13.869Z" fill="#55d4ab"></path><path d="M75.791,108.015a2.489,2.489,0,0,1-.662,1.014,5.119,5.119,0,0,1-.891.7,11.014,11.014,0,0,1-1.95.964,18.929,18.929,0,0,1-2.026.673q-1.026.291-2.062.5a39.431,39.431,0,0,1-4.176.6c-.7.069-1.4.117-2.1.16s-1.4.051-2.1.062a42,42,0,0,1-8.388-.727,24.8,24.8,0,0,1-4.1-1.161,12.488,12.488,0,0,1-1.949-.949,4.192,4.192,0,0,1-1.608-1.582.269.269,0,0,1,.436-.306v.022a4.177,4.177,0,0,0,1.619.924,14.3,14.3,0,0,0,1.9.538,38.078,38.078,0,0,0,3.972.619,80.091,80.091,0,0,0,8.09.436q2.029,0,4.059-.08c1.35-.076,2.7-.171,4.038-.331a32.712,32.712,0,0,0,3.957-.691,12.244,12.244,0,0,0,1.87-.6,3.1,3.1,0,0,0,1.433-1.033l.018-.029a.331.331,0,0,1,.6.273Z" fill="#1c2e4a"></path><path d="M79.7,113.5a3.126,3.126,0,0,1-.778,1.244,6.16,6.16,0,0,1-1.091.88,13.215,13.215,0,0,1-2.408,1.234,23.667,23.667,0,0,1-2.525.858c-.851.244-1.709.458-2.575.629a46.924,46.924,0,0,1-5.223.768c-.873.087-1.75.145-2.626.2s-1.754.058-2.63.065a51.415,51.415,0,0,1-10.5-.9,30.631,30.631,0,0,1-5.092-1.455,14.881,14.881,0,0,1-2.415-1.2,8.209,8.209,0,0,1-1.092-.837,3.713,3.713,0,0,1-.858-1.131.269.269,0,0,1,.455-.284h0a5.033,5.033,0,0,0,1.982,1.313,16.18,16.18,0,0,0,2.372.782,40.553,40.553,0,0,0,4.976.917,86.247,86.247,0,0,0,10.184.64c.851,0,1.706,0,2.546-.036s1.7-.051,2.547-.106c1.7-.109,3.393-.254,5.074-.487a36.914,36.914,0,0,0,4.961-1,14.536,14.536,0,0,0,2.328-.866,3.81,3.81,0,0,0,1.764-1.455v-.018a.331.331,0,0,1,.611.248Z" fill="#1c2e4a"></path><path d="M51.417,106.4c-.058-.287-.131-.571-.215-.851a5.493,5.493,0,0,0-.3-.855c-.069-.149-.134-.3-.211-.451l-.269-.4-.138-.185-.156-.178-.317-.364c-.225-.215-.455-.422-.687-.619a8.2,8.2,0,0,0-.728-.534c-.964-.68-1.964-1.212-2.91-1.761a27.879,27.879,0,0,1-2.7-1.688,10,10,0,0,1-1.12-.956,4.09,4.09,0,0,1-.458-.509l-.189-.251-.175-.291a11.587,11.587,0,0,1-.666-1.379,14.149,14.149,0,0,0,.277-1.542,22.115,22.115,0,0,0,.138-2.546c0-.852-.018-1.71-.076-2.568a20.663,20.663,0,0,0-.324-2.59.175.175,0,0,0-.109-.131.183.183,0,0,0-.237.1h0a21.473,21.473,0,0,0-.771,2.491c-.211.837-.385,1.673-.531,2.514h0c-.054-.124-.1-.244-.16-.364A10.165,10.165,0,0,0,36.2,87.321a10.29,10.29,0,0,0-.819-.654l-.454-.277a2.791,2.791,0,0,0-.488-.254c-.178-.077-.364-.146-.538-.215a4.118,4.118,0,0,0-.535-.138,5.762,5.762,0,0,0-1.055-.146,13.925,13.925,0,0,0-3.67.415c-1.117.251-2.182.52-3.2.727a12.857,12.857,0,0,1-2.695.3,12.6,12.6,0,0,0-.364-1.321,19.625,19.625,0,0,0-.949-2.182q-.528-1.092-1.153-2.117A18.526,18.526,0,0,0,18.9,79.436a.192.192,0,0,0-.156-.07.183.183,0,0,0-.168.193,18.2,18.2,0,0,0,.364,2.426c.164.79.364,1.568.586,2.336a19.634,19.634,0,0,0,.727,2.138l-.364-.189c-.891-.5-1.8-1.124-2.738-1.735a20.382,20.382,0,0,0-3.03-1.677,7.158,7.158,0,0,0-3.489-.625.364.364,0,0,0,0,.727h0A7.029,7.029,0,0,1,13.493,84.1a22,22,0,0,1,2.546,1.953A32.071,32.071,0,0,0,18.7,88.194c.247.168.495.342.775.495.138.076.269.157.411.233l.454.2a6.47,6.47,0,0,0,.975.331c.328.08.641.123.964.174a13.353,13.353,0,0,0,3.659-.138c1.157-.171,2.256-.433,3.311-.633l.662-.124c-.648.615-1.255,1.27-1.848,1.935Q27.054,91.8,26.119,93a29.543,29.543,0,0,0-1.775,2.5.178.178,0,0,0,.243.248,27.785,27.785,0,0,0,2.547-1.714c.811-.607,1.6-1.236,2.367-1.891A28.6,28.6,0,0,0,31.72,90.1a18.573,18.573,0,0,0,1.259-1.43h.062a1.793,1.793,0,0,0,.232.095,1,1,0,0,1,.248.131l.258.156c.171.106.317.258.484.364a7.432,7.432,0,0,1,1.582,2.273c.455.906.84,1.914,1.259,2.954a18.186,18.186,0,0,0,1.578,3.219c.091.135.179.269.277.4l.331.4a7.781,7.781,0,0,0,.7.688,11.653,11.653,0,0,0,1.484,1.091l.156.091c-.3.073-.593.149-.888.233-.658.185-1.313.4-1.964.651a14.347,14.347,0,0,0-1.92.9.176.176,0,0,0-.091.124.185.185,0,0,0,.149.214,14.122,14.122,0,0,0,2.113.189c.7,0,1.386,0,2.074-.058a14.076,14.076,0,0,0,2.033-.269,8.626,8.626,0,0,0,1.455-.451c1,.455,1.975.887,2.877,1.371a5.57,5.57,0,0,1,2.182,1.841,4.313,4.313,0,0,1,.364.676c.106.24.208.484.3.728a7.794,7.794,0,0,1,.407,1.5h0a.444.444,0,0,0,.881-.058A7.745,7.745,0,0,0,51.417,106.4Z" fill="#1c2e4a"></path><path d="M81.783,98.244a.444.444,0,0,0,.88.058h0a7.859,7.859,0,0,1,.408-1.5c.094-.243.2-.487.3-.727a4.363,4.363,0,0,1,.363-.677,5.578,5.578,0,0,1,2.183-1.84c.9-.484,1.877-.917,2.877-1.372a8.626,8.626,0,0,0,1.455.451,14.2,14.2,0,0,0,2.033.27c.688.058,1.375.058,2.074.058a14.122,14.122,0,0,0,2.113-.189.186.186,0,0,0,.149-.215.178.178,0,0,0-.091-.124,14.472,14.472,0,0,0-1.92-.9c-.651-.251-1.306-.465-1.965-.651-.294-.083-.589-.16-.887-.233l.156-.09A11.757,11.757,0,0,0,93.4,89.47a7.77,7.77,0,0,0,.695-.687l.331-.4c.1-.134.186-.269.277-.4a18.265,18.265,0,0,0,1.578-3.22c.419-1.04.8-2.047,1.259-2.953a7.42,7.42,0,0,1,1.582-2.273c.167-.106.313-.259.484-.364l.258-.157a1.082,1.082,0,0,1,.247-.131,1.745,1.745,0,0,0,.233-.094h.062a18.748,18.748,0,0,0,1.259,1.429,28.986,28.986,0,0,0,2.218,2.045c.764.654,1.557,1.284,2.368,1.891a27.979,27.979,0,0,0,2.547,1.713.178.178,0,0,0,.243-.247,29.558,29.558,0,0,0-1.775-2.5q-.935-1.2-1.946-2.324c-.593-.666-1.2-1.32-1.848-1.935l.662.124a34.5,34.5,0,0,1,5.935,1.842c2.257,1.288,6.053,3.375,7.273,3.253.324-.051.636-.095.964-.175a6.361,6.361,0,0,0,.975-.331l.454-.2c.142-.077.273-.157.411-.233.28-.153.528-.327.775-.5a32.277,32.277,0,0,0,2.663-2.146,22,22,0,0,1,2.546-1.953,7.015,7.015,0,0,1,2.859-1.135h0a.364.364,0,1,0,0-.728,7.152,7.152,0,0,0-3.488.626,20.333,20.333,0,0,0-3.03,1.677c-.943.611-1.848,1.237-2.739,1.735l-.364.189a19.578,19.578,0,0,0,.727-2.139c.222-.767.422-1.546.586-2.335a18.2,18.2,0,0,0,.364-2.426.183.183,0,0,0-.168-.193.194.194,0,0,0-.156.069,18.538,18.538,0,0,0-1.379,2.023q-.626,1.026-1.153,2.117a19.625,19.625,0,0,0-.949,2.182,12.528,12.528,0,0,0-.364,1.321c-.906,0-3.646-1.935-6.308-3.413a41.15,41.15,0,0,0-5.826-1.937,13.884,13.884,0,0,0-3.67-.415,5.849,5.849,0,0,0-1.055.145,4.122,4.122,0,0,0-.535.139c-.174.069-.36.138-.538.214a2.8,2.8,0,0,0-.488.255L98,76.79a10.3,10.3,0,0,0-.819.655A10.154,10.154,0,0,0,95,80.61c-.058.12-.106.24-.16.363h0c-.146-.84-.32-1.677-.531-2.513a21.429,21.429,0,0,0-.771-2.492h0a.184.184,0,0,0-.237-.1A.177.177,0,0,0,93.19,76a20.524,20.524,0,0,0-.324,2.59c-.058.859-.076,1.717-.076,2.568a22.09,22.09,0,0,0,.138,2.546,14.167,14.167,0,0,0,.277,1.543,11.729,11.729,0,0,1-.666,1.378l-.175.291-.189.251a4.1,4.1,0,0,1-.458.509,10.1,10.1,0,0,1-1.12.957,28.075,28.075,0,0,1-2.7,1.688c-.946.549-1.946,1.08-2.91,1.76a8.208,8.208,0,0,0-.728.535c-.233.2-.462.4-.687.618l-.317.364-.156.178-.138.186-.269.4c-.077.149-.142.3-.211.451a5.519,5.519,0,0,0-.3.854c-.084.281-.157.564-.215.852A7.745,7.745,0,0,0,81.783,98.244Z" fill="#1c2e4a"></path><path d="M58.859,105.6a13.282,13.282,0,0,0-.626-2.546c-.138-.411-.294-.811-.458-1.208a7.486,7.486,0,0,0-.68-1.218,12.014,12.014,0,0,0-1.753-2.008c-1.252-1.2-2.583-2.2-3.783-3.274l-.364-.324A12.89,12.89,0,0,0,52,93.571a20.665,20.665,0,0,0,.9-2.3c.269-.782.5-1.579.7-2.39a19.473,19.473,0,0,0,.48-2.488.172.172,0,0,0-.061-.156.18.18,0,0,0-.253,0l0,0a19.717,19.717,0,0,0-1.491,2.051c-.448.7-.873,1.419-1.263,2.146a21.751,21.751,0,0,0-1.065,2.234c-.1.258-.19.516-.277.782a12.013,12.013,0,0,1-1.146-1.579c-.094-.153-.16-.32-.243-.48a3.246,3.246,0,0,1-.219-.48l-.167-.477-.116-.516a11.269,11.269,0,0,1-.193-2.23c0-1.553.153-3.2.218-4.914a23.092,23.092,0,0,0-.029-2.644,12.506,12.506,0,0,0-.491-2.761,9.754,9.754,0,0,0-1.324-2.612A16.63,16.63,0,0,0,44.149,72.7c-.687-.666-1.389-1.27-2.077-1.855.219-.619.393-1.248.55-1.881.24-.993.4-2.008.549-3.023s.254-2.04.335-3.073A28.771,28.771,0,0,0,43.6,59.75a.172.172,0,0,0-.1-.153.18.18,0,0,0-.239.081v0a29.539,29.539,0,0,0-1.171,2.892c-.342.974-.655,1.956-.932,2.946a30.354,30.354,0,0,0-.727,2.99c-.047.269-.091.538-.131.811a18.526,18.526,0,0,1-1.59-1.568c-.265-.273-.462-.567-.687-.847l-.28-.44c-.047-.073-.1-.142-.138-.219l-.113-.222a9.039,9.039,0,0,1-.779-4.186c-.01-1.553.193-3.2.284-4.911a21.334,21.334,0,0,0-.018-2.64,10.157,10.157,0,0,0-.557-2.747,4.24,4.24,0,0,0-.272-.658c-.1-.211-.193-.433-.31-.633a11.723,11.723,0,0,0-.749-1.149,13.768,13.768,0,0,0-1.036-1.263,6.682,6.682,0,0,0,.363-1.273,10.7,10.7,0,0,0,.138-1.778,16.723,16.723,0,0,0-.072-1.819,11.5,11.5,0,0,0-.324-1.841.183.183,0,0,0-.084-.112.188.188,0,0,0-.258.069,11.016,11.016,0,0,0-.775,1.7,16.427,16.427,0,0,0-.523,1.732,11.576,11.576,0,0,0-.288,1.5c-.869-.785-1.749-1.52-2.575-2.291A19.48,19.48,0,0,1,27.963,42a8.561,8.561,0,0,1-1.255-1.982h0a.364.364,0,0,0-.677.229,8.479,8.479,0,0,0,1.063,2.408,20.356,20.356,0,0,0,1.567,2.051c1.128,1.273,2.288,2.455,3.332,3.678a10.893,10.893,0,0,1,2.3,3.873,10.154,10.154,0,0,1,.255,3.5q-.469-.251-.95-.48a25.294,25.294,0,0,0-2.579-1.018q-1.312-.454-2.666-.819a24.36,24.36,0,0,0-2.764-.593.183.183,0,0,0-.164.066.178.178,0,0,0,.024.251l0,0a24.5,24.5,0,0,0,2.328,1.6q1.19.727,2.423,1.378a25.879,25.879,0,0,0,2.513,1.179c.535.207,1.091.4,1.637.553-.135,1.251-.3,2.546-.364,3.892,0,.447-.033.887,0,1.349a4.35,4.35,0,0,0,.036.684l.084.7a9.048,9.048,0,0,0,.837,2.8l.163.338c.059.109.124.207.186.309.131.208.258.415.389.615.287.364.56.767.873,1.091a20.851,20.851,0,0,0,1.888,1.884c1.288,1.139,2.6,2.15,3.725,3.227a13.8,13.8,0,0,1,1.5,1.658,6.935,6.935,0,0,1,.935,1.819,9.8,9.8,0,0,1,.414,2.026c-.258-.094-.516-.189-.778-.276a23.6,23.6,0,0,0-2.575-.662c-.87-.182-1.75-.331-2.637-.455a22.929,22.929,0,0,0-2.707-.215.185.185,0,0,0-.156.084.182.182,0,0,0,.058.247,21.806,21.806,0,0,0,2.4,1.273q1.222.569,2.466,1.041a24.4,24.4,0,0,0,2.528.829c.495.124.99.229,1.495.309v.262c0,1.612-.16,3.274-.08,5.049a13.243,13.243,0,0,0,.364,2.717l.189.691.273.688a4.936,4.936,0,0,0,.32.643,6.048,6.048,0,0,0,.364.612,16.008,16.008,0,0,0,3.692,3.852c1.338,1.062,2.713,2,3.946,3a10.54,10.54,0,0,1,1.652,1.619,6.121,6.121,0,0,1,.611.909c.185.364.364.728.527,1.091a10.3,10.3,0,0,1,1.037,4.576.444.444,0,0,0,.88.077A9.6,9.6,0,0,0,58.859,105.6Z" fill="#1c2e4a"></path><path d="M78.908,33.2c-1.214.342-2.386.768-3.546,1.212s-2.3.927-3.43,1.429c-.837.364-1.666.757-2.481,1.168.131-.2.258-.4.386-.6a18.781,18.781,0,0,0,2.513-5.627,14.772,14.772,0,0,0,.306-3.1,27.112,27.112,0,0,0-.182-3c-.215-1.964-.611-3.859-.826-5.74a21.56,21.56,0,0,1-.2-2.8A11.231,11.231,0,0,1,71.79,13.4h0a.36.36,0,0,0-.68-.229,11.672,11.672,0,0,0-.757,2.91,22.747,22.747,0,0,0-.109,2.976c.029.985.1,1.96.164,2.91.029.4.054.8.08,1.2-.135-.145-.266-.294-.4-.436a31.885,31.885,0,0,0-2.357-2.244c-.811-.72-1.655-1.415-2.513-2.092a32.681,32.681,0,0,0-2.688-1.917.174.174,0,0,0-.186,0,.18.18,0,0,0-.055.237c.59.945,1.241,1.818,1.906,2.7s1.368,1.7,2.081,2.521,1.455,1.618,2.237,2.364c.393.364.8.728,1.219,1.091.283.24.582.466.883.684a16.915,16.915,0,0,1-.469,4.169,12.633,12.633,0,0,1-1.007,2.426,27.343,27.343,0,0,1-1.455,2.346c-1.041,1.564-2.219,3.114-3.274,4.823-.273.418-.516.873-.775,1.313a10.349,10.349,0,0,0-.68,1.408,13.336,13.336,0,0,0-.935,3.1,14.248,14.248,0,0,0-.1,3.23c.033.364.076.728.124,1.092l-.506-.492q-1-.948-2.066-1.84a24.615,24.615,0,0,0-2.251-1.673.187.187,0,0,0-.259.243,24.9,24.9,0,0,0,1.433,2.412q.768,1.157,1.615,2.244a25.262,25.262,0,0,0,1.775,2.1c.364.364.728.727,1.117,1.066.313,1.2.637,2.375.9,3.531.112.455.185.9.28,1.35a9.159,9.159,0,0,1,.182,1.328,10.734,10.734,0,0,1,0,2.546,16.38,16.38,0,0,1-1.7,5.03c-.811,1.674-1.8,3.336-2.663,5.14-.225.44-.418.917-.625,1.379l-.28.727-.139.364-.116.363a10.028,10.028,0,0,0-.291,1.015c-.153-.218-.306-.433-.466-.647-.425-.575-.873-1.131-1.353-1.67a15.634,15.634,0,0,0-1.564-1.535.2.2,0,0,0-.153-.04.186.186,0,0,0-.145.219,15.924,15.924,0,0,0,.618,2.106,20.079,20.079,0,0,0,.837,1.975,15.1,15.1,0,0,0,1.015,1.866,9.282,9.282,0,0,0,.895,1.167A19.13,19.13,0,0,0,59.012,85c.574,1.906,1.3,3.718,1.939,5.5a14.49,14.49,0,0,1,1.091,5.358,18.175,18.175,0,0,1-.9,5.518h0a.441.441,0,0,0,.815.335,17.834,17.834,0,0,0,1.473-5.762,11.056,11.056,0,0,0-.1-3.077,25.633,25.633,0,0,0-.677-2.91c-.531-1.895-1.164-3.707-1.608-5.522a16.708,16.708,0,0,1-.585-5.354,9.531,9.531,0,0,1,.585-2.5l.113-.312.131-.31.266-.622c.207-.411.389-.825.618-1.236.862-1.648,1.866-3.3,2.783-5.074.192-.364.363-.75.563-1.139a13.708,13.708,0,0,0,1.317-.727,21.769,21.769,0,0,0,2.041-1.506c.658-.535,1.3-1.092,1.917-1.684a20.465,20.465,0,0,0,1.778-1.888.185.185,0,0,0,.033-.168.178.178,0,0,0-.222-.118l-.007,0a20.574,20.574,0,0,0-2.4.978c-.771.364-1.528.761-2.262,1.183-.32.185-.64.363-.957.567.113-.44.211-.884.284-1.346a13.646,13.646,0,0,0,.04-3.219c-.033-.531-.135-1.029-.2-1.542s-.185-1-.3-1.484c-.437-1.95-.99-3.8-1.371-5.613a22.733,22.733,0,0,1-.444-2.67,11.411,11.411,0,0,1,.043-2.546,10.342,10.342,0,0,1,.728-2.44c.145-.408.364-.8.553-1.208a12.992,12.992,0,0,1,.658-1.2c.149-.255.309-.513.469-.768l.728-.28c.575-.236,1.135-.495,1.691-.764,1.113-.538,2.183-1.149,3.252-1.779s2.117-1.284,3.154-1.967,2.055-1.4,3.037-2.183a.17.17,0,0,0,.058-.185.173.173,0,0,0-.2-.147A.147.147,0,0,0,78.908,33.2Z" fill="#1c2e4a"></path><path d="M108.28,59.553a12.87,12.87,0,0,0-1.858-.789q-.931-.318-1.892-.542l-.265-.058a13.7,13.7,0,0,0,3.728-2.444.364.364,0,0,0-.455-.557h0a15.178,15.178,0,0,1-4,1.819c-1.415.465-2.91.807-4.365,1.277a18.294,18.294,0,0,0-4.437,1.9,6.289,6.289,0,0,0-.524.364,5.124,5.124,0,0,0-.513.393,8.579,8.579,0,0,0-.942.916l-.429.5-.364.528a9.659,9.659,0,0,0-.658,1.091,23.775,23.775,0,0,0-1.739,4.521c-.095.317-.182.63-.269.942-.211-.425-.44-.847-.673-1.265q-.615-1.092-1.328-2.183a20.882,20.882,0,0,0-1.553-2.073.181.181,0,0,0-.316.145,20.021,20.021,0,0,0,.553,2.528c.229.826.487,1.634.774,2.43a21.577,21.577,0,0,0,.975,2.335c.2.4.418.8.655,1.183-.026.08-.051.167-.08.247-.117.335-.248.658-.364.986a5.512,5.512,0,0,1-.433.916,6.433,6.433,0,0,1-.5.833c-.091.128-.167.266-.273.389l-.313.364a14.073,14.073,0,0,1-3.212,2.605c-1.229.782-2.546,1.509-3.9,2.324A22.65,22.65,0,0,0,76.8,82.931a6.432,6.432,0,0,0-.363-.887,12.753,12.753,0,0,0-.728-1.39,8.816,8.816,0,0,0-.953-1.32.2.2,0,0,0-.109-.059.194.194,0,0,0-.225.154v0a8.633,8.633,0,0,0-.105,1.622,12.131,12.131,0,0,0,.135,1.557,7.892,7.892,0,0,0,.338,1.495,6.012,6.012,0,0,0,.24.575,11.131,11.131,0,0,0-1.979,4.124,27.1,27.1,0,0,0-.727,4.729c-.135,1.539-.179,3.052-.386,4.474a9.854,9.854,0,0,1-.189,1.044,8.878,8.878,0,0,1-.273.989,3.964,3.964,0,0,1-.185.459c-.063.158-.133.314-.211.465-.175.32-.331.655-.524.961a15.321,15.321,0,0,1-1.2,1.8,12.051,12.051,0,0,1-1.455,1.55,13.261,13.261,0,0,1-1.775,1.265c-.636.4-1.317.786-1.957,1.266a.44.44,0,0,0,.484.728h0c.629-.364,1.317-.655,2.019-.982a13.282,13.282,0,0,0,2.08-1.179,11.96,11.96,0,0,0,1.819-1.6,17.454,17.454,0,0,0,1.531-1.848c.237-.32.433-.662.652-1a5.131,5.131,0,0,0,.305-.553,5.019,5.019,0,0,0,.28-.582,11.1,11.1,0,0,0,.415-1.19c.123-.4.207-.793.294-1.185.2-.968.335-1.914.451-2.845a5.835,5.835,0,0,0,.764-.164,8.12,8.12,0,0,0,1.455-.589,13.662,13.662,0,0,0,1.386-.793,9.188,9.188,0,0,0,1.3-1.033.187.187,0,0,0,.055-.113.192.192,0,0,0-.167-.214,9.057,9.057,0,0,0-1.663,0,13.963,13.963,0,0,0-1.578.222,8.924,8.924,0,0,0-1.248.331,22.444,22.444,0,0,1,.753-3.638c.091-.338.236-.647.346-.971s.28-.611.414-.917a4.784,4.784,0,0,1,.513-.836,6.155,6.155,0,0,1,.6-.728,14.673,14.673,0,0,1,3.343-2.466c1.266-.756,2.619-1.48,3.968-2.324a16.779,16.779,0,0,0,3.871-3.15l.425-.5c.138-.171.255-.364.382-.546a9.915,9.915,0,0,0,.662-1.131,11,11,0,0,0,.531-1.157c.168-.385.291-.771.419-1.156.494-1.543.836-3.048,1.189-4.5a21.659,21.659,0,0,1,1.342-4.1A7.5,7.5,0,0,1,96,62.027a18.489,18.489,0,0,1,3.8-2l.942-.363a7.315,7.315,0,0,0,1.615.458,12.857,12.857,0,0,0,1.939.156c.651,0,1.306,0,1.964-.058a13.322,13.322,0,0,0,2-.3.2.2,0,0,0,.117-.091.189.189,0,0,0-.067-.259Z" fill="#1c2e4a"></path></g></g>
            </g>
        </g>
    </g>
    
</svg>