<svg width="22" height="22" viewBox="0 0 22 22" fill="none" xmlns="http://www.w3.org/2000/svg">
<path d="M15.1051 17.7518H6.8849C5.49379 17.7518 4.35561 16.6136 4.35561 15.2225V7.00231C4.35561 5.6112 5.49379 4.47302 6.8849 4.47302H15.1051C16.4962 4.47302 17.6344 5.6112 17.6344 7.00231V15.2225C17.6344 16.6136 16.4962 17.7518 15.1051 17.7518Z" fill="#55D4AB"/>
<path d="M15.1051 17.9625H6.88489C5.37153 17.9625 4.14482 16.7358 4.14482 15.2225V7.00227C4.14482 5.48891 5.37153 4.26221 6.88489 4.26221H15.1051C16.6184 4.26221 17.8451 5.48891 17.8451 7.00227V15.2225C17.8451 16.7356 16.6184 17.9625 15.1051 17.9625ZM4.56637 7.00227V15.2225C4.56637 16.5029 5.60443 17.541 6.88489 17.541H15.1051C16.3855 17.541 17.4236 16.5029 17.4236 15.2225V7.00227C17.4236 5.72182 16.3855 4.68376 15.1051 4.68376H6.88489C5.60443 4.68376 4.56637 5.72182 4.56637 7.00227Z" fill="#111633"/>
<path d="M16.7913 10.7962V14.7299C16.7913 15.9281 15.8108 16.9087 14.6125 16.9087H7.58824C6.38999 16.9087 5.40947 15.9281 5.40947 14.7299V7.70563C5.40947 6.50738 6.38999 5.52686 7.58824 5.52686H14.6835" fill="#55D4AB"/>
<path d="M14.5071 16.9087H7.48307C6.22159 16.9087 5.19891 15.8861 5.19891 14.6246V7.60032C5.19891 6.33884 6.22159 5.31616 7.48307 5.31616H14.5784C14.6365 5.31616 14.6838 5.36338 14.6838 5.42155C14.6838 5.47972 14.6365 5.52694 14.5784 5.52694H7.48307C6.33794 5.52694 5.40969 6.45519 5.40969 7.60032V14.6246C5.40969 15.7697 6.33794 16.698 7.48307 16.698H14.5073C15.6525 16.698 16.5807 15.7697 16.5807 14.6246V10.6909C16.5807 10.6327 16.6279 10.5855 16.6861 10.5855C16.7443 10.5855 16.7915 10.6327 16.7915 10.6909V14.6246C16.7913 15.8861 15.7686 16.9087 14.5071 16.9087Z" fill="#111633"/>
<path d="M16.6859 10.2128C16.6277 10.2128 16.5805 10.1656 16.5805 10.1074V9.26428C16.5805 9.20611 16.6277 9.15889 16.6859 9.15889C16.7441 9.15889 16.7913 9.20611 16.7913 9.26428V10.1074C16.7913 10.1658 16.7443 10.2128 16.6859 10.2128ZM16.6859 8.94812C16.6277 8.94812 16.5805 8.90091 16.5805 8.84273V8.42118C16.5805 8.36301 16.6277 8.3158 16.6859 8.3158C16.7441 8.3158 16.7913 8.36301 16.7913 8.42118V8.84273C16.7913 8.90112 16.7443 8.94812 16.6859 8.94812Z" fill="#111633"/>
<path d="M8.30657 13.8537C7.75392 13.301 7.71683 12.4391 8.22353 11.9324L9.04702 11.1089C9.55393 10.602 10.4158 10.6393 10.9684 11.1918C11.5211 11.7444 11.5582 12.6063 11.0513 13.1132L10.2278 13.9367C9.72108 14.4436 8.85922 14.4063 8.30657 13.8537ZM10.5227 11.6378C10.2381 11.3532 9.79422 11.3341 9.53328 11.595L8.70978 12.4185C8.44884 12.6794 8.46802 13.1233 8.75257 13.4079C9.03712 13.6924 9.48101 13.7116 9.74195 13.4507L10.5654 12.6272C10.8264 12.3662 10.8072 11.9223 10.5227 11.6378Z" fill="#F7EEDE"/>
<path d="M9.34336 14.399C8.94964 14.399 8.54432 14.2407 8.23195 13.9283C7.94593 13.6425 7.77921 13.2703 7.76234 12.8803C7.74527 12.4872 7.8827 12.1241 8.1489 11.8579L8.9724 11.0344C9.23861 10.768 9.60304 10.6326 9.99508 10.6476C10.3848 10.6645 10.757 10.8314 11.0428 11.1174C11.3289 11.4032 11.4956 11.7755 11.5124 12.1652C11.5295 12.5583 11.3921 12.9216 11.1259 13.1879L10.3024 14.0113C10.0429 14.2708 9.69789 14.399 9.34336 14.399ZM8.38097 13.7793C8.8921 14.2906 9.68735 14.3281 10.1534 13.8623L10.9769 13.0388C11.2009 12.815 11.3162 12.5077 11.3019 12.1742C11.2873 11.8374 11.1423 11.5149 10.8938 11.2664C10.6453 11.0177 10.3228 10.8729 9.98601 10.8584C9.65236 10.8436 9.34568 10.9593 9.12142 11.1834L8.29792 12.0069C8.07387 12.2307 7.95858 12.5378 7.97291 12.8713C7.98766 13.2083 8.13246 13.5306 8.38097 13.7793ZM9.28645 13.7399C9.07062 13.7399 8.84868 13.6535 8.67795 13.4825C8.3523 13.1569 8.33312 12.646 8.63516 12.3441L9.45866 11.5206C9.7607 11.2182 10.2714 11.2378 10.597 11.5634C10.7534 11.7196 10.8445 11.9234 10.8538 12.1369C10.863 12.3538 10.7872 12.5545 10.6398 12.702L9.81634 13.5255C9.67259 13.6688 9.48205 13.7399 9.28645 13.7399ZM9.98854 11.5164C9.84711 11.5164 9.71011 11.567 9.60746 11.6696L8.78397 12.4931C8.56413 12.713 8.58331 13.0901 8.82676 13.3335C9.0702 13.5769 9.44706 13.5961 9.66711 13.3763L10.4906 12.5528C10.5958 12.4476 10.6497 12.303 10.643 12.1458C10.636 11.9852 10.5669 11.8313 10.4478 11.7122C10.3182 11.5824 10.1504 11.5164 9.98854 11.5164Z" fill="#111633"/>
<path d="M11.0298 11.1307C10.4771 10.5781 10.44 9.71621 10.9469 9.2093L11.7704 8.3858C12.2773 7.87889 13.1392 7.9162 13.6918 8.46864C14.2445 9.02129 14.2816 9.88314 13.7747 10.3901L12.9512 11.2136C12.4443 11.7205 11.5822 11.6834 11.0298 11.1307ZM13.2458 8.91464C12.9613 8.63009 12.5174 8.61091 12.2565 8.87185L11.433 9.69534C11.172 9.95628 11.1912 10.4002 11.4758 10.6847C11.7603 10.9693 12.2042 10.9884 12.4651 10.7275L13.2886 9.90401C13.5496 9.64307 13.5304 9.19918 13.2458 8.91464Z" fill="#F7EEDE"/>
<path d="M12.0666 11.676C11.6728 11.676 11.2675 11.5177 10.9552 11.2054C10.6691 10.9196 10.5024 10.5473 10.4856 10.1576C10.4685 9.76452 10.6059 9.40114 10.8721 9.13493L11.6956 8.31144C11.9618 8.04502 12.3269 7.90907 12.7183 7.92467C13.108 7.94153 13.4802 8.10846 13.766 8.39448C14.0521 8.68029 14.2188 9.05252 14.2356 9.44224C14.2527 9.83534 14.1153 10.1987 13.8491 10.4649L13.0256 11.2884C12.7661 11.5477 12.4209 11.676 12.0666 11.676ZM12.6538 8.13418C12.3418 8.13418 12.0565 8.24884 11.8448 8.46046L11.0213 9.28395C10.7973 9.50779 10.6818 9.8151 10.6963 10.1485C10.7109 10.4854 10.8557 10.8078 11.1044 11.0564C11.6159 11.5679 12.411 11.6052 12.8768 11.1394L13.7003 10.3159C13.9243 10.0921 14.0396 9.78475 14.0253 9.45131C14.0107 9.11449 13.8657 8.792 13.6172 8.5435C13.3687 8.29479 13.0462 8.14999 12.7094 8.13544C12.6907 8.1346 12.6721 8.13418 12.6538 8.13418ZM12.0103 11.0169C11.9985 11.0169 11.9865 11.0167 11.9747 11.0163C11.7612 11.007 11.5575 10.9158 11.4012 10.7594C11.2448 10.6032 11.1537 10.3994 11.1444 10.1859C11.1352 9.96897 11.211 9.76831 11.3584 9.62077L12.1819 8.79727C12.4839 8.49481 12.9948 8.51441 13.3203 8.84006C13.4766 8.99624 13.5677 9.20006 13.577 9.41358C13.5862 9.63046 13.5104 9.83112 13.363 9.97866L12.5395 10.8022C12.4002 10.9413 12.2135 11.0169 12.0103 11.0169ZM12.7117 8.79327C12.5703 8.79327 12.4333 8.84386 12.3307 8.9465L11.5072 9.77C11.402 9.87517 11.348 10.0198 11.3548 10.177C11.3617 10.3376 11.4309 10.4915 11.55 10.6106C11.6688 10.7294 11.8227 10.799 11.9835 10.806C12.1412 10.8093 12.2851 10.7585 12.3903 10.6534L13.2138 9.82986C13.319 9.72468 13.3729 9.58009 13.3662 9.42285C13.3592 9.26224 13.2901 9.10838 13.171 8.98929C13.0414 8.85924 12.8734 8.79327 12.7117 8.79327Z" fill="#111633"/>
<path d="M9.99781 12.1626C9.86355 12.0284 9.85364 11.8207 9.97568 11.6987L11.5927 10.0816C11.7148 9.9596 11.9224 9.96951 12.0567 10.1038C12.1909 10.238 12.2008 10.4456 12.0788 10.5677L10.4617 12.1847C10.3397 12.3068 10.1321 12.2969 9.99781 12.1626Z" fill="#F7EEDE"/>
<path d="M10.2501 12.3753C10.134 12.3753 10.0151 12.3288 9.92342 12.2373C9.74848 12.0619 9.73857 11.7869 9.90129 11.6244L11.5183 10.0073C11.5984 9.92699 11.7087 9.88863 11.8252 9.89137C11.9393 9.89664 12.0478 9.94575 12.1313 10.0292C12.3064 10.2042 12.3163 10.4792 12.1534 10.6422L10.5364 12.2592C10.4586 12.3368 10.3555 12.3753 10.2501 12.3753ZM10.0724 12.0883C10.1652 12.1812 10.3066 12.1909 10.3873 12.1102L12.0044 10.4931C12.0851 10.4124 12.075 10.271 11.9823 10.1782C11.9359 10.1319 11.8767 10.1047 11.8153 10.1019C11.7582 10.0988 11.7053 10.1184 11.6676 10.1563L10.0505 11.7734C9.96937 11.8539 9.97949 11.9951 10.0724 12.0883Z" fill="#111633"/>
</svg>
