<svg width="22" height="22" viewBox="0 0 22 22" fill="none" xmlns="http://www.w3.org/2000/svg">
<g clip-path="url(#clip0)">
<path d="M13.0469 20.5859C17.1554 20.5859 20.486 17.2553 20.486 13.1469C20.486 9.03836 17.1554 5.70776 13.0469 5.70776C8.93838 5.70776 5.60779 9.03836 5.60779 13.1469C5.60779 17.2553 8.93838 20.5859 13.0469 20.5859Z" fill="#7B5B92"/>
<path d="M13.0469 21.3299C8.53482 21.3299 4.86388 17.6589 4.86388 13.1469C4.86388 8.63481 8.53482 4.96387 13.0469 4.96387C17.5589 4.96387 21.2299 8.63481 21.2299 13.1469C21.2299 17.6589 17.5589 21.3299 13.0469 21.3299ZM13.0469 6.20372C9.21847 6.20372 6.10372 9.31846 6.10372 13.1469C6.10372 16.9753 9.21847 20.09 13.0469 20.09C16.8753 20.09 19.99 16.9753 19.99 13.1469C19.99 9.31846 16.8753 6.20372 13.0469 6.20372Z" fill="#D987D9"/>
<path d="M17.8716 12.9087C17.8716 12.0852 17.548 11.338 17.0238 10.7828C17.122 10.2365 17.1109 9.46833 16.8904 8.8075C15.7807 8.8075 14.8784 9.66225 14.7326 9.79937H11.5576C11.4115 9.66249 10.561 8.8075 9.45132 8.8075C9.25294 9.40287 9.18177 10.1051 9.24153 10.6164C8.61715 11.1833 8.22287 11.9989 8.22287 12.9089C8.22287 14.6219 9.61126 15.9984 11.3242 15.9984H11.931C11.4343 16.2258 11.0296 16.6818 10.9391 17.2382C10.4432 17.2382 9.73301 17.1931 9.40643 16.7031C8.79643 15.7881 8.51622 15.7881 8.21147 15.7881C7.90647 15.7881 7.88167 16.0931 8.18667 16.3981C8.49167 16.7031 8.49167 16.7031 8.79668 17.3131C9.04762 17.8157 9.69929 18.2303 10.9391 18.2303V19.8669C10.9391 19.8669 12.5128 20.2141 13.0469 20.2141C13.581 20.2141 15.1546 19.8669 15.1546 19.8669V17.5249C15.1546 16.8509 14.7378 16.2622 14.1627 15.9986H14.77C16.4832 15.9986 17.8716 14.6216 17.8716 12.9087Z" fill="#E3CE63"/>
<path d="M13.0469 21.8258C8.26131 21.8258 4.36794 17.9324 4.36794 13.1468C4.36794 8.36127 8.26131 4.4679 13.0469 4.4679C17.8324 4.4679 21.7258 8.36127 21.7258 13.1468C21.7258 17.9324 17.8324 21.8258 13.0469 21.8258ZM13.0469 4.96383C8.53482 4.96383 4.86387 8.63478 4.86387 13.1468C4.86387 17.6589 8.53482 21.3298 13.0469 21.3298C17.5589 21.3298 21.2299 17.6589 21.2299 13.1468C21.2299 8.63478 17.5589 4.96383 13.0469 4.96383Z" fill="#111633"/>
<path d="M13.0469 20.3381C9.08184 20.3381 5.85576 17.1122 5.85576 13.1469C5.85576 9.18165 9.08184 5.95581 13.0469 5.95581C17.0119 5.95581 20.238 9.18165 20.238 13.1469C20.238 13.8722 20.1301 14.5881 19.9179 15.275C19.8975 15.3402 19.8276 15.3769 19.7629 15.3568C19.6974 15.3365 19.6607 15.2673 19.6811 15.2019C19.8861 14.5385 19.99 13.8474 19.99 13.1469C19.99 9.31853 16.8753 6.20378 13.0469 6.20378C9.21848 6.20378 6.10373 9.31853 6.10373 13.1469C6.10373 16.9753 9.21848 20.0901 13.0469 20.0901C14.499 20.0901 15.8896 19.6467 17.0682 18.8078C17.124 18.7682 17.2011 18.7813 17.241 18.8368C17.2807 18.8926 17.2676 18.97 17.212 19.0097C15.991 19.8786 14.5508 20.3381 13.0469 20.3381Z" fill="#111633"/>
<path d="M17.6668 18.6191C17.6321 18.6191 17.5976 18.6045 17.5731 18.5762C17.5282 18.5244 17.5339 18.446 17.5857 18.4011C17.769 18.2429 17.9458 18.0728 18.1119 17.896C18.1585 17.8459 18.2371 17.8439 18.287 17.8903C18.3368 17.9372 18.3395 18.0155 18.2927 18.0656C18.1208 18.2489 17.9373 18.4249 17.7479 18.5888C17.7243 18.6092 17.6956 18.6191 17.6668 18.6191Z" fill="#111633"/>
<path d="M18.6247 17.6108C18.5982 17.6108 18.5711 17.6022 18.5483 17.5848C18.4943 17.5426 18.4846 17.4648 18.5268 17.4107C18.9357 16.8855 19.2662 16.3068 19.5095 15.6903C19.5345 15.6263 19.6067 15.5956 19.6701 15.6204C19.7339 15.6457 19.7651 15.7176 19.7398 15.7811C19.4881 16.4196 19.1457 17.0192 18.7222 17.563C18.6981 17.5945 18.6617 17.6108 18.6247 17.6108Z" fill="#111633"/>
<path d="M15.1546 19.9909C15.0862 19.9909 15.0306 19.9353 15.0306 19.8669V17.5248C15.0306 16.922 14.6696 16.3673 14.1112 16.1112C14.0581 16.0869 14.0291 16.0288 14.0417 15.972C14.0541 15.9153 14.1045 15.8746 14.1627 15.8746H14.77C16.4118 15.8746 17.7476 14.544 17.7476 12.9086C17.7476 12.1488 17.4585 11.424 16.9338 10.8681C16.9068 10.8396 16.8949 10.7999 16.9018 10.761C16.9844 10.3012 16.9985 9.5893 16.8004 8.93342C15.8874 8.9736 15.1154 9.60914 14.8199 9.88761C14.7968 9.90919 14.7641 9.92332 14.7326 9.92332H11.5573C11.5258 9.92332 11.4956 9.91142 11.4725 9.88984L11.4497 9.86827C10.6865 9.14246 10.0043 8.95425 9.54108 8.93342C9.37693 9.46954 9.30774 10.1143 9.36453 10.602C9.36924 10.6417 9.35411 10.6811 9.32461 10.7081C8.70319 11.2723 8.34686 12.0745 8.34686 12.9089C8.34686 14.5442 9.68267 15.8746 11.3242 15.8746H11.931C11.9893 15.8746 12.0396 15.9153 12.052 15.9723C12.0647 16.0291 12.0357 16.0871 11.9826 16.1114C11.4931 16.3356 11.1402 16.775 11.0614 17.2583C11.0517 17.3183 10.9999 17.3624 10.9391 17.3624C10.3606 17.3624 9.65193 17.2952 9.30303 16.7722C8.72998 15.9125 8.48969 15.9125 8.21122 15.9125C8.17651 15.9125 8.11575 15.9182 8.10013 15.9567C8.07881 16.0078 8.10782 16.1441 8.27421 16.3108C8.59334 16.6299 8.5993 16.6418 8.90752 17.258C9.18078 17.805 9.90238 18.1063 10.9391 18.1063C11.0076 18.1063 11.0631 18.1619 11.0631 18.2303V19.8669C11.0631 19.9353 11.0076 19.9909 10.9391 19.9909C10.8707 19.9909 10.8152 19.9353 10.8152 19.8669V18.353C9.37767 18.3206 8.86462 17.7269 8.68559 17.3689C8.38951 16.777 8.38951 16.777 8.09889 16.4861C7.88341 16.2706 7.79811 16.0373 7.87101 15.8617C7.92283 15.7365 8.04682 15.6646 8.21122 15.6646C8.605 15.6646 8.90802 15.732 9.50934 16.6346C9.77442 17.0324 10.3423 17.1058 10.8375 17.1137C10.9272 16.7306 11.1621 16.3785 11.4896 16.1226H11.324C9.54555 16.1226 8.09864 14.6811 8.09864 12.9091C8.09864 12.0259 8.46688 11.1763 9.11135 10.5678C9.05953 10.0215 9.14309 9.33886 9.33353 8.76828C9.35064 8.71769 9.39801 8.68347 9.45132 8.68347C9.95619 8.68347 10.7388 8.85606 11.6067 9.67535H14.6837C15.0376 9.35026 15.8856 8.68347 16.8902 8.68347C16.9435 8.68347 16.9908 8.71769 17.0079 8.76828C17.2398 9.46309 17.2381 10.2315 17.1562 10.7434C17.698 11.3395 17.9956 12.1059 17.9956 12.9086C17.9956 14.6809 16.5487 16.1226 14.77 16.1226H14.5982C15.0215 16.4618 15.2786 16.9761 15.2786 17.5248V19.8669C15.2786 19.9353 15.2231 19.9909 15.1546 19.9909Z" fill="#111633"/>
<path d="M9.13838 12.1476C9.12275 12.1476 9.10688 12.1446 9.09176 12.1384C9.02828 12.1126 8.99778 12.0402 9.02381 11.977C9.14185 11.6876 9.3132 11.425 9.53389 11.1964C9.5815 11.1473 9.66011 11.1458 9.7092 11.1932C9.75855 11.2408 9.76004 11.3191 9.71267 11.3685C9.5138 11.5745 9.35932 11.8106 9.25343 12.0705C9.2336 12.1186 9.18747 12.1476 9.13838 12.1476Z" fill="#111633"/>
<path d="M8.99506 13.4001C8.9353 13.4001 8.88248 13.3565 8.87281 13.2955C8.85297 13.169 8.8428 13.0391 8.8428 12.9091C8.8428 12.7769 8.85322 12.6445 8.87355 12.5148C8.88446 12.4471 8.94918 12.401 9.01539 12.4117C9.08284 12.4224 9.12921 12.4858 9.11855 12.5535C9.1002 12.6703 9.09077 12.7898 9.09077 12.9091C9.09077 13.0262 9.09995 13.143 9.1178 13.2568C9.12846 13.3245 9.08209 13.3879 9.01465 13.3986C9.0082 13.3996 9.00175 13.4001 8.99506 13.4001Z" fill="#111633"/>
<path d="M10.9285 15.3572C10.9215 15.3572 10.9143 15.3567 10.9074 15.3555C10.0539 15.2104 9.32732 14.6178 9.01141 13.8087C8.98637 13.7449 9.01786 13.673 9.08183 13.6482C9.14531 13.6232 9.21747 13.6549 9.24227 13.7186C9.52644 14.4472 10.1803 14.9806 10.9488 15.111C11.016 15.1224 11.0616 15.1866 11.0502 15.2541C11.0401 15.3143 10.9877 15.3572 10.9285 15.3572Z" fill="#111633"/>
</g>
<defs>
<clipPath id="clip0">
<rect width="21.0774" height="21.0774" fill="white" transform="translate(0.648392 0.748413)"/>
</clipPath>
</defs>
</svg>
