<?xml version="1.0" encoding="iso-8859-1" ?>
<svg version="1.1" xmlns="http://www.w3.org/2000/svg" xmlns:xlink="http://www.w3.org/1999/xlink" 
    viewBox="0 0 1200 800" width="1200" height="800">
    
    
    <!-- ITEM 0 -->
    <g>
        <defs>
            <clipPath id="clip-path-id-viewbox-item-0">
                <rect x="0.0" y="0.0" width="436.843" height="290.0"/>
            </clipPath>
        </defs>
        <g transform="translate(382.0 255.0) rotate(0.0 218.0 145.0) scale(0.9980702449163658 1.0)">
            <g clip-path="url(#clip-path-id-viewbox-item-0)" transform="translate(-0.0 -0.0)">
                

<g id="Слой_223-i0">
	<g>
		<path d="M436.705,65c0-8-5-16-29-31S334.138,0,213.138,0c-101,0-158,19-184,34c-24.515,14.143-29,23-29,31    s-3,44,19,86s63,75,72,81s7,4,7,11c0,7.616,2,17,26,28c13.846,6.346,35.433,19,100,19c51.433,0,75-9,90-15    c29.14-11.656,24.097-24.399,24.567-32c0.433-7-2-5,7-11s50-39,72-81S436.705,73,436.705,65z" style="fill:#111633;"></path>
		<path d="M24.305,82.303c0,0-9.403-9.36-6.167-22.303c3-12,11.789-20.193,19-25c9-6,46.853-30.007,180-30    c123.853,0.006,165.825,20.525,184.533,32.072C416.138,46,423.138,53,424.138,57c1.955,7.822-6.771,19.736-10.386,21.368    S188.138,91,188.138,91L24.305,82.303" style="fill:#7b5b92;"></path>
		<g>
			<path d="M101.513,240.601c1.644,0.716,3.211,1.65,4.869,2.307c1.693,0.671,3.402,1.303,5.113,1.925     c3.479,1.265,6.987,2.451,10.52,3.557c7.279,2.281,14.644,4.202,22.1,5.809c15.576,3.356,31.412,5.535,47.298,6.719     c16.117,1.201,32.313,1.311,48.448,0.395c15.954-0.906,31.863-2.802,47.53-5.959c14.641-2.95,29.158-6.851,43.023-12.451     c1.673-0.676,3.288-1.435,4.886-2.27c1.323-0.691,0.41-2.813-1.011-2.399c-3.447,1.004-6.809,2.245-10.22,3.363     c-3.438,1.126-6.905,2.161-10.375,3.181c-7.219,2.121-14.529,3.93-21.895,5.467c-15.249,3.182-30.758,5.272-46.292,6.393     c-15.984,1.153-32.035,1.253-48.037,0.406c-15.688-0.83-31.328-2.636-46.761-5.588c-14.603-2.793-29.139-6.455-43.162-11.418     c-1.687-0.597-3.449-0.939-5.143-1.549C101.186,238.049,100.308,240.076,101.513,240.601L101.513,240.601z" style="fill:#7b5b92;"></path>
		</g>
		<path d="M416.138,74c0,20.435-89.857,41-197,41s-197-14-197-41c0-20.435,89.857-42,197-42S416.138,53.565,416.138,74z    " style="fill:#deab9e;"></path>
		<g>
			<path d="M288.445,42.424c3.871,1.029,7.867,1.419,11.835,1.929c3.777,0.485,7.556,1.017,11.308,1.669     c7.741,1.346,15.464,2.777,23.14,4.464c7.684,1.689,15.318,3.647,22.884,5.805c6.649,1.897,13.288,3.977,19.651,6.696     c3.537,1.511,6.998,3.232,10.339,5.139c0.864,0.493,1.698,1.039,2.563,1.529c0.866,0.491,1.794,0.849,2.666,1.344     c1.742,0.989,3.454,2.125,5.451,2.465c1.135,0.193,2.574-0.75,2.076-2.076c-0.643-1.711-1.701-2.918-3.029-4.151     c-1.426-1.325-2.923-2.676-4.566-3.716c-3.014-1.908-6.156-3.576-9.4-5.056c-6.663-3.04-13.594-5.419-20.619-7.466     c-15.43-4.498-31.203-7.603-47.15-9.561c-4.439-0.545-8.932-0.867-13.395-1.184c-4.476-0.318-8.989-0.668-13.45-0.07     C287.566,40.342,287.09,42.064,288.445,42.424L288.445,42.424z" style="fill:#e3ce63;"></path>
		</g>
		<g>
			<path d="M76.157,96.544c4.416,1.784,9.102,2.581,13.764,3.465c4.657,0.883,9.321,1.767,14.008,2.48     c9.546,1.451,19.121,2.673,28.716,3.744c18.837,2.102,37.736,3.421,56.676,4.048c5.339,0.177,10.649,0.128,15.986,0.137     c2.707,0.004,5.413-0.001,8.119-0.066c2.722-0.065,5.506,0.066,8.16-0.586c1.927-0.474,1.882-3.358,0-3.857     c-2.34-0.621-4.766-0.59-7.175-0.728c-2.378-0.137-4.756-0.262-7.135-0.378c-4.764-0.232-9.502-0.646-14.266-0.887     c-9.427-0.477-18.841-1.156-28.255-1.834c-18.896-1.36-37.734-3.354-56.54-5.617c-5.191-0.625-10.387-1.327-15.59-1.828     c-5.351-0.515-10.641-1.546-16.035-1.285C74.67,93.445,74.495,95.873,76.157,96.544L76.157,96.544z" style="fill:#e3ce63;"></path>
		</g>
		<g>
			<path d="M41.811,75.62c2.617-4.421,7.742-7.171,12.374-9.03c5.94-2.385,12.005-4.467,18.085-6.464     c12.904-4.237,25.907-7.842,39.102-11.056c3.67-0.894,7.354-1.728,11.034-2.582c1.913-0.444,3.84-0.839,5.748-1.301     c1.867-0.453,3.786-0.782,5.536-1.586c1.363-0.626,0.492-2.406-0.686-2.533c-1.694-0.182-3.436,0.135-5.127,0.325     c-1.899,0.213-3.789,0.513-5.677,0.802c-3.437,0.528-6.85,1.147-10.258,1.836c-6.801,1.375-13.522,3.079-20.199,4.961     c-6.746,1.901-13.463,3.957-20.078,6.275c-6.296,2.205-12.72,4.479-18.752,7.341c-2.837,1.346-5.56,2.915-7.998,4.905     c-2.315,1.889-4.006,4.504-5.159,7.24C39.25,75.951,41.181,76.685,41.811,75.62L41.811,75.62z" style="fill:#e3ce63;"></path>
		</g>
		<g>
			<path d="M281.312,108.764c4.807,0.34,9.63,0.717,14.45,0.5c4.724-0.213,9.461-0.52,14.155-1.11     c9.46-1.19,19.095-2.864,28.018-6.343c1.13-0.441,1.129-2.501-0.316-2.333c-9.346,1.091-18.598,2.916-27.941,4.055     c-4.634,0.565-9.261,1.133-13.916,1.507c-4.825,0.388-9.621,1.057-14.45,1.413C279.827,106.56,279.822,108.658,281.312,108.764     L281.312,108.764z" style="fill:#e3ce63;"></path>
		</g>
		<path d="M128.849,82.659l-22.174,6.108c-4.242,1.168-8.669-1.346-9.837-5.588v0c-1.168-4.242,1.346-8.669,5.588-9.837    l22.174-6.108c4.242-1.168,8.669,1.346,9.837,5.588l0,0C135.606,77.064,133.091,81.49,128.849,82.659z" style="fill:#f7eede;"></path>
		<path d="M331.452,66.8l-23.477-5.228c-3.758-0.837-6.148-4.596-5.311-8.354v0c0.837-3.758,4.596-6.148,8.354-5.311    l23.477,5.228c3.758,0.837,6.148,4.596,5.311,8.354v0C338.969,65.247,335.21,67.637,331.452,66.8z" style="fill:#f7eede;"></path>
		<path d="M343.894,96.43l20.564-5.664c3.712-1.022,5.912-4.896,4.89-8.608v0c-1.022-3.712-4.896-5.912-8.608-4.89    l-20.564,5.664c-3.712,1.022-5.912,4.896-4.89,8.608v0C336.309,95.251,340.182,97.452,343.894,96.43z" style="fill:#f7eede;"></path>
		<path d="M215.213,105.346l-18.267,5.031c-3.182,0.876-6.502-1.01-7.378-4.191l-0.243-0.883    c-0.876-3.182,1.01-6.502,4.191-7.378l18.267-5.031c3.182-0.876,6.502,1.01,7.378,4.191l0.243,0.883    C220.281,101.15,218.395,104.47,215.213,105.346z" style="fill:#f7eede;"></path>
		<path d="M57.898,88.299L57.898,88.299c-3.018,2.39-7.443,1.877-9.833-1.142l-6.829-8.623    c-2.39-3.018-1.877-7.443,1.142-9.833l0,0c3.018-2.39,7.443-1.877,9.833,1.142l6.829,8.623    C61.43,81.484,60.916,85.909,57.898,88.299z" style="fill:#f7eede;"></path>
		<path d="M161.01,52.801l-17.57-3.913c-3.49-0.777-5.709-4.268-4.932-7.757v0c0.777-3.49,4.268-5.709,7.757-4.932    l17.57,3.913c3.49,0.777,5.709,4.268,4.932,7.757v0C167.99,51.359,164.499,53.578,161.01,52.801z" style="fill:#f7eede;"></path>
		<path d="M256.522,53.837L256.522,53.837c1.729,3.44,5.958,4.84,9.398,3.111l10.722-5.388    c3.44-1.729,4.84-5.958,3.111-9.398v0c-1.729-3.44-5.958-4.84-9.398-3.111l-10.722,5.388    C256.193,46.168,254.793,50.397,256.522,53.837z" style="fill:#f7eede;"></path>
		<path d="M279.399,59.933c1.987,0.269,3.381,2.014,4.999,3.198c2.538,1.857,5.84,2.39,8.98,2.215    c1.547-0.086,3.126-0.344,4.464-1.125s2.4-2.169,2.448-3.718c0.033-1.066,0.028-2.431-0.525-3.343    c4.065,0.71,8.393-0.216,11.812-2.526c1.397-0.944,2.733-2.28,2.859-3.962c0.052-0.687-0.108-1.376-0.358-2.018    c-0.577-1.478-1.657-2.756-3.018-3.572c-1.044-0.626-1.638-0.93-2.44-1.845c2.268-0.893,4.158-2.796,4.856-5.131    c0.698-2.335,0.113-5.054-1.617-6.772c-1.722-1.71-4.294-2.279-6.72-2.25c-2.426,0.029-4.521,0.467-6.941,0.639    c-1.935-1.656-4.219-2.967-6.717-3.462c-2.498-0.495-5.221-0.116-7.319,1.329c-3.29,2.266-2.344,5.732-4.228,9.254    c-0.181,0.338-0.362,0.677-0.543,1.015c-1.362-0.789-2.965-1.24-4.522-1.008c-1.557,0.231-3.04,1.219-3.634,2.677    c-0.401,0.986-0.381,2.087-0.315,3.15c0.287,4.657,1.319,9.267,3.044,13.602c-0.882,2.818-1.064,5.982-0.795,8.923    c0.853,0.337,1.68,0.741,2.471,1.205c-0.315-1.435-0.626-2.953-0.165-4.347C275.936,60.667,277.944,59.737,279.399,59.933z" style="fill:#111633;"></path>
		<path d="M155.138,77c1.455-5.821,4-9,10-15s3-8,12-13s25-10,41-6s22,7,35,8s21,11,25,14s7,10,6,14    c-2.425,9.701-21,12-35,10s-30-1-42-1s-33,5-41,1S154.138,81,155.138,77z" style="fill:#e3ce63;"></path>
		<path d="M146.138,87c5.476-7.301,3.887-21.085-8-16c-3.408-4.056-15.393-9.389-16.33-1.061    c-0.347,5.126,1.375,11.272,6.33,14.061c-6.54,12.217,11,11,15.904,6.309c1.279-1.223,3.17,2.421,5.096,1.691    C151.055,90.342,146.662,88.861,146.138,87z" style="fill:#111633;"></path>
		<path d="M320.004,84.738C323.138,80,319.138,72,315.138,75c-2.576,1.932-1,2-3.604,0.079    C306.442,71.322,300.138,77,303.138,82c1.627,2.712,2,0,0.564,2.906c-2.398,4.853,6.045,7.98,10.47,4.77    c0.334-0.242,0.73-0.387,1.136-0.461C317.535,88.807,319.138,87,320.004,84.738z" style="fill:#111633;"></path>
	</g>
</g>

            </g>
        </g>
    </g>
    
</svg>