<svg width="54" height="54" viewBox="0 0 54 54" fill="none" xmlns="http://www.w3.org/2000/svg">
<path d="M11.88 37.9171C11.88 41.5799 11.88 44.8199 9.71999 46.9799C13.3429 46.9799 17.82 45.8999 20.6172 41.9169C22.6346 42.3997 24.7779 42.6599 27 42.6599C38.9291 42.6599 48.6 35.1653 48.6 25.9199C48.6 16.6746 38.9291 9.17993 27 9.17993C15.0709 9.17993 5.39999 16.6746 5.39999 25.9199C5.39999 30.6023 7.88129 34.8375 11.88 37.8761V37.9171Z" fill="#F7EEDE"/>
<path d="M27 27.81C28.0438 27.81 28.89 26.9638 28.89 25.92C28.89 24.8762 28.0438 24.03 27 24.03C25.9562 24.03 25.11 24.8762 25.11 25.92C25.11 26.9638 25.9562 27.81 27 27.81Z" fill="#E3CE63"/>
<path d="M17.82 27.81C18.8638 27.81 19.71 26.9638 19.71 25.92C19.71 24.8762 18.8638 24.03 17.82 24.03C16.7762 24.03 15.93 24.8762 15.93 25.92C15.93 26.9638 16.7762 27.81 17.82 27.81Z" fill="#E3CE63"/>
<path d="M36.18 27.81C37.2238 27.81 38.07 26.9638 38.07 25.92C38.07 24.8762 37.2238 24.03 36.18 24.03C35.1362 24.03 34.29 24.8762 34.29 25.92C34.29 26.9638 35.1362 27.81 36.18 27.81Z" fill="#E3CE63"/>
<path d="M9.72 47.5199C9.50184 47.5199 9.30474 47.3887 9.22104 47.1867C9.13734 46.9848 9.18378 46.7525 9.33822 46.5981C11.2984 44.6379 11.3395 41.6307 11.34 38.1417C7.15878 34.8807 4.86 30.5493 4.86 25.9199C4.86 16.3916 14.7922 8.63989 27 8.63989C39.2078 8.63989 49.14 16.3916 49.14 25.9199C49.14 35.4482 39.2078 43.1999 27 43.1999C24.9053 43.1999 22.8361 42.9725 20.844 42.5238C17.5959 46.8616 12.5042 47.5199 9.72 47.5199ZM27 9.71989C15.3873 9.71989 5.94 16.9872 5.94 25.9199C5.94 30.282 8.16588 34.3752 12.2067 37.4462C12.3412 37.5477 12.42 37.707 12.42 37.876V37.9176C12.42 41.1042 12.42 44.1379 10.8956 46.3989C13.6318 46.2066 17.6191 45.246 20.1749 41.6069C20.3024 41.426 20.527 41.3412 20.7425 41.392C22.7605 41.8747 24.8659 42.1199 27 42.1199C38.6127 42.1199 48.06 34.8526 48.06 25.9199C48.06 16.9872 38.6127 9.71989 27 9.71989Z" fill="#282828"/>
<path d="M10.9609 34.0201C10.8859 34.0201 10.8113 33.9888 10.7584 33.9283C8.66592 31.5485 7.56 28.7794 7.56 25.9201C7.56 17.8806 16.2805 11.3401 27 11.3401C32.0652 11.3401 36.8626 12.7965 40.5086 15.4419C40.6296 15.5294 40.6561 15.6984 40.5686 15.8188C40.4811 15.9393 40.311 15.9657 40.1917 15.8782C36.6368 13.3003 31.9518 11.8801 27 11.8801C16.5785 11.8801 8.1 18.1781 8.1 25.9201C8.1 28.646 9.15948 31.2915 11.164 33.5719C11.2622 33.6837 11.2514 33.8543 11.1397 33.9531C11.0884 33.9979 11.0246 34.0201 10.9609 34.0201Z" fill="#282828"/>
<path d="M27 40.5C26.3606 40.5 25.718 40.4762 25.09 40.4303C24.9415 40.419 24.8297 40.2894 24.8405 40.1409C24.8513 39.9924 24.9793 39.8752 25.1294 39.8914C25.7445 39.9367 26.3736 39.96 27 39.96C37.4215 39.96 45.9 33.6619 45.9 25.92C45.9 23.5197 45.0652 21.1485 43.4857 19.0631C43.3955 18.9443 43.4187 18.7752 43.538 18.6851C43.6574 18.5949 43.8264 18.6181 43.916 18.7374C45.5674 20.9169 46.44 23.4009 46.44 25.92C46.44 33.9595 37.7195 40.5 27 40.5Z" fill="#282828"/>
<path d="M43.0391 18.3599C42.964 18.3599 42.8895 18.3285 42.8366 18.2681C42.6789 18.0882 42.5153 17.9117 42.3468 17.7383C42.2426 17.6314 42.2453 17.4602 42.3522 17.3565C42.4591 17.2523 42.6308 17.255 42.734 17.3619C42.9089 17.5418 43.0785 17.7259 43.2421 17.9122C43.3404 18.024 43.3296 18.1946 43.2178 18.2934C43.166 18.3377 43.1023 18.3599 43.0391 18.3599Z" fill="#282828"/>
<path d="M41.6945 17.0101C41.6302 17.0101 41.566 16.9874 41.5147 16.9415C41.391 16.8314 41.2652 16.7223 41.1367 16.6154C41.0222 16.5193 41.0071 16.3492 41.1032 16.2352C41.1982 16.1202 41.3689 16.1056 41.4833 16.2012C41.6162 16.3124 41.7463 16.4248 41.8743 16.5392C41.9855 16.6386 41.9953 16.8092 41.8959 16.9205C41.8424 16.9793 41.7685 17.0101 41.6945 17.0101Z" fill="#282828"/>
<path d="M27 28.08C25.8088 28.08 24.84 27.1112 24.84 25.92C24.84 24.7288 25.8088 23.76 27 23.76C28.1912 23.76 29.16 24.7288 29.16 25.92C29.16 27.1112 28.1912 28.08 27 28.08ZM27 24.3C26.1068 24.3 25.38 25.0268 25.38 25.92C25.38 26.8132 26.1068 27.54 27 27.54C27.8932 27.54 28.62 26.8132 28.62 25.92C28.62 25.0268 27.8932 24.3 27 24.3Z" fill="#282828"/>
<path d="M17.82 28.08C16.6288 28.08 15.66 27.1112 15.66 25.92C15.66 24.7288 16.6288 23.76 17.82 23.76C19.0112 23.76 19.98 24.7288 19.98 25.92C19.98 27.1112 19.0112 28.08 17.82 28.08ZM17.82 24.3C16.9268 24.3 16.2 25.0268 16.2 25.92C16.2 26.8132 16.9268 27.54 17.82 27.54C18.7132 27.54 19.44 26.8132 19.44 25.92C19.44 25.0268 18.7132 24.3 17.82 24.3Z" fill="#282828"/>
<path d="M36.18 28.08C34.9887 28.08 34.02 27.1112 34.02 25.92C34.02 24.7288 34.9887 23.76 36.18 23.76C37.3712 23.76 38.34 24.7288 38.34 25.92C38.34 27.1112 37.3712 28.08 36.18 28.08ZM36.18 24.3C35.2868 24.3 34.56 25.0268 34.56 25.92C34.56 26.8132 35.2868 27.54 36.18 27.54C37.0732 27.54 37.8 26.8132 37.8 25.92C37.8 25.0268 37.0732 24.3 36.18 24.3Z" fill="#282828"/>
</svg>
