<?xml version="1.0" encoding="iso-8859-1" ?>
<svg version="1.1" xmlns="http://www.w3.org/2000/svg" xmlns:xlink="http://www.w3.org/1999/xlink" 
    viewBox="0 0 1200 800" width="1200" height="800">
    
    
    <!-- ITEM 0 -->
    <g>
        <defs>
            <clipPath id="clip-path-id-viewbox-item-0">
                <rect x="0.0" y="0.0" width="99.427" height="158.927"/>
            </clipPath>
        </defs>
        <g transform="translate(550.0 321.0) rotate(0.0 49.5 79.0) scale(0.9957053918955615 0.9941671333379477)">
            <g clip-path="url(#clip-path-id-viewbox-item-0)" transform="translate(-0.0 -0.0)">
                
<path fill="#e3ce63" d="M85.096,38.464l-20.5-22.1c-1.8-1.9-5-1.2-5.8,1.3c-0.8,2.3-3.7,3.1-5.5,1.5l-20.7-18.3  c-2.4-2.1-6.2-0.1-5.7,3.1l4.4,28.4c0.3,2.2-1.4,4.1-3.7,4l-23.9-1.8c-3.3-0.3-5,3.8-2.5,6l31.2,27.5c1.9,1.7,1.4,4.7-0.9,5.7  l-10.9,4.7c-3.1,1.4-2.6,6,0.8,6.6l7.8,1.3c2.8,0.5,3.8,4,1.8,5.9l-24.4,22.9c-2.5,2.3-0.4,6.5,3,5.9l25.1-4.6c2.8-0.5,5,2.5,3.6,5  l-17.5,32.4c-1.6,3,1.7,6.3,4.7,4.6l48.1-26.6C95.396,119.864,112.896,68.764,85.096,38.464z"></path>

            </g>
        </g>
    </g>
    
</svg>