<svg width="38" height="38" viewBox="0 0 38 38" fill="none" xmlns="http://www.w3.org/2000/svg">
<path d="M4.17999 23.18C4.26207 23.3818 4.93999 26.98 9.68999 26.98C19.38 26.98 21.28 8.73999 33.44 8.73999V31.54H4.17999V23.18Z" fill="#F7EEDE"/>
<path d="M15.58 16.91C16.3145 16.91 16.91 16.3145 16.91 15.58C16.91 14.8455 16.3145 14.25 15.58 14.25C14.8455 14.25 14.25 14.8455 14.25 15.58C14.25 16.3145 14.8455 16.91 15.58 16.91Z" fill="#7B5B92"/>
<path d="M21.76 11.1101C22.7044 11.1101 23.47 10.3445 23.47 9.40006C23.47 8.45566 22.7044 7.69006 21.76 7.69006C20.8155 7.69006 20.05 8.45566 20.05 9.40006C20.05 10.3445 20.8155 11.1101 21.76 11.1101Z" fill="#55D4AB"/>
<path d="M15.58 8.55001C16.5244 8.55001 17.29 7.78441 17.29 6.84001C17.29 5.8956 16.5244 5.13 15.58 5.13C14.6356 5.13 13.87 5.8956 13.87 6.84001C13.87 7.78441 14.6356 8.55001 15.58 8.55001Z" fill="#D987D9"/>
<path d="M9.40006 11.1101C10.3445 11.1101 11.1101 10.3445 11.1101 9.40006C11.1101 8.45566 10.3445 7.69006 9.40006 7.69006C8.45566 7.69006 7.69006 8.45566 7.69006 9.40006C7.69006 10.3445 8.45566 11.1101 9.40006 11.1101Z" fill="#F9E65C"/>
<path d="M6.84 17.29C7.78441 17.29 8.55 16.5244 8.55 15.58C8.55 14.6356 7.78441 13.87 6.84 13.87C5.8956 13.87 5.13 14.6356 5.13 15.58C5.13 16.5244 5.8956 17.29 6.84 17.29Z" fill="#55D4AB"/>
<path d="M9.40006 23.4699C10.3445 23.4699 11.1101 22.7043 11.1101 21.7599C11.1101 20.8155 10.3445 20.0499 9.40006 20.0499C8.45566 20.0499 7.69006 20.8155 7.69006 21.7599C7.69006 22.7043 8.45566 23.4699 9.40006 23.4699Z" fill="#D987D9"/>
<path d="M16.7565 23.0838C16.4498 22.792 16.0371 22.61 15.58 22.61C14.6357 22.61 13.87 23.3757 13.87 24.32C13.87 24.7384 14.0262 25.1165 14.2755 25.4136C15.1555 24.7786 15.9729 23.9833 16.7565 23.0838Z" fill="#F9E65C"/>
<path d="M29.83 27.17C29.5625 27.3961 29.07 27.55 28.5 27.55C27.93 27.55 27.4375 27.3961 27.17 27.17C26.8645 27.3961 26.3017 27.55 25.65 27.55C24.9983 27.55 24.4355 27.3961 24.13 27.17C23.8625 27.3961 23.37 27.55 22.8 27.55C22.23 27.55 21.7375 27.3961 21.47 27.17C21.47 27.17 21.47 30.21 20.71 32.87H30.59C29.83 30.21 29.83 27.17 29.83 27.17Z" fill="#D987D9"/>
<path d="M28.5 27.55C29.07 27.55 29.5625 27.3961 29.83 27.17C29.83 27.17 27.93 26.03 25.6561 23.75L27.17 27.17C27.4375 27.3961 27.93 27.55 28.5 27.55Z" fill="#F9E65C"/>
<path d="M27.17 27.17L25.6561 23.75L24.13 27.17C24.4355 27.3961 24.9983 27.55 25.65 27.55C26.3017 27.55 26.8645 27.3961 27.17 27.17Z" fill="#DEAB9E"/>
<path d="M24.13 27.17L25.6561 23.75C23.373 26.033 21.47 27.17 21.47 27.17C21.7375 27.3961 22.23 27.55 22.8 27.55C23.37 27.55 23.8625 27.3961 24.13 27.17Z" fill="#F9E65C"/>
<path d="M24.13 32.8701C25.346 30.7972 25.6416 29.0701 25.6416 29.0701C25.6416 29.0701 25.954 30.7972 27.17 32.8701H24.13Z" fill="#1C2E4A"/>
<path d="M9.69029 27.3601C6.69209 27.3601 4.55991 25.9051 3.84019 23.3686L3.82385 23.3116C3.75925 23.117 3.85881 22.9004 4.05109 22.8298C4.24413 22.7583 4.45503 22.8476 4.53255 23.0372C4.54053 23.0574 4.55421 23.0996 4.57169 23.1615C4.93573 24.4455 6.08561 26.6001 9.69029 26.6001C14.0626 26.6001 16.8419 22.6253 19.7846 18.4172C23.2422 13.473 26.8176 8.36011 33.4403 8.36011C33.6504 8.36011 33.8203 8.53035 33.8203 8.74011C33.8203 8.94987 33.6504 9.12011 33.4403 9.12011C27.2132 9.12011 23.7537 14.0681 20.4074 18.8527C17.348 23.2276 14.4585 27.3601 9.69029 27.3601Z" fill="#111633"/>
<path d="M6.26999 31.7301C6.16511 31.7301 6.07999 31.6449 6.07999 31.5401V26.0779C6.07999 25.9731 6.16511 25.8879 6.26999 25.8879C6.37487 25.8879 6.45999 25.9731 6.45999 26.0779V31.5401C6.45999 31.6449 6.37487 31.7301 6.26999 31.7301Z" fill="#111633"/>
<path d="M8.54999 28.1201C8.44511 28.1201 8.35999 28.035 8.35999 27.9301V26.9045C8.35999 26.7996 8.44511 26.7145 8.54999 26.7145C8.65487 26.7145 8.73999 26.7996 8.73999 26.9045V27.9301C8.73999 28.035 8.65487 28.1201 8.54999 28.1201Z" fill="#111633"/>
<path d="M10.83 31.7301C10.7251 31.7301 10.64 31.645 10.64 31.5401V26.9045C10.64 26.7996 10.7251 26.7145 10.83 26.7145C10.9349 26.7145 11.02 26.7996 11.02 26.9045V31.5401C11.02 31.645 10.9349 31.7301 10.83 31.7301Z" fill="#111633"/>
<path d="M13.11 31.73C13.0051 31.73 12.92 31.6449 12.92 31.54V26.1371C12.92 26.0323 13.0051 25.9471 13.11 25.9471C13.2149 25.9471 13.3 26.0323 13.3 26.1371V31.54C13.3 31.6449 13.2149 31.73 13.11 31.73Z" fill="#111633"/>
<path d="M15.39 29.2601C15.2851 29.2601 15.2 29.1749 15.2 29.0701V24.5101C15.2 24.4052 15.2851 24.3201 15.39 24.3201C15.4949 24.3201 15.58 24.4052 15.58 24.5101V29.0701C15.58 29.1749 15.4949 29.2601 15.39 29.2601Z" fill="#111633"/>
<path d="M17.67 31.7301C17.5651 31.7301 17.48 31.645 17.48 31.5401V21.9763C17.48 21.8714 17.5651 21.7863 17.67 21.7863C17.7749 21.7863 17.86 21.8714 17.86 21.9763V31.5401C17.86 31.645 17.7749 31.7301 17.67 31.7301Z" fill="#111633"/>
<path d="M22.23 25.46C22.1251 25.46 22.04 25.3749 22.04 25.27V15.6644C22.04 15.5595 22.1251 15.4744 22.23 15.4744C22.3349 15.4744 22.42 15.5595 22.42 15.6644V25.27C22.42 25.3749 22.3349 25.46 22.23 25.46Z" fill="#111633"/>
<path d="M24.51 23.1801C24.4051 23.1801 24.32 23.095 24.32 22.9901V18.4301C24.32 18.3252 24.4051 18.2401 24.51 18.2401C24.6149 18.2401 24.7 18.3252 24.7 18.4301V22.9901C24.7 23.095 24.6149 23.1801 24.51 23.1801Z" fill="#111633"/>
<path d="M26.79 23.1801C26.6851 23.1801 26.6 23.0949 26.6 22.9901V10.9399C26.6 10.835 26.6851 10.7499 26.79 10.7499C26.8949 10.7499 26.98 10.835 26.98 10.9399V22.9901C26.98 23.0949 26.8949 23.1801 26.79 23.1801Z" fill="#111633"/>
<path d="M29.07 25.4601C28.9651 25.4601 28.88 25.375 28.88 25.2701V9.6308C28.88 9.52592 28.9651 9.4408 29.07 9.4408C29.1749 9.4408 29.26 9.52592 29.26 9.6308V25.2701C29.26 25.375 29.1749 25.4601 29.07 25.4601Z" fill="#111633"/>
<path d="M31.35 19.0001C31.2451 19.0001 31.16 18.915 31.16 18.8101V16.1501C31.16 16.0452 31.2451 15.9601 31.35 15.9601C31.4549 15.9601 31.54 16.0452 31.54 16.1501V18.8101C31.54 18.915 31.4549 19.0001 31.35 19.0001Z" fill="#111633"/>
<path d="M31.35 30.4001C31.2451 30.4001 31.16 30.315 31.16 30.2101V19.9501C31.16 19.8453 31.2451 19.7601 31.35 19.7601C31.4549 19.7601 31.54 19.8453 31.54 19.9501V30.2101C31.54 30.315 31.4549 30.4001 31.35 30.4001Z" fill="#111633"/>
<path d="M31.35 15.2001C31.2451 15.2001 31.16 15.1149 31.16 15.0101V14.6301C31.16 14.5252 31.2451 14.4401 31.35 14.4401C31.4549 14.4401 31.54 14.5252 31.54 14.6301V15.0101C31.54 15.1149 31.4549 15.2001 31.35 15.2001Z" fill="#111633"/>
<path d="M31.35 13.6801C31.2451 13.6801 31.16 13.595 31.16 13.4901V8.93048C31.16 8.8256 31.2451 8.74048 31.35 8.74048C31.4549 8.74048 31.54 8.8256 31.54 8.93048V13.4901C31.54 13.595 31.4549 13.6801 31.35 13.6801Z" fill="#111633"/>
<path d="M15.39 31.73C15.2851 31.73 15.2 31.6449 15.2 31.54V30.21C15.2 30.1051 15.2851 30.02 15.39 30.02C15.4949 30.02 15.58 30.1051 15.58 30.21V31.54C15.58 31.6449 15.4949 31.73 15.39 31.73Z" fill="#111633"/>
<path d="M24.51 17.4801C24.4051 17.4801 24.32 17.3949 24.32 17.2901V12.955C24.32 12.8501 24.4051 12.765 24.51 12.765C24.6149 12.765 24.7 12.8501 24.7 12.955V17.2901C24.7 17.3949 24.6149 17.4801 24.51 17.4801Z" fill="#111633"/>
<path d="M8.54999 31.7301C8.44511 31.7301 8.35999 31.645 8.35999 31.5401V29.0701C8.35999 28.9652 8.44511 28.8801 8.54999 28.8801C8.65487 28.8801 8.73999 28.9652 8.73999 29.0701V31.5401C8.73999 31.645 8.65487 31.7301 8.54999 31.7301Z" fill="#111633"/>
<path d="M19.95 30.4C19.8451 30.4 19.76 30.3149 19.76 30.21V18.8594C19.76 18.7546 19.8451 18.6694 19.95 18.6694C20.0549 18.6694 20.14 18.7546 20.14 18.8594V30.21C20.14 30.3149 20.0549 30.4 19.95 30.4Z" fill="#111633"/>
<path d="M15.96 8.55005H15.2V14.25H15.96V8.55005Z" fill="#111633"/>
<path d="M10.8778 10.3405L10.3404 10.8779L14.3709 14.9084L14.9083 14.371L10.8778 10.3405Z" fill="#111633"/>
<path d="M14.25 15.2001H8.54999V15.9601H14.25V15.2001Z" fill="#111633"/>
<path d="M14.3701 16.2515L10.3397 20.2821L10.8771 20.8195L14.9075 16.7889L14.3701 16.2515Z" fill="#111633"/>
<path d="M16.7883 16.2526L16.2509 16.79L19.2244 19.7634L19.7618 19.226L16.7883 16.2526Z" fill="#111633"/>
<path d="M20.2818 10.3403L16.2513 14.3708L16.7887 14.9082L20.8192 10.8777L20.2818 10.3403Z" fill="#111633"/>
<path d="M15.96 16.91H15.2V22.61H15.96V16.91Z" fill="#111633"/>
<path d="M22.2893 15.2001H16.91V15.9601H22.2893V15.2001Z" fill="#111633"/>
<path d="M13.8138 24.5229C12.6168 24.2873 11.5022 23.8275 10.5024 23.1561L10.9261 22.5253C11.8416 23.1401 12.8626 23.5615 13.9604 23.777L13.8138 24.5229Z" fill="#111633"/>
<path d="M8.00391 20.6576C7.33245 19.6578 6.87265 18.5436 6.63705 17.3463L7.38299 17.1996C7.59883 18.2974 8.02025 19.3185 8.63471 20.2339L8.00391 20.6576Z" fill="#111633"/>
<path d="M7.37845 13.9601L6.63251 13.8134C6.86317 12.6373 7.32715 11.5251 8.01039 10.5074L8.64119 10.9311C8.01457 11.8644 7.58973 12.8836 7.37845 13.9601Z" fill="#111633"/>
<path d="M10.9296 8.63899L10.5059 8.00819C11.5068 7.33559 12.6198 6.87503 13.8134 6.63867L13.9612 7.38423C12.866 7.60045 11.8465 8.02301 10.9296 8.63899Z" fill="#111633"/>
<path d="M20.2285 8.64125C19.2949 8.01425 18.2757 7.58941 17.1999 7.37851L17.3462 6.63257C18.5219 6.86323 19.6342 7.32683 20.6522 8.01007L20.2285 8.64125Z" fill="#111633"/>
<path d="M23.6827 13.5417C23.4456 12.6027 23.055 11.7238 22.5211 10.9292L23.1519 10.5055C23.7344 11.3727 24.1608 12.3314 24.4195 13.3555L23.6827 13.5417Z" fill="#111633"/>
<path d="M21.7603 11.2997C21.2526 11.2997 20.7754 11.1021 20.4166 10.7434C19.676 10.0028 19.676 8.79706 20.4166 8.05644C20.7754 7.69772 21.2526 7.50012 21.7603 7.50012C22.268 7.50012 22.7449 7.69772 23.1036 8.05644C23.4623 8.41516 23.6603 8.89244 23.6603 9.39974C23.6603 9.90704 23.4623 10.3843 23.1036 10.7434C22.7445 11.1021 22.268 11.2997 21.7603 11.2997ZM21.7603 7.88012C21.3545 7.88012 20.9726 8.0382 20.6853 8.3251C20.0929 8.9179 20.0929 9.88196 20.6853 10.4748C21.2599 11.0489 22.2612 11.0489 22.835 10.4748C23.1222 10.1879 23.2803 9.80596 23.2803 9.39974C23.2803 8.9939 23.1222 8.612 22.835 8.3251C22.5481 8.0382 22.1662 7.88012 21.7603 7.88012Z" fill="#111633"/>
<path d="M15.58 17.1001C14.7417 17.1001 14.06 16.4183 14.06 15.5801C14.06 14.7418 14.7417 14.0601 15.58 14.0601C16.4183 14.0601 17.1 14.7418 17.1 15.5801C17.1 16.4183 16.4183 17.1001 15.58 17.1001ZM15.58 14.4401C14.9515 14.4401 14.44 14.9515 14.44 15.5801C14.44 16.2086 14.9515 16.7201 15.58 16.7201C16.2085 16.7201 16.72 16.2086 16.72 15.5801C16.72 14.9515 16.2085 14.4401 15.58 14.4401Z" fill="#111633"/>
<path d="M15.58 8.74006C14.5323 8.74006 13.68 7.88772 13.68 6.84006C13.68 5.7924 14.5323 4.94006 15.58 4.94006C16.6277 4.94006 17.48 5.7924 17.48 6.84006C17.48 7.88772 16.6277 8.74006 15.58 8.74006ZM15.58 5.32006C14.7417 5.32006 14.06 6.00178 14.06 6.84006C14.06 7.67834 14.7417 8.36006 15.58 8.36006C16.4183 8.36006 17.1 7.67834 17.1 6.84006C17.1 6.00178 16.4183 5.32006 15.58 5.32006Z" fill="#111633"/>
<path d="M9.39966 11.2997C8.89198 11.2997 8.41508 11.1021 8.05636 10.7434C7.69764 10.3847 7.49966 9.90742 7.49966 9.39974C7.49966 8.89244 7.69764 8.41516 8.05636 8.05644C8.41508 7.69772 8.89198 7.50012 9.39966 7.50012C9.90734 7.50012 10.3846 7.69772 10.7433 8.05644C11.484 8.79706 11.484 10.0028 10.7433 10.7434C10.3846 11.1021 9.90734 11.2997 9.39966 11.2997ZM9.39966 7.88012C8.99382 7.88012 8.61192 8.0382 8.32502 8.3251C8.03774 8.612 7.87966 8.9939 7.87966 9.39974C7.87966 9.80596 8.03774 10.1875 8.32502 10.4748C8.89882 11.0489 9.9005 11.0489 10.4747 10.4748C11.0671 9.88196 11.0671 8.9179 10.4747 8.3251C10.1878 8.0382 9.80588 7.88012 9.39966 7.88012Z" fill="#111633"/>
<path d="M6.83997 17.4801C5.79231 17.4801 4.93997 16.6277 4.93997 15.5801C4.93997 14.5324 5.79231 13.6801 6.83997 13.6801C7.88763 13.6801 8.73997 14.5324 8.73997 15.5801C8.73997 16.6277 7.88763 17.4801 6.83997 17.4801ZM6.83997 14.0601C6.00169 14.0601 5.31997 14.7418 5.31997 15.5801C5.31997 16.4183 6.00169 17.1001 6.83997 17.1001C7.67825 17.1001 8.35997 16.4183 8.35997 15.5801C8.35997 14.7418 7.67825 14.0601 6.83997 14.0601Z" fill="#111633"/>
<path d="M9.39966 23.66C8.89198 23.66 8.41508 23.4624 8.05636 23.1037C7.69764 22.7449 7.49966 22.2677 7.49966 21.7604C7.49966 21.2531 7.69764 20.7758 8.05636 20.4167C8.41508 20.058 8.89198 19.8604 9.39966 19.8604C9.90734 19.8604 10.3846 20.058 10.7433 20.4167C11.484 21.1573 11.484 22.363 10.7433 23.1037C10.3846 23.4624 9.90734 23.66 9.39966 23.66ZM9.39966 20.2404C8.99382 20.2404 8.61192 20.3984 8.32502 20.6853C8.03774 20.9722 7.87966 21.3541 7.87966 21.7604C7.87966 22.1662 8.03774 22.5481 8.32502 22.835C8.61192 23.1219 8.99382 23.28 9.39966 23.28C9.8055 23.28 10.1874 23.1219 10.4747 22.835C11.0671 22.2422 11.0671 21.2781 10.4747 20.6853C10.1878 20.3984 9.80588 20.2404 9.39966 20.2404ZM8.19088 20.5512H8.19468H8.19088Z" fill="#111633"/>
<path d="M14.2435 25.6713L14.1299 25.536C13.8354 25.1849 13.68 24.7643 13.68 24.32C13.68 23.2724 14.5323 22.42 15.58 22.42C16.0668 22.42 16.5311 22.607 16.8872 22.9463L17.0191 23.0717L16.8997 23.2089C16.039 24.1969 15.2171 24.9683 14.3872 25.568L14.2435 25.6713ZM15.58 22.8C14.7417 22.8 14.06 23.4818 14.06 24.32C14.06 24.6161 14.1474 24.8995 14.3142 25.1492C15.0298 24.6138 15.743 23.9419 16.4863 23.1037C16.2241 22.9068 15.9083 22.8 15.58 22.8Z" fill="#111633"/>
<path d="M30.59 33.0601H20.71C20.6503 33.0601 20.5941 33.0319 20.5584 32.9844C20.5223 32.9369 20.5112 32.875 20.5276 32.818C21.2716 30.2135 21.28 27.2001 21.28 27.1701C21.28 27.1032 21.3153 27.0412 21.3723 27.007C21.3913 26.9956 23.2837 25.8534 25.5219 23.6159C25.5576 23.5802 25.6059 23.5601 25.6564 23.5601C25.707 23.5601 25.7556 23.5802 25.791 23.6159C28.0219 25.8534 29.909 26.996 29.9276 27.007C29.985 27.0416 30.02 27.1032 30.02 27.1701C30.02 27.2001 30.0291 30.2154 30.7724 32.818C30.7887 32.8754 30.7777 32.9369 30.7416 32.9844C30.7059 33.0319 30.6496 33.0601 30.59 33.0601ZM20.9593 32.6801H30.3407C29.7232 30.3655 29.6499 27.8214 29.6411 27.2761C29.2421 27.0226 27.5846 25.9259 25.6561 24.018C23.72 25.9286 22.059 27.0234 21.6588 27.2765C21.6505 27.8221 21.5768 30.3659 20.9593 32.6801Z" fill="#111633"/>
<path d="M25.65 27.7401C24.9804 27.7401 24.3701 27.5839 24.0171 27.3228C23.9324 27.2605 23.9145 27.1416 23.9772 27.0572C24.0403 26.9728 24.1596 26.9554 24.2428 27.0177C24.529 27.2286 25.0682 27.3601 25.65 27.3601C26.2318 27.3601 26.771 27.2286 27.0571 27.0173C27.1411 26.955 27.26 26.9728 27.3227 27.0568C27.3851 27.1412 27.3672 27.2601 27.2828 27.3224C26.9298 27.5839 26.3195 27.7401 25.65 27.7401Z" fill="#111633"/>
<path d="M28.5 27.7401C27.9053 27.7401 27.3623 27.5813 27.0473 27.3153C26.9675 27.2476 26.9572 27.1276 27.0248 27.0474C27.0925 26.9672 27.2125 26.9577 27.2927 27.025C27.5371 27.2317 27.9999 27.3601 28.5 27.3601C29.0001 27.3601 29.4629 27.2317 29.7073 27.025C29.7878 26.9577 29.9075 26.9672 29.9752 27.0474C30.0432 27.1276 30.0325 27.2473 29.9527 27.3153C29.6377 27.5813 29.0947 27.7401 28.5 27.7401Z" fill="#111633"/>
<path d="M22.8 27.7401C22.2053 27.7401 21.6623 27.5813 21.3472 27.3153C21.2674 27.2476 21.2572 27.1276 21.3248 27.0474C21.3925 26.9672 21.5122 26.9577 21.5927 27.025C21.8371 27.2317 22.2999 27.3601 22.8 27.3601C23.3001 27.3601 23.7629 27.2317 24.0072 27.025C24.0882 26.9577 24.2075 26.9672 24.2751 27.0474C24.3432 27.1276 24.3325 27.2473 24.2527 27.3153C23.9377 27.5813 23.3947 27.7401 22.8 27.7401Z" fill="#111633"/>
<path d="M27.0058 32.9663C26.2618 31.6982 25.8529 30.5662 25.6443 29.8601C25.4406 30.5666 25.0374 31.6986 24.2938 32.9663L23.9658 32.774C25.148 30.7588 25.4509 29.0549 25.4539 29.0378C25.4699 28.947 25.5482 28.8805 25.6405 28.8801C25.6405 28.8801 25.6409 28.8801 25.6413 28.8801C25.7328 28.8801 25.8115 28.9455 25.8282 29.0359C25.8313 29.053 26.1508 30.7577 27.3338 32.7736L27.0058 32.9663Z" fill="#111633"/>
<path d="M25.8277 23.6739L25.4806 23.8275L26.9942 27.2475L27.3413 27.0939L25.8277 23.6739Z" fill="#111633"/>
<path d="M25.4812 23.6755L23.9569 27.0966L24.3043 27.2514L25.8287 23.8303L25.4812 23.6755Z" fill="#111633"/>
<path d="M21.0964 31.16H4.17999C3.97023 31.16 3.79999 31.3303 3.79999 31.54C3.79999 31.7498 3.97023 31.92 4.17999 31.92H20.9471C21.003 31.6651 21.052 31.4116 21.0964 31.16Z" fill="#111633"/>
<path d="M33.44 31.16H30.2035C30.248 31.4116 30.297 31.6651 30.3529 31.92H33.44C33.6498 31.92 33.82 31.7498 33.82 31.54C33.82 31.3303 33.6498 31.16 33.44 31.16Z" fill="#111633"/>
</svg>
