<svg xmlns="http://www.w3.org/2000/svg" viewBox="0 0 1440 320">
    <defs>
        <clipPath id="svgPath">
            <path fill="none" d="M0,288L30,272C60,256,120,224,180,186.7C240,149,300,107,360,80C420,53,480,43,540,74.7C600,107,660,181,720,224C780,267,840,277,900,240C960,203,1020,117,1080,106.7C1140,96,1200,160,1260,170.7C1320,181,1380,139,1410,117.3L1440,96L1440,320L1410,320C1380,320,1320,320,1260,320C1200,320,1140,320,1080,320C1020,320,960,320,900,320C840,320,780,320,720,320C660,320,600,320,540,320C480,320,420,320,360,320C300,320,240,320,180,320C120,320,60,320,30,320L0,320Z"/>
        </clipPath>
    </defs>
    <image width="100%" height="1000px" clip-path="url(#svgPath)"  xlink:href="/app/images/gradient-background.png" ></image>
</svg>