<svg xmlns="http://www.w3.org/2000/svg" version="1.1" viewBox="0 0 1200 800" width="1200" height="800">
<!--ITEM 1--><g><defs><clipPath id="clip-path-id-viewbox-item-1"><rect x="0.0" y="0.0" width="496.755" height="319.72"/></clipPath></defs><g transform="translate(352.0 240.0) rotate(0.0 248.0 159.5) scale(0.9984801360831799 0.997748029525835)"><g clip-path="url(#clip-path-id-viewbox-item-1)" transform="translate(-0.0 -0.0)"><g>
	<path style="fill:#e3ce63;" d="M472.275,309.99c-149.265,12.973-298.53,12.973-447.795,0c-4.538-0.398-9.032-4.42-9.972-8.959   c-19.344-94.114-19.344-188.228,0-282.342c0.94-4.542,5.433-8.56,9.972-8.959c149.265-12.973,298.53-12.973,447.795,0   c4.538,0.4,9.032,4.417,9.972,8.959c19.344,94.114,19.344,188.228,0,282.342C481.307,305.572,476.813,309.59,472.275,309.99z"/>
	<path style="fill:#1c2e4a;" d="M248.377,295.851c-69.334,0-139.716-2.884-209.192-8.573c-1.849-0.151-3.369-1.522-3.709-3.346   c-15.371-82.318-15.371-165.805,0.001-248.143c0.34-1.825,1.86-3.195,3.709-3.347c69.47-5.689,139.852-8.573,209.191-8.573   c69.334,0,139.716,2.884,209.192,8.573c1.849,0.152,3.369,1.522,3.709,3.346c15.372,82.317,15.371,165.804-0.001,248.143   c-0.34,1.825-1.86,3.195-3.709,3.347C388.1,292.966,317.719,295.851,248.377,295.851z M42.997,279.329   c68.231,5.501,137.316,8.291,205.38,8.291c68.072,0,137.155-2.789,205.379-8.291c14.424-79.298,14.424-159.66,0.001-238.939   c-68.231-5.501-137.316-8.291-205.38-8.291c-68.07,0-137.153,2.789-205.379,8.291C28.575,119.688,28.574,200.05,42.997,279.329z"/>
</g>
</g></g></g></svg>